<svg width="22" height="20" viewBox="0 0 22 20" fill="none" xmlns="http://www.w3.org/2000/svg">
<path fill-rule="evenodd" clip-rule="evenodd" d="M6.60001 8.94442C5.9925 8.94442 5.50001 9.417 5.50001 9.99997C5.50001 10.5829 5.9925 11.0555 6.60001 11.0555H6.61101C7.21852 11.0555 7.71101 10.5829 7.71101 9.99997C7.71101 9.417 7.21852 8.94442 6.61101 8.94442H6.60001ZM11 8.94442C10.3925 8.94442 9.90001 9.417 9.90001 9.99997C9.90001 10.5829 10.3925 11.0555 11 11.0555H11.011C11.6185 11.0555 12.111 10.5829 12.111 9.99997C12.111 9.417 11.6185 8.94442 11.011 8.94442H11ZM15.4 8.94442C14.7925 8.94442 14.3 9.417 14.3 9.99997C14.3 10.5829 14.7925 11.0555 15.4 11.0555H15.411C16.0185 11.0555 16.511 10.5829 16.511 9.99997C16.511 9.417 16.0185 8.94442 15.411 8.94442H15.4Z" fill="#F64646"/>
<path fill-rule="evenodd" clip-rule="evenodd" d="M11 0.5C5.0509 0.5 1.67276e-05 4.64011 1.67276e-05 9.99997C1.67276e-05 11.6957 0.515102 13.2835 1.40669 14.6534L0.0700546 18.0738C-0.0701835 18.4326 0.003302 18.8362 0.262038 19.1282C0.520773 19.4202 0.924101 19.5546 1.31574 19.4794L6.1875 18.5445C7.70469 19.1792 9.34409 19.5051 11.0019 19.4999C16.9502 19.4991 22 15.3593 22 9.99997C22 4.64011 16.9491 0.5 11 0.5ZM11 2.6111C6.01513 2.6111 2.20002 6.03297 2.20002 9.99997C2.20002 11.4263 2.68214 12.764 3.53006 13.9048C3.74262 14.1908 3.793 14.5595 3.66448 14.8884L2.82485 17.0369L6.10378 16.4076C6.33576 16.3631 6.57651 16.3915 6.79032 16.4887C8.10478 17.086 9.54186 17.3936 10.9963 17.3888L11 17.3888C15.9849 17.3888 19.8 13.967 19.8 9.99997C19.8 6.03297 15.9849 2.6111 11 2.6111Z" fill="#F64646"/>
</svg>
