<svg width="24" height="21" viewBox="0 0 24 21" fill="none" xmlns="http://www.w3.org/2000/svg">
<path d="M2 0.5C0.89543 0.5 0 1.39543 0 2.5V16.8636C0 18.8727 1.62727 20.5 3.63636 20.5H20C22.0091 20.5 23.6364 18.8727 23.6364 16.8636V8.86364C23.6364 7.75907 22.7409 6.86364 21.6364 6.86364H18.1818V2.5C18.1818 1.39543 17.2864 0.5 16.1818 0.5H2ZM1.81818 3.31818C1.81818 2.7659 2.2659 2.31818 2.81818 2.31818H15.3636C15.9159 2.31818 16.3636 2.7659 16.3636 3.31818V16.8636C16.3636 17.5273 16.5636 18.1455 16.8755 18.6818H3.63636C2.55455 18.6818 1.81818 17.9455 1.81818 16.8636V3.31818ZM4.63636 4.13636C4.08408 4.13636 3.63636 4.58408 3.63636 5.13636V7.68182C3.63636 8.2341 4.08408 8.68182 4.63636 8.68182H13.5455C14.0977 8.68182 14.5455 8.2341 14.5455 7.68182V5.13636C14.5455 4.58408 14.0977 4.13636 13.5455 4.13636H4.63636ZM5.45455 6.40909C5.45455 6.15805 5.65805 5.95455 5.90909 5.95455H12.2727C12.5238 5.95455 12.7273 6.15805 12.7273 6.40909C12.7273 6.66013 12.5238 6.86364 12.2727 6.86364H5.90909C5.65805 6.86364 5.45455 6.66013 5.45455 6.40909ZM18.1818 8.68182H20.8182C21.3705 8.68182 21.8182 9.12953 21.8182 9.68182V16.8636C21.8182 17.9455 21.0818 18.6818 20 18.6818C18.9182 18.6818 18.1818 17.9455 18.1818 16.8636V8.68182ZM4.54545 9.59091C4.04338 9.59091 3.63636 9.99792 3.63636 10.5C3.63636 11.0021 4.04338 11.4091 4.54545 11.4091H7.27273C7.7748 11.4091 8.18182 11.0021 8.18182 10.5C8.18182 9.99792 7.7748 9.59091 7.27273 9.59091H4.54545ZM10.9091 9.59091C10.407 9.59091 10 9.99792 10 10.5C10 11.0021 10.407 11.4091 10.9091 11.4091H13.6364C14.1384 11.4091 14.5455 11.0021 14.5455 10.5C14.5455 9.99792 14.1384 9.59091 13.6364 9.59091H10.9091ZM4.54545 12.3182C4.04338 12.3182 3.63636 12.7252 3.63636 13.2273C3.63636 13.7294 4.04338 14.1364 4.54545 14.1364H7.27273C7.7748 14.1364 8.18182 13.7294 8.18182 13.2273C8.18182 12.7252 7.7748 12.3182 7.27273 12.3182H4.54545ZM10.9091 12.3182C10.407 12.3182 10 12.7252 10 13.2273C10 13.7294 10.407 14.1364 10.9091 14.1364H13.6364C14.1384 14.1364 14.5455 13.7294 14.5455 13.2273C14.5455 12.7252 14.1384 12.3182 13.6364 12.3182H10.9091ZM4.54545 15.0455C4.04338 15.0455 3.63636 15.4525 3.63636 15.9545C3.63636 16.4566 4.04338 16.8636 4.54545 16.8636H7.27273C7.77481 16.8636 8.18182 16.4566 8.18182 15.9545C8.18182 15.4525 7.7748 15.0455 7.27273 15.0455H4.54545ZM10.9091 15.0455C10.407 15.0455 10 15.4525 10 15.9545C10 16.4566 10.407 16.8636 10.9091 16.8636H13.6364C14.1384 16.8636 14.5455 16.4566 14.5455 15.9545C14.5455 15.4525 14.1384 15.0455 13.6364 15.0455H10.9091Z" fill="#F64646"/>
</svg>
