<svg width="20" height="21" viewBox="0 0 20 21" fill="none" xmlns="http://www.w3.org/2000/svg">
<path fill-rule="evenodd" clip-rule="evenodd" d="M14.3257 13.3989L19.7057 18.7789C19.8948 18.9681 20.001 19.2247 20.0009 19.4922C20.0008 19.7597 19.8945 20.0163 19.7052 20.2054C19.516 20.3945 19.2594 20.5006 18.9919 20.5006C18.7244 20.5005 18.4678 20.3941 18.2787 20.2049L12.8987 14.8249C11.2905 16.0705 9.26802 16.6567 7.24287 16.4642C5.21772 16.2717 3.34198 15.3149 1.99723 13.7885C0.652477 12.2621 -0.0602651 10.2807 0.00399633 8.24741C0.0682577 6.21415 0.904695 4.28173 2.34315 2.84327C3.7816 1.40482 5.71402 0.56838 7.74729 0.504118C9.78056 0.439857 11.7619 1.1526 13.2884 2.49735C14.8148 3.8421 15.7716 5.71784 15.9641 7.74299C16.1566 9.76814 15.5704 11.7906 14.3247 13.3989H14.3257ZM8.00074 14.4999C9.59204 14.4999 11.1182 13.8677 12.2434 12.7425C13.3686 11.6173 14.0007 10.0912 14.0007 8.49987C14.0007 6.90857 13.3686 5.38244 12.2434 4.25723C11.1182 3.13201 9.59204 2.49987 8.00074 2.49987C6.40944 2.49987 4.88332 3.13201 3.7581 4.25723C2.63289 5.38244 2.00074 6.90857 2.00074 8.49987C2.00074 10.0912 2.63289 11.6173 3.7581 12.7425C4.88332 13.8677 6.40944 14.4999 8.00074 14.4999Z" fill="#F64646"/>
</svg>
