<svg width="32" height="26" viewBox="0 0 32 26" fill="none" xmlns="http://www.w3.org/2000/svg">
<path d="M28 1H7C5.3455 1 4 2.3455 4 4V10.5C4 11.0523 4.44772 11.5 5 11.5H6C6.55228 11.5 7 11.0523 7 10.5V7L16.6 14.2C16.8597 14.3945 17.1755 14.4996 17.5 14.4996C17.8245 14.4996 18.1403 14.3945 18.4 14.2L28 7V20.5H17C16.4477 20.5 16 20.9477 16 21.5V22.5C16 23.0523 16.4477 23.5 17 23.5H28C29.6545 23.5 31 22.1545 31 20.5V4C31 2.3455 29.6545 1 28 1ZM17.5 11.125L7.999 4H27.001L17.5 11.125Z" fill="#F64646" stroke="white" stroke-width="0.9"/>
<path d="M1 14C1 13.4477 1.44772 13 2 13H10.5C11.0523 13 11.5 13.4477 11.5 14V15C11.5 15.5523 11.0523 16 10.5 16H2C1.44772 16 1 15.5523 1 15V14ZM4 18.5C4 17.9477 4.44772 17.5 5 17.5H12C12.5523 17.5 13 17.9477 13 18.5V19.5C13 20.0523 12.5523 20.5 12 20.5H5C4.44772 20.5 4 20.0523 4 19.5V18.5ZM8.5 23C8.5 22.4477 8.94772 22 9.5 22H13.5C14.0523 22 14.5 22.4477 14.5 23V24C14.5 24.5523 14.0523 25 13.5 25H9.5C8.94772 25 8.5 24.5523 8.5 24V23Z" fill="#F64646" stroke="white" stroke-width="0.9"/>
</svg>
