<svg width="24" height="24" viewBox="0 0 24 24" fill="none" xmlns="http://www.w3.org/2000/svg">
<path fill-rule="evenodd" clip-rule="evenodd" d="M2 5.125C2 3.39911 3.39911 2 5.125 2H18.875C20.6009 2 22 3.39911 22 5.125V13.7107L20.9571 12.6678L20.9434 12.6544C20.17 11.9102 19.2208 11.4539 18.1875 11.4539C17.1542 11.4539 16.205 11.9102 15.4316 12.6544L15.4179 12.6678L14.75 13.3357L11.3321 9.91783L11.3184 9.90436C10.545 9.16016 9.59579 8.70386 8.5625 8.70386C7.52921 8.70386 6.58002 9.16016 5.80662 9.90436L5.79289 9.91783L2 13.7107V5.125ZM14.0438 15.4579L16.7929 18.207C17.1834 18.5976 17.8166 18.5976 18.2071 18.207C18.5976 17.8165 18.5976 17.1833 18.2071 16.7928L16.1642 14.7499L16.8249 14.0893C17.3034 13.6313 17.7745 13.4539 18.1875 13.4539C18.6005 13.4539 19.0716 13.6313 19.5501 14.0893L22 16.5391V18.875C22 20.6009 20.6009 22 18.875 22H5.125C3.39911 22 2 20.6009 2 18.875V16.5391L7.19986 11.3393C7.6784 10.8813 8.14947 10.7039 8.5625 10.7039C8.97553 10.7039 9.44661 10.8813 9.92515 11.3393L14.042 15.4561C14.0423 15.4564 14.0426 15.4567 14.0429 15.457C14.0432 15.4573 14.0435 15.4576 14.0438 15.4579ZM24 16.1259V18.875C24 21.7055 21.7055 24 18.875 24H5.125C2.29454 24 0 21.7055 0 18.875V16.1251V16.1248V5.125C0 2.29454 2.29454 0 5.125 0H18.875C21.7055 0 24 2.29454 24 5.125V16.124C24 16.1246 24 16.1253 24 16.1259ZM16.125 5.5C15.5727 5.5 15.125 5.94772 15.125 6.5C15.125 7.05228 15.5727 7.5 16.125 7.5H16.1388C16.691 7.5 17.1388 7.05228 17.1388 6.5C17.1388 5.94772 16.691 5.5 16.1388 5.5H16.125Z" fill="#F64646"/>
</svg>
