<svg width="88" height="114" viewBox="0 0 88 114" fill="none" xmlns="http://www.w3.org/2000/svg">
<path d="M50 105.3L46 110.1L53.9 100.8L70.3 101.9L76 113L46.6 110L43.7 111.7L23.6 110.9L22.2 107.7C20.9 104.9 22.6 101.6 25.6 101L27.4 100.6L0 93.3V73L64.1 81.1" fill="#BFBFBF" fill-opacity="0.3"/>
<path d="M73.6001 82.3L83.9001 76.3V88.6L73.6001 94.6V82.3Z" fill="#E3E3E3"/>
<path d="M74.3999 81.9L84.6999 75.9V76.6L74.3999 82.6V81.9Z" fill="#A9A9A9"/>
<path d="M83.8001 71.9C83.3001 70.7 82.6001 69.6 81.7001 68.6C81.0001 67.8 80.2001 67.1 79.3001 66.6C77.8001 65.7 76.4001 65.7 75.4001 66.2L65.1001 72.2C66.1001 71.6 67.4001 71.7 69.0001 72.6C69.8001 73.1 70.6001 73.8 71.4001 74.6C72.2001 75.6 73.0001 76.7 73.5001 77.9C74.1001 79.2 74.4001 80.7 74.4001 82L84.7001 76C84.7001 74.6 84.4001 73.2 83.8001 71.9Z" fill="url(#paint0_linear)"/>
<path opacity="0.5" d="M81.6999 68.6L71.3999 74.6C72.1999 75.6 72.9999 76.7 73.4999 77.9L83.7999 71.9C83.1999 70.7 82.4999 69.5 81.6999 68.6Z" fill="url(#paint1_radial)"/>
<path d="M69.0001 72.6C72.0001 74.3 74.4001 78.5 74.4001 81.9V82.6L73.6001 82.3V94.6L64.4001 89.3V77L63.6001 76.3V75.6C63.6001 72.2 66.1001 70.8 69.0001 72.6Z" fill="#929292"/>
<path d="M42.9001 68.6V98.2L40.1001 96.5V67L42.9001 68.6Z" fill="#BEBEBE"/>
<path d="M48.5001 52.5001C50.8001 51.2001 53.0001 51.0001 54.5001 51.9001L57.3001 53.5001C55.8001 52.6001 53.7001 52.7 51.3001 54.1C46.7001 56.8 42.9001 63.3 42.9001 68.6L40.1001 67C40.1001 61.7 43.8001 55.2001 48.5001 52.5001Z" fill="#BEBEBE"/>
<path d="M51.2003 54.1C46.6003 56.8 42.8003 63.3 42.8003 68.6V98.1L59.6003 88.4V58.9C59.7003 53.6 55.9003 51.4 51.2003 54.1Z" fill="#BEBEBE"/>
<path d="M76.5 68.6V98.2L79.3 96.5V67L76.5 68.6Z" fill="#E3E3E3"/>
<path d="M70.9001 52.5001C68.6001 51.2001 66.4001 51.0001 64.9001 51.9001L62.1001 53.5001C63.6001 52.6001 65.7001 52.7 68.1001 54.1C72.7001 56.8 76.5001 63.3 76.5001 68.6L79.3001 67C79.3001 61.7 75.5001 55.2001 70.9001 52.5001Z" fill="#F4F4F4"/>
<path d="M68.1002 54.1C72.7002 56.8 76.5002 63.3 76.5002 68.6V98.1L59.7002 88.4V58.9C59.7002 53.6 63.5002 51.4 68.1002 54.1Z" fill="#BEBEBE"/>
<path d="M78.4004 71.7L76.4004 70.6L78.4004 69.4L80.5004 70.6L78.4004 71.7Z" fill="#F4F4F4"/>
<path d="M78.4004 99.4L76.4004 98.2V70.6L78.4004 71.7V99.4Z" fill="#BEBEBE"/>
<path d="M80.5004 98.2L78.4004 99.4V71.7L80.5004 70.6V98.2Z" fill="#E3E3E3"/>
<path d="M41.1 71.7L39 70.6L41.1 69.4L43.1 70.6L41.1 71.7Z" fill="#E3E3E3"/>
<path d="M41.1 99.4L39 98.2V70.6L41.1 71.7V99.4Z" fill="#BEBEBE"/>
<path d="M43.1001 98.2L41.1001 99.4V71.7L43.1001 70.6V98.2Z" fill="#F4F4F4"/>
<path d="M59.7 67.2L43 57.6L59.7 48L76.3 57.6L59.7 67.2Z" fill="#F4F4F4"/>
<path d="M59.7 96.5L43 86.9V57.6L59.7 67.2V96.5Z" fill="#BEBEBE"/>
<path d="M76.3002 86.9L59.7002 96.5V67.2L76.3002 57.6V86.9Z" fill="#E3E3E3"/>
<path d="M56.8999 79.8999V109.5L59.6999 107.9V78.2999L56.8999 79.8999Z" fill="#E3E3E3"/>
<path d="M51.3 63.8C49 62.5 46.8 62.3 45.3 63.2L42.5 64.8C44 63.9 46.1 64 48.5 65.4C53.1 68.1 56.9 74.6 56.9 79.9L59.7 78.3C59.7 73 55.9 66.5 51.3 63.8Z" fill="#E3E3E3"/>
<path d="M40.1001 99.8V70.3C40.1001 65 43.9001 62.8 48.5001 65.5C53.1001 68.2 56.9001 74.7 56.9001 80V109.5L54.9001 108.4V106.5L49.0001 103.1L40.1001 99.8Z" fill="#BEBEBE"/>
<path d="M47.7002 68.2C48.5002 68.2 49.2002 68.8 50.1002 69.4C56.5002 74.8 55.4002 82 55.3002 89.9C55.2002 95.6 55.5002 106.8 55.5002 106.8L44.7002 100.6V72.2C44.8002 69.7 45.9002 68.2 47.7002 68.2Z" fill="url(#paint2_linear)"/>
<path opacity="0.2" d="M44.8003 86.5L45.2003 86.7V89.4H45.3003V86.7L46.5003 87.4V90.1H46.6003V87.4L47.8003 88.1V90.8H47.9003V88.1L49.1003 88.8V91.5H49.2003V88.8L50.4003 89.5V92.2H50.5003V89.5L51.7003 90.2V92.9H51.8003V90.2L53.0003 90.9V93.6H53.1003V90.9L54.3003 91.6C54.3003 91.7 54.3003 92.2 54.3003 94.3H54.4003C54.4003 92.2 54.4003 91.7 54.4003 91.6L55.6003 92.3C55.6003 92.4 55.6003 92.8 55.6003 95H55.7003C55.7003 92.6 55.7003 92.3 55.7003 92.3L55.8003 92.4V92.3L55.7003 92.2V89.5L55.8003 89.6V89.5L55.7003 89.4V86.7L55.9003 86.8V86.7L55.7003 86.6V84L55.9003 84.1V84L55.7003 83.9V81.2L55.9003 81.3V81.2L55.7003 81.1C55.7003 80.3 55.7003 79.8 55.7003 79.4C55.7003 79.2 55.7003 79 55.6003 78.8C55.6003 79.9 55.6003 80.4 55.6003 81L54.4003 80.3C54.4003 79.7 54.4003 79.3 54.4003 77.6L55.5003 78.2V78.1L54.4003 77.5V74.5C54.4003 74.4 54.3003 74.4 54.3003 74.3V77.4L53.1003 76.7V72.2L53.0003 72.1V76.7L51.8003 76V71.2H51.7003V76L50.5003 75.3V70.8H50.4003V75.3L49.2003 74.6V70.4H49.1003V74.6L47.9003 73.9V70H47.8003V73.9L46.6003 73.2V69.4H46.5003V73.2L45.3003 72.5V69.9C45.3003 70 45.3003 70 45.2003 70.1V72.5L44.8003 72.3V72.4L45.2003 72.6C45.2003 74.9 45.2003 74.3 45.2003 75.4L44.8003 75.2V75.3L45.2003 75.5C45.2003 76.9 45.2003 76.3 45.2003 78.3L44.8003 78.1V78.2L45.2003 78.4C45.2003 80.7 45.2003 80.1 45.2003 81.2L44.8003 81V81.1L45.2003 81.3C45.2003 82.7 45.2003 82.1 45.2003 84.1L44.8003 83.9V84L45.2003 84.2V87L44.8003 86.5ZM54.0003 89L55.2003 89.7V92.4L54.0003 91.7V89ZM54.0003 86.1L55.2003 86.8V89.5L54.0003 88.8C54.0003 87.4 54.0003 87.6 54.0003 86.1ZM54.0003 83.3L55.2003 84V84.1V86.7L54.0003 86C54.0003 85.4 54.0003 85 54.0003 83.3ZM54.0003 80.4L55.2003 81.1V83.8L54.0003 83.1C54.0003 81.7 54.0003 81.9 54.0003 80.4ZM52.8003 88.3L54.0003 89V91.7L52.8003 91V88.3ZM52.8003 85.4L54.0003 86.1C54.0003 87.5 54.0003 87.4 54.0003 88.9L52.8003 88.2C52.8003 86.7 52.8003 86.8 52.8003 85.4ZM52.8003 82.6L54.0003 83.3C54.0003 84.2 54.0003 84.8 54.0003 86L52.8003 85.3C52.8003 84.3 52.8003 83.6 52.8003 82.6ZM52.8003 79.7L54.0003 80.4C54.0003 81.8 54.0003 81.7 54.0003 83.2L52.8003 82.5C52.8003 81 52.8003 81.2 52.8003 79.7ZM52.8003 76.9L54.0003 77.6C54.0003 78.5 54.0003 79.1 54.0003 80.3L52.8003 79.6C52.8003 78.7 52.8003 78 52.8003 76.9ZM51.5003 87.5L52.7003 88.2V91L51.5003 90.3V87.5ZM51.5003 84.7L52.7003 85.4C52.7003 86.8 52.7003 86.2 52.7003 88.2L51.5003 87.5C51.5003 85.4 51.5003 85 51.5003 84.9C51.5003 84.8 51.5003 84.8 51.5003 84.7ZM51.5003 81.8L52.7003 82.5C52.7003 83.4 52.7003 84 52.7003 85.3L51.5003 84.6C51.5003 83.1 51.5003 82.6 51.5003 82.4C51.5003 82.4 51.5003 82.4 51.5003 82.3C51.5003 82.2 51.5003 82.1 51.5003 81.8ZM51.5003 79L52.7003 79.7C52.7003 81.1 52.7003 80.5 52.7003 82.5L51.5003 81.8C51.5003 79.7 51.5003 79.3 51.5003 79.2C51.5003 79.1 51.5003 79.1 51.5003 79ZM51.5003 76.2L52.7003 76.9C52.7003 77.8 52.7003 78.4 52.7003 79.7L51.5003 79C51.5003 77.5 51.5003 77 51.5003 76.8C51.5003 76.8 51.5003 76.8 51.5003 76.7C51.5003 76.5 51.5003 76.4 51.5003 76.2ZM50.2003 86.8L51.4003 87.5V90.2L50.2003 89.5V86.8ZM50.2003 84L51.4003 84.7C51.4003 84.8 51.4003 84.8 51.4003 84.9C51.4003 85 51.4003 85.4 51.4003 87.5L50.2003 86.8C50.2003 85.3 50.2003 85.4 50.2003 84ZM50.2003 81.1L51.4003 81.8C51.4003 83.4 51.4003 82.1 51.4003 84.5L50.2003 83.8C50.2003 82.4 50.2003 82.5 50.2003 81.1ZM50.2003 78.3L51.4003 79C51.4003 79.1 51.4003 79.1 51.4003 79.2C51.4003 79.3 51.4003 79.7 51.4003 81.8L50.2003 81C50.2003 79.6 50.2003 79.7 50.2003 78.3ZM50.2003 75.4L51.4003 76.1C51.4003 77.7 51.4003 76.4 51.4003 78.8L50.2003 78.1C50.2003 76 50.2003 76.9 50.2003 75.4ZM49.0003 86.1L50.2003 86.8V89.5L49.0003 88.8V86.1ZM49.0003 83.2L50.2003 83.9C50.2003 85.3 50.2003 85.2 50.2003 86.7L49.0003 86C49.0003 84.5 49.0003 84.7 49.0003 83.2ZM49.0003 80.4L50.2003 81.1C50.2003 82.5 50.2003 82.4 50.2003 83.8L49.0003 83.1C49.0003 82.2 49.0003 81.5 49.0003 80.4ZM49.0003 77.5L50.2003 78.2C50.2003 79.6 50.2003 79.5 50.2003 81L49.0003 80.3C49.0003 78.9 49.0003 79 49.0003 77.5ZM49.0003 74.7L50.2003 75.4C50.2003 76.8 50.2003 76.7 50.2003 78.1L49.0003 77.4C49.0003 76.5 49.0003 75.8 49.0003 74.7ZM47.7003 85.4L48.9003 86.1V88.9L47.7003 88.2V85.4ZM47.7003 82.5L48.9003 83.2C48.9003 84.6 48.9003 84 48.9003 86L47.7003 85.3C47.7003 83.2 47.7003 82.8 47.7003 82.7C47.7003 82.7 47.7003 82.6 47.7003 82.5ZM47.7003 79.7L48.9003 80.4C48.9003 81.4 48.9003 82.1 48.9003 83.2L47.7003 82.5C47.7003 81.4 47.7003 80.7 47.7003 79.7ZM47.7003 76.8L48.9003 77.5C48.9003 78.9 48.9003 78.3 48.9003 80.3L47.7003 79.6C47.7003 77.5 47.7003 77.1 47.7003 77C47.7003 77 47.7003 76.9 47.7003 76.8ZM47.7003 74L48.9003 74.7C48.9003 75.7 48.9003 76.4 48.9003 77.5L47.7003 76.8C47.7003 75.8 47.7003 75 47.7003 74ZM46.5003 84.6L47.7003 85.3V88L46.5003 87.3V84.6ZM46.5003 81.8L47.7003 82.5C47.7003 82.6 47.7003 82.6 47.7003 82.7C47.7003 82.8 47.7003 83.2 47.7003 85.3L46.5003 84.6C46.5003 83.1 46.5003 83.2 46.5003 81.8ZM46.5003 78.9L47.7003 79.6C47.7003 80.6 47.7003 81.4 47.7003 82.3L46.5003 81.6C46.5003 80.6 46.5003 80.1 46.5003 78.9ZM46.5003 76.1L47.7003 76.8V79.5L46.5003 78.8C46.5003 77.4 46.5003 77.5 46.5003 76.1ZM46.5003 73.3L47.7003 74C47.7003 75 47.7003 75.8 47.7003 76.7L46.5003 76C46.5003 74.9 46.5003 74.4 46.5003 73.3ZM45.2003 83.9L46.4003 84.6V87.3L45.2003 86.6V83.9ZM45.2003 81.1L46.4003 81.8C46.4003 83.2 46.4003 83.1 46.4003 84.6L45.2003 83.9C45.2003 82.4 45.2003 82.5 45.2003 81.1ZM45.2003 78.2L46.4003 78.9C46.4003 79.2 46.4003 81.4 46.4003 81.6L45.2003 81C45.2003 79.6 45.2003 79.7 45.2003 78.2ZM45.2003 75.4L46.4003 76.1C46.4003 77.5 46.4003 77.4 46.4003 78.9L45.2003 78.2C45.2003 76.7 45.2003 76.8 45.2003 75.4ZM45.2003 72.5L46.4003 73.2C46.4003 73.5 46.4003 75.7 46.4003 75.9L45.2003 75.2C45.2003 73.9 45.2003 74 45.2003 72.5Z" fill="#595959"/>
<path d="M45.7003 67C46.0003 67 47.1003 67.3 48.7003 68.3C52.8003 70.8 55.4003 75.6 55.4003 80.4V106.6L53.9003 105.7C53.9003 105.7 53.9003 98.7 53.9003 91.8C53.9003 91.5 54.0003 91.1 54.0003 90.8C54.0003 86.1 54.0003 81.5 53.9003 79.5C53.7003 74.3 49.4003 72 49.4003 72C45.0003 69.8 44.9003 73.6 45.0003 80.7C45.1003 84.7 45.1003 94.7 44.9003 100.6L43.3003 99.7V70.5C43.3003 67.8 43.7003 67 45.7003 67Z" fill="#9A9A9A"/>
<path d="M44.7005 67.4C44.1005 68.1 43.7005 69.3 43.7005 70.7V99.9L42.0005 100.9V71.7C42.1005 69.3 43.1005 67.7 44.7005 67.4Z" fill="#A8A8A8"/>
<path d="M41.3003 100.5V71.8C41.3003 67.2 44.5003 65.4 48.5003 67.7C52.5003 70 55.7003 75.5 55.7003 80.1V108.8L54.9003 108.4V80.1C54.9003 75.8 51.9003 70.5 48.1003 68.3C47.1003 67.7 46.1003 67.4 45.3003 67.4C43.3003 67.4 42.1003 69 42.1003 71.7V100.9L41.3003 100.5Z" fill="#BEBEBE"/>
<path d="M45.3003 89.1V74.5C45.3003 72.7 46.1003 71.6 47.5003 71.6C48.1003 71.6 48.7003 71.8 49.4003 72.2C51.9003 73.6 53.9003 77.2 53.9003 80V92.3C54.1003 92.4 54.2003 92.5 54.4003 92.6V80C54.4003 77 52.3003 73.3 49.6003 71.7C47.0003 70.2 44.8003 71.4 44.8003 74.4V88.9C45.0003 89 45.1003 89.1 45.3003 89.1Z" fill="#929292"/>
<path d="M62.4002 79.8999V109.5L59.7002 107.9V78.2999L62.4002 79.8999Z" fill="#BEBEBE"/>
<path d="M68.1002 63.8C70.4002 62.5 72.6002 62.3 74.1002 63.2L76.9002 64.8C75.4002 63.9 73.3002 64 70.9002 65.4C66.3002 68.1 62.5002 74.6 62.5002 79.9L59.7002 78.3C59.7002 73 63.4002 66.5 68.1002 63.8Z" fill="#BEBEBE"/>
<path d="M79.3 99.8V70.3C79.3 65 75.5 62.8 70.9 65.5C66.3 68.2 62.5 74.7 62.5 80V109.5L64.5 108.4V106.5L70.4 103.1L79.3 99.8Z" fill="#E3E3E3"/>
<path d="M71.6003 68.2C70.8003 68.2 70.1003 68.8 69.2003 69.4C62.8003 74.8 63.9003 82 64.0003 89.9C64.1003 95.6 63.8003 106.8 63.8003 106.8L74.6003 100.6V72.2C74.6003 69.7 73.5003 68.2 71.6003 68.2Z" fill="url(#paint3_linear)"/>
<path opacity="0.8" d="M74.6004 86.4L74.2004 86.6V83.8L74.6004 83.6V83.5L74.2004 83.7C74.2004 81.7 74.2004 82.3 74.2004 80.9L74.6004 80.7V80.6L74.2004 80.8C74.2004 79.8 74.2004 80.3 74.2004 78L74.6004 77.8V77.7L74.2004 77.9C74.2004 75.9 74.2004 76.5 74.2004 75.1L74.6004 74.9V74.8L74.2004 75C74.2004 74 74.2004 74.5 74.2004 72.2L74.6004 72V71.9L74.2004 72.1V70C74.2004 69.9 74.2004 69.9 74.1004 69.8V72.4L72.9004 73.1V69.3H72.8004V73.1L71.6004 73.8V70H71.5004V73.9L70.3004 74.6V70.4H70.2004V74.6L69.0004 75.3V70.8H68.9004V75.3L67.7004 76V71.2H67.6004V76L66.4004 76.7V72.1L66.3004 72.2V76.7L65.1004 77.4V74.3C65.1004 74.4 65.0004 74.4 65.0004 74.5V77.5L63.9004 78.1V78.2L65.0004 77.6C65.0004 79.3 65.0004 79.7 65.0004 80.3L64.2004 81C64.2004 80.3 64.2004 79.8 64.2004 78.8C64.2004 79 64.1004 79.2 64.1004 79.4C64.1004 79.8 64.1004 80.3 64.1004 81.1L63.9004 81.2V81.3L64.1004 81.2V83.9L63.9004 84V84.1L64.1004 84V84.1V86.7L63.9004 86.8V86.9L64.1004 86.8V89.5L64.0004 89.6V89.7L64.1004 89.6V92.3L64.0004 92.4V92.5L64.1004 92.4C64.1004 92.4 64.1004 92.7 64.1004 95.1H64.2004C64.2004 92.9 64.2004 92.4 64.2004 92.4L65.4004 91.7C65.4004 91.8 65.4004 92.3 65.4004 94.4H65.5004C65.5004 92.3 65.5004 91.8 65.5004 91.7L66.7004 91V93.7H66.8004V91L68.0004 90.3V93H68.1004V90.3L69.3004 89.6V92.3H69.4004V89.6L70.6004 88.9V91.6H70.7004V88.9L71.9004 88.2V90.9H72.0004V88.2L73.2004 87.5V90.2H73.3004V87.5L74.5004 86.8V89.5H74.6004V86.8V86.4ZM65.3004 91.7L64.1004 92.4V89.7L65.3004 89V91.7ZM65.3004 88.9L64.1004 89.6V86.9L65.3004 86.2C65.3004 87.6 65.3004 87.4 65.3004 88.9ZM65.3004 86L64.1004 86.7V84.1V84L65.3004 83.3C65.3004 85 65.3004 85.4 65.3004 86ZM65.3004 83.2L64.1004 83.9V81.2L65.3004 80.5C65.3004 81.9 65.3004 81.7 65.3004 83.2ZM66.6004 91L65.4004 91.7V89L66.6004 88.3V91ZM66.6004 88.2L65.4004 88.9C65.4004 87.4 65.4004 87.6 65.4004 86.1L66.6004 85.4C66.6004 86.8 66.6004 86.7 66.6004 88.2ZM66.6004 85.3L65.4004 86C65.4004 84.8 65.4004 84.2 65.4004 83.3L66.6004 82.6C66.6004 83.6 66.6004 84.3 66.6004 85.3ZM66.6004 82.5L65.4004 83.2C65.4004 81.7 65.4004 81.9 65.4004 80.4L66.6004 79.7C66.6004 81.2 66.6004 81 66.6004 82.5ZM66.6004 79.6L65.4004 80.3C65.4004 79.1 65.4004 78.5 65.4004 77.6L66.6004 76.9C66.6004 78 66.6004 78.7 66.6004 79.6ZM67.9004 90.3L66.7004 91V88.2L67.9004 87.5V90.3ZM67.9004 84.9C67.9004 85 67.9004 85.4 67.9004 87.5L66.7004 88.2C66.7004 86.2 66.7004 86.8 66.7004 85.4L67.9004 84.7C67.9004 84.8 67.9004 84.8 67.9004 84.9ZM67.9004 82.3C67.9004 82.3 67.9004 82.4 67.9004 82.3C67.9004 82.6 67.9004 83.1 67.9004 84.6L66.7004 85.3C66.7004 84.1 66.7004 83.4 66.7004 82.5L67.9004 81.8C67.9004 82.1 67.9004 82.2 67.9004 82.3ZM67.9004 79.2C67.9004 79.3 67.9004 79.7 67.9004 81.8L66.7004 82.5C66.7004 80.5 66.7004 81.1 66.7004 79.7L67.9004 79C67.9004 79.1 67.9004 79.1 67.9004 79.2ZM67.9004 76.6C67.9004 76.7 67.9004 76.7 67.9004 76.6C67.9004 76.8 67.9004 77.4 67.9004 78.9L66.7004 79.6C66.7004 78.4 66.7004 77.7 66.7004 76.8L67.9004 76.1C67.9004 76.4 67.9004 76.5 67.9004 76.6ZM69.1004 89.6L67.9004 90.3V87.6L69.1004 86.9V89.6ZM69.1004 86.7L67.9004 87.4C67.9004 85.3 67.9004 84.9 67.9004 84.8C67.9004 84.8 67.9004 84.7 67.9004 84.6L69.1004 83.9C69.1004 85.4 69.1004 85.3 69.1004 86.7ZM69.1004 83.9L67.9004 84.6C67.9004 82.1 67.9004 83.4 67.9004 81.9L69.1004 81.2C69.1004 82.5 69.1004 82.4 69.1004 83.9ZM69.1004 81L67.9004 81.7C67.9004 79.6 67.9004 79.2 67.9004 79.1C67.9004 79.1 67.9004 79 67.9004 78.9L69.1004 78.2C69.1004 79.7 69.1004 79.6 69.1004 81ZM69.1004 78.2L67.9004 78.9C67.9004 76.4 67.9004 77.7 67.9004 76.2L69.1004 75.5C69.1004 76.9 69.1004 76 69.1004 78.2ZM70.4004 88.8L69.2004 89.5V86.8L70.4004 86.1V88.8ZM70.4004 86L69.2004 86.7C69.2004 85.2 69.2004 85.4 69.2004 83.9L70.4004 83.2C70.4004 84.7 70.4004 84.5 70.4004 86ZM70.4004 83.1L69.2004 83.8C69.2004 82.4 69.2004 82.5 69.2004 81.1L70.4004 80.4C70.4004 81.5 70.4004 82.2 70.4004 83.1ZM70.4004 80.3L69.2004 81C69.2004 79.5 69.2004 79.7 69.2004 78.2L70.4004 77.5C70.4004 79 70.4004 78.9 70.4004 80.3ZM70.4004 77.4L69.2004 78.1C69.2004 76.7 69.2004 76.8 69.2004 75.4L70.4004 74.7C70.4004 75.8 70.4004 76.5 70.4004 77.4ZM71.6004 88.1L70.4004 88.8V86L71.6004 85.3V88.1ZM71.6004 82.7C71.6004 82.8 71.6004 83.2 71.6004 85.3L70.4004 86C70.4004 84 70.4004 84.6 70.4004 83.2L71.6004 82.5C71.6004 82.6 71.6004 82.7 71.6004 82.7ZM71.6004 82.4L70.4004 83.1C70.4004 82.1 70.4004 81.4 70.4004 80.3L71.6004 79.6C71.6004 80.7 71.6004 81.4 71.6004 82.4ZM71.6004 77C71.6004 77.1 71.6004 77.5 71.6004 79.6L70.4004 80.3C70.4004 78.3 70.4004 78.9 70.4004 77.5L71.6004 76.8C71.6004 76.9 71.6004 77 71.6004 77ZM71.6004 76.7L70.4004 77.4C70.4004 76.4 70.4004 75.7 70.4004 74.6L71.6004 73.9C71.6004 75 71.6004 75.8 71.6004 76.7ZM72.9004 87.4L71.7004 88.1V85.4L72.9004 84.7V87.4ZM72.9004 84.5L71.7004 85.2C71.7004 83.1 71.7004 82.7 71.7004 82.6C71.7004 82.6 71.7004 82.5 71.7004 82.4L72.9004 81.7C72.9004 83.2 72.9004 83.1 72.9004 84.5ZM72.9004 81.7L71.7004 82.4C71.7004 81.4 71.7004 80.6 71.7004 79.7L72.9004 79C72.9004 80.1 72.9004 80.6 72.9004 81.7ZM72.9004 78.9L71.7004 79.6V76.9L72.9004 76.2C72.9004 77.5 72.9004 77.4 72.9004 78.9ZM72.9004 76L71.7004 76.7C71.7004 75.7 71.7004 74.9 71.7004 74L72.9004 73.3C72.9004 74.4 72.9004 74.9 72.9004 76ZM74.1004 86.7L72.9004 87.4V84.7L74.1004 84V86.7ZM74.1004 83.8L72.9004 84.5C72.9004 83 72.9004 83.2 72.9004 81.7L74.1004 81C74.1004 82.5 74.1004 82.4 74.1004 83.8ZM74.1004 81L72.9004 81.7C72.9004 81.4 72.9004 79.3 72.9004 79L74.1004 78.3C74.1004 79.7 74.1004 79.6 74.1004 81ZM74.1004 78.1L72.9004 78.8C72.9004 77.3 72.9004 77.5 72.9004 76L74.1004 75.3C74.1004 76.8 74.1004 76.7 74.1004 78.1ZM74.1004 75.3L72.9004 76C72.9004 75.7 72.9004 73.6 72.9004 73.3L74.1004 72.6C74.1004 74 74.1004 73.9 74.1004 75.3Z" fill="#595959"/>
<path d="M73.6004 67C73.3004 67 72.2004 67.3 70.6004 68.3C66.5004 70.8 63.9004 75.6 63.9004 80.4V106.6L65.4004 105.7C65.4004 105.7 65.1004 84.5 65.3004 79.3C65.5004 74.1 69.9004 71.9 69.9004 71.9C74.3004 69.7 74.4004 73.5 74.3004 80.6C74.2004 84.6 74.2004 94.6 74.4004 100.5L76.0004 99.6V70.4C76.0004 67.8 75.6004 67 73.6004 67Z" fill="#D4D4D4"/>
<path d="M74.6001 67.4C75.2001 68.1 75.6001 69.3 75.6001 70.7V99.9L77.3001 100.9V71.7C77.3001 69.3 76.3001 67.7 74.6001 67.4Z" fill="#BEBEBE"/>
<path d="M78.1002 100.5V71.8C78.1002 67.2 74.9002 65.4 70.9002 67.7C66.9002 70 63.7002 75.5 63.7002 80.1V108.8L64.5002 108.4V80.1C64.5002 75.8 67.5002 70.5 71.3002 68.3C72.3002 67.7 73.3002 67.4 74.1002 67.4C76.1002 67.4 77.3002 69 77.3002 71.7V100.9L78.1002 100.5Z" fill="#E3E3E3"/>
<path d="M69.8 71.8001C67.2 73.3001 65 77.0001 65 80.1001V106.2L65.5 105.9V80.1001C65.5 77.2001 67.5 73.7001 70 72.3001C70.7 71.9001 71.3 71.7001 71.9 71.7001C73.2 71.7001 74 72.8001 74.1 74.6001V100.9L74.6 100.6V74.5001C74.6 71.5001 72.4 70.3001 69.8 71.8001Z" fill="#A9A9A9"/>
<path d="M59.7002 82.6L57.7002 81.4L59.7002 80.2L61.7002 81.4L59.7002 82.6Z" fill="#F4F4F4"/>
<path d="M59.7002 110.2L57.7002 109V81.3999L59.7002 82.5999V110.2Z" fill="#BEBEBE"/>
<path d="M61.7002 109L59.7002 110.2V82.5999L61.7002 81.3999V109Z" fill="#E3E3E3"/>
<path opacity="0.3" d="M59.7 48L43 57.6V64.6L42.5 64.9C42.6 64.8 42.7 64.8 42.8 64.7C42.8 64.7 42.9 64.7 42.9 64.6C44.3 64 46.1 64.2 48 65.2H48.1C50.9 64.4 53.1 65.2 53.1 65.2V63.5H63.9L68.9 53.4L59.7 48Z" fill="#BEBEBE"/>
<path d="M70.2 55.9V59.9L64 63.5L64.1 59.5L70.2 55.9Z" fill="#E3E3E3"/>
<path d="M55.4002 59.5L55.3002 63.5L49.2002 59.9V55.9L55.4002 59.5Z" fill="#BEBEBE"/>
<path d="M64.1003 59.5L64.0003 63.5H55.3003L55.4003 59.5H64.1003Z" fill="#CDCDCD"/>
<path d="M70.2002 50.9001V55.9001L64.1002 59.5H55.4002L49.2002 55.9001V50.9001L55.3002 47.3H64.0002L70.2002 50.9001Z" fill="#F4F4F4"/>
<g opacity="0.3">
<path opacity="0.3" d="M59.4002 47.3H55.3002L49.2002 50.9001V55.9001L53.2002 58.2001H59.4002V47.3Z" fill="#BEBEBE"/>
</g>
<path d="M50.0996 39.9V52.8C50.0996 54.2 50.9996 55.6 52.7996 56.7C56.4996 58.9 62.5996 59 66.3996 56.8C68.2996 55.7 69.2996 54.3 69.2996 52.8V39.9H50.0996Z" fill="url(#paint4_linear)"/>
<path d="M67.1998 42.7001C62.8998 45.1001 56.0998 45.0001 51.8998 42.5001C49.8998 41.3001 48.7998 39.7001 48.7998 38.1001V38.9001C48.7998 40.5001 49.7998 42.1001 51.8998 43.3001C56.0998 45.8001 62.8998 45.9001 67.1998 43.5001C69.3998 42.3001 70.4998 40.7001 70.4998 39.0001V38.2001C70.4998 39.9001 69.3998 41.5001 67.1998 42.7001Z" fill="#ADADAD"/>
<path d="M67.7998 32.8C63.4998 30.2 56.2998 30.1 51.7998 32.6C47.2998 35.1 47.1998 39.3 51.5998 41.9C55.8998 44.5 63.0998 44.6 67.5998 42.1C71.9998 39.6 72.0998 35.4 67.7998 32.8Z" fill="#F4F4F4"/>
<path d="M67.4998 42.1C62.9998 44.6 55.8998 44.5001 51.4998 41.9001C49.3998 40.6001 48.2998 39 48.2998 37.3V38.1C48.2998 39.7 49.3998 41.4001 51.4998 42.7001C55.7998 45.3001 62.9998 45.4001 67.4998 42.9001C69.7998 41.6001 70.8998 39.9001 70.8998 38.2001V37.4001C70.9998 39.1001 69.7998 40.8 67.4998 42.1Z" fill="url(#paint5_linear)"/>
<path d="M63.1 19.4L55.6 19.6C43.2 24.7 44.4 36.4 51.9 41C52.4 41.3 52.7 41.5 53.5 41.8C57.1 43.4 62.1 43.4 65.7 41.8C66.1 41.6 66.7 41.3 67.1 41.1C67.2 41 67.3 41 67.4 40.9C67.3 41 67.2 41 67.1 41.1C69.8 39.6 73 36.6 73 31.1C73 24.1 66.1 20.6 63.1 19.4Z" fill="url(#paint6_radial)"/>
<path d="M64.3002 20C63.5002 19.5 62.8002 19 62.3002 18.3C61.4002 17.1 60.7002 15.3 60.3002 13.5C60.1002 12.7 60.0002 12.1 60.0002 11.5C60.0002 11.5 60.0002 11.5 60.0002 11.4C60.0002 11.3 60.0002 11.2 60.0002 11.1C60.0002 10.9 60.0002 10.7 60.0002 10.5C60.0002 10.5 60.0002 10.6 59.9002 10.6C59.8002 10.7 59.6002 10.7 59.5002 10.6C59.4002 10.6 59.4002 10.5 59.4002 10.5C59.4002 10.7 59.4002 10.9 59.4002 11.1C59.4002 11.2 59.4002 11.2 59.4002 11.3C59.4002 11.4 59.4002 11.5 59.4002 11.6C59.4002 12 59.3002 12.4 59.2002 12.9V13C59.2002 13.1 59.2002 13.2 59.1002 13.3C58.7002 15.2 57.9002 17 57.0002 18.3C56.5002 19 55.9002 19.5 55.2002 19.9C53.9002 20.6 53.3002 21.6 53.2002 22.5C53.2002 23.5 53.8002 24.5 55.0002 25.2C57.5002 26.7 61.6002 26.7 64.2002 25.3C65.5002 24.5 66.2002 23.5 66.2002 22.5C66.1002 21.6 65.5002 20.7 64.3002 20Z" fill="url(#paint7_radial)"/>
<path d="M59.8002 10.4C59.7002 10.3 59.5002 10.3 59.4002 10.4C59.3002 10.5 59.3002 10.6 59.4002 10.6C59.5002 10.7 59.7002 10.7 59.8002 10.6C59.9002 10.6 59.9002 10.5 59.8002 10.4Z" fill="#E8E8E8"/>
<path d="M43.7002 99.6L54.0002 93.6V105.9L43.7002 111.9V99.6Z" fill="#E3E3E3"/>
<path d="M44.5 99.2L54.8 93.2V93.9L44.5 99.9V99.2Z" fill="#A9A9A9"/>
<path d="M53.8001 89.0999C53.3001 87.8999 52.6001 86.8 51.7001 85.8C51.0001 85 50.2001 84.3 49.3001 83.8C47.8001 82.9 46.4001 82.9 45.4001 83.4L35.1001 89.4C36.1001 88.8 37.4001 88.9 39.0001 89.8C39.8001 90.3 40.6001 91 41.4001 91.8C42.2001 92.8 43.0001 93.8999 43.5001 95.0999C44.1001 96.3999 44.4001 97.8999 44.4001 99.1999L54.7001 93.1999C54.8001 91.8999 54.4001 90.4999 53.8001 89.0999Z" fill="url(#paint8_linear)"/>
<path opacity="0.5" d="M51.8 85.7999L41.5 91.7999C42.3 92.7999 43.1 93.8999 43.6 95.0999L53.9 89.0999C53.3 87.8999 52.6 86.7999 51.8 85.7999Z" fill="url(#paint9_radial)"/>
<path d="M39.1002 89.8C42.1002 91.5 44.5002 95.7 44.5002 99.1V99.8L43.7002 99.5V111.8L34.5002 106.5V94.2L33.7002 93.5V92.8C33.7002 89.5 36.1002 88.1 39.1002 89.8Z" fill="#BEBEBE"/>
<path d="M39.1002 89.8C42.1002 91.5 44.5002 95.7 44.5002 99.1V99.8L43.7002 99.5L34.5002 94.2L33.7002 93.5V92.8C33.7002 89.5 36.1002 88.1 39.1002 89.8Z" fill="#929292"/>
<path d="M60.6001 11.6C60.6001 12.1 60.2001 12.6 59.6001 12.6C59.1001 12.6 58.6001 12.2 58.6001 11.6C58.6001 11.1 59.0001 10.6 59.6001 10.6C60.2001 10.6 60.6001 11.1 60.6001 11.6Z" fill="url(#paint10_radial)"/>
<path d="M59.6998 11.1L59.2998 10.9V7.79999L59.6998 7.99999V11.1Z" fill="#929292"/>
<path d="M58.9 7.59998L58.5 7.39998V6.59998L58.9 6.79998V7.59998Z" fill="#929292"/>
<path d="M59.6998 7.39998L59.2998 7.19998V3.59998L59.6998 3.89998V7.39998Z" fill="#929292"/>
<path d="M60.1002 3.09998L59.7002 2.89998L62.0002 1.59998L62.3002 1.79998L60.1002 3.09998Z" fill="#D8D8D8"/>
<path d="M59.6998 3.3L59.2998 3.1V2L59.6998 2.2V3.3Z" fill="#929292"/>
<path d="M60.1002 1.40001L59.7002 1.20001L60.5002 0.700012L60.9002 0.900012L60.1002 1.40001Z" fill="#D8D8D8"/>
<path d="M57.4 4.59998L57 4.39998L59.3 3.09998L59.7 3.29998L57.4 4.59998Z" fill="#D8D8D8"/>
<path d="M57.4 5.20002L57 4.90002V4.40002L57.4 4.60002V5.20002Z" fill="#929292"/>
<path d="M58.8 2.70002L58.5 2.40002V1.90002L58.8 2.10002V2.70002Z" fill="#929292"/>
<path d="M58.8 2.10002L58.5 1.90002L59.3 1.40002L59.7 1.70002L58.8 2.10002Z" fill="#D8D8D8"/>
<path d="M60.0999 0.200012V1.40001L60.8999 0.900012V1.50001L60.0999 1.90001V3.10001L62.2999 1.80001L62.3999 2.30001L60.0999 3.60001V7.60001L60.7999 7.90001V8.70001L60.0999 8.30001V10.9L59.6999 11.1V8.00001L58.8999 7.60001V6.80001L59.6999 7.30001V3.90001L57.3999 5.20001V4.60001L59.6999 3.30001V2.20001L58.7999 2.70001V2.10001L59.6999 1.70001V0.500012L60.0999 0.200012Z" fill="#A9A9A9"/>
<path d="M59.6998 1.69999L59.2998 1.39999V0.299988L59.6998 0.499988V1.69999Z" fill="#929292"/>
<path d="M59.6998 0.5L59.2998 0.3L59.6998 0L60.0998 0.2L59.6998 0.5Z" fill="#D8D8D8"/>
<path d="M77.1 101.9L65.5 95.2001V105.9L77.1 112.6V101.9Z" fill="#BEBEBE"/>
<path d="M69.9 87.6C71.1 86.9 72.2 86.8001 73 87.3001L84.6 94C83.8 93.5 82.7 93.6001 81.5 94.3001C79.1 95.7001 77.1 99.1 77.1 101.9L65.5 95.2C65.5 92.4 67.4 89 69.9 87.6Z" fill="url(#paint11_linear)"/>
<path opacity="0.6" d="M73 87.3001C72.2 86.8001 71.1 86.9 69.9 87.6C67.5 89 65.5 92.4 65.5 95.2V105.8L77.1 112.5V101.9C77.1 99.1 79.1 95.7001 81.5 94.3001C82.7 93.6001 83.8 93.5 84.6 94L73 87.3001Z" fill="url(#paint12_radial)"/>
<path d="M81.5001 94.3001C79.1001 95.7001 77.1001 99.1001 77.1001 101.9V112.5L85.9001 107.4V96.8001C85.9001 94.0001 83.9001 92.9001 81.5001 94.3001Z" fill="#BEBEBE"/>
<path d="M84.6003 84.9001L80.8003 82.7001C81.6003 83.2001 82.1003 84.1001 82.1003 85.5001V92.5001L84.6003 93.9001C85.4003 94.4001 85.9003 95.3001 85.9003 96.7001V87.6001C85.9003 86.3001 85.4003 85.4001 84.6003 84.9001Z" fill="#BEBEBE"/>
<path d="M72.2002 89.8V111L76.0002 113.2V92L72.2002 89.8Z" fill="#BEBEBE"/>
<path d="M81.6002 79.9C80.6002 79.3 79.2002 79.4 77.7002 80.3C74.7002 82 72.2002 86.3 72.2002 89.8L76.0002 92C76.0002 88.5 78.4002 84.3 81.5002 82.5C83.0002 81.6 84.4002 81.5 85.4002 82.1L81.6002 79.9Z" fill="url(#paint13_radial)"/>
<path d="M81.5 82.5001C78.5 84.2001 76 88.5001 76 92.0001V113.2L77 112.6V92.9001C77 90.1001 79 86.7001 81.4 85.2001C83.9 83.8001 85.8 84.9001 85.9 87.7001V107.4L86.9 106.8V85.6001C86.9 82.2001 84.5 80.8001 81.5 82.5001Z" fill="#E3E3E3"/>
<path d="M78.1 101.7L77 101.1V112.6L78.1 113.2V101.7Z" fill="#BEBEBE"/>
<path d="M81.5 93.3C82.8 92.6 83.9 92.5 84.7 93L85.7 93.6C84.9 93.1 83.7 93.2 82.5 93.9C80 95.3 78 98.8 78 101.7L77 101.1C77 98.2 79 94.7 81.5 93.3Z" fill="url(#paint14_radial)"/>
<path d="M82.6001 93.9C80.1001 95.3 78.1001 98.8 78.1001 101.7V113.2L87.1001 108V96.5C87.1001 93.6 85.1001 92.5 82.6001 93.9Z" fill="#E3E3E3"/>
<path d="M81.5 82.5C78.5 84.2 76 88.5 76 91.9L77.3 91.2C77.9 88.8 79.5 86.3 81.5 85.2C83.5 84.1 85.2 84.6 85.7 86.4L87 85.7C86.9 82.2 84.5 80.8 81.5 82.5Z" fill="#A9A9A9"/>
<path d="M68.1002 63.8C65.5002 65.3 63.2002 67.9 61.7002 70.9L64.5002 72.5C66.0002 69.5 68.3002 66.9 70.9002 65.4C73.2002 64.1 75.4002 63.9 76.9002 64.8L74.1002 63.2C72.5002 62.3 70.4002 62.5 68.1002 63.8Z" fill="#F4F4F4"/>
<path d="M56.6003 76.9L59.4003 75.3C58.7003 72.3 57.1003 69.3 55.1003 66.9L52.3003 68.5C54.3003 70.9 55.9003 73.9 56.6003 76.9Z" fill="#F4F4F4"/>
<path d="M85.3004 103C85.3004 101.3 84.1004 100.6 82.6004 101.5C81.1004 102.4 79.9004 104.4 79.9004 106.1V112.2L85.3004 109.1V103Z" fill="url(#paint15_linear)"/>
<path opacity="0.4" d="M82.2002 110.1L82.3002 110V101.6C82.3002 101.6 82.2002 101.6 82.2002 101.7V110.1Z" fill="#636363"/>
<path d="M85.3004 103C85.3004 101.9 84.8004 101.3 84.1004 101.1C84.4004 101.4 84.5004 101.9 84.5004 102.5V108.6L79.9004 111.3V112.2L85.3004 109.1V103Z" fill="#BEBEBE"/>
<path d="M84.6005 108.6L80.0005 111.3V112.2L85.3005 109.1L84.6005 108.6Z" fill="#F4F4F4"/>
<path d="M82.8006 106.3C82.9006 106.2 83.0006 106.3 83.0006 106.4C83.0006 106.5 82.9006 106.7 82.8006 106.7C82.7006 106.8 82.6006 106.7 82.6006 106.6C82.6006 106.6 82.7006 106.4 82.8006 106.3Z" fill="#383838"/>
<path d="M82.9006 106.7C83.0006 106.7 83.0006 106.7 82.9006 106.7H82.8006C82.7006 106.8 82.6006 106.9 82.6006 107C82.6006 107.1 82.6006 107.1 82.7006 107.1H82.8006C82.9006 107 83.0006 106.9 83.0006 106.8C83.0006 106.7 83.0006 106.7 82.9006 106.7ZM82.8006 107C82.8006 107.1 82.8006 107.1 82.8006 107C82.7006 107 82.7006 107 82.7006 106.9C82.7006 106.8 82.8006 106.7 82.8006 106.7H82.9006C82.9006 106.7 82.9006 106.7 82.9006 106.8C83.0006 106.9 82.9006 107 82.8006 107Z" fill="#414141"/>
<path d="M81.6004 107C81.7004 106.9 81.8004 107 81.8004 107.1C81.8004 107.2 81.7004 107.4 81.6004 107.4C81.5004 107.5 81.4004 107.4 81.4004 107.3C81.4004 107.2 81.5004 107.1 81.6004 107Z" fill="#383838"/>
<path d="M81.8005 107.3H81.7005C81.6005 107.4 81.5005 107.5 81.5005 107.6C81.5005 107.7 81.5005 107.7 81.6005 107.7H81.7005C81.8005 107.6 81.9005 107.5 81.9005 107.4C81.9005 107.4 81.9005 107.3 81.8005 107.3ZM81.7005 107.7C81.6005 107.7 81.6005 107.7 81.7005 107.7C81.6005 107.7 81.6005 107.7 81.6005 107.6C81.6005 107.5 81.7005 107.4 81.7005 107.4H81.8005C81.8005 107.4 81.8005 107.4 81.8005 107.5C81.8005 107.6 81.8005 107.7 81.7005 107.7Z" fill="#414141"/>
<path d="M36 101.3C36 99.6 37.2 98.9 38.7 99.8C40.2 100.7 41.4 102.7 41.4 104.4V110.5L36 107.4V101.3Z" fill="url(#paint16_linear)"/>
<path opacity="0.3" d="M39.2001 108.5L39.1001 108.4V100C39.1001 100 39.2001 100 39.2001 100.1V108.5Z" fill="#636363"/>
<path d="M36 101.3C36 100.2 36.5 99.6 37.2 99.4C36.9 99.7 36.8 100.2 36.8 100.8V106.9L41.4 109.6V110.5L36 107.4V101.3Z" fill="#9A9A9A"/>
<path d="M36.8 107L41.4 109.6V110.5L36 107.4L36.8 107Z" fill="#F4F4F4"/>
<path d="M38.5999 104.7C38.4999 104.6 38.3999 104.7 38.3999 104.8C38.3999 104.9 38.4999 105.1 38.5999 105.1C38.6999 105.2 38.7999 105.1 38.7999 105C38.7999 104.9 38.6999 104.8 38.5999 104.7Z" fill="#383838"/>
<path d="M38.2998 105.2C38.2998 105.3 38.3998 105.5 38.4998 105.5C38.5998 105.5 38.5998 105.5 38.5998 105.5L38.6998 105.4C38.6998 105.3 38.5998 105.1 38.4998 105.1C38.3998 105.1 38.3998 105.1 38.3998 105.1C38.2998 105 38.2998 105.1 38.2998 105.2ZM38.3998 105.2C38.3998 105.1 38.3998 105.1 38.3998 105.2C38.4998 105.1 38.4998 105.1 38.4998 105.1C38.5998 105.1 38.5998 105.3 38.5998 105.3V105.4H38.4998C38.3998 105.4 38.3998 105.3 38.3998 105.2Z" fill="#414141"/>
<path d="M39.7 105.4C39.6 105.3 39.5 105.4 39.5 105.5C39.5 105.6 39.6 105.8 39.7 105.8C39.8 105.9 39.9 105.8 39.9 105.7C39.9 105.6 39.8 105.4 39.7 105.4Z" fill="#383838"/>
<path d="M39.3999 105.8C39.3999 105.9 39.4999 106.1 39.5999 106.1C39.6999 106.1 39.6999 106.1 39.6999 106.1L39.7999 106C39.7999 105.9 39.6999 105.7 39.5999 105.7C39.4999 105.7 39.4999 105.7 39.4999 105.7L39.3999 105.8ZM39.4999 105.8C39.5999 105.7 39.5999 105.7 39.5999 105.7C39.6999 105.7 39.6999 105.9 39.6999 105.9V106H39.5999C39.5999 106 39.4999 105.9 39.4999 105.8Z" fill="#414141"/>
<path d="M68.6 99.8C68.6 99.2 68.1 98.4 67.6 98C67.4 97.9 67.3 97.9 67.1 97.9C66.7 97.9 66.5 98.2 66.5 98.7V104.9L68.6 106.1V99.8Z" fill="#BEBEBE"/>
<path d="M67.2998 98.1001C68.4998 98.7001 68.4998 99.7001 68.4998 99.7001V105.8L67.3998 105.2L66.7998 104.9V98.6001C66.8998 98.2001 66.9998 98.0001 67.2998 98.1001Z" fill="url(#paint17_linear)"/>
<path opacity="0.2" d="M67.9 105.6C67.9 105.6 67.8 105.5 67.9 105.6L67.8 105.3L67 104.8V104.7L67.8 105.2V103.8L67 103.3V103.2L67.8 103.7V102.3L67 101.8V101.7L67.8 102.2V100.8L67 100.3V100.2L67.8 100.7V99.3L67 98.8V98.7L67.8 99.2V98.4L67.9 98.5V99.3L68.5 99.7V99.8L67.9 99.4V100.8L68.5 101.2V101.3L67.9 100.9V102.3L68.5 102.7V102.8L67.9 102.4V103.8L68.5 104.2V104.3L67.9 103.9V105.3L68.5 105.7V105.8L67.9 105.4V105.6Z" fill="#595959"/>
<path d="M67.5999 98.1C68.0999 98.4 68.5999 99.2 68.5999 99.8V106L68.4999 105.9V99.8C68.4999 99.2 67.9999 98.5 67.5999 98.1C67.3999 98.1 67.2999 98.1 67.1999 98.1C66.8999 98.1 66.7999 98.3 66.7999 98.7V105L66.6999 104.9V98.7C66.5999 98.1 66.9999 97.8 67.5999 98.1Z" fill="#BEBEBE"/>
<path d="M67.1002 98.1C67.2002 98.1 67.2002 98.1 67.1002 98.1C67.1002 98.2 67.1002 98.3 67.1002 98.4V104.7L68.4002 105.5V106L66.7002 105V98.7C66.7002 98.3 66.9002 98.1 67.1002 98.1Z" fill="#9A9A9A"/>
<path d="M67.1002 104.7L68.5002 105.5V106L66.7002 105L67.1002 104.7Z" fill="#E3E3E3"/>
<path d="M71.9003 101.7C71.9003 101.1 71.4003 100.3 70.9003 99.9C70.7003 99.8 70.6003 99.8 70.4003 99.8C70.0003 99.8 69.8003 100.1 69.8003 100.6V106.8L71.9003 108V101.7Z" fill="#BEBEBE"/>
<path d="M70.6001 100C71.8001 100.6 71.8001 101.6 71.8001 101.6V107.7L70.7001 107.1L70.1001 106.8V100.5C70.1001 100.1 70.3001 99.9001 70.6001 100Z" fill="url(#paint18_linear)"/>
<path opacity="0.2" d="M71.2003 107.5C71.1003 107.5 71.1003 107.4 71.2003 107.5L71.1003 107.2L70.3003 106.7V106.6L71.1003 107.1V105.7L70.3003 105.2V105.1L71.1003 105.6V104.2L70.3003 103.7V103.6L71.1003 104.1V102.7L70.3003 102.2V102.1L71.1003 102.6V101.2L70.3003 100.7V100.6L71.1003 101.1V100.3L71.2003 100.4V101.2L71.8003 101.6V101.7L71.2003 101.3V102.7L71.8003 103.1V103.2L71.2003 102.8V104.2L71.8003 104.6V104.7L71.2003 104.3V105.7L71.8003 106.1V106.2L71.2003 105.8V107.2L71.8003 107.6V107.7L71.2003 107.3V107.5Z" fill="#595959"/>
<path d="M70.9002 100C71.4002 100.3 71.9002 101.1 71.9002 101.7V107.9L71.8002 107.8V101.7C71.7002 101.1 71.3002 100.4 70.9002 100C70.7002 100 70.6002 100 70.5002 100C70.2002 100 70.1002 100.2 70.1002 100.6V106.9L70.0002 106.8V100.6C69.9002 100 70.3002 99.7 70.9002 100Z" fill="#BEBEBE"/>
<path d="M70.4005 100C70.4005 100 70.5005 100 70.4005 100C70.4005 100.1 70.4005 100.2 70.4005 100.3V106.6L71.7005 107.4V107.9L70.0005 106.9V100.6C70.0005 100.2 70.2005 100 70.4005 100Z" fill="#9A9A9A"/>
<path d="M70.4005 106.6L71.8005 107.4V107.9L70.0005 106.9L70.4005 106.6Z" fill="#E3E3E3"/>
<path d="M82.2002 96.6C82.2002 96.3 82.4002 95.8 82.7002 95.7C82.8002 95.6 82.9002 95.6 83.0002 95.6C83.2002 95.6 83.3002 95.8 83.3002 96V99.3L82.2002 100V96.6Z" fill="#E3E3E3"/>
<path d="M82.9002 95.7C82.2002 96 82.2002 96.6 82.2002 96.6V99.9L82.8002 99.6L83.1002 99.4V96C83.2002 95.7 83.0002 95.6 82.9002 95.7Z" fill="#D4D4D4"/>
<path d="M82.8003 95.7C82.5003 95.9 82.3003 96.3 82.3003 96.6V99.9H82.4003V96.6C82.3003 96.3 82.5003 95.9 82.8003 95.7C82.9003 95.7 83.0003 95.7 83.0003 95.7C83.1003 95.7 83.2003 95.8 83.2003 96V99.4H83.3003V96C83.3003 95.7 83.0003 95.5 82.8003 95.7Z" fill="#E3E3E3"/>
<path d="M83.0003 95.7C83.0003 95.8 83.0003 95.8 83.0003 95.9V99.3L82.3003 99.7V100L83.2003 99.5V96.1C83.2003 95.8 83.1003 95.7 83.0003 95.7Z" fill="#BEBEBE"/>
<path d="M83.0003 99.2999L82.3003 99.6999V99.8999L83.2003 99.3999L83.0003 99.2999Z" fill="#F4F4F4"/>
<path d="M80.3003 98.7999C80.3003 98.4999 80.5003 97.9999 80.8003 97.8999C80.9003 97.7999 81.0003 97.7999 81.1003 97.7999C81.3003 97.7999 81.4003 97.9999 81.4003 98.1999V100.4L80.3003 101.1V98.7999Z" fill="#E3E3E3"/>
<path d="M81.0003 97.8999C80.3003 98.1999 80.3003 98.7999 80.3003 98.7999V101L80.9003 100.7L81.2003 100.5V98.1999C81.2003 97.8999 81.1003 97.7999 81.0003 97.8999Z" fill="#D4D4D4"/>
<path d="M80.8003 97.9C80.5003 98.1 80.3003 98.5 80.3003 98.8V101.1H80.4003V98.9C80.4003 98.5 80.6003 98.1 80.8003 97.9C80.9003 97.9 81.0003 97.9 81.0003 97.9C81.1003 97.9 81.2003 98 81.2003 98.2V100.5H81.3003V98.2C81.4003 97.9 81.1003 97.7 80.8003 97.9Z" fill="#E3E3E3"/>
<path d="M81.1004 97.8999C81.1004 97.9999 81.1004 97.9999 81.1004 98.0999V100.4L80.4004 100.8V101.1L81.3004 100.6V98.2999C81.3004 97.9999 81.2004 97.8999 81.1004 97.8999Z" fill="#BEBEBE"/>
<path d="M81.1004 100.4L80.4004 100.8V101L81.3004 100.5L81.1004 100.4Z" fill="#F4F4F4"/>
<path d="M84.1001 96.6C84.1001 96.3 84.3001 95.8 84.6001 95.7C84.7001 95.6 84.8001 95.6 84.9001 95.6C85.1001 95.6 85.2001 95.8 85.2001 96V98.2L84.1001 98.9V96.6Z" fill="#E3E3E3"/>
<path d="M84.8001 95.7C84.1001 96 84.1001 96.6 84.1001 96.6V98.8L84.7001 98.5L85.0001 98.3V96C85.1001 95.7 85.0001 95.6 84.8001 95.7Z" fill="#D4D4D4"/>
<path d="M84.7002 95.7C84.4002 95.9 84.2002 96.3 84.2002 96.6V98.9H84.3002V96.7C84.2002 96.3 84.4002 95.9 84.7002 95.7C84.8002 95.7 84.9002 95.7 84.9002 95.7C85.0002 95.7 85.1002 95.8 85.1002 96V98.3H85.2002V96C85.2002 95.7 85.0002 95.5 84.7002 95.7Z" fill="#E3E3E3"/>
<path d="M84.9002 95.7C84.9002 95.8 84.9002 95.8 84.9002 95.9V98.2L84.2002 98.6V98.9L85.1002 98.4V96.1C85.1002 95.8 85.1002 95.7 84.9002 95.7Z" fill="#BEBEBE"/>
<path d="M84.9002 98.2L84.2002 98.6V98.8L85.1002 98.3L84.9002 98.2Z" fill="#F4F4F4"/>
<path d="M50 100.4C50 99.8 50.5 99 51 98.6C51.2 98.5 51.3 98.5 51.5 98.5C51.9 98.5 52.1 98.8 52.1 99.3V105.5L50 106.7V100.4Z" fill="#BEBEBE"/>
<path d="M51.3001 98.5999C50.1001 99.1999 50.1001 100.2 50.1001 100.2V106.3L51.2001 105.7L51.8001 105.4V99.0999C51.8001 98.6999 51.6001 98.4999 51.3001 98.5999Z" fill="url(#paint19_linear)"/>
<path opacity="0.8" d="M50.7001 106.1C50.8001 106.1 50.8001 106.1 50.7001 106.1L50.8001 105.8L51.6001 105.3V105.2L50.8001 105.7V104.3L51.6001 103.8V103.7L50.8001 104.2V102.8L51.6001 102.3V102.2L50.8001 102.7V101.3L51.6001 100.8V100.7L50.8001 101.2V99.8L51.6001 99.3V99.2L50.8001 99.7V98.9L50.7001 99V99.8L50.1001 100.2V100.3L50.7001 99.9V101.3L50.1001 101.7V101.8L50.7001 101.4V102.8L50.1001 103.2V103.3L50.7001 102.9V104.3L50.1001 104.7V104.8L50.7001 104.4V105.8L50.1001 106.2V106.3L50.7001 105.9V106.1Z" fill="#595959"/>
<path d="M51 98.6999C50.5 98.9999 50 99.7999 50 100.4V106.6L50.1 106.5V100.4C50.2 99.7999 50.6 99.0999 51 98.6999C51.2 98.6999 51.3 98.6999 51.4 98.6999C51.7 98.6999 51.8 98.8999 51.8 99.2999V105.6L51.9 105.5V99.2999C52 98.5999 51.6 98.3999 51 98.6999Z" fill="#BEBEBE"/>
<path d="M51.5002 98.6C51.5002 98.6 51.4002 98.6 51.5002 98.6C51.5002 98.7 51.5002 98.8 51.5002 98.9V105.2L50.2002 106V106.5L51.9002 105.5V99.2C51.9002 98.9 51.7002 98.6 51.5002 98.6Z" fill="#9A9A9A"/>
<path d="M51.5001 105.3L50.1001 106V106.5L51.9001 105.5L51.5001 105.3Z" fill="#F4F4F4"/>
<path d="M54.9003 47.7001C54.9003 47.1001 54.4003 46.3001 53.9003 45.9001C53.7003 45.8001 53.6003 45.8 53.4003 45.8C53.0003 45.8 52.8003 46.1 52.8003 46.6V52.8L54.9003 54V47.7001Z" fill="#BEBEBE"/>
<path d="M53.6001 46.0001C54.8001 46.6001 54.8001 47.6001 54.8001 47.6001V53.7001L53.7001 53.1001L53.1001 52.8001V46.5001C53.1001 46.1001 53.3001 45.9001 53.6001 46.0001Z" fill="url(#paint20_linear)"/>
<path opacity="0.2" d="M54.1002 53.5001C54.1002 53.4001 54.1002 53.4001 54.1002 53.5001L54.0002 53.2001L53.2002 52.7001V52.6001L54.0002 53.1001V51.7001L53.2002 51.2001V51.1001L54.0002 51.6001V50.2001L53.2002 49.7001V49.6001L54.0002 50.1001V48.7001L53.2002 48.2001V48.0001L54.0002 48.5001V47.1001L53.2002 46.6001V46.5001L54.0002 47.0001V46.2001L54.1002 46.3001V47.0001L54.7002 47.4001V47.5001L54.1002 47.1001V48.5001L54.7002 48.9001V49.0001L54.1002 48.6001V50.0001L54.7002 50.4001V50.5001L54.1002 50.1001V51.5001L54.7002 51.9001V52.0001L54.1002 51.6001V53.0001L54.7002 53.4001V53.5001L54.1002 53.1001V53.5001Z" fill="#595959"/>
<path d="M53.8004 46C54.3004 46.3 54.8004 47.1 54.8004 47.7V53.9L54.7004 53.8V47.7C54.7004 47.1 54.3004 46.4 53.8004 46C53.6004 46 53.5004 46 53.4004 46C53.1004 46 53.0004 46.2 53.0004 46.6V52.9L52.9004 52.8V46.6C52.9004 46 53.3004 45.7 53.8004 46Z" fill="#BEBEBE"/>
<path d="M53.4005 46C53.4005 46.1 53.4005 46.2 53.4005 46.3V52.6L54.7005 53.4V53.9L53.0005 52.9V46.6C53.0005 46.2 53.1005 46 53.4005 46Z" fill="#9A9A9A"/>
<path d="M53.4005 52.6001L54.8005 53.4001V53.9001L53.0005 52.9001L53.4005 52.6001Z" fill="#E3E3E3"/>
<path d="M64.4004 47.7001C64.4004 47.1001 64.9004 46.3001 65.4004 45.9001C65.6004 45.8001 65.7004 45.8 65.9004 45.8C66.3004 45.8 66.5004 46.1 66.5004 46.6V52.8L64.4004 54V47.7001Z" fill="#BEBEBE"/>
<path d="M65.8006 46.0001C64.6006 46.6001 64.6006 47.6001 64.6006 47.6001V53.7001L65.7006 53.1001L66.3006 52.8001V46.5001C66.2006 46.1001 66.0006 45.8001 65.8006 46.0001Z" fill="url(#paint21_linear)"/>
<path opacity="0.8" d="M65.2006 53.4001L65.3006 53.1001L66.1006 52.6001V52.5001L65.3006 53.0001V51.6001L66.1006 51.1001V51.0001L65.3006 51.5001V50.1001L66.1006 49.6001V49.5001L65.3006 50.0001V48.6001L66.1006 48.1001V48.0001L65.3006 48.5001V47.1001L66.1006 46.6001V46.5001L65.3006 47.0001V46.2001L65.2006 46.3001V47.0001L64.6006 47.4001V47.5001L65.2006 47.1001V48.5001L64.6006 48.9001V49.0001L65.2006 48.6001V50.0001L64.6006 50.4001V50.5001L65.2006 50.1001V51.5001L64.6006 51.9001V52.0001L65.2006 51.6001V53.0001L64.6006 53.4001V53.5001L65.2006 53.1001V53.4001Z" fill="#595959"/>
<path d="M65.5005 46C65.0005 46.3 64.5005 47.1 64.5005 47.7V53.9L64.6005 53.8V47.7C64.6005 47.1 65.0005 46.4 65.5005 46C65.7005 46 65.8005 46 65.9005 46C66.2005 46 66.3005 46.2 66.3005 46.6V52.9L66.4005 52.8V46.6C66.5005 46 66.0005 45.7 65.5005 46Z" fill="#BEBEBE"/>
<path d="M65.9006 46C65.9006 46.1 65.9006 46.2 65.9006 46.3V52.6L64.6006 53.4V53.9L66.3006 52.9V46.6C66.4006 46.2 66.2006 46 65.9006 46Z" fill="#9A9A9A"/>
<path d="M65.9006 52.6001L64.6006 53.4001V53.9001L66.4006 52.9001L65.9006 52.6001Z" fill="#F4F4F4"/>
<path d="M45.7002 102.8C45.7002 102.2 46.2002 101.4 46.7002 101C46.9002 100.9 47.0002 100.9 47.2002 100.9C47.6002 100.9 47.8002 101.2 47.8002 101.7V107.9L45.7002 109.1V102.8Z" fill="#BEBEBE"/>
<path d="M47.1004 101C45.9004 101.6 45.9004 102.6 45.9004 102.6V108.7L47.0004 108.1L47.6004 107.8V101.5C47.5004 101.2 47.3004 100.9 47.1004 101Z" fill="url(#paint22_linear)"/>
<path opacity="0.8" d="M46.5004 108.5C46.5004 108.5 46.6004 108.5 46.5004 108.5L46.6004 108.2L47.4004 107.7V107.6L46.6004 108.1V106.7L47.4004 106.2V106.1L46.6004 106.6V105.2L47.4004 104.7V104.6L46.6004 105.1V103.7L47.4004 103.2V103.1L46.6004 103.6V102.2L47.4004 101.7V101.6L46.6004 102.1V101.3L46.5004 101.4V102.2L45.9004 102.6V102.7L46.5004 102.3V103.7L45.9004 104.1V104.2L46.5004 103.8V105.2L45.9004 105.6V105.7L46.5004 105.3V106.7L45.9004 107.1V107.2L46.5004 106.8V108.2L45.9004 108.6V108.7L46.5004 108.3V108.5Z" fill="#595959"/>
<path d="M46.8003 101.1C46.3003 101.4 45.8003 102.2 45.8003 102.8V109L45.9003 108.9V102.8C45.9003 102.2 46.3003 101.5 46.8003 101.1C47.0003 101.1 47.1003 101.1 47.2003 101.1C47.5003 101.1 47.6003 101.3 47.6003 101.7V108L47.7003 107.9V101.7C47.8003 101.1 47.3003 100.8 46.8003 101.1Z" fill="#BEBEBE"/>
<path d="M47.2004 101.1C47.2004 101.2 47.2004 101.3 47.2004 101.4V107.7L45.9004 108.5V109L47.6004 108V101.7C47.7004 101.3 47.5004 101.1 47.2004 101.1Z" fill="#9A9A9A"/>
<path d="M47.2004 107.7L45.9004 108.5V109L47.7004 107.9L47.2004 107.7Z" fill="#F4F4F4"/>
<defs>
<linearGradient id="paint0_linear" x1="72.2331" y1="68.0539" x2="78.7794" y2="79.3926" gradientUnits="userSpaceOnUse">
<stop stop-color="#B1B1B1"/>
<stop offset="1" stop-color="#D0D0D0"/>
</linearGradient>
<radialGradient id="paint1_radial" cx="0" cy="0" r="1" gradientUnits="userSpaceOnUse" gradientTransform="translate(81.8521 80.0336) scale(34.3101)">
<stop stop-color="#EDEDED"/>
<stop offset="1" stop-color="#A6A6A6"/>
</radialGradient>
<linearGradient id="paint2_linear" x1="57.1225" y1="76.5909" x2="49.5147" y2="89.7676" gradientUnits="userSpaceOnUse">
<stop stop-color="#525252"/>
<stop offset="1" stop-color="#696969"/>
</linearGradient>
<linearGradient id="paint3_linear" x1="62.2258" y1="76.5909" x2="69.8335" y2="89.7676" gradientUnits="userSpaceOnUse">
<stop stop-color="#656565"/>
<stop offset="1" stop-color="#818181"/>
</linearGradient>
<linearGradient id="paint4_linear" x1="50.0615" y1="49.1177" x2="69.2523" y2="49.1177" gradientUnits="userSpaceOnUse">
<stop stop-color="#BEBEBE"/>
<stop offset="1" stop-color="#E3E3E3"/>
</linearGradient>
<linearGradient id="paint5_linear" x1="48.3674" y1="41.0351" x2="70.9697" y2="41.0351" gradientUnits="userSpaceOnUse">
<stop stop-color="#BEBEBE"/>
<stop offset="1" stop-color="#E3E3E3"/>
</linearGradient>
<radialGradient id="paint6_radial" cx="0" cy="0" r="1" gradientUnits="userSpaceOnUse" gradientTransform="translate(66.4586 24.6098) scale(18.913)">
<stop stop-color="#EDEDED"/>
<stop offset="1" stop-color="#A6A6A6"/>
</radialGradient>
<radialGradient id="paint7_radial" cx="0" cy="0" r="1" gradientUnits="userSpaceOnUse" gradientTransform="translate(66.4588 24.6098) scale(18.913)">
<stop stop-color="#EDEDED"/>
<stop offset="1" stop-color="#A6A6A6"/>
</radialGradient>
<linearGradient id="paint8_linear" x1="42.3196" y1="85.3246" x2="48.866" y2="96.6632" gradientUnits="userSpaceOnUse">
<stop stop-color="#B1B1B1"/>
<stop offset="1" stop-color="#D0D0D0"/>
</linearGradient>
<radialGradient id="paint9_radial" cx="0" cy="0" r="1" gradientUnits="userSpaceOnUse" gradientTransform="translate(51.9387 97.304) scale(34.3103)">
<stop stop-color="#EDEDED"/>
<stop offset="1" stop-color="#A6A6A6"/>
</radialGradient>
<radialGradient id="paint10_radial" cx="0" cy="0" r="1" gradientUnits="userSpaceOnUse" gradientTransform="translate(60.371 10.5697) scale(1.9766)">
<stop stop-color="#EDEDED"/>
<stop offset="1" stop-color="#A6A6A6"/>
</radialGradient>
<linearGradient id="paint11_linear" x1="77.2568" y1="89.7042" x2="71.9113" y2="98.963" gradientUnits="userSpaceOnUse">
<stop offset="0.3366" stop-color="#F4F4F4"/>
<stop offset="1" stop-color="#BEBEBE"/>
</linearGradient>
<radialGradient id="paint12_radial" cx="0" cy="0" r="1" gradientUnits="userSpaceOnUse" gradientTransform="translate(73.7236 111.258) scale(20.4498)">
<stop stop-color="#BEBEBE"/>
<stop offset="0.00209129" stop-color="#BEBEBE"/>
<stop offset="0.2527" stop-color="#DBDBDB"/>
<stop offset="0.5037" stop-color="#EFEFEF"/>
<stop offset="0.7533" stop-color="#FBFBFB"/>
<stop offset="1" stop-color="white"/>
</radialGradient>
<radialGradient id="paint13_radial" cx="0" cy="0" r="1" gradientUnits="userSpaceOnUse" gradientTransform="translate(86.5593 77.1842) scale(18.3639)">
<stop stop-color="#EDEDED"/>
<stop offset="1" stop-color="#A6A6A6"/>
</radialGradient>
<radialGradient id="paint14_radial" cx="0" cy="0" r="1" gradientUnits="userSpaceOnUse" gradientTransform="translate(88.9303 87.5398) scale(15.1205)">
<stop stop-color="#EDEDED"/>
<stop offset="1" stop-color="#A6A6A6"/>
</radialGradient>
<linearGradient id="paint15_linear" x1="81.558" y1="101.743" x2="83.0078" y2="109.199" gradientUnits="userSpaceOnUse">
<stop stop-color="#565656"/>
<stop offset="1" stop-color="#636363"/>
</linearGradient>
<linearGradient id="paint16_linear" x1="39.7786" y1="100.116" x2="38.3287" y2="107.572" gradientUnits="userSpaceOnUse">
<stop stop-color="#444444"/>
<stop offset="1" stop-color="#4F4F4F"/>
</linearGradient>
<linearGradient id="paint17_linear" x1="65.7905" y1="98.8182" x2="69.5111" y2="105.262" gradientUnits="userSpaceOnUse">
<stop stop-color="#525252"/>
<stop offset="1" stop-color="#626262"/>
</linearGradient>
<linearGradient id="paint18_linear" x1="69.0784" y1="100.716" x2="72.7991" y2="107.161" gradientUnits="userSpaceOnUse">
<stop stop-color="#525252"/>
<stop offset="1" stop-color="#626262"/>
</linearGradient>
<linearGradient id="paint19_linear" x1="52.8219" y1="99.3378" x2="49.1013" y2="105.782" gradientUnits="userSpaceOnUse">
<stop stop-color="#656565"/>
<stop offset="1" stop-color="#818181"/>
</linearGradient>
<linearGradient id="paint20_linear" x1="52.0619" y1="46.7017" x2="55.7825" y2="53.146" gradientUnits="userSpaceOnUse">
<stop stop-color="#525252"/>
<stop offset="1" stop-color="#626262"/>
</linearGradient>
<linearGradient id="paint21_linear" x1="67.2633" y1="46.6913" x2="63.5428" y2="53.1355" gradientUnits="userSpaceOnUse">
<stop stop-color="#656565"/>
<stop offset="1" stop-color="#818181"/>
</linearGradient>
<linearGradient id="paint22_linear" x1="48.5847" y1="101.785" x2="44.864" y2="108.229" gradientUnits="userSpaceOnUse">
<stop stop-color="#656565"/>
<stop offset="1" stop-color="#818181"/>
</linearGradient>
</defs>
</svg>
