<svg width="88" height="114" viewBox="0 0 88 114" fill="none" xmlns="http://www.w3.org/2000/svg">
<path d="M50 105.3L46 110.1L53.9 100.8L70.3 101.9L76 113L46.6 110L43.7 111.7L23.6 110.9L22.2 107.7C20.9 104.9 22.6 101.6 25.6 101L27.4 100.6L0 93.2999V72.7L64.1 80.7999" fill="black" fill-opacity="0.25"/>
<path d="M73.7 82.3L83.8999 76.3V88.6L73.7 94.5001V82.3Z" fill="#E6E2DF"/>
<path d="M74.5 81.9L84.8 75.9L84.7 76.6L74.5 82.6V81.9Z" fill="#D3A54F"/>
<path d="M83.7999 71.8C83.2999 70.6 82.5999 69.5 81.6999 68.5C80.9999 67.7 80.1999 67 79.2999 66.5C77.7999 65.6 76.3999 65.6 75.3999 66.1L65.0999 72.1C66.0999 71.5 67.3999 71.6 68.9999 72.5C69.7999 73 70.5999 73.7 71.3999 74.5C72.1999 75.5 72.9999 76.6 73.4999 77.8C74.0999 79.1 74.3999 80.6 74.3999 81.9L84.6999 75.9C84.7999 74.6 84.3999 73.2 83.7999 71.8Z" fill="url(#paint0_linear)"/>
<path opacity="0.5" d="M81.6999 68.5L71.3999 74.5C72.1999 75.5 72.9999 76.6 73.4999 77.8L83.7999 71.8C83.2999 70.6 82.5999 69.5 81.6999 68.5Z" fill="url(#paint1_radial)"/>
<path d="M69.0999 72.5001C72.0999 74.2001 74.5 78.4001 74.5 81.8001V82.5001L73.7 82.2001V94.5001L64.5 89.2001V76.9L63.7 76.2001V75.5001C63.7 72.2001 66.0999 70.8001 69.0999 72.5001Z" fill="#BF8C3A"/>
<path d="M42.9001 68.6V98.1L40.1001 96.5V67L42.9001 68.6Z" fill="#C4BCB9"/>
<path d="M48.5001 52.5C50.8001 51.2 53.0001 50.9999 54.5001 51.8999L57.3001 53.5C55.8001 52.6 53.7001 52.6999 51.3001 54.0999C46.7001 56.7999 42.9001 63.2999 42.9001 68.5999L40.1001 67C40.1001 61.7 43.9001 55.1 48.5001 52.5Z" fill="#C4BCB9"/>
<path d="M51.3002 54.0999C46.7002 56.7999 42.9001 63.2999 42.9001 68.5999V98.0999L59.7001 88.3999V58.8999C59.7001 53.4999 55.9002 51.3999 51.3002 54.0999Z" fill="#C4BCB9"/>
<path d="M76.6001 68.6V98.1L79.3001 96.5V67L76.6001 68.6Z" fill="#E6E2DF"/>
<path d="M70.9001 52.5C68.6001 51.2 66.4001 50.9999 64.9001 51.8999L62.1001 53.5C63.6001 52.6 65.7001 52.6999 68.1001 54.0999C72.7001 56.7999 76.5001 63.2999 76.5001 68.5999L79.3001 67C79.3001 61.6 75.6001 55.1 70.9001 52.5Z" fill="#F7F3EF"/>
<path d="M68.2 54.0999C72.8 56.7999 76.6 63.2999 76.6 68.5999V98.0999L59.8 88.3999V58.8999C59.7 53.4999 63.5 51.3999 68.2 54.0999Z" fill="#C4BCB9"/>
<path d="M78.5 71.7L76.5 70.4999L78.5 69.3999L80.5 70.4999L78.5 71.7Z" fill="#F7F3EF"/>
<path d="M78.5 99.3L76.5 98.2V70.5L78.5 71.7V99.3Z" fill="#C4BCB9"/>
<path d="M80.5 98.2L78.5 99.3V71.7L80.5 70.5V98.2Z" fill="#E6E2DF"/>
<path d="M41.1001 71.7L39.1001 70.4999L41.1001 69.3999L43.1001 70.4999L41.1001 71.7Z" fill="#E6E2DF"/>
<path d="M41.1001 99.3L39.1001 98.2V70.5L41.1001 71.7V99.3Z" fill="#C4BCB9"/>
<path d="M43.1001 98.2L41.1001 99.3V71.7L43.1001 70.5V98.2Z" fill="#F7F3EF"/>
<path d="M59.7001 67.2L43.1001 57.4999L59.7001 47.8999L76.4001 57.4999L59.7001 67.2Z" fill="#F7F3EF"/>
<path d="M59.7001 96.5L43.1001 86.8V57.5L59.7001 67.2V96.5Z" fill="#C4BCB9"/>
<path d="M76.4002 86.8L59.7002 96.5V67.2L76.4002 57.5V86.8Z" fill="#E6E2DF"/>
<path d="M57 79.9V109.4L59.7 107.8V78.3L57 79.9Z" fill="#E6E2DF"/>
<path d="M51.3 63.8C49 62.5 46.8 62.3 45.3 63.2L42.5 64.8C44 63.9 46.1 63.9999 48.5 65.3999C53.1 68.0999 56.9 74.5999 56.9 79.8999L59.7 78.3C59.7 73 56 66.5 51.3 63.8Z" fill="#E6E2DF"/>
<path d="M40.1001 99.7001V70.2001C40.1001 64.9001 43.9001 62.7 48.5001 65.4C53.1001 68.1 56.9001 74.6 56.9001 79.9V109.4L54.9001 108.3V106.4L49.0001 103L40.1001 99.7001Z" fill="#C4BCB9"/>
<path d="M47.8 68.1001C48.6 68.1001 49.3 68.7001 50.2 69.3001C56.6 74.7001 55.5 81.9001 55.4 89.8001C55.3 95.5001 55.6 106.7 55.6 106.7L44.8 100.5V72.1001C44.8 69.6001 45.9 68.1001 47.8 68.1001Z" fill="url(#paint2_linear)"/>
<path opacity="0.2" d="M44.8 86.5001L45.2 86.7001V89.4H45.3V86.7001L46.5 87.4V90.1H46.6V87.4L47.8 88.1V90.8H47.9V88.1L49.1 88.8V91.5001H49.2V88.8L50.4 89.5001V92.2001H50.5V89.5001L51.7 90.2001V92.9H51.8V90.2001L53 90.9V93.6H53.1V90.9L54.3 91.6C54.3 91.7 54.3 92.2 54.3 94.3H54.4C54.4 92.2 54.4 91.7 54.4 91.6L55.6 92.3C55.6 92.4 55.6 92.8001 55.6 95.0001H55.7C55.7 92.6001 55.7 92.3 55.7 92.3L55.8 92.4V92.3L55.7 92.2001V89.5001L55.8 89.6V89.5001L55.7 89.4V86.8L55.9 86.9V86.8L55.7 86.7001V84.1V84.0001L55.9 84.1V84.0001L55.7 83.9V81.2001L55.9 81.3V81.2001L55.7 81.1C55.7 80.3 55.7 79.8 55.7 79.4C55.7 79.2 55.7 79 55.6 78.8C55.6 79.9 55.6 80.4001 55.6 81.0001L54.4 80.3C54.4 79.7 54.4 79.3 54.4 77.6L55.5 78.2001V78.1L54.4 77.5001V74.5001C54.4 74.4001 54.3 74.4 54.3 74.3V77.4L53.1 76.7001V72.2001L53 72.1V76.7001L51.8 76.0001V71.2001H51.7V76.0001L50.5 75.3V70.8H50.4V75.3L49.2 74.6V70.4H49.1V74.6L47.9 73.9V70.0001H47.8V73.9L46.6 73.2001V69.4H46.5V73.2001L45.3 72.5001V69.8C45.3 69.9 45.3 69.9001 45.2 70.0001V72.4L44.8 72.2001V72.3L45.2 72.5001C45.2 74.8001 45.2 74.2 45.2 75.3L44.8 75.1V75.2001L45.2 75.4C45.2 76.8 45.2 76.2001 45.2 78.2001L44.8 78.0001V78.1L45.2 78.3C45.2 80.6 45.2 80 45.2 81.1L44.8 80.9V81.0001L45.2 81.2001C45.2 82.6001 45.2 82.0001 45.2 84.0001L44.8 83.8V83.9L45.2 84.1V86.9L44.8 86.5001ZM54.1 88.9L55.3 89.6V92.3L54.1 91.6V88.9ZM54.1 86.1L55.3 86.8V89.5001L54.1 88.8C54.1 87.4 54.1 87.5 54.1 86.1ZM54.1 83.3L55.3 84.0001V84.1V86.7001L54.1 86.0001C54.1 85.4001 54.1 85 54.1 83.3ZM54.1 80.4L55.3 81.1V83.8L54.1 83.1C54.1 81.7 54.1 81.8 54.1 80.4ZM52.8 88.2001L54 88.9V91.6L52.8 90.9V88.2001ZM52.8 85.4L54 86.1C54 87.5 54 87.4 54 88.9L52.8 88.2001C52.8 86.7001 52.8 86.8 52.8 85.4ZM52.8 82.5001L54 83.2001C54 84.1001 54 84.7 54 85.9L52.8 85.2001C52.8 84.3001 52.8 83.6001 52.8 82.5001ZM52.8 79.7001L54 80.4C54 81.8 54 81.7001 54 83.2001L52.8 82.5001C52.8 81.0001 52.8 81.1001 52.8 79.7001ZM52.8 76.8L54 77.5001C54 78.4001 54 79.0001 54 80.2001L52.8 79.5001C52.8 78.6001 52.8 77.9 52.8 76.8ZM51.6 87.5001L52.8 88.2001V91.0001L51.6 90.3V87.5001ZM51.6 84.6L52.8 85.3C52.8 86.7 52.8 86.1 52.8 88.1L51.6 87.4C51.6 85.3 51.6 84.9 51.6 84.8C51.6 84.8 51.6 84.7 51.6 84.6ZM51.6 81.8L52.8 82.5001C52.8 83.4001 52.8 84 52.8 85.3L51.6 84.6C51.6 83.1 51.6 82.6 51.6 82.4C51.6 82.4 51.6 82.4 51.6 82.3C51.6 82.2 51.6 82.1 51.6 81.8ZM51.6 79.0001L52.8 79.7001C52.8 81.1001 52.8 80.5001 52.8 82.5001L51.6 81.8C51.6 79.7 51.6 79.3001 51.6 79.2001C51.6 79.1001 51.6 79.1001 51.6 79.0001ZM51.6 76.1L52.8 76.8C52.8 77.7 52.8 78.3 52.8 79.6L51.6 78.9C51.6 77.4 51.6 76.9001 51.6 76.7001C51.6 76.7001 51.6 76.7 51.6 76.6C51.6 76.5 51.6 76.4 51.6 76.1ZM50.3 86.8L51.5 87.5001V90.2001L50.3 89.5001V86.8ZM50.3 83.9L51.5 84.6C51.5 84.7 51.5 84.7 51.5 84.8C51.5 84.9 51.5 85.3 51.5 87.4L50.3 86.7001C50.3 85.2001 50.3 85.4 50.3 83.9ZM50.3 81.1L51.5 81.8C51.5 83.4 51.5 82.1001 51.5 84.5001L50.3 83.8C50.3 82.4 50.3 82.5 50.3 81.1ZM50.3 78.2001L51.5 78.9C51.5 79 51.5 79 51.5 79.1C51.5 79.2 51.5 79.6001 51.5 81.7001L50.3 81.0001C50.3 79.5001 50.3 79.7001 50.3 78.2001ZM50.3 75.4L51.5 76.1C51.5 77.7 51.5 76.4 51.5 78.8L50.3 78.1C50.3 76 50.3 76.8 50.3 75.4ZM49 86.0001L50.2 86.7001V89.4L49 88.7001V86.0001ZM49 83.2001L50.2 83.9C50.2 85.3 50.2 85.2001 50.2 86.7001L49 86.0001C49 84.5001 49 84.6001 49 83.2001ZM49 80.3L50.2 81.0001C50.2 82.4001 50.2 82.3001 50.2 83.7001L49 83.0001C49 82.1001 49 81.4 49 80.3ZM49 77.5001L50.2 78.2001C50.2 79.6001 50.2 79.5001 50.2 81.0001L49 80.3C49 78.8 49 78.9001 49 77.5001ZM49 74.7001L50.2 75.4C50.2 76.8 50.2 76.7 50.2 78.1L49 77.4C49 76.4 49 75.8001 49 74.7001ZM47.8 85.3L49 86.0001V88.8L47.8 88.1V85.3ZM47.8 82.5001L49 83.2001C49 84.6001 49 84.0001 49 86.0001L47.8 85.3C47.8 83.2 47.8 82.8001 47.8 82.7001C47.8 82.6001 47.8 82.6001 47.8 82.5001ZM47.8 79.6L49 80.3C49 81.3 49 82 49 83.1L47.8 82.4C47.8 81.4 47.8 80.6 47.8 79.6ZM47.8 76.8L49 77.5001C49 78.9001 49 78.3 49 80.3L47.8 79.6C47.8 77.5 47.8 77.1001 47.8 77.0001C47.8 76.9001 47.8 76.9 47.8 76.8ZM47.8 73.9L49 74.6C49 75.6 49 76.3 49 77.4L47.8 76.7001C47.8 75.7001 47.8 74.9 47.8 73.9ZM46.5 84.6L47.7 85.3V88.0001L46.5 87.3V84.6ZM46.5 81.7001L47.7 82.4C47.7 82.5 47.7 82.5 47.7 82.6C47.7 82.7 47.7 83.1001 47.7 85.2001L46.5 84.5001C46.5 83.1001 46.5 83.2001 46.5 81.7001ZM46.5 78.9L47.7 79.6C47.7 80.6 47.7 81.4 47.7 82.3L46.5 81.6C46.5 80.5 46.5 80 46.5 78.9ZM46.5 76.1L47.7 76.8V79.5001L46.5 78.8C46.5 77.4 46.5 77.5 46.5 76.1ZM46.5 73.2001L47.7 73.9C47.7 74.9 47.7 75.7 47.7 76.6L46.5 75.9C46.5 74.8 46.5 74.3001 46.5 73.2001ZM45.3 83.9L46.5 84.6V87.3L45.3 86.6V83.9ZM45.3 81.0001L46.5 81.7001C46.5 83.1001 46.5 83.0001 46.5 84.5001L45.3 83.8C45.3 82.3 45.3 82.5001 45.3 81.0001ZM45.3 78.2001L46.5 78.9C46.5 79.2 46.5 81.4 46.5 81.6L45.3 80.9C45.3 79.5 45.3 79.7001 45.3 78.2001ZM45.3 75.3L46.5 76.0001C46.5 77.4001 46.5 77.3 46.5 78.8L45.3 78.1C45.3 76.6 45.3 76.8 45.3 75.3ZM45.3 72.5001L46.5 73.2001C46.5 73.5001 46.5 75.7 46.5 75.9L45.3 75.2001C45.3 73.8001 45.3 74.0001 45.3 72.5001Z" fill="#535B5B"/>
<path d="M45.8002 67C46.1002 67 47.2002 67.3 48.8002 68.3C52.9002 70.8 55.5002 75.6 55.5002 80.4V106.6L54.0002 105.7C54.0002 105.7 54.0002 98.7 54.0002 91.8C54.0002 91.5 54.1001 91.1 54.1001 90.8C54.1001 86.1 54.1002 81.5 54.0002 79.5C53.8002 74.3 49.5002 72 49.5002 72C45.1002 69.8 45.0001 73.6 45.1001 80.7C45.2001 84.7 45.2002 94.7 45.0002 100.6L43.4001 99.7V70.5C43.4001 67.8 43.8002 67 45.8002 67Z" fill="#A09897"/>
<path d="M44.8001 67.4C44.2001 68.1 43.8001 69.3001 43.8001 70.7001V99.9L42.1001 100.9V71.7001C42.1001 69.2001 43.1001 67.7 44.8001 67.4Z" fill="#AFA6A3"/>
<path d="M41.3 100.4V71.7001C41.3 67.1001 44.5 65.3 48.5 67.6C52.5 69.9 55.7 75.4001 55.7 80.0001V108.7L54.9 108.3V80.0001C54.9 75.7001 51.9 70.4001 48.1 68.2001C47.1 67.6001 46.1 67.3 45.3 67.3C43.3 67.3 42.1 68.9 42.1 71.6V100.8L41.3 100.4Z" fill="#C4BCB9"/>
<path d="M45.3 89.1001V74.5001C45.3 72.7001 46.1 71.6001 47.5 71.6001C48.1 71.6001 48.7 71.8001 49.4 72.2001C51.9 73.6001 53.9 77.2001 53.9 80.0001V92.3001C54.1 92.4001 54.2 92.5001 54.4 92.6001V80.0001C54.4 77.0001 52.3 73.3001 49.6 71.7001C47 70.2001 44.8 71.4001 44.8 74.4001V88.9001C45 89.0001 45.2 89.0001 45.3 89.1001Z" fill="#BF8C3A"/>
<path d="M62.5 79.9V109.4L59.7 107.8V78.3L62.5 79.9Z" fill="#C4BCB9"/>
<path d="M68.0999 63.8C70.3999 62.5 72.5999 62.3 74.0999 63.2L76.8999 64.8C75.3999 63.9 73.2999 63.9999 70.8999 65.3999C66.2999 68.0999 62.5 74.5999 62.5 79.8999L59.7 78.3C59.7 73 63.4999 66.5 68.0999 63.8Z" fill="#C4BCB9"/>
<path d="M79.3 99.7001V70.2001C79.3 64.9001 75.5 62.7 70.9 65.4C66.3 68.1 62.5 74.6 62.5 79.9V109.4L64.5 108.3V106.4L70.4 103L79.3 99.7001Z" fill="#E6E2DF"/>
<path d="M71.6999 68.1001C70.8999 68.1001 70.1999 68.7001 69.2999 69.3001C62.8999 74.7001 63.9999 81.9001 64.0999 89.8001C64.1999 95.5001 63.8999 106.7 63.8999 106.7L74.6999 100.5V72.1001C74.5999 69.6001 73.4999 68.1001 71.6999 68.1001Z" fill="url(#paint3_linear)"/>
<path opacity="0.8" d="M74.5999 86.4L74.1999 86.6V83.8L74.5999 83.6V83.5L74.1999 83.7C74.1999 81.7 74.1999 82.3 74.1999 80.9L74.5999 80.7V80.6L74.1999 80.8C74.1999 79.8 74.1999 80.3 74.1999 78L74.5999 77.8V77.7L74.1999 77.9C74.1999 75.9 74.1999 76.5 74.1999 75.1L74.5999 74.9V74.8L74.1999 75C74.1999 74 74.1999 74.5 74.1999 72.2L74.5999 72V71.9L74.1999 72.1V69.7C74.1999 69.6 74.1999 69.6 74.0999 69.5V72.1L72.8999 72.8V69H72.7999V72.8L71.6999 73.8V69.9H71.5999V73.8L70.3999 74.5V70.3H70.2999V74.5L69.0999 75.2V70.8H68.9999V75.3L67.7999 76V71.2H67.6999V76L66.4999 76.7V72.1L66.3999 72.2V76.7L65.1999 77.4V74.3C65.1999 74.4 65.0999 74.4 65.0999 74.5V77.5L63.9999 78.1V78.2L65.0999 77.6C65.0999 79.3 65.0999 79.7 65.0999 80.3L63.8999 81C63.8999 80.3 63.8999 79.8 63.8999 78.8C63.8999 79 63.7999 79.2 63.7999 79.4C63.7999 79.8 63.7999 80.3 63.7999 81.1L63.5999 81.2V81.3L63.7999 81.2V83.9L63.5999 84V84.1L63.7999 84V84.1V86.7L63.5999 86.8V86.9L63.7999 86.8V89.5L63.6999 89.6V89.7L63.7999 89.6V92.3L63.6999 92.4V92.5L63.7999 92.4C63.7999 92.4 63.7999 92.7 63.7999 95.1H63.8999C63.8999 92.9 63.8999 92.4 63.8999 92.4L65.0999 91.7C65.0999 91.8 65.0999 92.3 65.0999 94.4H65.1999C65.1999 92.3 65.1999 91.8 65.1999 91.7L66.3999 91V93.7H66.4999V91L67.6999 90.3V93H67.7999V90.3L68.9999 89.6V92.3H69.0999V89.6L70.2999 88.9V91.6H70.3999V88.8L71.5999 88.1V90.8H71.6999V88.1L72.8999 87.4V90.1H72.9999V87.4L74.1999 86.7V89.4H74.2999V86.7L74.5999 86.4ZM65.3999 91.7L64.1999 92.4V89.7L65.3999 89V91.7ZM65.3999 88.9L64.1999 89.6V86.8L65.3999 86.1C65.3999 87.5 65.3999 87.4 65.3999 88.9ZM65.3999 86L64.1999 86.7V84.1V84L65.3999 83.3C65.3999 85 65.3999 85.4 65.3999 86ZM65.3999 83.2L64.1999 83.9V81.2L65.3999 80.5C65.3999 81.8 65.3999 81.7 65.3999 83.2ZM66.5999 91L65.3999 91.7V89L66.5999 88.3V91ZM66.5999 88.1L65.3999 88.8C65.3999 87.3 65.3999 87.5 65.3999 86L66.5999 85.3C66.5999 86.8 66.5999 86.7 66.5999 88.1ZM66.5999 85.3L65.3999 86C65.3999 84.8 65.3999 84.2 65.3999 83.3L66.5999 82.6C66.5999 83.6 66.5999 84.3 66.5999 85.3ZM66.5999 82.4L65.3999 83.1C65.3999 81.6 65.3999 81.8 65.3999 80.3L66.5999 79.6C66.5999 81.1 66.5999 81 66.5999 82.4ZM66.5999 79.6L65.3999 80.3C65.3999 79.1 65.3999 78.5 65.3999 77.6L66.5999 76.9C66.5999 77.9 66.5999 78.6 66.5999 79.6ZM67.8999 90.2L66.6999 90.9V88.1L67.8999 87.4V90.2ZM67.8999 84.8C67.8999 84.9 67.8999 85.3 67.8999 87.4L66.6999 88.1C66.6999 86.1 66.6999 86.7 66.6999 85.3L67.8999 84.6C67.8999 84.7 67.8999 84.8 67.8999 84.8ZM67.8999 82.3C67.8999 82.6 67.8999 83.1 67.8999 84.6L66.6999 85.3C66.6999 84.1 66.6999 83.4 66.6999 82.5L67.8999 81.8C67.8999 82.1 67.8999 82.2 67.8999 82.3ZM67.8999 79.1C67.8999 79.2 67.8999 79.6 67.8999 81.7L66.6999 82.4C66.6999 80.4 66.6999 81 66.6999 79.6L67.8999 78.9C67.8999 79.1 67.8999 79.1 67.8999 79.1ZM67.8999 76.6C67.8999 76.8 67.8999 77.4 67.8999 78.9L66.6999 79.6C66.6999 78.4 66.6999 77.7 66.6999 76.8L67.8999 76.1C67.8999 76.4 67.8999 76.5 67.8999 76.6ZM69.1999 89.5L67.9999 90.2V87.5L69.1999 86.8V89.5ZM69.1999 86.7L67.9999 87.4C67.9999 85.3 67.9999 84.9 67.9999 84.8C67.9999 84.8 67.9999 84.7 67.9999 84.6L69.1999 83.9C69.1999 85.4 69.1999 85.2 69.1999 86.7ZM69.1999 83.8L67.9999 84.5C67.9999 82 67.9999 83.3 67.9999 81.8L69.1999 81.1C69.1999 82.5 69.1999 82.4 69.1999 83.8ZM69.1999 81L67.9999 81.7C67.9999 79.6 67.9999 79.2 67.9999 79.1C67.9999 79.1 67.9999 79 67.9999 78.9L69.1999 78.2C69.1999 79.7 69.1999 79.5 69.1999 81ZM69.1999 78.1L67.9999 78.8C67.9999 76.3 67.9999 77.6 67.9999 76.1L69.1999 75.4C69.1999 76.8 69.1999 76 69.1999 78.1ZM70.3999 88.8L69.1999 89.5V86.8L70.3999 86.1V88.8ZM70.3999 85.9L69.1999 86.6C69.1999 85.1 69.1999 85.3 69.1999 83.8L70.3999 83.1C70.3999 84.6 70.3999 84.5 70.3999 85.9ZM70.3999 83.1L69.1999 83.8C69.1999 82.4 69.1999 82.5 69.1999 81.1L70.3999 80.4C70.3999 81.4 70.3999 82.1 70.3999 83.1ZM70.3999 80.3L69.1999 81C69.1999 79.5 69.1999 79.7 69.1999 78.2L70.3999 77.5C70.3999 78.9 70.3999 78.8 70.3999 80.3ZM70.3999 77.4L69.1999 78.1C69.1999 76.7 69.1999 76.8 69.1999 75.4L70.3999 74.7C70.3999 75.8 70.3999 76.4 70.3999 77.4ZM71.6999 88.1L70.4999 88.8V86L71.6999 85.3V88.1ZM71.6999 82.6C71.6999 82.6 71.6999 82.7 71.6999 82.6C71.6999 82.7 71.6999 83.1 71.6999 85.2L70.4999 85.9C70.4999 83.9 70.4999 84.5 70.4999 83.1L71.6999 82.4C71.6999 82.6 71.6999 82.6 71.6999 82.6ZM71.6999 82.4L70.4999 83.1C70.4999 82.1 70.4999 81.4 70.4999 80.3L71.6999 79.6C71.6999 80.6 71.6999 81.4 71.6999 82.4ZM71.6999 76.9C71.6999 77 71.6999 77 71.6999 76.9C71.6999 77 71.6999 77.4 71.6999 79.5L70.4999 80.2C70.4999 78.2 70.4999 78.8 70.4999 77.4L71.6999 76.7C71.6999 76.9 71.6999 76.9 71.6999 76.9ZM71.6999 76.7L70.4999 77.4C70.4999 76.4 70.4999 75.7 70.4999 74.6L71.6999 73.9C71.6999 74.9 71.6999 75.7 71.6999 76.7ZM72.8999 87.3L71.6999 88V85.3L72.8999 84.6V87.3ZM72.8999 84.5L71.6999 85.2C71.6999 83.1 71.6999 82.7 71.6999 82.6C71.6999 82.6 71.6999 82.5 71.6999 82.4L72.8999 81.7C72.8999 83.2 72.8999 83.1 72.8999 84.5ZM72.8999 81.7L71.6999 82.4C71.6999 81.4 71.6999 80.6 71.6999 79.7L72.8999 79C72.8999 80 72.8999 80.5 72.8999 81.7ZM72.8999 78.8L71.6999 79.5V76.8L72.8999 76.1C72.8999 77.5 72.8999 77.4 72.8999 78.8ZM72.8999 76L71.6999 76.7C71.6999 75.7 71.6999 74.9 71.6999 74L72.8999 73.3C72.8999 74.3 72.8999 74.8 72.8999 76ZM74.1999 86.6L72.9999 87.3V84.6L74.1999 83.9V86.6ZM74.1999 83.8L72.9999 84.5C72.9999 83 72.9999 83.2 72.9999 81.7L74.1999 81C74.1999 82.5 74.1999 82.3 74.1999 83.8ZM74.1999 80.9L72.9999 81.6C72.9999 81.3 72.9999 79.2 72.9999 78.9L74.1999 78.2C74.1999 79.7 74.1999 79.5 74.1999 80.9ZM74.1999 78.1L72.9999 78.8C72.9999 77.3 72.9999 77.5 72.9999 76L74.1999 75.3C74.1999 76.8 74.1999 76.6 74.1999 78.1ZM74.1999 75.2L72.9999 75.9C72.9999 75.6 72.9999 73.5 72.9999 73.2L74.1999 72.5C74.1999 74 74.1999 73.8 74.1999 75.2Z" fill="#535B5B"/>
<path d="M73.6998 67C73.3998 67 72.2998 67.3 70.6998 68.3C66.5998 70.8 63.9998 75.6 63.9998 80.4V106.6L65.4998 105.7C65.4998 105.7 65.1997 84.5 65.3997 79.3C65.5997 74.1 69.9998 71.9 69.9998 71.9C74.3998 69.7 74.4998 73.5 74.3997 80.6C74.2997 84.6 74.2998 94.6 74.4998 100.5L76.0997 99.6V70.4C76.0997 67.8 75.6998 67 73.6998 67Z" fill="#D8D2D0"/>
<path d="M74.7 67.4C75.3 68.1 75.7 69.3001 75.7 70.7001V99.9L77.3999 100.9V71.7001C77.2999 69.2001 76.3 67.7 74.7 67.4Z" fill="#C4BCB9"/>
<path d="M78.0999 100.4V71.7001C78.0999 67.1001 74.8999 65.3 70.8999 67.6C66.8999 69.9 63.7 75.4001 63.7 80.0001V108.7L64.5 108.3V80.0001C64.5 75.7001 67.5 70.4001 71.3 68.2001C72.3 67.6001 73.2999 67.3 74.0999 67.3C76.0999 67.3 77.3 68.9 77.3 71.6V100.8L78.0999 100.4Z" fill="#E6E2DF"/>
<path d="M69.7998 71.8001C67.1998 73.3001 64.9998 77 64.9998 80.1V106.2L65.4998 105.9V80.1C65.4998 77.2 67.4998 73.7001 69.9998 72.3001C70.6998 71.9001 71.2997 71.7001 71.8997 71.7001C73.1997 71.7001 73.9997 72.8 74.0997 74.6V100.9L74.5997 100.6V74.5001C74.5997 71.5001 72.4998 70.2001 69.7998 71.8001Z" fill="#D3A54F"/>
<path d="M59.7 82.4999L57.7 81.2999L59.7 80.2L61.8 81.2999L59.7 82.4999Z" fill="#F7F3EF"/>
<path d="M59.7 110.1L57.7 109V81.2999L59.7 82.4999V110.1Z" fill="#C4BCB9"/>
<path d="M61.8 109L59.7 110.1V82.4999L61.8 81.2999V109Z" fill="#E6E2DF"/>
<path opacity="0.3" d="M59.7 47.8999L43 57.4999V64.4999L42.5 64.7999C42.6 64.6999 42.7 64.6999 42.8 64.5999C42.8 64.5999 42.9 64.5999 42.9 64.4999C44.3 63.8999 46.1 64.0999 48 65.0999H48.1C50.9 64.2999 53.1 65.0999 53.1 65.0999V63.3999H63.9L68.9 53.2999L59.7 47.8999Z" fill="#C4BCB9"/>
<path d="M70.2999 55.8999L70.1999 59.8999L64.0999 63.3999V59.3999L70.2999 55.8999Z" fill="#E6E2DF"/>
<path d="M55.3999 59.3999V63.3999L49.2 59.8999V55.8999L55.3999 59.3999Z" fill="#C4BCB9"/>
<path d="M64.0999 59.3999V63.3999H55.3999V59.3999H64.0999Z" fill="#D4CBC7"/>
<path d="M70.2 50.7999L70.3 55.8999L64.0999 59.3999H55.3999L49.2 55.8999V50.7999L55.3 47.2H64L70.2 50.7999Z" fill="#F7F3EF"/>
<g opacity="0.3">
<path opacity="0.3" d="M59.3999 47.2H55.3L49.2 50.7999V55.8999L53.2 58.2H59.3999V47.2Z" fill="#C4BCB9"/>
</g>
<path d="M50.1001 39.8V52.7001C50.1001 54.1001 51.0001 55.5 52.8001 56.6C56.5001 58.8 62.6001 58.9001 66.4001 56.7001C68.3001 55.6001 69.3001 54.2001 69.3001 52.7001V39.8H50.1001Z" fill="url(#paint4_linear)"/>
<path d="M67.2 42.7001C62.9 45.1001 56.1 45.0001 51.9 42.5001C49.9 41.3001 48.8 39.7001 48.8 38.1001V38.9001C48.8 40.5001 49.8 42.1001 51.9 43.3001C56.1 45.8001 62.9 45.9001 67.2 43.5001C69.4 42.3001 70.5 40.7001 70.5 39.0001V38.2001C70.5 39.8001 69.4 41.4001 67.2 42.7001Z" fill="#B3ABA8"/>
<path d="M67.8 32.8C63.5 30.2 56.3 30.1 51.8 32.6C47.3 35.1 47.2 39.3 51.6 41.9C55.9 44.5 63.1 44.6 67.6 42.1C72.1 39.5 72.2 35.4 67.8 32.8Z" fill="#F7F3EF"/>
<path d="M67.5999 42.0001C63.0999 44.5001 55.9999 44.4 51.5999 41.8C49.4999 40.5 48.3999 38.9001 48.3999 37.2001V38.0001C48.3999 39.6001 49.4999 41.3 51.5999 42.6C55.8999 45.2 63.0999 45.3 67.5999 42.8C69.8999 41.5 70.9999 39.8 70.9999 38.1V37.3C70.9999 39.1 69.8999 40.7001 67.5999 42.0001Z" fill="url(#paint5_linear)"/>
<path d="M63.1 19.3999L55.6 19.5999C43.2 24.6999 44.4 36.3999 51.9 40.9999C52.4 41.2999 52.7 41.4999 53.5 41.7999C57.1 43.3999 62.1 43.3999 65.7 41.7999C66.1 41.5999 66.7 41.2999 67.1 41.0999C67.2 40.9999 67.3 40.9999 67.4 40.8999C67.3 40.9999 67.2 40.9999 67.1 41.0999C69.8 39.5999 73 36.5999 73 31.0999C73 23.9999 66.1 20.4999 63.1 19.3999Z" fill="url(#paint6_radial)"/>
<path d="M64.3 19.8999C63.5 19.3999 62.8 18.9 62.3 18.2C61.4 17 60.7 15.1999 60.3 13.3999C60.1 12.5999 60 11.9999 60 11.3999C60 11.3999 60 11.3999 60 11.2999C60 11.1999 60 11.0999 60 10.9999C60 10.7999 60 10.5999 60 10.3999C60 10.3999 59.9999 10.4999 59.8999 10.4999C59.7999 10.5999 59.6 10.5999 59.5 10.4999C59.4 10.4999 59.3999 10.3999 59.3999 10.3999C59.3999 10.5999 59.3999 10.7999 59.3999 10.9999C59.3999 11.0999 59.3999 11.1 59.3999 11.2C59.3999 11.3 59.3999 11.3999 59.3999 11.4999C59.3999 11.8999 59.3 12.2999 59.2 12.7999V12.8999C59.2 12.9999 59.1999 13.1 59.0999 13.2C58.6999 15.1 57.9 16.9 57 18.2C56.5 18.9 55.9 19.3999 55.2 19.7999C53.9 20.4999 53.3 21.4999 53.2 22.3999C53.2 23.3999 53.8 24.3999 55 25.0999C57.5 26.5999 61.6 26.6 64.2 25.2C65.5 24.4 66.2 23.3999 66.2 22.3999C66.1 21.5999 65.5 20.5999 64.3 19.8999Z" fill="url(#paint7_radial)"/>
<path d="M59.9 10.4C59.8 10.3 59.6 10.3 59.5 10.4C59.4 10.5 59.4 10.6 59.5 10.6C59.6 10.7 59.8 10.7 59.9 10.6C60 10.5 60 10.4 59.9 10.4Z" fill="#FCF56C"/>
<path d="M43.8 99.5L54 93.5V105.8L43.8 111.8V99.5Z" fill="#E6E2DF"/>
<path d="M44.6001 99.1L54.8001 93.1V93.8L44.6001 99.8V99.1Z" fill="#D3A54F"/>
<path d="M53.8999 89.1C53.3999 87.9 52.7 86.8 51.8 85.8C51.1 85 50.2999 84.3 49.3999 83.8C47.8999 82.9 46.5 82.8999 45.5 83.3999L35.2 89.3999C36.2 88.7999 37.4999 88.9 39.0999 89.8C39.8999 90.3 40.7 91 41.5 91.8C42.3 92.8 43.0999 93.9 43.5999 95.1C44.1999 96.4 44.5 97.9 44.5 99.2L54.8 93.2C54.8 91.8 54.4999 90.4 53.8999 89.1Z" fill="url(#paint8_linear)"/>
<path opacity="0.5" d="M51.8 85.8L41.5 91.8C42.3 92.8 43.1 93.9 43.6 95.1L53.9 89.1C53.4 87.9 52.7 86.8 51.8 85.8Z" fill="url(#paint9_radial)"/>
<path d="M39.2 89.8001C42.2 91.5001 44.6 95.7001 44.6 99.1001V99.8001L43.8 99.5001V111.8L34.6 106.5V94.2001L33.8 93.5001V92.8001C33.8 89.4001 36.2 88.1001 39.2 89.8001Z" fill="#C4BCB9"/>
<path d="M39.2 89.8001C42.2 91.5001 44.6 95.7001 44.6 99.1001V99.8001L43.8 99.5001L34.6 94.2001L33.8 93.5001V92.8001C33.8 89.4001 36.2 88.1001 39.2 89.8001Z" fill="#BF8C3A"/>
<path d="M60.7 11.5C60.7 12 60.3 12.5 59.7 12.5C59.2 12.5 58.7 12.1 58.7 11.5C58.7 11 59.1 10.5 59.7 10.5C60.3 10.6 60.7 11 60.7 11.5Z" fill="url(#paint10_radial)"/>
<path d="M59.7 11.1L59.3 10.9V7.80005L59.7 8.00006V11.1Z" fill="#BF8C3A"/>
<path d="M58.9 7.5L58.5 7.29999V6.59998L58.9 6.79999V7.5Z" fill="#BF8C3A"/>
<path d="M59.7 7.29999L59.3 7.09998V3.59998L59.7 3.79999V7.29999Z" fill="#BF8C3A"/>
<path d="M60.2 3L59.8 2.79999L62 1.5L62.4 1.79999L60.2 3Z" fill="#F2E064"/>
<path d="M59.7 3.29993L59.3 3.09991V1.8999L59.7 2.19995V3.29993Z" fill="#BF8C3A"/>
<path d="M60.2 1.3999L59.8 1.09991L60.6 0.699951L61 0.899902L60.2 1.3999Z" fill="#F2E064"/>
<path d="M57.5001 4.59998L57.1001 4.39996L59.3001 3.09998L59.7001 3.29999L57.5001 4.59998Z" fill="#F2E064"/>
<path d="M57.5001 5.09991L57.1001 4.8999V4.3999L57.5001 4.59991V5.09991Z" fill="#BF8C3A"/>
<path d="M58.9 2.59991L58.5 2.3999V1.8999L58.9 2.09991V2.59991Z" fill="#BF8C3A"/>
<path d="M58.9 2.09991L58.5 1.8999L59.3 1.3999L59.7 1.59991L58.9 2.09991Z" fill="#F2E064"/>
<path d="M60.2 0.199951V1.3999L61 0.899902V1.3999L60.2 1.8999V2.99994L62.4 1.79993V2.29993L60.2 3.59991V7.49994L60.8 7.8999V8.59991L60.2 8.29993V10.7999L59.7 11.0999V7.99994L58.9 7.49994V6.79993L59.7 7.29993V3.79993L57.5 5.09991V4.59991L59.7 3.29993V2.19995L58.9 2.59991V2.09991L59.7 1.59991V0.499939L60.2 0.199951Z" fill="#D3A54F"/>
<path d="M59.7 1.59991L59.3 1.3999V0.199951L59.7 0.499939V1.59991Z" fill="#BF8C3A"/>
<path d="M59.7 0.5L59.3 0.200012L59.8 0L60.2 0.200012L59.7 0.5Z" fill="#F2E064"/>
<path d="M77.1 101.9L65.5 95.2V105.8L77.1 112.5V101.9Z" fill="#C4BCB9"/>
<path d="M69.9 87.4999C71.1 86.7999 72.2 86.7 73 87.2L84.6 93.8999C83.8 93.3999 82.7 93.5 81.5 94.2C79.1 95.6 77.1 98.9999 77.1 101.8L65.5 95.0999C65.5 92.3999 67.5 88.8999 69.9 87.4999Z" fill="url(#paint11_linear)"/>
<path opacity="0.6" d="M73.1001 87.2C72.3001 86.7 71.2001 86.7999 70.0001 87.4999C67.6001 88.8999 65.6001 92.2999 65.6001 95.0999V105.7L77.2001 112.4V101.8C77.2001 98.9999 79.2001 95.6 81.6001 94.2C82.8001 93.5 83.9001 93.3999 84.7001 93.8999L73.1001 87.2Z" fill="url(#paint12_radial)"/>
<path d="M81.5001 94.3C79.1001 95.7 77.1001 99.1 77.1001 101.9V112.5L85.9001 107.4V96.8C85.9001 94 84.0001 92.8 81.5001 94.3Z" fill="#C4BCB9"/>
<path d="M84.6999 84.8999L80.8999 82.7C81.6999 83.2 82.1999 84.0999 82.1999 85.4999V92.4999L84.6999 93.8999C85.4999 94.3999 85.9999 95.3 85.9999 96.7V87.5999C85.9999 86.2999 85.4999 85.2999 84.6999 84.8999Z" fill="#C4BCB9"/>
<path d="M72.2 89.7V110.9L76.0999 113.2V91.8999L72.2 89.7Z" fill="#C4BCB9"/>
<path d="M81.5999 79.8999C80.5999 79.2999 79.2 79.3999 77.7 80.2999C74.7 81.9999 72.2 86.2999 72.2 89.7999L76 91.9999C76 88.4999 78.4 84.2999 81.5 82.4999C83 81.5999 84.3999 81.4999 85.3999 82.0999L81.5999 79.8999Z" fill="url(#paint13_radial)"/>
<path d="M81.5 82.4999C78.5 84.1999 76 88.4999 76 91.9999V113.2L77 112.6V92.8999C77 90.0999 79 86.6999 81.4 85.1999C83.9 83.7999 85.8 84.8999 85.9 87.6999V107.4L86.9 106.8V85.5999C87 82.0999 84.5 80.6999 81.5 82.4999Z" fill="#E6E2DF"/>
<path d="M78.1001 101.7L77.1001 101V112.6L78.1001 113.2V101.7Z" fill="#C4BCB9"/>
<path d="M81.6001 93.1999C82.9001 92.4999 84.0001 92.3999 84.8001 92.8999L85.8001 93.4999C85.0001 92.9999 83.8001 93.0999 82.6001 93.7999C80.1001 95.1999 78.1001 98.6999 78.1001 101.6L77.1001 101C77.1001 98.1999 79.1001 94.6999 81.6001 93.1999Z" fill="url(#paint14_radial)"/>
<path d="M82.6001 93.9C80.1001 95.3 78.1001 98.8 78.1001 101.7V113.2L87.1001 108V96.5C87.2001 93.6 85.1001 92.4 82.6001 93.9Z" fill="#E6E2DF"/>
<path d="M81.5 82.5C78.5 84.2 76 88.5 76 91.9L77.3 91.2C77.9 88.8 79.5 86.3 81.5 85.2C83.5 84.1 85.2 84.6 85.7 86.4L87 85.7C87 82.1 84.5 80.7 81.5 82.5Z" fill="#D3A54F"/>
<path d="M68.0999 63.8C65.4999 65.3 63.2 67.9 61.7 70.9L64.5 72.5C66 69.5 68.2999 66.9 70.8999 65.4C73.1999 64.1 75.3999 63.9 76.8999 64.8L74.0999 63.2C72.5999 62.3 70.3999 62.4 68.0999 63.8Z" fill="#F7F3EF"/>
<path d="M56.6 76.8999L59.4 75.2999C58.7 72.2999 57.1 69.2999 55.1 66.8999L52.3 68.4999C54.3 70.8999 55.9 73.8999 56.6 76.8999Z" fill="#F7F3EF"/>
<path d="M85.4 102.9C85.4 101.2 84.2 100.5 82.7 101.4C81.2 102.3 80 104.3 80 106V112.1L85.4 109V102.9Z" fill="url(#paint15_linear)"/>
<path opacity="0.4" d="M82.2 110.1L82.3 110V101.6C82.3 101.6 82.2 101.6 82.2 101.7V110.1Z" fill="#885936"/>
<path d="M85.4 102.9C85.4 101.8 84.9 101.2 84.2 101C84.5 101.3 84.6 101.8 84.6 102.4V108.5L80 111.2V112.1L85.4 109V102.9Z" fill="#C4BCB9"/>
<path d="M84.6 108.6L80 111.2V112.1L85.4 109L84.6 108.6Z" fill="#F7F3EF"/>
<path d="M82.8001 106.3C82.9001 106.2 83.0001 106.3 83.0001 106.4C83.0001 106.5 82.9001 106.7 82.8001 106.7C82.7001 106.8 82.6001 106.7 82.6001 106.6C82.6001 106.5 82.7001 106.4 82.8001 106.3Z" fill="#3D3632"/>
<path d="M83.0002 106.6H82.9002C82.8002 106.7 82.7002 106.8 82.7002 106.9C82.7002 107 82.7002 107 82.8002 107H82.9002C83.0002 106.9 83.1002 106.8 83.1002 106.7C83.1002 106.7 83.1002 106.6 83.0002 106.6ZM82.9002 107C82.8002 107 82.8002 107 82.9002 107C82.8002 107 82.8002 107 82.8002 106.9C82.8002 106.8 82.9002 106.7 82.9002 106.7H83.0002C83.0002 106.7 83.0002 106.7 83.0002 106.8C83.0002 106.9 83.0002 107 82.9002 107Z" fill="#473F3C"/>
<path d="M81.7 107C81.8 106.9 81.9 107 81.9 107.1C81.9 107.2 81.8 107.4 81.7 107.4C81.6 107.5 81.5 107.4 81.5 107.3C81.5 107.2 81.6 107 81.7 107Z" fill="#3D3632"/>
<path d="M81.9001 107.3H81.8001C81.7001 107.4 81.6001 107.5 81.6001 107.6C81.6001 107.7 81.6001 107.7 81.7001 107.7H81.8001C81.9001 107.6 82.0001 107.5 82.0001 107.4C81.9001 107.3 81.9001 107.3 81.9001 107.3ZM81.7001 107.7C81.6001 107.7 81.6001 107.7 81.6001 107.6C81.6001 107.5 81.7001 107.4 81.7001 107.4H81.8001C81.8001 107.4 81.8001 107.4 81.8001 107.5C81.9001 107.5 81.8001 107.6 81.7001 107.7Z" fill="#473F3C"/>
<path d="M36 101.3C36 99.6 37.2 98.9 38.7 99.8C40.2 100.7 41.4 102.7 41.4 104.4V110.5L36 107.4V101.3Z" fill="url(#paint16_linear)"/>
<path opacity="0.3" d="M39.2001 108.5L39.1001 108.4V100C39.1001 100 39.2001 100 39.2001 100.1V108.5Z" fill="#885936"/>
<path d="M36 101.3C36 100.2 36.5 99.5999 37.2 99.3999C36.9 99.6999 36.8 100.2 36.8 100.8V106.9L41.4 109.6V110.5L36 107.4V101.3Z" fill="#A09897"/>
<path d="M36.8 106.9L41.4 109.6V110.5L36 107.4L36.8 106.9Z" fill="#F7F3EF"/>
<path d="M38.6001 104.7C38.5001 104.6 38.4001 104.7 38.4001 104.8C38.4001 104.9 38.5001 105.1 38.6001 105.1C38.7001 105.2 38.8002 105.1 38.8002 105C38.8002 104.9 38.7001 104.7 38.6001 104.7Z" fill="#3D3632"/>
<path d="M38.3 105.1C38.3 105.2 38.4 105.4 38.5 105.4C38.6 105.4 38.6 105.4 38.6 105.4L38.7 105.3C38.7 105.2 38.6 105 38.5 105C38.4 105 38.4 105 38.4 105C38.4 105 38.3 105.1 38.3 105.1ZM38.4 105.1C38.5 105 38.5 105 38.5 105C38.6 105 38.6 105.2 38.6 105.2V105.3H38.5C38.5 105.3 38.4 105.2 38.4 105.1Z" fill="#473F3C"/>
<path d="M39.8001 105.3C39.7001 105.2 39.6001 105.3 39.6001 105.4C39.6001 105.5 39.7001 105.7 39.8001 105.7C39.9001 105.8 40.0001 105.7 40.0001 105.6C40.0001 105.6 39.9001 105.4 39.8001 105.3Z" fill="#3D3632"/>
<path d="M39.5 105.8C39.5 105.9 39.6 106.1 39.7 106.1C39.8 106.1 39.8 106.1 39.8 106.1L39.9 106C39.9 105.9 39.8 105.7 39.7 105.7C39.6 105.7 39.6 105.7 39.6 105.7C39.5 105.7 39.5 105.7 39.5 105.8ZM39.6 105.8C39.6 105.8 39.6 105.7 39.6 105.8C39.7 105.7 39.7 105.7 39.7 105.7C39.8 105.7 39.8 105.9 39.8 105.9V106H39.7C39.6 106 39.6 105.9 39.6 105.8Z" fill="#473F3C"/>
<path d="M68.7001 99.7999C68.7001 99.1999 68.2001 98.3999 67.7001 97.9999C67.5001 97.8999 67.4001 97.8999 67.2001 97.8999C66.8001 97.8999 66.6001 98.2 66.6001 98.7V104.9L68.7001 106.1V99.7999Z" fill="#C4BCB9"/>
<path d="M67.3 98C68.5 98.6 68.5 99.5999 68.5 99.5999V105.7L67.4 105.1L66.8 104.8V98.5C66.9 98.2 67.1 97.9 67.3 98Z" fill="url(#paint17_linear)"/>
<path opacity="0.2" d="M67.9 105.5L67.8 105.2L67 104.7V104.6L67.8 105.1V103.7L67 103.2V103.1L67.8 103.6V102.2L67 101.7V101.6L67.8 102.1V100.7L67 100.2V100.1L67.8 100.6V99.2L67 98.7V98.5999L67.8 99.0999V98.2999L67.9 98.3999V99.2L68.5 99.5999V99.7L67.9 99.2999V100.7L68.5 101.1V101.2L67.9 100.8V102.2L68.5 102.6V102.7L67.9 102.3V103.7L68.5 104.1V104.2L67.9 103.8V105.2L68.5 105.6V105.7L67.9 105.3V105.5Z" fill="#535B5B"/>
<path d="M67.6002 98.0998C68.1002 98.3998 68.6002 99.1998 68.6002 99.7998V106L68.5002 105.9V99.7998C68.5002 99.1998 68.1002 98.4998 67.6002 98.0998C67.4002 98.0998 67.3002 98.0998 67.2002 98.0998C66.9002 98.0998 66.8002 98.2999 66.8002 98.6999V105L66.7002 104.9V98.6999C66.7002 97.9999 67.1002 97.7998 67.6002 98.0998Z" fill="#C4BCB9"/>
<path d="M67.2 98.0999C67.2 98.1999 67.2 98.2998 67.2 98.3998V104.7L68.5 105.5V106L66.8 105V98.6999C66.8 98.2999 66.9 98.0999 67.2 98.0999Z" fill="#A09897"/>
<path d="M67.2 104.7L68.5 105.5V106L66.8 104.9L67.2 104.7Z" fill="#E6E2DF"/>
<path d="M71.9999 101.7C71.9999 101.1 71.4999 100.3 70.9999 99.9C70.7999 99.8 70.6999 99.8 70.4999 99.8C70.0999 99.8 69.8999 100.1 69.8999 100.6V106.8L71.9999 108V101.7Z" fill="#C4BCB9"/>
<path d="M70.5999 99.9C71.7999 100.5 71.7999 101.5 71.7999 101.5V107.6L70.6999 107L70.0999 106.7V100.4C70.1999 100.1 70.3999 99.8 70.5999 99.9Z" fill="url(#paint18_linear)"/>
<path opacity="0.2" d="M71.1998 107.4L71.0998 107.1L70.2998 106.6V106.5L71.0998 107V105.6L70.2998 105.1V105L71.0998 105.5V104.1L70.2998 103.6V103.5L71.0998 104V102.6L70.2998 102.1V102L71.0998 102.5V101.1L70.2998 100.6V100.5L71.0998 101V100.2L71.1998 100.3V101.1L71.7998 101.5V101.6L71.1998 101.2V102.6L71.7998 103V103.1L71.1998 102.7V104.1L71.7998 104.5V104.6L71.1998 104.2V105.6L71.7998 106V106.1L71.1998 105.7V107.1L71.7998 107.5V107.6L71.1998 107.2V107.4Z" fill="#535B5B"/>
<path d="M70.8999 100C71.3999 100.3 71.8999 101.1 71.8999 101.7V107.9L71.7999 107.8V101.7C71.7999 101.1 71.3999 100.4 70.8999 100C70.6999 100 70.5999 100 70.4999 100C70.1999 100 70.0999 100.2 70.0999 100.6V106.9L69.9999 106.8V100.6C69.8999 99.9 70.3999 99.7 70.8999 100Z" fill="#C4BCB9"/>
<path d="M70.5 100C70.5 100.1 70.5 100.2 70.5 100.3V106.6L71.8 107.4V107.9L70.1 106.9V100.6C70 100.2 70.2 100 70.5 100Z" fill="#A09897"/>
<path d="M70.5 106.6L71.8 107.4V107.9L70 106.8L70.5 106.6Z" fill="#E6E2DF"/>
<path d="M82.2 96.6C82.2 96.3 82.4 95.8 82.7 95.7C82.8 95.6 82.9 95.6 83 95.6C83.2 95.6 83.3 95.8 83.3 96V99.3L82.2 100V96.6Z" fill="#E6E2DF"/>
<path d="M83 95.6C82.3 95.9 82.3 96.5 82.3 96.5V99.8L82.9 99.5L83.2 99.3V95.9C83.2 95.7 83.1 95.6 83 95.6Z" fill="#D8D2D0"/>
<path d="M82.8 95.7001C82.5 95.9001 82.3 96.3001 82.3 96.6001V99.9001H82.4V96.6001C82.3 96.3001 82.6 95.9001 82.8 95.7001C82.9 95.7001 83 95.7001 83 95.7001C83.1 95.7001 83.2 95.8001 83.2 96.0001V99.4001H83.3V96.0001C83.3 95.6001 83.1 95.5001 82.8 95.7001Z" fill="#E6E2DF"/>
<path d="M83 95.6C83 95.6 83 95.7 83 95.6C83 95.7 83 95.7 83 95.8V99.2L82.3 99.6V99.9L83.2 99.4V96C83.3 95.8 83.2 95.6 83 95.6Z" fill="#C4BCB9"/>
<path d="M83.1 99.2L82.3 99.5999V99.8999L83.3 99.2999L83.1 99.2Z" fill="#F7F3EF"/>
<path d="M80.3 98.8C80.3 98.5 80.5 98 80.8 97.9C80.9 97.8 81 97.8 81.1 97.8C81.3 97.8 81.4 98.0001 81.4 98.2001V100.4L80.3 101.1V98.8Z" fill="#E6E2DF"/>
<path d="M81.1001 97.8C80.4001 98.1 80.4001 98.7001 80.4001 98.7001V100.9L81.0002 100.6L81.3002 100.4V98.1C81.3002 97.9 81.2001 97.8 81.1001 97.8Z" fill="#D8D2D0"/>
<path d="M80.9001 97.9C80.6001 98.1 80.4001 98.5001 80.4001 98.8001V101.1H80.5002V98.9C80.4002 98.5 80.7001 98.1 80.9001 97.9C81.0001 97.9 81.1001 97.9 81.1001 97.9C81.2001 97.9 81.3002 98.0001 81.3002 98.2001V100.5H81.4001V98.2001C81.4001 97.8001 81.2001 97.7 80.9001 97.9Z" fill="#E6E2DF"/>
<path d="M81.1001 97.8C81.1001 97.8 81.1001 97.9 81.1001 97.8C81.1001 97.9 81.1001 97.9001 81.1001 98.0001V100.3L80.4001 100.7V101L81.3002 100.5V98.2001C81.4002 98.0001 81.3001 97.8 81.1001 97.8Z" fill="#C4BCB9"/>
<path d="M81.1001 100.3L80.4001 100.7V101L81.4001 100.5L81.1001 100.3Z" fill="#F7F3EF"/>
<path d="M84.1001 96.6C84.1001 96.3 84.3001 95.8 84.6001 95.7C84.7001 95.6 84.8001 95.6 84.9001 95.6C85.1001 95.6 85.2001 95.8 85.2001 96V98.2L84.1001 98.9V96.6Z" fill="#E6E2DF"/>
<path d="M84.9002 95.6C84.2002 95.9 84.2002 96.5 84.2002 96.5V98.7L84.8002 98.4L85.1002 98.2V95.9C85.1002 95.7 85.0002 95.6 84.9002 95.6Z" fill="#D8D2D0"/>
<path d="M84.7002 95.7001C84.4002 95.9001 84.2002 96.3001 84.2002 96.6001V98.9001H84.3002V96.7001C84.3002 96.3001 84.5002 95.9001 84.7002 95.7001C84.8002 95.7001 84.9002 95.7001 84.9002 95.7001C85.0002 95.7001 85.1002 95.8001 85.1002 96.0001V98.3001H85.2002V96.0001C85.2002 95.6001 85.0002 95.5001 84.7002 95.7001Z" fill="#E6E2DF"/>
<path d="M85 95.6C84.9 95.6 84.9 95.6 85 95.6C85 95.7 85 95.7 85 95.8V98.1L84.3 98.5V98.8L85.2 98.3V96C85.2 95.8 85.1 95.6 85 95.6Z" fill="#C4BCB9"/>
<path d="M85.0002 98.1L84.2002 98.5V98.8L85.2002 98.2L85.0002 98.1Z" fill="#F7F3EF"/>
<path d="M50 100.3C50 99.6999 50.5 98.8999 51 98.4999C51.2 98.3999 51.3 98.3999 51.5 98.3999C51.9 98.3999 52.1 98.7 52.1 99.2V105.4L50 106.6V100.3Z" fill="#C4BCB9"/>
<path d="M51.3999 98.5999C50.1999 99.1999 50.2 100.2 50.2 100.2V106.3L51.3 105.7L51.8999 105.4V99.0999C51.7999 98.6999 51.5999 98.3999 51.3999 98.5999Z" fill="url(#paint19_linear)"/>
<path opacity="0.8" d="M50.8 106L50.8999 105.7L51.7 105.2V105.1L50.8999 105.6V104.2L51.7 103.7V103.6L50.8999 104.1V102.7L51.7 102.2V102.1L50.8999 102.6V101.2L51.7 100.7V100.6L50.8999 101.1V99.7L51.7 99.2V99.0999L50.8999 99.5999V98.7999L50.8 98.8999V99.7L50.2 100.1V100.2L50.8 99.7999V101.2L50.2 101.6V101.7L50.8 101.3V102.7L50.2 103.1V103.2L50.8 102.8V104.2L50.2 104.6V104.7L50.8 104.3V105.7L50.2 106.1V106.2L50.8 105.8V106Z" fill="#535B5B"/>
<path d="M51.1001 98.5999C50.6001 98.8999 50.1001 99.6999 50.1001 100.3V106.5L50.2001 106.4V100.3C50.2001 99.6999 50.6001 98.9999 51.1001 98.5999C51.3001 98.5999 51.4001 98.5999 51.5001 98.5999C51.8001 98.5999 51.9001 98.7999 51.9001 99.1999V105.5L52.0001 105.4V99.1999C52.1001 98.5999 51.6001 98.2999 51.1001 98.5999Z" fill="#C4BCB9"/>
<path d="M51.5 98.5999C51.5 98.6999 51.5 98.7998 51.5 98.8998V105.2L50.2 106V106.5L51.8999 105.5V99.1999C51.9999 98.7999 51.8 98.5999 51.5 98.5999Z" fill="#A09897"/>
<path d="M51.5 105.2L50.2 106V106.5L52 105.5L51.5 105.2Z" fill="#F7F3EF"/>
<path d="M54.9999 47.7001C54.9999 47.1001 54.4999 46.3 53.9999 45.9C53.7999 45.8 53.6999 45.8 53.4999 45.8C53.0999 45.8 52.8999 46.1 52.8999 46.6V52.8L54.9999 54.0001V47.7001Z" fill="#C4BCB9"/>
<path d="M53.5999 45.9C54.7999 46.5 54.7999 47.5 54.7999 47.5V53.6L53.6999 53L53.0999 52.7V46.4C53.1999 46.1 53.3999 45.8 53.5999 45.9Z" fill="url(#paint20_linear)"/>
<path opacity="0.2" d="M54.1998 53.4C54.1998 53.4 54.0998 53.4 54.1998 53.4L54.0998 53.1L53.2998 52.6V52.5001L54.0998 53.0001V51.6L53.2998 51.1V51.0001L54.0998 51.5001V50.1L53.2998 49.6V49.5001L54.0998 50.0001V48.6L53.2998 48.1V48.0001L54.0998 48.5001V47.1L53.2998 46.6V46.5001L54.0998 47.0001V46.2001L54.1998 46.3V47.1L54.7998 47.5001V47.6L54.1998 47.2001V48.6L54.7998 49.0001V49.1L54.1998 48.7001V50.1L54.7998 50.5001V50.6L54.1998 50.2001V51.6L54.7998 52.0001V52.1L54.1998 51.7001V53.1L54.7998 53.5001V53.6L54.1998 53.2001V53.4Z" fill="#535B5B"/>
<path d="M53.8999 46C54.3999 46.3 54.8999 47.1 54.8999 47.7V53.9L54.7999 53.8V47.7C54.7999 47.1 54.3999 46.4 53.8999 46C53.6999 46 53.5999 46 53.4999 46C53.1999 46 53.0999 46.2 53.0999 46.6V52.9L52.9999 52.8V46.6C52.8999 45.9 53.3999 45.7 53.8999 46Z" fill="#C4BCB9"/>
<path d="M53.5 46C53.5 46.1 53.5 46.2 53.5 46.3V52.6L54.8 53.4V53.9L53.1 52.9V46.6C53 46.2 53.2 46 53.5 46Z" fill="#A09897"/>
<path d="M53.4 52.6001L54.8 53.4001V53.8001L53 52.8001L53.4 52.6001Z" fill="#E6E2DF"/>
<path d="M64.5 47.7001C64.5 47.1001 65 46.3 65.5 45.9C65.7 45.8 65.8 45.8 66 45.8C66.4 45.8 66.6 46.1 66.6 46.6V52.8L64.5 54.0001V47.7001Z" fill="#C4BCB9"/>
<path d="M65.8001 45.9C64.6001 46.5 64.6001 47.5 64.6001 47.5V53.6L65.7001 53L66.3001 52.7V46.4C66.3001 46.1 66.1001 45.8 65.8001 45.9Z" fill="url(#paint21_linear)"/>
<path opacity="0.8" d="M65.2001 53.4C65.3001 53.4 65.3001 53.4 65.2001 53.4L65.3001 53.1L66.1001 52.6V52.5001L65.3001 53.0001V51.6L66.1001 51.1V51.0001L65.3001 51.5001V50.1L66.1001 49.6V49.5001L65.3001 50.0001V48.6L66.1001 48.1V48.0001L65.3001 48.5001V47.1L66.1001 46.6V46.5001L65.3001 47.0001V46.2001L65.2001 46.3V47.1L64.6001 47.5001V47.6L65.2001 47.2001V48.6L64.6001 49.0001V49.1L65.2001 48.7001V50.1L64.6001 50.5001V50.6L65.2001 50.2001V51.6L64.6001 52.0001V52.1L65.2001 51.7001V53.1L64.6001 53.5001V53.6L65.2001 53.2001V53.4Z" fill="#535B5B"/>
<path d="M65.5 46C65 46.3 64.5 47.1 64.5 47.7V53.9L64.6 53.8V47.7C64.7 47.1 65.1 46.4 65.5 46C65.7 46 65.8 46 65.9 46C66.2 46 66.3 46.2 66.3 46.6V52.9L66.4 52.8V46.6C66.5 45.9 66.1 45.7 65.5 46Z" fill="#C4BCB9"/>
<path d="M66 46C65.9 46 65.9 46 66 46C66 46.1 66 46.2 66 46.3V52.6L64.7 53.4V53.9L66.3999 52.9V46.6C66.3999 46.2 66.2 46 66 46Z" fill="#A09897"/>
<path d="M66.0001 52.6001L64.6001 53.4001V53.8001L66.4001 52.8001L66.0001 52.6001Z" fill="#F7F3EF"/>
<path d="M45.8 102.8C45.8 102.2 46.3 101.4 46.8 101C47 100.9 47.1 100.9 47.3 100.9C47.7 100.9 47.9 101.2 47.9 101.7V107.9L45.8 109.1V102.8Z" fill="#C4BCB9"/>
<path d="M47.1001 101C45.9001 101.6 45.9001 102.6 45.9001 102.6V108.7L47.0002 108.1L47.6001 107.8V101.5C47.6001 101.2 47.4001 100.9 47.1001 101Z" fill="url(#paint22_linear)"/>
<path opacity="0.8" d="M46.6 108.5L46.7 108.2L47.5 107.7V107.6L46.7 108.1V106.7L47.5 106.2V106.1L46.7 106.6V105.2L47.5 104.7V104.6L46.7 105.1V103.7L47.5 103.2V103.1L46.7 103.6V102.2L47.5 101.7V101.6L46.7 102.1V101.3L46.6 101.4V102.2L46 102.6V102.7L46.6 102.3V103.7L46 104.1V104.2L46.6 103.8V105.2L46 105.6V105.7L46.6 105.3V106.7L46 107.1V107.2L46.6 106.8V108.2L46 108.6V108.7L46.6 108.3V108.5Z" fill="#535B5B"/>
<path d="M46.8 101.1C46.3 101.4 45.8 102.2 45.8 102.8V109L45.9 108.9V102.8C46 102.2 46.4 101.5 46.8 101.1C47 101.1 47.1 101.1 47.2 101.1C47.5 101.1 47.6 101.3 47.6 101.7V108L47.7 107.9V101.7C47.8 101 47.4 100.8 46.8 101.1Z" fill="#C4BCB9"/>
<path d="M47.3 101C47.3 101 47.3 101.1 47.3 101C47.3 101.1 47.3 101.2 47.3 101.3V107.6L46 108.4V108.9L47.7 107.9V101.6C47.7 101.3 47.6 101 47.3 101Z" fill="#A09897"/>
<path d="M47.3002 107.7L45.9001 108.4V108.9L47.7001 107.9L47.3002 107.7Z" fill="#F7F3EF"/>
<defs>
<linearGradient id="paint0_linear" x1="72.286" y1="68.0133" x2="78.8322" y2="79.3519" gradientUnits="userSpaceOnUse">
<stop stop-color="#D8AF52"/>
<stop offset="1" stop-color="#ECD661"/>
</linearGradient>
<radialGradient id="paint1_radial" cx="0" cy="0" r="1" gradientUnits="userSpaceOnUse" gradientTransform="translate(81.9052 79.9929) scale(34.3101)">
<stop stop-color="#FFFB6E"/>
<stop offset="1" stop-color="#D1A04D"/>
</radialGradient>
<linearGradient id="paint2_linear" x1="57.1753" y1="76.5503" x2="49.5677" y2="89.7272" gradientUnits="userSpaceOnUse">
<stop stop-color="#4E5456"/>
<stop offset="1" stop-color="#74694E"/>
</linearGradient>
<linearGradient id="paint3_linear" x1="62.2786" y1="76.5503" x2="69.8862" y2="89.7272" gradientUnits="userSpaceOnUse">
<stop stop-color="#5F6769"/>
<stop offset="1" stop-color="#8E805F"/>
</linearGradient>
<linearGradient id="paint4_linear" x1="50.1151" y1="49.0771" x2="69.3059" y2="49.0771" gradientUnits="userSpaceOnUse">
<stop stop-color="#C4BCB9"/>
<stop offset="1" stop-color="#E6E2DF"/>
</linearGradient>
<linearGradient id="paint5_linear" x1="48.4206" y1="40.9946" x2="71.0229" y2="40.9946" gradientUnits="userSpaceOnUse">
<stop stop-color="#C4BCB9"/>
<stop offset="1" stop-color="#E6E2DF"/>
</linearGradient>
<radialGradient id="paint6_radial" cx="0" cy="0" r="1" gradientUnits="userSpaceOnUse" gradientTransform="translate(66.5118 24.5691) scale(18.913)">
<stop stop-color="#FFFB6E"/>
<stop offset="1" stop-color="#D1A04D"/>
</radialGradient>
<radialGradient id="paint7_radial" cx="0" cy="0" r="1" gradientUnits="userSpaceOnUse" gradientTransform="translate(66.5117 24.5691) scale(18.913)">
<stop stop-color="#FFFB6E"/>
<stop offset="1" stop-color="#D1A04D"/>
</radialGradient>
<linearGradient id="paint8_linear" x1="42.3727" y1="85.2839" x2="48.919" y2="96.6225" gradientUnits="userSpaceOnUse">
<stop stop-color="#D8AF52"/>
<stop offset="1" stop-color="#ECD661"/>
</linearGradient>
<radialGradient id="paint9_radial" cx="0" cy="0" r="1" gradientUnits="userSpaceOnUse" gradientTransform="translate(51.9919 97.2634) scale(34.3102)">
<stop stop-color="#FFFB6E"/>
<stop offset="1" stop-color="#D1A04D"/>
</radialGradient>
<radialGradient id="paint10_radial" cx="0" cy="0" r="1" gradientUnits="userSpaceOnUse" gradientTransform="translate(60.424 10.5291) scale(1.9766)">
<stop stop-color="#FFFB6E"/>
<stop offset="1" stop-color="#D1A04D"/>
</radialGradient>
<linearGradient id="paint11_linear" x1="77.3099" y1="89.6634" x2="71.9644" y2="98.9221" gradientUnits="userSpaceOnUse">
<stop offset="0.3366" stop-color="#F7F3EF"/>
<stop offset="1" stop-color="#C4BCB9"/>
</linearGradient>
<radialGradient id="paint12_radial" cx="0" cy="0" r="1" gradientUnits="userSpaceOnUse" gradientTransform="translate(73.7768 111.217) scale(20.4498)">
<stop stop-color="#C4BCB9"/>
<stop offset="0.0392086" stop-color="#C8C1BE"/>
<stop offset="0.2805" stop-color="#E0DCDB"/>
<stop offset="0.5221" stop-color="#F1EFEF"/>
<stop offset="0.7625" stop-color="#FCFBFB"/>
<stop offset="1" stop-color="white"/>
</radialGradient>
<radialGradient id="paint13_radial" cx="0" cy="0" r="1" gradientUnits="userSpaceOnUse" gradientTransform="translate(86.6122 77.1434) scale(18.3639)">
<stop stop-color="#FFFB6E"/>
<stop offset="1" stop-color="#D1A04D"/>
</radialGradient>
<radialGradient id="paint14_radial" cx="0" cy="0" r="1" gradientUnits="userSpaceOnUse" gradientTransform="translate(88.9835 87.499) scale(15.1205)">
<stop stop-color="#FFFB6E"/>
<stop offset="1" stop-color="#D1A04D"/>
</radialGradient>
<linearGradient id="paint15_linear" x1="81.6108" y1="101.702" x2="83.0605" y2="109.158" gradientUnits="userSpaceOnUse">
<stop stop-color="#774D2F"/>
<stop offset="1" stop-color="#885936"/>
</linearGradient>
<linearGradient id="paint16_linear" x1="39.8317" y1="100.075" x2="38.3819" y2="107.531" gradientUnits="userSpaceOnUse">
<stop stop-color="#5E3D25"/>
<stop offset="1" stop-color="#6C472B"/>
</linearGradient>
<linearGradient id="paint17_linear" x1="65.8439" y1="98.7774" x2="69.5646" y2="105.222" gradientUnits="userSpaceOnUse">
<stop stop-color="#4E5456"/>
<stop offset="1" stop-color="#676251"/>
</linearGradient>
<linearGradient id="paint18_linear" x1="69.1312" y1="100.675" x2="72.8519" y2="107.12" gradientUnits="userSpaceOnUse">
<stop stop-color="#4E5456"/>
<stop offset="1" stop-color="#676251"/>
</linearGradient>
<linearGradient id="paint19_linear" x1="52.875" y1="99.2972" x2="49.1544" y2="105.741" gradientUnits="userSpaceOnUse">
<stop stop-color="#5F6769"/>
<stop offset="1" stop-color="#8E805F"/>
</linearGradient>
<linearGradient id="paint20_linear" x1="52.1148" y1="46.661" x2="55.8354" y2="53.1052" gradientUnits="userSpaceOnUse">
<stop stop-color="#4E5456"/>
<stop offset="1" stop-color="#676251"/>
</linearGradient>
<linearGradient id="paint21_linear" x1="67.316" y1="46.6505" x2="63.5954" y2="53.0948" gradientUnits="userSpaceOnUse">
<stop stop-color="#5F6769"/>
<stop offset="1" stop-color="#8E805F"/>
</linearGradient>
<linearGradient id="paint22_linear" x1="48.6376" y1="101.744" x2="44.917" y2="108.188" gradientUnits="userSpaceOnUse">
<stop stop-color="#5F6769"/>
<stop offset="1" stop-color="#8E805F"/>
</linearGradient>
</defs>
</svg>
