<svg width="83" height="78" viewBox="0 0 83 78" fill="none" xmlns="http://www.w3.org/2000/svg">
<path d="M26.1 35.7001H21.2L0 47.9001L52.1 78.0001H57.1L78.2 65.8001L26.1 35.7001Z" fill="black" fill-opacity="0.25"/>
<path d="M24.7998 40.8001L26.7998 39.6001V8.1001L24.7998 9.20007V40.8001Z" fill="#58524B"/>
<path d="M24.7999 40.8001L23.5999 40.1001V8.50012L24.7999 9.2001V40.8001Z" fill="#484038"/>
<path d="M13.5999 39.0002L24.2999 30.4001L23.3999 29.9001L13.5999 35.5002V39.0002Z" fill="#605952"/>
<path d="M14.4998 39.6002L24.2998 33.9001V30.4001L14.4998 36.1002V39.6002Z" fill="#58524B"/>
<path d="M23.2 10.2001L24.3 9.6001V29.6001L14.5 35.3001V34.0001L23.2 29.0001V10.2001Z" fill="#C7C2BC"/>
<path d="M13.3999 14.6001L23.1999 9.00012V10.2001L14.4999 15.2001V35.3001L13.3999 34.7001V14.6001Z" fill="#8F8578"/>
<path d="M23.2 10.2001V29.0001L14.5 34.0001V15.2001L23.2 10.2001Z" fill="#9E968B"/>
<path d="M11.2 46.4001L13.0999 47.5002V16.0002L11.2 14.9001V46.4001Z" fill="#484038"/>
<path d="M13.0999 47.5002L15.0999 46.4001V14.9001L13.0999 16.0002V47.5002Z" fill="#58524B"/>
<path d="M36.8999 53.1001L13.7 37.2001L14.5999 36.7001L36.8999 49.6001V53.1001Z" fill="#605952"/>
<path d="M35.9999 53.6001L13.7 40.7001V37.2001L35.9999 50.1001V53.6001Z" fill="#484038"/>
<path d="M14.7 17.0001L13.7 16.3V36.4001L35.9999 49.3V48.1001L14.7 35.8V17.0001Z" fill="#C7C2BC"/>
<path d="M37.0999 28.6001L14.7 15.7001V17.0001L35.9999 29.2001V49.3001L37.0999 48.7001V28.6001Z" fill="#8F8578"/>
<path d="M14.7 17.0001V35.8001L35.9999 48.1001V29.2001L14.7 17.0001Z" fill="#9E968B"/>
<path d="M36.7 61.1001L38.5999 60.0001V28.5001L36.7 29.6001V61.1001Z" fill="#58524B"/>
<path d="M36.7 61.1002L35.5 60.4001V28.9001L36.7 29.6002V61.1002Z" fill="#484038"/>
<path d="M72.5999 68.4001L74.5999 67.2001V35.7001L72.5999 36.8001V68.4001Z" fill="#58524B"/>
<path d="M72.5999 68.4001L71.3999 67.7001V36.1001L72.5999 36.8001V68.4001Z" fill="#484038"/>
<path d="M61.3999 66.6001L72.0999 58.0001L71.0999 57.5001L61.3999 63.1001V66.6001Z" fill="#605952"/>
<path d="M62.2998 67.1001L72.0998 61.5001V58.0001L62.2998 63.6001V67.1001Z" fill="#58524B"/>
<path d="M71 37.8001L72.1001 37.1001V57.2001L62.3 62.9001V61.6001L71 56.6001V37.8001Z" fill="#C7C2BC"/>
<path d="M61.2 42.2001L70.9999 36.5001V37.8001L62.2999 42.8001V62.9001L61.2 62.2001V42.2001Z" fill="#8F8578"/>
<path d="M71 37.8V56.6001L62.3 61.6001V42.8L71 37.8Z" fill="#9E968B"/>
<path d="M60.3999 66.6001L37.2 50.8L38.0999 50.3L60.3999 63.1001V66.6001Z" fill="#605952"/>
<path d="M59.4999 67.2L37.2 54.3V50.8L59.4999 63.7V67.2Z" fill="#484038"/>
<path d="M38.2999 30.5L37.2 29.9V50L59.4999 62.9V61.6L38.2999 49.4V30.5Z" fill="#C7C2BC"/>
<path d="M60.6001 42.2L38.3 29.3V30.5001L59.5 42.8V62.9001L60.6001 62.3V42.2Z" fill="#8F8578"/>
<path d="M38.3 30.5V49.4L59.5 61.6V42.8L38.3 30.5Z" fill="#9E968B"/>
<path d="M59 74.0001L60.9 75.1001V43.6001L59 42.5001V74.0001Z" fill="#484038"/>
<path d="M60.8999 75.1002L62.7999 74.0001V42.4001L60.8999 43.6002V75.1002Z" fill="#58524B"/>
<path d="M61.2001 44.8001L9.1001 14.7001V12.4001L61.2001 42.5002V44.8001Z" fill="#4A423A"/>
<path d="M61.2001 42.5001L9.1001 12.4001L30.3001 0.200073L82.4001 30.3001L61.2001 42.5001Z" fill="#857E77"/>
<path d="M9.80005 12.0001L30.3 0.200073L81.6001 29.9001L61.2001 41.7001L9.80005 12.0001Z" fill="#4C4947"/>
<path d="M61.2 44.8L82.3999 31.5001V30.3L61.2 42.5001V44.8Z" fill="#58524B"/>
</svg>
