<svg width="83" height="78" viewBox="0 0 83 78" fill="none" xmlns="http://www.w3.org/2000/svg">
<path d="M26.1 35.5H21.2L0 47.7L52.1 77.8H57L78.2 65.5L26.1 35.5Z" fill="#BFBFBF" fill-opacity="0.3"/>
<path d="M24.8003 40.5L26.8003 39.4V7.90002L24.8003 9.00003V40.5Z" fill="#535353"/>
<path d="M24.8001 40.5L23.6001 39.9001V8.30005L24.8001 9.00005V40.5Z" fill="#424242"/>
<path d="M13.6001 38.8001L24.3001 30.2001L23.4001 29.7001L13.6001 35.3001V38.8001Z" fill="#5A5A5A"/>
<path d="M14.5 39.3001L24.3 33.7001V30.2001L14.5 35.8001V39.3001Z" fill="#535353"/>
<path d="M23.2 10L24.3 9.30005V29.4001L14.5 35.1V33.8L23.2 28.8V10Z" fill="#C3C3C3"/>
<path d="M13.3999 14.4001L23.1999 8.70007V10.0001L14.4999 15.0001V35.1001L13.3999 34.4001V14.4001Z" fill="#878787"/>
<path d="M23.2 10.0001V28.8001L14.5 33.8001V15.0001L23.2 10.0001Z" fill="#979797"/>
<path d="M11.2002 46.2L13.1002 47.3V15.8L11.2002 14.7V46.2Z" fill="#424242"/>
<path d="M13.1001 47.3L15.1001 46.2V14.6L13.1001 15.8V47.3Z" fill="#535353"/>
<path d="M36.9001 52.8L13.6001 37L14.6001 36.4L36.9001 49.3V52.8Z" fill="#5A5A5A"/>
<path d="M36.0001 53.4L13.6001 40.5V37L36.0001 49.9V53.4Z" fill="#424242"/>
<path d="M14.7001 16.7L13.6001 16.1V36.2L36.0001 49.1V47.8L14.7001 35.6V16.7Z" fill="#C3C3C3"/>
<path d="M37.0002 28.4L14.7002 15.5V16.7L36.0002 29V49.1L37.0002 48.4V28.4Z" fill="#878787"/>
<path d="M14.7002 16.7V35.5999L36.0002 47.8V28.9999L14.7002 16.7Z" fill="#979797"/>
<path d="M36.6001 60.9L38.6001 59.8V28.2L36.6001 29.4V60.9Z" fill="#535353"/>
<path d="M36.5999 60.9L35.3999 60.2V28.7L36.5999 29.4V60.9Z" fill="#424242"/>
<path d="M72.6006 68.1L74.5006 67V35.5L72.6006 36.6V68.1Z" fill="#535353"/>
<path d="M72.6004 68.1L71.4004 67.4V35.9L72.6004 36.6V68.1Z" fill="#424242"/>
<path d="M61.3003 66.4001L72.0003 57.8L71.1003 57.3L61.3003 62.9001V66.4001Z" fill="#5A5A5A"/>
<path d="M62.3003 66.9001L72.0003 61.3V57.8L62.3003 63.4001V66.9001Z" fill="#535353"/>
<path d="M71.0003 37.5L72.0003 36.9V57L62.3003 62.6V61.4L71.0003 56.4V37.5Z" fill="#C3C3C3"/>
<path d="M61.2002 42L71.0002 36.3V37.5L62.3002 42.6V62.6L61.2002 62V42Z" fill="#878787"/>
<path d="M71.0003 37.5V56.4L62.3003 61.4V42.6L71.0003 37.5Z" fill="#979797"/>
<path d="M60.4002 66.4L37.2002 50.5L38.1002 50L60.4002 62.9V66.4Z" fill="#5A5A5A"/>
<path d="M59.5002 66.9L37.2002 54V50.5L59.5002 63.4V66.9Z" fill="#424242"/>
<path d="M38.2002 30.3L37.2002 29.7V49.8L59.5002 62.7V61.4L38.2002 49.0999V30.3Z" fill="#C3C3C3"/>
<path d="M60.6002 42L38.2002 29.1V30.3L59.5002 42.6V62.7L60.6002 62V42Z" fill="#878787"/>
<path d="M38.2002 30.3V49.1L59.5002 61.4001V42.6L38.2002 30.3Z" fill="#979797"/>
<path d="M59 73.7999L60.9 74.8999V43.2999L59 42.2999V73.7999Z" fill="#424242"/>
<path d="M60.8999 74.9L62.7999 73.8V42.2L60.8999 43.3V74.9Z" fill="#535353"/>
<path d="M61.2001 44.5999L9.1001 14.5V12.2L61.2001 42.3V44.5999Z" fill="#444444"/>
<path d="M61.2001 42.3L9.1001 12.2L30.2001 0L82.3001 30L61.2001 42.3Z" fill="#7F7F7F"/>
<path d="M9.7998 11.8L30.1998 0L81.5998 29.7L61.1998 41.5L9.7998 11.8Z" fill="#4A4A4A"/>
<path d="M61.2002 44.6L82.3002 31.3V30L61.2002 42.3V44.6Z" fill="#535353"/>
</svg>
