<svg width="148" height="165" viewBox="0 0 148 165" fill="none" xmlns="http://www.w3.org/2000/svg">
<path d="M74.4 148L1.5 139.8L0 112.1L13.3 92.9L68.2 96.5L74.4 148Z" fill="black" fill-opacity="0.25"/>
<g clip-path="url(#clip0)">
<path d="M121.9 83.9L123.2 84.5L131.6 26.1L130.3 25.5L121.9 30.3V83.9Z" fill="#C60D05"/>
<path d="M123.2 84.5L131.6 79.7V26.1L123.2 30.9V84.5Z" fill="#FA493F"/>
</g>
<path d="M124.8 135.3V135.8L124.9 137.4L123.4 136.7L115.9 132.8L115.8 130.7L124.8 135.3Z" fill="#51611B"/>
<path d="M115.8 130.7L115.9 132.8L114.1 131.9L114 131.8L113.7 129.8L113.9 129.7L115.7 130.7H115.8Z" fill="#737373"/>
<path d="M125.2 135.5L127.3 136.6L127.4 138.7L125.5 137.7L124.9 137.4L124.8 135.8L125.2 135.5Z" fill="#737373"/>
<path d="M14.8999 131.7C14.6999 133.4 15.9999 135.2 18.5999 136.5L68.8999 160.6C73.1999 162.7 80.2999 162 83.9999 159.7L105.9 147.2L106 149.5L84.0999 162C82.1999 163.2 78.7999 164.4 76.0999 164.4L72.0999 164C70.9999 163.8 69.9999 163.4 69.0999 163L18.7999 138.9C15.3999 137.1 14.4999 134.3 14.8999 131.7Z" fill="#979797"/>
<path d="M144.6 129.8L129.3 137.6L127.5 138.8H127.4L127.3 136.7V136.6L144.5 127.6C146.3 126.5 147 125 146.9 123.6C147.3 125.2 147.4 126.4 147 127.3C146.7 128.3 145.9 129.1 144.6 129.8Z" fill="#979797"/>
<path d="M35 124.2L75.3 98.3C77.8 96.7 82.4 96.7 85.6 98.4L121.2 120.6C123.4 121.7 124 122.9 123.5 124.3C123.1 123.4 122.2 122.6 120.9 121.9L85.7 100.2C82.5 98.6 77.9 98.6 75.4 100.2L35.1 126.1C34.4 126.6 33.9 127.1 33.7 127.8C33.1 126.4 33.5 125.1 35 124.2Z" fill="#979797"/>
<path d="M144.5 127.5L127.3 136.5H127.2L125.2 135.5L140.9 127.5C144.3 125.3 143.8 121.9 139.7 119.9L90.7998 92.3C86.6998 90.3 80.5998 90.5 77.1998 92.7L73.7998 94.9L21.6998 128.4C18.2998 130.6 18.7998 134 22.8998 136L69.5998 158.3C73.6998 160.3 80.3998 159.6 83.7998 157.4L104 146L106 147V147.1L84.0998 159.6C80.4998 161.9 73.3998 162.6 68.9998 160.5L18.5998 136.5C15.9998 135.2 14.7998 133.4 14.8998 131.7C14.8998 131.6 14.8998 131.5 14.9998 131.4C15.1998 130.4 15.9998 129.3 17.2998 128.5L76.1998 90.6C79.7998 88.3 86.2998 88.1 90.6998 90.2L91.6998 90.7L143.3 119.6C144.9 120.4 146 121.4 146.6 122.5C146.7 122.9 146.9 123.4 147 123.7C147.1 125 146.3 126.4 144.5 127.5Z" fill="#E4EAE8"/>
<path d="M69.4998 148.7L33.1998 130.3C29.7998 128.6 29.1998 125.8 31.7998 124.1L74.6998 96.4999C77.2998 94.7999 82.1998 94.8 85.5998 96.6L124.1 120.3C127.5 122 127.7 124.4 125.1 126.1L115.7 130.7L113.8 129.7L121.1 126.1L121.9 125.5C122.3 125 122.5 124.9 122.7 124.1C123 122.9 123.3 121.7 121.1 120.5L85.4998 98.3C82.2998 96.7 77.6998 96.5999 75.1998 98.1999L34.8998 124.1C33.4998 125 32.9998 126.3 33.5998 127.5C33.9998 128.4 34.8998 129.3 36.1998 129.9L69.4998 146.8C72.6998 148.4 77.8998 148 80.3998 146.4L92.4998 140.2L94.3998 141.2L80.9998 148.2C78.3998 150 72.8998 150.5 69.4998 148.7Z" fill="#E4EAE8"/>
<path d="M69.4999 158.4L22.7999 136.1C18.6999 134.1 18.1999 130.7 21.5999 128.5L73.6999 95L77.0999 92.8C80.4999 90.6 86.5999 90.4 90.6999 92.4L139.6 120C143.7 122 144.2 125.4 140.8 127.6L125.1 135.6L124.7 135.4L115.6 130.8L125 126.2C127.6 124.5 127.4 122.2 124 120.4L85.4999 96.7C82.0999 95 77.1999 94.9 74.5999 96.6L31.6999 124.2C29.0999 125.9 29.6999 128.7 33.0999 130.4L69.3999 148.8C72.7999 150.5 78.2999 150.1 80.8999 148.4L94.2999 141.4L103.8 146.2L83.6999 157.5C80.2999 159.7 73.5999 160.4 69.4999 158.4Z" fill="#738A27"/>
<path d="M74.4 144.6V47.3C74.4 46.1 75.1 45 76.1 44.5L118.5 23.2C120.6 22.2 123 23.7 123 26V122.8C123 124.3 122.2 125.6 120.8 126.3L78.8 147.4C78.8 147.4 76.3 148.1 74.3 148C72.3 147.9 74.3 148 74.3 148L74.4 144.6Z" fill="#FFC779"/>
<path d="M69.1999 147.1L36.2999 130.5C35.0999 129.9 34.3999 128.7 34.3999 127.3V31C34.3999 28.4 37.1999 26.7 39.4999 27.8L72.3999 44.3C73.5999 44.9 74.2999 46.1 74.2999 47.5V143.8V147.8C74.3999 148 71.1999 148.1 69.1999 147.1Z" fill="#FFB942"/>
<path d="M125.1 19.9L74.4 45.4L33.7 24.8L84.8 0L125.1 19.9Z" fill="#FFE2BF"/>
<path d="M121.2 19.8L74.8001 43.1L38.1001 24.8L85.0001 1.90002L121.2 19.8Z" fill="white"/>
<path d="M121.2 19.8L74.8001 43.1L38.1001 24.8L85.0001 1.90002L121.2 19.8Z" fill="#FFF4EA"/>
<path d="M85.0001 4.10004L118.9 20.9L121.2 19.8L85.0001 1.90002L38.1001 24.8L40.3001 25.9L85.0001 4.10004Z" fill="#EEBF9B"/>
<path d="M85.0001 1.90002H84.8V4.20003L85.0001 4.10004L118.9 20.9L121.2 19.8L85.0001 1.90002Z" fill="#D8AA88"/>
<path d="M74.5 45.4V49.2L125.1 23.7V19.9L74.5 45.4Z" fill="#FFEDDB"/>
<path d="M33.7 24.8V28.6L74.5 49.2V45.4L33.7 24.8Z" fill="#FFD6B4"/>
<path d="M74.4 81.4L34.5 61L32.2 62.1L74.1 83.3L125.1 57.7L123.2 56.8L74.4 81.4Z" fill="#FFE2BF"/>
<path d="M74.1001 83.3V87.1L125.1 61.5V57.7L74.1001 83.3Z" fill="#FFEDDB"/>
<path d="M32.2 62.1V65.9L74.1 87.1V83.3L32.2 62.1Z" fill="#FFD6B4"/>
<path opacity="0.6" d="M74.4 81.4L34.5 61L32.2 62.1L74 83.3L74.1 83.2L74.4 81.4Z" fill="#EEBF9B"/>
<path d="M74.4 114.6L34.5 94.3L32.2 95.4L74 116.5L125.1 91L123.2 90L74.4 114.6Z" fill="#FFE2BF"/>
<path d="M74.1001 116.5V120.3L125.1 94.8V91L74.1001 116.5Z" fill="#FFEDDB"/>
<path d="M32.2 95.4V99.2L74.1 120.3V116.5L32.2 95.4Z" fill="#FFD6B4"/>
<path opacity="0.6" d="M74.5 114.5L74.4 114.6L34.5 94.3L32.2 95.4L74 116.5L74.1 116.4L74.5 114.5Z" fill="#EEBF9B"/>
<path d="M68.2001 37.1L46.9001 26.4V25.7L105.7 17.4L105.8 18.1L68.2001 37.1ZM52.7001 26.4L68.2001 34.1L99.8001 18.1L84.6002 10.5L52.7001 26.4Z" fill="#DED2CA"/>
<path opacity="0.5" d="M68.2001 34.1L52.7001 26.4L55.0002 25.3L46.9001 25.7V26.4L68.2001 37.1V34.1Z" fill="#BBAEA5"/>
<path d="M102.8 17.4L68.2002 34.9L49.7002 25.7L84.6002 8.29999L102.8 17.4Z" fill="#83B0FB"/>
<path d="M68.2001 36.4L46.6001 25.6L84.6001 6.79999L105.9 17.3L68.2001 36.4ZM52.7001 25.7L68.2001 33.4L99.8001 17.4L84.6001 9.79999L52.7001 25.7Z" fill="white"/>
<path d="M91.1001 10.9V8.89999C91.1001 7.89999 90.3 7 89.2 7C88.2 7 87.3 7.79999 87.3 8.89999V12.8" stroke="#F8CDAD" stroke-width="1.3896" stroke-miterlimit="10" stroke-linecap="round" stroke-linejoin="round"/>
<path d="M87.4001 12.1L90.1002 13.4" stroke="#F8CDAD" stroke-width="1.3896" stroke-miterlimit="10" stroke-linecap="round" stroke-linejoin="round"/>
<path d="M94 12.5V10.5C94 9.49997 93.2 8.59998 92.1 8.59998C91.1 8.59998 90.2 9.39997 90.2 10.5V14.4" stroke="#FFE2BF" stroke-width="1.3896" stroke-miterlimit="10" stroke-linecap="round" stroke-linejoin="round"/>
<path d="M95.3999 24.7V25.2L99.3999 27.2L107 23.4L103 21.4L95.3999 24.7Z" fill="#124D8B"/>
<path d="M107.7 19.6L103 21.4L107 23.4L108 19.9L107.7 19.6Z" fill="#124D8B"/>
<path d="M106.7 23L99.2999 26.7L95.3999 24.7L100.9 22L102.8 21L106.7 23Z" fill="#326CD9"/>
<path d="M103.8 17.6L102.8 21L106.7 23L107.7 19.6L103.8 17.6Z" fill="#1D5FB8"/>
<path d="M79.1001 33.2V33.7L83.1001 35.7L90.7001 31.9L86.7001 29.9L79.1001 33.2Z" fill="#124D8B"/>
<path d="M91.4002 28L86.7002 29.9L90.7002 31.9L91.7002 28.4L91.4002 28Z" fill="#124D8B"/>
<path d="M90.4001 31.4L83.0001 35.2L79.1001 33.2L84.6001 30.4L86.5001 29.5L90.4001 31.4Z" fill="#326CD9"/>
<path d="M87.5 26.1L86.5 29.5L90.4 31.4L91.4 28L87.5 26.1Z" fill="#1D5FB8"/>
<path d="M78 56.5L85.4 52.8V73.9L78 77.6V56.5Z" fill="#B3DDE8"/>
<path d="M84.6001 54.1V73.4L78.8001 76.3V57L84.6001 54.1ZM86.2001 51.5L77.1001 56V78.9L86.2001 74.4V51.5Z" fill="white"/>
<path d="M82 53.8V76.1" stroke="white" stroke-width="1.6246" stroke-miterlimit="10"/>
<path d="M93.7998 48.5L101.2 44.8V65.9L93.7998 69.6V48.5Z" fill="#B3DDE8"/>
<path d="M100.4 46.1V65.4L94.5999 68.3V49L100.4 46.1ZM102 43.5L92.8999 48V70.9L102 66.4V43.5Z" fill="white"/>
<path d="M97.7998 45.8V68.1" stroke="white" stroke-width="1.6246" stroke-miterlimit="10"/>
<path d="M109.3 40.7L116.7 37V58.1L109.3 61.8V40.7Z" fill="#B3DDE8"/>
<path d="M115.9 38.3V57.6L110.1 60.5V41.2L115.9 38.3ZM117.5 35.7L108.4 40.2V63.1L117.5 58.6V35.7Z" fill="white"/>
<path d="M113.3 38V60.4" stroke="white" stroke-width="1.6246" stroke-miterlimit="10"/>
<path d="M117.5 58.6L108.5 63.1L110.2 64L119.3 59.4L117.5 58.6Z" fill="#FFE2BF"/>
<path opacity="0.2" d="M117.5 35.7V58.6L118.6 59.1V36.2L117.7 35.8L117.5 35.7Z" fill="#122338"/>
<path d="M117.6 58.6L120.3 59.8L111.5 64.2L109.2 63.1" stroke="#122338" stroke-width="1.1744" stroke-miterlimit="10" stroke-linecap="round" stroke-linejoin="round"/>
<path d="M117.6 50.1L120.3 51.4L111.5 55.8L109.2 54.7" stroke="#122338" stroke-width="1.1744" stroke-miterlimit="10" stroke-linecap="round" stroke-linejoin="round"/>
<path d="M109.5 38.3H107.3V63.7H109.5V38.3Z" fill="#FFC779"/>
<path d="M120.3 51.4V59.8" stroke="#122338" stroke-width="0.5872" stroke-miterlimit="10" stroke-linecap="round" stroke-linejoin="round"/>
<path d="M117.2 53V61.4" stroke="#122338" stroke-width="0.5872" stroke-miterlimit="10" stroke-linecap="round" stroke-linejoin="round"/>
<path d="M116.3 53.5V61.9" stroke="#122338" stroke-width="0.5872" stroke-miterlimit="10" stroke-linecap="round" stroke-linejoin="round"/>
<path d="M115.3 53.8V62.3" stroke="#122338" stroke-width="0.5872" stroke-miterlimit="10" stroke-linecap="round" stroke-linejoin="round"/>
<path d="M114.4 54.3V62.8" stroke="#122338" stroke-width="0.5872" stroke-miterlimit="10" stroke-linecap="round" stroke-linejoin="round"/>
<path d="M113.4 54.7V63.1" stroke="#122338" stroke-width="0.5872" stroke-miterlimit="10" stroke-linecap="round" stroke-linejoin="round"/>
<path d="M112.5 55.2V63.6" stroke="#122338" stroke-width="0.5872" stroke-miterlimit="10" stroke-linecap="round" stroke-linejoin="round"/>
<path d="M111.5 55.8V64" stroke="#122338" stroke-width="0.5793" stroke-miterlimit="10" stroke-linecap="round" stroke-linejoin="round"/>
<path d="M110.7 55.4V63.8" stroke="#122338" stroke-width="0.5872" stroke-miterlimit="10" stroke-linecap="round" stroke-linejoin="round"/>
<path d="M109.9 55V63.4" stroke="#122338" stroke-width="0.5872" stroke-miterlimit="10" stroke-linecap="round" stroke-linejoin="round"/>
<path d="M119.3 50.9V60.4" stroke="#122338" stroke-width="0.6234" stroke-miterlimit="10" stroke-linecap="round" stroke-linejoin="round"/>
<path d="M118.3 50.4V60.7" stroke="#122338" stroke-width="0.5872" stroke-miterlimit="10" stroke-linecap="round" stroke-linejoin="round"/>
<path d="M102.1 66.3L93 70.9L94.8 71.8L103.9 67.2L102.1 66.3Z" fill="#FFE2BF"/>
<path opacity="0.2" d="M102.1 43.5V66.3L103.1 66.9V44L102.3 43.5H102.1Z" fill="#122338"/>
<path d="M102.1 66.3L104.8 67.6L95.9998 72L93.7998 70.9" stroke="#122338" stroke-width="1.1744" stroke-miterlimit="10" stroke-linecap="round" stroke-linejoin="round"/>
<path d="M102.1 57.9L104.8 59.2L95.9998 63.5L93.7998 62.4" stroke="#122338" stroke-width="1.1744" stroke-miterlimit="10" stroke-linecap="round" stroke-linejoin="round"/>
<path d="M94.0999 46.1H91.8999V71.5H94.0999V46.1Z" fill="#FFC779"/>
<path d="M104.8 59.2V67.6" stroke="#122338" stroke-width="0.5872" stroke-miterlimit="10" stroke-linecap="round" stroke-linejoin="round"/>
<path d="M101.8 60.8V69.2" stroke="#122338" stroke-width="0.5872" stroke-miterlimit="10" stroke-linecap="round" stroke-linejoin="round"/>
<path d="M100.9 61.3V69.7" stroke="#122338" stroke-width="0.5872" stroke-miterlimit="10" stroke-linecap="round" stroke-linejoin="round"/>
<path d="M99.8999 61.6V70" stroke="#122338" stroke-width="0.5872" stroke-miterlimit="10" stroke-linecap="round" stroke-linejoin="round"/>
<path d="M99 62.1V70.5" stroke="#122338" stroke-width="0.5872" stroke-miterlimit="10" stroke-linecap="round" stroke-linejoin="round"/>
<path d="M98 62.5V70.9" stroke="#122338" stroke-width="0.5872" stroke-miterlimit="10" stroke-linecap="round" stroke-linejoin="round"/>
<path d="M97.0999 63V71.4" stroke="#122338" stroke-width="0.5872" stroke-miterlimit="10" stroke-linecap="round" stroke-linejoin="round"/>
<path d="M96.0999 63.5V71.7" stroke="#122338" stroke-width="0.5793" stroke-miterlimit="10" stroke-linecap="round" stroke-linejoin="round"/>
<path d="M95.2 63.2V71.6" stroke="#122338" stroke-width="0.5872" stroke-miterlimit="10" stroke-linecap="round" stroke-linejoin="round"/>
<path d="M94.5 62.8V71.2" stroke="#122338" stroke-width="0.5872" stroke-miterlimit="10" stroke-linecap="round" stroke-linejoin="round"/>
<path d="M103.8 58.6V68.1" stroke="#122338" stroke-width="0.6234" stroke-miterlimit="10" stroke-linecap="round" stroke-linejoin="round"/>
<path d="M102.9 58.2V68.5" stroke="#122338" stroke-width="0.5872" stroke-miterlimit="10" stroke-linecap="round" stroke-linejoin="round"/>
<path d="M86.2 74.3L77.2 78.9L78.9 79.7L88 75.2L86.2 74.3Z" fill="#FFE2BF"/>
<path opacity="0.2" d="M86.2 51.4V74.3L87.3 74.8V51.9L86.4 51.5L86.2 51.4Z" fill="#122338"/>
<path d="M86.2999 74.3L88.9999 75.6001L80.1999 79.9L77.8999 78.8" stroke="#122338" stroke-width="1.1744" stroke-miterlimit="10" stroke-linecap="round" stroke-linejoin="round"/>
<path d="M86.2999 65.9L88.9999 67.1L80.1999 71.5L77.8999 70.4" stroke="#122338" stroke-width="1.1744" stroke-miterlimit="10" stroke-linecap="round" stroke-linejoin="round"/>
<path d="M78.2 54H76V79.4H78.2V54Z" fill="#FFC779"/>
<path d="M89 67.1V75.6" stroke="#122338" stroke-width="0.5872" stroke-miterlimit="10" stroke-linecap="round" stroke-linejoin="round"/>
<path d="M85.8999 68.7V77.2" stroke="#122338" stroke-width="0.5872" stroke-miterlimit="10" stroke-linecap="round" stroke-linejoin="round"/>
<path d="M85 69.2V77.7" stroke="#122338" stroke-width="0.5872" stroke-miterlimit="10" stroke-linecap="round" stroke-linejoin="round"/>
<path d="M84.1001 69.6V78" stroke="#122338" stroke-width="0.5872" stroke-miterlimit="10" stroke-linecap="round" stroke-linejoin="round"/>
<path d="M83.2 70.1V78.5" stroke="#122338" stroke-width="0.5872" stroke-miterlimit="10" stroke-linecap="round" stroke-linejoin="round"/>
<path d="M82.1001 70.4V78.9" stroke="#122338" stroke-width="0.5872" stroke-miterlimit="10" stroke-linecap="round" stroke-linejoin="round"/>
<path d="M81.2 70.9V79.4" stroke="#122338" stroke-width="0.5872" stroke-miterlimit="10" stroke-linecap="round" stroke-linejoin="round"/>
<path d="M80.3 71.5V79.7" stroke="#122338" stroke-width="0.5793" stroke-miterlimit="10" stroke-linecap="round" stroke-linejoin="round"/>
<path d="M79.3999 71.1V79.6" stroke="#122338" stroke-width="0.5872" stroke-miterlimit="10" stroke-linecap="round" stroke-linejoin="round"/>
<path d="M78.6001 70.7V79.2" stroke="#122338" stroke-width="0.5872" stroke-miterlimit="10" stroke-linecap="round" stroke-linejoin="round"/>
<path d="M88 66.6V76.1" stroke="#122338" stroke-width="0.6234" stroke-miterlimit="10" stroke-linecap="round" stroke-linejoin="round"/>
<path d="M87 66.1V76.5" stroke="#122338" stroke-width="0.5872" stroke-miterlimit="10" stroke-linecap="round" stroke-linejoin="round"/>
<path d="M78 90.2L85.4 86.5V107.6L78 111.3V90.2Z" fill="#B3DDE8"/>
<path d="M84.6001 87.8V107.1L78.8001 110V90.7L84.6001 87.8ZM86.2001 85.2L77.1001 89.7V112.6L86.2001 108.1V85.2Z" fill="white"/>
<path d="M82 87.5V109.8" stroke="white" stroke-width="1.6246" stroke-miterlimit="10"/>
<path d="M93.7998 82.2L101.2 78.5V99.6L93.7998 103.3V82.2Z" fill="#B3DDE8"/>
<path d="M100.4 79.8V99.1L94.5999 102V82.7L100.4 79.8ZM102 77.2L92.8999 81.7V104.6L102 100.1V77.2Z" fill="white"/>
<path d="M97.7998 79.5V101.8" stroke="white" stroke-width="1.6246" stroke-miterlimit="10"/>
<path d="M109.3 74.5L116.7 70.7V91.8L109.3 95.6V74.5Z" fill="#B3DDE8"/>
<path d="M115.9 72.1V91.4L110.1 94.3V75L115.9 72.1ZM117.5 69.4L108.4 73.9V96.8L117.5 92.3V69.4Z" fill="white"/>
<path d="M113.3 71.8V94.1001" stroke="white" stroke-width="1.6246" stroke-miterlimit="10"/>
<path d="M117.5 92.3L108.5 96.9L110.2 97.7L119.3 93.1001L117.5 92.3Z" fill="#FFE2BF"/>
<path opacity="0.2" d="M117.5 69.4V92.3L118.6 92.8V69.9L117.7 69.5L117.5 69.4Z" fill="#122338"/>
<path d="M117.6 92.3L120.3 93.6001L111.5 97.9L109.2 96.8" stroke="#122338" stroke-width="1.1744" stroke-miterlimit="10" stroke-linecap="round" stroke-linejoin="round"/>
<path d="M117.6 83.8L120.3 85.1001L111.5 89.5L109.2 88.4" stroke="#122338" stroke-width="1.1744" stroke-miterlimit="10" stroke-linecap="round" stroke-linejoin="round"/>
<path d="M109.5 72H107.3V97.4H109.5V72Z" fill="#FFC779"/>
<path d="M120.3 85.1V93.6" stroke="#122338" stroke-width="0.5872" stroke-miterlimit="10" stroke-linecap="round" stroke-linejoin="round"/>
<path d="M117.2 86.7V95.1" stroke="#122338" stroke-width="0.5872" stroke-miterlimit="10" stroke-linecap="round" stroke-linejoin="round"/>
<path d="M116.3 87.2V95.7" stroke="#122338" stroke-width="0.5872" stroke-miterlimit="10" stroke-linecap="round" stroke-linejoin="round"/>
<path d="M115.3 87.5V96" stroke="#122338" stroke-width="0.5872" stroke-miterlimit="10" stroke-linecap="round" stroke-linejoin="round"/>
<path d="M114.4 88.1V96.5" stroke="#122338" stroke-width="0.5872" stroke-miterlimit="10" stroke-linecap="round" stroke-linejoin="round"/>
<path d="M113.4 88.4V96.8" stroke="#122338" stroke-width="0.5872" stroke-miterlimit="10" stroke-linecap="round" stroke-linejoin="round"/>
<path d="M112.5 88.9V97.4" stroke="#122338" stroke-width="0.5872" stroke-miterlimit="10" stroke-linecap="round" stroke-linejoin="round"/>
<path d="M111.5 89.5V97.7" stroke="#122338" stroke-width="0.5793" stroke-miterlimit="10" stroke-linecap="round" stroke-linejoin="round"/>
<path d="M110.7 89.1V97.6" stroke="#122338" stroke-width="0.5872" stroke-miterlimit="10" stroke-linecap="round" stroke-linejoin="round"/>
<path d="M109.9 88.7V97.2" stroke="#122338" stroke-width="0.5872" stroke-miterlimit="10" stroke-linecap="round" stroke-linejoin="round"/>
<path d="M119.3 84.6V94.1" stroke="#122338" stroke-width="0.6234" stroke-miterlimit="10" stroke-linecap="round" stroke-linejoin="round"/>
<path d="M118.3 84.1V94.5" stroke="#122338" stroke-width="0.5872" stroke-miterlimit="10" stroke-linecap="round" stroke-linejoin="round"/>
<path d="M102.1 100L93 104.6L94.8 105.5L103.9 100.9L102.1 100Z" fill="#FFE2BF"/>
<path opacity="0.2" d="M102.1 77.2V100L103.1 100.6V77.7L102.3 77.3L102.1 77.2Z" fill="#122338"/>
<path d="M102.1 100L104.8 101.3L95.9998 105.7L93.7998 104.6" stroke="#122338" stroke-width="1.1744" stroke-miterlimit="10" stroke-linecap="round" stroke-linejoin="round"/>
<path d="M102.1 91.6L104.8 92.9L95.9998 97.2L93.7998 96.2" stroke="#122338" stroke-width="1.1744" stroke-miterlimit="10" stroke-linecap="round" stroke-linejoin="round"/>
<path d="M94.0999 79.8H91.8999V105.2H94.0999V79.8Z" fill="#FFC779"/>
<path d="M104.8 92.9V101.3" stroke="#122338" stroke-width="0.5872" stroke-miterlimit="10" stroke-linecap="round" stroke-linejoin="round"/>
<path d="M101.8 94.5V102.9" stroke="#122338" stroke-width="0.5872" stroke-miterlimit="10" stroke-linecap="round" stroke-linejoin="round"/>
<path d="M100.9 95V103.4" stroke="#122338" stroke-width="0.5872" stroke-miterlimit="10" stroke-linecap="round" stroke-linejoin="round"/>
<path d="M99.8999 95.3V103.7" stroke="#122338" stroke-width="0.5872" stroke-miterlimit="10" stroke-linecap="round" stroke-linejoin="round"/>
<path d="M99 95.8V104.3" stroke="#122338" stroke-width="0.5872" stroke-miterlimit="10" stroke-linecap="round" stroke-linejoin="round"/>
<path d="M98 96.2V104.6" stroke="#122338" stroke-width="0.5872" stroke-miterlimit="10" stroke-linecap="round" stroke-linejoin="round"/>
<path d="M97.0999 96.7V105.1" stroke="#122338" stroke-width="0.5872" stroke-miterlimit="10" stroke-linecap="round" stroke-linejoin="round"/>
<path d="M96.0999 97.2V105.4" stroke="#122338" stroke-width="0.5793" stroke-miterlimit="10" stroke-linecap="round" stroke-linejoin="round"/>
<path d="M95.2 96.9V105.3" stroke="#122338" stroke-width="0.5872" stroke-miterlimit="10" stroke-linecap="round" stroke-linejoin="round"/>
<path d="M94.5 96.5V104.9" stroke="#122338" stroke-width="0.5872" stroke-miterlimit="10" stroke-linecap="round" stroke-linejoin="round"/>
<path d="M103.8 92.3V101.8" stroke="#122338" stroke-width="0.6234" stroke-miterlimit="10" stroke-linecap="round" stroke-linejoin="round"/>
<path d="M102.9 91.9V102.2" stroke="#122338" stroke-width="0.5872" stroke-miterlimit="10" stroke-linecap="round" stroke-linejoin="round"/>
<path d="M86.2 108L77.2 112.6L78.9 113.5L88 108.9L86.2 108Z" fill="#FFE2BF"/>
<path opacity="0.2" d="M86.2 85.2V108L87.3 108.5V85.6L86.4 85.2H86.2Z" fill="#122338"/>
<path d="M86.2999 108L88.9999 109.3L80.1999 113.6L77.8999 112.5" stroke="#122338" stroke-width="1.1744" stroke-miterlimit="10" stroke-linecap="round" stroke-linejoin="round"/>
<path d="M86.2999 99.6L88.9999 100.9L80.1999 105.2L77.8999 104.1" stroke="#122338" stroke-width="1.1744" stroke-miterlimit="10" stroke-linecap="round" stroke-linejoin="round"/>
<path d="M78.2 87.7H76V113.1H78.2V87.7Z" fill="#FFC779"/>
<path d="M89 100.9V109.3" stroke="#122338" stroke-width="0.5872" stroke-miterlimit="10" stroke-linecap="round" stroke-linejoin="round"/>
<path d="M85.8999 102.4V110.9" stroke="#122338" stroke-width="0.5872" stroke-miterlimit="10" stroke-linecap="round" stroke-linejoin="round"/>
<path d="M85 103V111.4" stroke="#122338" stroke-width="0.5872" stroke-miterlimit="10" stroke-linecap="round" stroke-linejoin="round"/>
<path d="M84.1001 103.3V111.7" stroke="#122338" stroke-width="0.5872" stroke-miterlimit="10" stroke-linecap="round" stroke-linejoin="round"/>
<path d="M83.2 103.8V112.2" stroke="#122338" stroke-width="0.5872" stroke-miterlimit="10" stroke-linecap="round" stroke-linejoin="round"/>
<path d="M82.1001 104.1V112.6" stroke="#122338" stroke-width="0.5872" stroke-miterlimit="10" stroke-linecap="round" stroke-linejoin="round"/>
<path d="M81.2 104.7V113.1" stroke="#122338" stroke-width="0.5872" stroke-miterlimit="10" stroke-linecap="round" stroke-linejoin="round"/>
<path d="M80.3 105.2V113.4" stroke="#122338" stroke-width="0.5793" stroke-miterlimit="10" stroke-linecap="round" stroke-linejoin="round"/>
<path d="M79.3999 104.9V113.3" stroke="#122338" stroke-width="0.5872" stroke-miterlimit="10" stroke-linecap="round" stroke-linejoin="round"/>
<path d="M78.6001 104.5V112.9" stroke="#122338" stroke-width="0.5872" stroke-miterlimit="10" stroke-linecap="round" stroke-linejoin="round"/>
<path d="M88 100.3V109.8" stroke="#122338" stroke-width="0.6234" stroke-miterlimit="10" stroke-linecap="round" stroke-linejoin="round"/>
<path d="M87 99.8V110.2" stroke="#122338" stroke-width="0.5872" stroke-miterlimit="10" stroke-linecap="round" stroke-linejoin="round"/>
<path d="M49.7 59.7V45.8L57.2 49.5V63.4L49.7 59.7Z" fill="#B3DDE8"/>
<path d="M50.5999 47.1L56.3999 50V62.1L50.5999 59.2V47.1ZM48.8999 44.5V60.2L57.9999 64.7V49L48.8999 44.5Z" fill="white"/>
<path d="M53.2 46.8V62" stroke="white" stroke-width="1.6246" stroke-miterlimit="10"/>
<path d="M48.8999 60.1L57.8999 64.7L56.9999 65.4L47.8999 60.6L48.8999 60.1Z" fill="#EFC8AD"/>
<path opacity="0.2" d="M48.8999 44.5V60.1L47.8999 60.6V45L48.6999 44.5H48.8999Z" fill="#122338"/>
<path d="M56.8999 65.3L60.3999 66.8L59.0999 47H56.8999V65.3Z" fill="#FFB942"/>
<path d="M49.7 93.8V79.8L57.2 83.6V97.5L49.7 93.8Z" fill="#B3DDE8"/>
<path d="M50.5999 81.1L56.3999 84V96.1L50.5999 93.2V81.1ZM48.8999 78.5V94.2L57.9999 98.7V83L48.8999 78.5Z" fill="white"/>
<path d="M53.2 80.9V96" stroke="white" stroke-width="1.6246" stroke-miterlimit="10"/>
<path d="M48.8999 94.2L57.8999 98.8L56.9999 99.4L47.8999 94.7L48.8999 94.2Z" fill="#EFC8AD"/>
<path opacity="0.2" d="M48.8999 78.5V94.2L47.8999 94.7V79L48.6999 78.6L48.8999 78.5Z" fill="#122338"/>
<path d="M56.8999 99.3L60.3999 100.8L59.0999 81.1H56.8999V99.3Z" fill="#FFB942"/>
<path d="M49.7 127.8V113.9L57.2 117.6V131.5L49.7 127.8Z" fill="#B3DDE8"/>
<path d="M50.5999 115.2L56.3999 118.1V130.2L50.5999 127.3V115.2ZM48.8999 112.6V128.3L57.9999 132.8V117.1L48.8999 112.6Z" fill="white"/>
<path d="M53.2 114.9V130" stroke="white" stroke-width="1.6246" stroke-miterlimit="10"/>
<path d="M48.8999 128.2L57.8999 132.8L56.9999 133.5L47.8999 128.7L48.8999 128.2Z" fill="#EFC8AD"/>
<path opacity="0.2" d="M48.8999 112.5V128.2L47.8999 128.7V113L48.6999 112.6L48.8999 112.5Z" fill="#122338"/>
<path d="M56.8999 133.3L60.3999 134.8L59.0999 115.1H56.8999V133.3Z" fill="#FFB942"/>
<path d="M94.8 117.3L102.3 113.6V134.7L94.8 138.4V117.3Z" fill="#B3DDE8"/>
<path d="M101.5 114.9V134.2L95.7 137.1V117.8L101.5 114.9ZM103.1 112.3L94 116.8V139.7L103.1 135.2V112.3Z" fill="white"/>
<path d="M98.8 114.7V137" stroke="white" stroke-width="1.6246" stroke-miterlimit="10"/>
<path d="M103.4 113.1L110.8 109.4V130.5L103.4 134.2V113.1Z" fill="#B3DDE8"/>
<path d="M110 110.7V130L104.2 132.9V113.6L110 110.7ZM111.6 108L102.5 112.5V135.5L111.6 131V108Z" fill="white"/>
<path d="M107.4 110.4V132.7" stroke="white" stroke-width="1.6246" stroke-miterlimit="10"/>
<path opacity="0.2" d="M76.3999 119L85.8999 134.1L123.2 115.4V96L76.3999 119Z" fill="#122338"/>
<path d="M76.7998 123.1L85.1998 127" stroke="#122338" stroke-width="1.1744" stroke-miterlimit="10" stroke-linecap="round"/>
<path d="M76.3999 119L122.9 96L130.1 103.8L84.4999 126.9L76.3999 119Z" fill="#FA493F"/>
<path d="M84.5 126.9V129.7L129.7 107.5L130.1 103.8L84.5 126.9Z" fill="#C60D05"/>
<path d="M127.7 37.8044C126.8 37.9044 126.2 36.7044 126.2 35.3044C126.2 33.9044 126.8 32.7044 127.7 32.6044C128.6 32.5044 129.2 33.7044 129.2 35.1044C129.2 36.6044 128.6 37.7044 127.7 37.8044ZM127.8 31.5044C126.4 31.6044 125.4 33.4045 125.4 35.4045C125.4 37.5045 126.3 39.1044 127.7 39.0044C129.1 38.9044 130.1 37.1044 130.1 35.1044C130.1 33.0044 129.1 31.4044 127.8 31.5044Z" fill="white"/>
<path d="M129.5 41.8044L125.8 42.1044V43.2045L127.2 43.1044V49.2045H128V43.1044L129.4 43.0044L129.5 41.8044Z" fill="white"/>
<path d="M129.3 52.2045L126 52.4045L125.9 59.6045L129.2 59.4045L129.3 58.3045L126.7 58.4045V56.5045L129 56.3045V55.2045L126.7 55.4045V53.5045L129.3 53.3045V52.2045Z" fill="white"/>
<path d="M129.3 62.5045L126.2 62.7045V64.1045C126.2 68.4045 125.7 68.9045 125.3 69.0045C125.2 69.0045 125.1 69.0045 125 69.0045L124.9 70.0045C125 70.0045 125.3 70.1045 125.4 70.1045C126.3 70.0045 126.8 69.1045 126.9 64.5045V63.8045L128.5 63.7045L128.4 69.8045L129.2 69.7045L129.3 62.5045Z" fill="white"/>
<path d="M126.4 79.1045V76.7045L127.4 76.6045C128 76.6045 128.3 76.9045 128.3 77.7045C128.3 78.5045 127.9 79.0045 127.4 79.0045L126.4 79.1045ZM126.5 73.0045L125.7 73.1045L125.6 80.3045L127.4 80.2045C128.4 80.1045 129.1 79.2045 129.1 77.7045C129.1 76.2045 128.4 75.5045 127.4 75.6045L126.4 75.7045L126.5 73.0045Z" fill="white"/>
<path d="M28.6001 145.6C26.9001 145.7 25.2001 145.8 23.6001 145.8C18.3001 145.9 13.6001 145.5 11.9001 144.6C10.0001 143.6 11.7001 142.6 14.5001 141.6C14.2001 141.5 13.9001 141.4 13.7001 141.3C11.3001 140 15.4001 138.7 19.8001 137.5C20.9001 137.2 22.0001 137 23.1001 137C26.1001 136.9 28.7001 137.6 30.6001 138.5L38.1001 137.8C38.5001 137.7 40.2001 137.3 40.6001 137.5C41.0001 137.7 41.4001 139.1 41.0001 139.1L32.0001 139.2C33.0001 139.9 33.6001 140.6 33.1001 141.2L35.8001 141.1C36.2001 141 36.1001 142.4 35.6001 142.5L32.5001 142.3C34.7001 143.5 35.2001 145.2 28.6001 145.6ZM15.1001 143.2C15.1001 143.2 15.0001 143.2 15.1001 143.2C15.0001 143.2 15.1001 143.2 15.1001 143.2ZM16.6001 140C16.5001 140 16.5001 140 16.6001 140C16.5001 140 16.5001 140 16.6001 140ZM25.8001 138.7C25.8001 138.7 25.7001 138.7 25.8001 138.7C25.7001 138.7 25.8001 138.7 25.8001 138.7ZM21.4001 137.6C21.3001 137.6 21.3001 137.6 21.3001 137.6C21.3001 137.6 21.3001 137.6 21.4001 137.6C21.5001 137.6 21.5001 137.6 21.5001 137.6H21.4001Z" fill="black" fill-opacity="0.25"/>
<path d="M34.7999 120.1C34.4999 121.8 34.4999 123.2 34.6999 124.3C35.7999 125 37.4 125.3 38.5 125.1C40.1 124.9 41.2999 123.8 42.2999 122.6C43.8999 120.7 44.9 117.9 45.1 115.3C44 110.5 42.2999 106.9 40.3999 106.9C37.2999 107.1 35.8999 113.5 34.7999 120.1Z" fill="#92BA0A"/>
<path d="M39.5 129.1C39.8 129.1 40.1 129.2 40.4 129.2C40.7 129.2 41 129.2 41.2 129.2C44 128.9 46.9 126.7 46 120.2C45.8 118.6 45.5 117 45.1 115.5C44.9 118.1 43.9 120.9 42.3 122.8C41.3 124 40.1 125 38.5 125.3C37.4 125.5 35.8 125.2 34.7 124.5C35.2 127.5 37.4 128.8 39.5 129.1Z" fill="#88AD09"/>
<path d="M40.2999 129.1C39.9999 129.1 39.6999 129.1 39.3999 129V138.3C39.3999 138.8 39.7999 139.2 40.2999 139.2C40.7999 139.2 41.1999 138.8 41.1999 138.3V129C40.8999 129.1 40.5999 129.1 40.2999 129.1Z" fill="#AD712C"/>
<path d="M41.0999 121.3C41.0999 121.5 41.2998 121.6 41.3998 121.6C41.5998 121.6 41.6998 121.4 41.6998 121.3C41.6998 121.1 41.4998 121 41.3998 121C41.2998 121 41.0999 121.1 41.0999 121.3Z" fill="#88AD09"/>
<path d="M39.5 121.8C39.5 121.9 39.6 122 39.7 122C39.8 122 39.9 121.9 39.9 121.8C39.9 121.7 39.8 121.6 39.7 121.6C39.5 121.7 39.5 121.7 39.5 121.8Z" fill="#88AD09"/>
<path d="M41.0999 118.7C41.0999 119 41.3998 119.3 41.6998 119.3C41.9998 119.3 42.2998 119 42.2998 118.7C42.2998 118.4 41.9998 118.1 41.6998 118.1C41.3998 118.1 41.0999 118.3 41.0999 118.7Z" fill="#88AD09"/>
<path d="M39.2 118.5C39.2 118.7 39.3 118.8 39.5 118.8C39.7 118.8 39.8 118.7 39.8 118.5C39.8 118.3 39.7 118.2 39.5 118.2C39.3 118.2 39.2 118.3 39.2 118.5Z" fill="#88AD09"/>
<path d="M37.2998 119C37.2998 119.1 37.3998 119.2 37.4998 119.2C37.5998 119.2 37.6998 119.1 37.6998 119C37.6998 118.9 37.5998 118.8 37.4998 118.8C37.3998 118.8 37.2998 118.9 37.2998 119Z" fill="#88AD09"/>
<path d="M36.5 121.7C36.5 121.8 36.5 121.8 36.5 121.7C36.6 121.8 36.7 121.8 36.7 121.7C36.6 121.7 36.6 121.7 36.5 121.7Z" fill="#88AD09"/>
<path d="M42.2998 115.4C42.2998 115.7 42.4998 115.9 42.7998 115.9C43.0998 115.9 43.2998 115.7 43.2998 115.4C43.2998 115.1 43.0998 114.9 42.7998 114.9C42.4998 114.9 42.2998 115.1 42.2998 115.4Z" fill="#88AD09"/>
<path d="M40.2998 114.5C40.2998 114.6 40.3998 114.8 40.5998 114.8C40.6998 114.8 40.8998 114.7 40.8998 114.5C40.8998 114.4 40.7998 114.2 40.5998 114.2C40.3998 114.3 40.2998 114.4 40.2998 114.5Z" fill="#88AD09"/>
<path d="M40.3999 111C40.3999 111.2 40.5999 111.4 40.7999 111.4C40.9999 111.4 41.1999 111.2 41.1999 111C41.1999 110.8 40.9999 110.6 40.7999 110.6C40.5999 110.6 40.3999 110.8 40.3999 111Z" fill="#88AD09"/>
<path d="M39.7998 109.4C39.9103 109.4 39.9998 109.31 39.9998 109.2C39.9998 109.09 39.9103 109 39.7998 109C39.6894 109 39.5999 109.09 39.5999 109.2C39.5999 109.31 39.6894 109.4 39.7998 109.4Z" fill="#88AD09"/>
<path d="M37 115.3C37 115.6 37.2 115.8 37.5 115.8C37.8 115.8 38 115.6 38 115.3C38 115 37.8 114.8 37.5 114.8C37.3 114.8 37 115 37 115.3Z" fill="#88AD09"/>
<path d="M30.2999 125.6C29.9999 127.1 29.9999 128.3 30.1999 129.4C31.1999 130.1 32.6 130.3 33.6 130.1C35 129.9 36.1 129 37 127.9C38.4 126.2 39.2999 123.8 39.3999 121.5C38.3999 117.3 36.8999 114.1 35.1999 114.1C32.4999 114.1 31.2999 119.8 30.2999 125.6Z" fill="#92BA0A"/>
<path d="M34.3998 133.5C34.6998 133.5 34.8998 133.6 35.1998 133.6C35.4998 133.6 35.6998 133.6 35.8998 133.6C38.3998 133.3 40.8999 131.4 40.0999 125.7C39.8999 124.3 39.5998 122.9 39.2998 121.6C39.0998 123.9 38.1998 126.4 36.8998 128C35.9998 129.1 34.8998 130 33.4998 130.2C32.4998 130.4 31.0999 130.1 30.0999 129.5C30.6999 132.2 32.5998 133.3 34.3998 133.5Z" fill="#88AD09"/>
<path d="M35.1999 133.6C34.8999 133.6 34.6999 133.6 34.3999 133.5V141.7C34.3999 142.1 34.6999 142.5 35.1999 142.5C35.5999 142.5 35.9999 142.2 35.9999 141.7V133.5C35.6999 133.6 35.4999 133.6 35.1999 133.6Z" fill="#AD712C"/>
<path d="M35.8999 126.7C35.8999 126.9 35.9999 127 36.1999 127C36.3999 127 36.4999 126.9 36.4999 126.7C36.4999 126.5 36.3999 126.4 36.1999 126.4C35.9999 126.4 35.8999 126.5 35.8999 126.7Z" fill="#88AD09"/>
<path d="M34.3999 127.1C34.3999 127.2 34.4999 127.2 34.4999 127.2C34.5999 127.2 34.6999 127.1 34.6999 127.1C34.6999 127 34.5999 126.9 34.4999 126.9C34.4999 127 34.3999 127.1 34.3999 127.1Z" fill="#88AD09"/>
<path d="M35.8999 124.3C35.8999 124.6 36.0999 124.8 36.3999 124.8C36.6999 124.8 36.8999 124.6 36.8999 124.3C36.8999 124 36.6999 123.8 36.3999 123.8C36.0999 123.8 35.8999 124.1 35.8999 124.3Z" fill="#88AD09"/>
<path d="M34.2 124.2C34.2 124.4 34.3 124.5 34.5 124.5C34.7 124.5 34.8 124.4 34.8 124.2C34.8 124 34.7 123.9 34.5 123.9C34.3 123.9 34.2 124.1 34.2 124.2Z" fill="#88AD09"/>
<path d="M32.5 124.7C32.5 124.8 32.6 124.9 32.7 124.9C32.8 124.9 32.9 124.8 32.9 124.7C32.9 124.6 32.8 124.5 32.7 124.5C32.6 124.5 32.5 124.6 32.5 124.7Z" fill="#88AD09"/>
<path d="M31.7998 127.1C31.7998 127.1 31.7998 127.2 31.7998 127.1C31.8998 127.2 31.9998 127.1 31.9998 127.1C31.8998 127 31.8998 127 31.7998 127.1C31.7998 127 31.7998 127 31.7998 127.1Z" fill="#88AD09"/>
<path d="M36.8999 121.4C36.8999 121.6 37.0999 121.9 37.2999 121.9C37.5999 121.9 37.7999 121.7 37.7999 121.4C37.7999 121.2 37.5999 121 37.2999 121C37.0999 121 36.8999 121.2 36.8999 121.4Z" fill="#88AD09"/>
<path d="M35.2 120.7C35.2 120.8 35.3 120.9 35.4 120.9C35.5 120.9 35.6 120.8 35.6 120.7C35.6 120.6 35.5 120.5 35.4 120.5C35.3 120.5 35.2 120.6 35.2 120.7Z" fill="#88AD09"/>
<path d="M35.2998 117.6C35.2998 117.8 35.3998 117.9 35.5998 117.9C35.7998 117.9 35.8998 117.8 35.8998 117.6C35.8998 117.4 35.7998 117.3 35.5998 117.3C35.3998 117.2 35.2998 117.4 35.2998 117.6Z" fill="#88AD09"/>
<path d="M34.5999 116C34.5999 116.1 34.6998 116.2 34.7998 116.2C34.8998 116.2 34.9998 116.1 34.9998 116C34.9998 115.9 34.8998 115.8 34.7998 115.8C34.6998 115.8 34.5999 115.9 34.5999 116Z" fill="#88AD09"/>
<path d="M32.2998 121.4C32.2998 121.7 32.4998 121.9 32.7998 121.9C33.0998 121.9 33.2998 121.7 33.2998 121.4C33.2998 121.1 33.0998 120.9 32.7998 120.9C32.4998 120.9 32.2998 121.1 32.2998 121.4Z" fill="#88AD09"/>
<path d="M49.6999 158.4C47.9999 158.5 46.2999 158.6 44.6999 158.6C39.3999 158.7 34.6999 158.3 32.9999 157.4C31.0999 156.4 32.7999 155.4 35.5999 154.4C35.2999 154.3 34.9999 154.2 34.7999 154.1C32.3999 152.8 36.4999 151.5 40.8999 150.3C41.9999 150 43.0999 149.8 44.1999 149.8C47.1999 149.7 49.7999 150.4 51.6999 151.3L59.1999 150.6C59.5999 150.5 61.2999 150.1 61.6999 150.3C62.0999 150.5 62.4999 151.9 62.0999 151.9L53.0999 152C54.0999 152.7 54.6999 153.4 54.1999 154L56.8999 153.9C57.2999 153.8 57.1999 155.2 56.6999 155.3L53.5999 155.1C55.7999 156.3 56.2999 158 49.6999 158.4ZM36.2999 156C36.1999 156 36.1999 156 36.2999 156C36.1999 156 36.1999 156 36.2999 156ZM37.6999 152.8C37.7999 152.8 37.7999 152.8 37.6999 152.8C37.7999 152.8 37.7999 152.8 37.6999 152.8ZM46.9999 151.4C46.8999 151.5 46.8999 151.5 46.9999 151.4C46.8999 151.5 46.8999 151.5 46.9999 151.4ZM42.4999 150.4C42.3999 150.4 42.3999 150.4 42.3999 150.4H42.4999C42.5999 150.4 42.5999 150.4 42.5999 150.4C42.5999 150.4 42.5999 150.4 42.4999 150.4Z" fill="black" fill-opacity="0.25"/>
<path d="M55.9 132.9C55.6 134.6 55.6 136 55.8 137.1C56.9 137.8 58.5 138.1 59.6 137.9C61.2 137.7 62.4 136.6 63.4 135.4C65 133.5 66 130.7 66.2 128.1C65.1 123.3 63.4 119.7 61.5 119.7C58.4 119.9 57.1 126.3 55.9 132.9Z" fill="#92BA0A"/>
<path d="M60.6001 141.8C60.9001 141.8 61.2001 141.9 61.5001 141.9C61.8001 141.9 62.1 141.9 62.3 141.9C65.1 141.6 68.0001 139.4 67.1001 132.9C66.9001 131.3 66.6 129.7 66.2 128.2C66 130.8 65.0001 133.6 63.4001 135.5C62.4001 136.7 61.2001 137.7 59.6001 138C58.5001 138.2 56.9 137.9 55.8 137.2C56.4 140.3 58.5001 141.6 60.6001 141.8Z" fill="#88AD09"/>
<path d="M61.5001 141.9C61.2001 141.9 60.9001 141.9 60.6001 141.8V151.1C60.6001 151.6 61.0001 152 61.5001 152C62.0001 152 62.4001 151.6 62.4001 151.1V141.8C62.1001 141.9 61.8001 141.9 61.5001 141.9Z" fill="#AD712C"/>
<path d="M62.3 134.1C62.3 134.3 62.5001 134.4 62.6001 134.4C62.8001 134.4 62.9001 134.2 62.9001 134.1C62.9001 133.9 62.7001 133.8 62.6001 133.8C62.5001 133.8 62.3 133.9 62.3 134.1Z" fill="#88AD09"/>
<path d="M60.6001 134.6C60.6001 134.7 60.7001 134.8 60.8001 134.8C60.9001 134.8 61.0001 134.7 61.0001 134.6C61.0001 134.5 60.9001 134.4 60.8001 134.4C60.7001 134.4 60.6001 134.5 60.6001 134.6Z" fill="#88AD09"/>
<path d="M62.3 131.5C62.3 131.8 62.6001 132.1 62.9001 132.1C63.2001 132.1 63.5001 131.8 63.5001 131.5C63.5001 131.2 63.2001 130.9 62.9001 130.9C62.6001 130.9 62.3 131.1 62.3 131.5Z" fill="#88AD09"/>
<path d="M60.3 131.3C60.3 131.5 60.4001 131.6 60.6001 131.6C60.8001 131.6 60.9001 131.5 60.9001 131.3C60.9001 131.1 60.8001 131 60.6001 131C60.5001 131 60.3 131.1 60.3 131.3Z" fill="#88AD09"/>
<path d="M58.5 131.8C58.5 131.9 58.6 132 58.7 132C58.8 132 58.9 131.9 58.9 131.8C58.9 131.7 58.8 131.6 58.7 131.6C58.6 131.6 58.5 131.7 58.5 131.8Z" fill="#88AD09"/>
<path d="M57.6001 134.5C57.6001 134.6 57.7001 134.6 57.6001 134.5C57.7001 134.6 57.8001 134.6 57.8001 134.5C57.8001 134.5 57.8001 134.4 57.6001 134.5C57.7001 134.4 57.6001 134.5 57.6001 134.5Z" fill="#88AD09"/>
<path d="M63.5 128.2C63.5 128.5 63.7 128.7 64 128.7C64.3 128.7 64.5 128.5 64.5 128.2C64.5 127.9 64.3 127.7 64 127.7C63.7 127.7 63.5 127.9 63.5 128.2Z" fill="#88AD09"/>
<path d="M61.5 127.3C61.5 127.4 61.6 127.6 61.8 127.6C61.9 127.6 62.1 127.5 62.1 127.3C62.1 127.2 62 127 61.8 127C61.6 127.1 61.5 127.2 61.5 127.3Z" fill="#88AD09"/>
<path d="M61.6001 123.8C61.6001 124 61.8001 124.2 62.0001 124.2C62.2001 124.2 62.4001 124 62.4001 123.8C62.4001 123.6 62.2001 123.4 62.0001 123.4C61.7001 123.4 61.6001 123.6 61.6001 123.8Z" fill="#88AD09"/>
<path d="M61.0001 122.2C61.1105 122.2 61.2 122.11 61.2 122C61.2 121.89 61.1105 121.8 61.0001 121.8C60.8896 121.8 60.8 121.89 60.8 122C60.8 122.11 60.8896 122.2 61.0001 122.2Z" fill="#88AD09"/>
<path d="M58.2 128.1C58.2 128.4 58.4 128.6 58.7 128.6C59 128.6 59.2 128.4 59.2 128.1C59.2 127.8 59 127.6 58.7 127.6C58.4 127.6 58.2 127.8 58.2 128.1Z" fill="#88AD09"/>
<path d="M51.4 138.4C51.1 139.9 51.1 141.1 51.3 142.2C52.3 142.9 53.7 143.1 54.7 142.9C56.1 142.7 57.2 141.8 58.1 140.7C59.5 139 60.4 136.6 60.5 134.3C59.5 130.1 58 126.9 56.3 126.9C53.7 126.9 52.4 132.6 51.4 138.4Z" fill="#92BA0A"/>
<path d="M55.6001 146.3C55.9001 146.3 56.1001 146.4 56.4001 146.4C56.7001 146.4 56.9001 146.4 57.1001 146.4C59.6001 146.1 62.1 144.2 61.3 138.5C61.1 137.1 60.8001 135.7 60.5001 134.4C60.3001 136.7 59.4001 139.2 58.1001 140.8C57.2001 141.9 56.1 142.8 54.7 143C53.7 143.2 52.3 142.9 51.3 142.3C51.9 145 53.7001 146.1 55.6001 146.3Z" fill="#88AD09"/>
<path d="M56.4001 146.4C56.1001 146.4 55.9001 146.4 55.6001 146.3V154.5C55.6001 154.9 55.9001 155.3 56.4001 155.3C56.8001 155.3 57.2001 155 57.2001 154.5V146.3C56.9001 146.4 56.6001 146.4 56.4001 146.4Z" fill="#AD712C"/>
<path d="M57.1001 139.5C57.1001 139.7 57.2001 139.8 57.4001 139.8C57.6001 139.8 57.7001 139.7 57.7001 139.5C57.7001 139.3 57.6001 139.2 57.4001 139.2C57.2001 139.2 57.1001 139.3 57.1001 139.5Z" fill="#88AD09"/>
<path d="M55.6001 139.9C55.6001 140 55.7001 140 55.7001 140C55.8001 140 55.9001 139.9 55.9001 139.9C55.9001 139.8 55.8001 139.7 55.7001 139.7C55.7001 139.8 55.6001 139.8 55.6001 139.9Z" fill="#88AD09"/>
<path d="M57.1001 137.1C57.1001 137.4 57.3001 137.6 57.6001 137.6C57.9001 137.6 58.1001 137.4 58.1001 137.1C58.1001 136.8 57.9001 136.6 57.6001 136.6C57.3001 136.6 57.1001 136.9 57.1001 137.1Z" fill="#88AD09"/>
<path d="M55.3 137C55.3 137.2 55.4001 137.3 55.6001 137.3C55.8001 137.3 55.9001 137.2 55.9001 137C55.9001 136.8 55.8001 136.7 55.6001 136.7C55.5001 136.7 55.3 136.8 55.3 137Z" fill="#88AD09"/>
<path d="M53.7 137.5C53.7 137.6 53.8 137.7 53.9 137.7C54 137.7 54.1 137.6 54.1 137.5C54.1 137.4 54 137.3 53.9 137.3C53.8 137.3 53.7 137.4 53.7 137.5Z" fill="#88AD09"/>
<path d="M53 139.9C53.1 140 53.2 139.9 53.2 139.9C53.1 139.8 53.1 139.8 53 139.9C53 139.8 53 139.8 53 139.9Z" fill="#88AD09"/>
<path d="M58.1001 134.2C58.1001 134.4 58.3001 134.7 58.5001 134.7C58.8001 134.7 59.0001 134.5 59.0001 134.2C59.0001 134 58.8001 133.8 58.5001 133.8C58.3001 133.8 58.1001 134 58.1001 134.2Z" fill="#88AD09"/>
<path d="M56.3999 133.5C56.3999 133.6 56.4999 133.7 56.5999 133.7C56.6999 133.7 56.7999 133.6 56.7999 133.5C56.7999 133.4 56.6999 133.3 56.5999 133.3C56.4999 133.2 56.3999 133.4 56.3999 133.5Z" fill="#88AD09"/>
<path d="M56.3999 130.3C56.3999 130.5 56.4999 130.6 56.6999 130.6C56.8999 130.6 56.9999 130.5 56.9999 130.3C56.9999 130.1 56.8999 130 56.6999 130C56.5999 130 56.3999 130.2 56.3999 130.3Z" fill="#88AD09"/>
<path d="M55.7 128.8C55.7 128.9 55.8 129 55.9 129C56 129 56.1 128.9 56.1 128.8C56.1 128.7 56 128.6 55.9 128.6C55.8 128.6 55.7 128.7 55.7 128.8Z" fill="#88AD09"/>
<path d="M53.3999 134.2C53.3999 134.5 53.5999 134.7 53.8999 134.7C54.1999 134.7 54.3999 134.5 54.3999 134.2C54.3999 133.9 54.1999 133.7 53.8999 133.7C53.6999 133.7 53.3999 133.9 53.3999 134.2Z" fill="#88AD09"/>
<defs>
<clipPath id="clip0">
<rect width="9.7" height="59" fill="white" transform="translate(121.9 25.5)"/>
</clipPath>
</defs>
</svg>
