<svg width="23" height="21" viewBox="0 0 23 21" fill="none" xmlns="http://www.w3.org/2000/svg">
<path d="M3 7C3 7.55 3.45 8 4 8C4.55 8 5 7.55 5 7V5H7C7.55 5 8 4.55 8 4C8 3.45 7.55 3 7 3H5V1C5 0.45 4.55 0 4 0C3.45 0 3 0.45 3 1V3H1C0.45 3 0 3.45 0 4C0 4.55 0.45 5 1 5H3V7Z" fill="#333333"/>
<path d="M13 16C14.6569 16 16 14.6569 16 13C16 11.3431 14.6569 10 13 10C11.3431 10 10 11.3431 10 13C10 14.6569 11.3431 16 13 16Z" fill="#333333"/>
<path d="M21 5H17.83L16.59 3.65C16.4036 3.44539 16.1767 3.28191 15.9235 3.16999C15.6704 3.05807 15.3968 3.00017 15.12 3H8.72C8.89 3.3 9 3.63 9 4C9 5.1 8.1 6 7 6H6V7C6 8.1 5.1 9 4 9C3.63 9 3.3 8.89 3 8.72V19C3 20.1 3.9 21 5 21H21C22.1 21 23 20.1 23 19V7C23 5.9 22.1 5 21 5ZM13 18C10.24 18 8 15.76 8 13C8 10.24 10.24 8 13 8C15.76 8 18 10.24 18 13C18 15.76 15.76 18 13 18Z" fill="#333333"/>
</svg>
