<svg width="124" height="66" viewBox="0 0 124 66" fill="none" xmlns="http://www.w3.org/2000/svg">
<g filter="url(#filter0_d)">
<path d="M3 8C3 4.68629 5.68629 2 9 2H115C118.314 2 121 4.68629 121 8V39.6296C121 42.9433 118.314 45.6296 115 45.6296H36.0244C33.4374 45.6296 31.1417 47.2878 30.3285 49.7437L26.5576 61.1329C26.2549 62.0471 24.9616 62.0471 24.6589 61.1329L20.888 49.7437C20.0748 47.2878 17.7791 45.6296 15.1921 45.6296H9C5.68629 45.6296 3 42.9433 3 39.6296V8Z" fill="white"/>
</g>
<path d="M52.4717 21H50.4141V12.708H46.4287V21H44.3779V11.0469H52.4717V21ZM62.4521 16.249C62.4521 17.2288 62.279 18.0879 61.9326 18.8262C61.5863 19.5645 61.0895 20.1341 60.4424 20.5352C59.7998 20.9362 59.0615 21.1367 58.2275 21.1367C57.4027 21.1367 56.6667 20.9385 56.0195 20.542C55.3724 20.1455 54.8711 19.5804 54.5156 18.8467C54.1602 18.1084 53.9801 17.2607 53.9756 16.3037V15.8115C53.9756 14.8317 54.151 13.9704 54.502 13.2275C54.8574 12.4801 55.3564 11.9082 55.999 11.5117C56.6462 11.1107 57.3844 10.9102 58.2139 10.9102C59.0433 10.9102 59.7793 11.1107 60.4219 11.5117C61.069 11.9082 61.568 12.4801 61.9189 13.2275C62.2744 13.9704 62.4521 14.8294 62.4521 15.8047V16.249ZM60.374 15.7979C60.374 14.7542 60.1872 13.9613 59.8135 13.4189C59.4398 12.8766 58.9066 12.6055 58.2139 12.6055C57.5257 12.6055 56.9948 12.8743 56.6211 13.4121C56.2474 13.9453 56.0583 14.7292 56.0537 15.7637V16.249C56.0537 17.2653 56.2406 18.0537 56.6143 18.6143C56.988 19.1748 57.5257 19.4551 58.2275 19.4551C58.9157 19.4551 59.4443 19.1862 59.8135 18.6484C60.1826 18.1061 60.3695 17.3177 60.374 16.2832V15.7979ZM67.1895 16.9326H66.0068V21H63.9561V11.0469H66.0068V15.0322H66.9434L69.377 11.0469H71.8789L68.8096 15.7568L72.2002 21H69.7529L67.1895 16.9326ZM78.6123 18.9492H75.0166L74.333 21H72.1523L75.8574 11.0469H77.7578L81.4834 21H79.3027L78.6123 18.9492ZM75.5703 17.2881H78.0586L76.8076 13.5625L75.5703 17.2881ZM24.6426 37H22.5918V32.7344H18.5928V37H16.542V27.0469H18.5928V31.0801H22.5918V27.0469H24.6426V37ZM32.4287 32.6865H28.4912V35.3525H33.1123V37H26.4404V27.0469H33.0986V28.708H28.4912V31.0801H32.4287V32.6865ZM43.5439 39.4473H41.6504V37H35.6484V39.4404H33.707L33.5977 35.3525H34.3496C34.7552 35.0153 35.0674 34.5208 35.2861 33.8691C35.5094 33.2129 35.6598 32.4017 35.7373 31.4355L36.0244 27.0469H42.5459V35.3525H43.708L43.5439 39.4473ZM36.7012 35.3525H40.4951V28.708H37.9727L37.8018 31.3262C37.665 33.0807 37.2982 34.4229 36.7012 35.3525ZM52.7998 32.249C52.7998 33.2288 52.6266 34.0879 52.2803 34.8262C51.9339 35.5645 51.4372 36.1341 50.79 36.5352C50.1475 36.9362 49.4092 37.1367 48.5752 37.1367C47.7503 37.1367 47.0143 36.9385 46.3672 36.542C45.7201 36.1455 45.2188 35.5804 44.8633 34.8467C44.5078 34.1084 44.3278 33.2607 44.3232 32.3037V31.8115C44.3232 30.8317 44.4987 29.9704 44.8496 29.2275C45.2051 28.4801 45.7041 27.9082 46.3467 27.5117C46.9938 27.1107 47.7321 26.9102 48.5615 26.9102C49.391 26.9102 50.127 27.1107 50.7695 27.5117C51.4167 27.9082 51.9157 28.4801 52.2666 29.2275C52.6221 29.9704 52.7998 30.8294 52.7998 31.8047V32.249ZM50.7217 31.7979C50.7217 30.7542 50.5348 29.9613 50.1611 29.4189C49.7874 28.8766 49.2542 28.6055 48.5615 28.6055C47.8734 28.6055 47.3424 28.8743 46.9688 29.4121C46.5951 29.9453 46.4059 30.7292 46.4014 31.7637V32.249C46.4014 33.2653 46.5882 34.0537 46.9619 34.6143C47.3356 35.1748 47.8734 35.4551 48.5752 35.4551C49.2633 35.4551 49.792 35.1862 50.1611 34.6484C50.5303 34.1061 50.7171 33.3177 50.7217 32.2832V31.7979ZM62.1035 33.6846C62.026 34.7555 61.6296 35.5986 60.9141 36.2139C60.2031 36.8291 59.2643 37.1367 58.0977 37.1367C56.8216 37.1367 55.8167 36.7083 55.083 35.8516C54.3538 34.9902 53.9893 33.8099 53.9893 32.3105V31.7021C53.9893 30.7451 54.1579 29.902 54.4951 29.1729C54.8324 28.4437 55.3132 27.8854 55.9375 27.498C56.5664 27.1061 57.2956 26.9102 58.125 26.9102C59.2734 26.9102 60.1986 27.2178 60.9004 27.833C61.6022 28.4482 62.0078 29.3118 62.1172 30.4238H60.0664C60.0163 29.7812 59.8363 29.3164 59.5264 29.0293C59.221 28.7376 58.7539 28.5918 58.125 28.5918C57.4414 28.5918 56.9287 28.8379 56.5869 29.3301C56.2497 29.8177 56.0765 30.5765 56.0674 31.6064V32.3584C56.0674 33.4339 56.2292 34.2201 56.5527 34.7168C56.8809 35.2135 57.3958 35.4619 58.0977 35.4619C58.7311 35.4619 59.2028 35.3184 59.5127 35.0312C59.8271 34.7396 60.0072 34.2907 60.0527 33.6846H62.1035ZM70.7373 28.708H67.6885V37H65.6377V28.708H62.6299V27.0469H70.7373V28.708ZM75.6455 31.75L77.457 27.0469H79.6719L76.1924 35.2568L75.9121 35.7969C75.3971 36.6947 74.6087 37.1436 73.5469 37.1436L72.8291 37.1162L72.8086 35.4688C72.918 35.487 73.0957 35.4961 73.3418 35.4961C73.6289 35.4961 73.859 35.446 74.0322 35.3457C74.21 35.2454 74.3581 35.0609 74.4766 34.792L74.7295 34.1426L71.2363 27.0469H73.4443L75.6455 31.75ZM88.8662 37H86.8086V28.708H82.8232V37H80.7725V27.0469H88.8662V37ZM98.7715 37H96.7207V32.7344H92.7217V37H90.6709V27.0469H92.7217V31.0801H96.7207V27.0469H98.7715V37ZM108.745 32.249C108.745 33.2288 108.572 34.0879 108.226 34.8262C107.879 35.5645 107.382 36.1341 106.735 36.5352C106.093 36.9362 105.354 37.1367 104.521 37.1367C103.696 37.1367 102.96 36.9385 102.312 36.542C101.665 36.1455 101.164 35.5804 100.809 34.8467C100.453 34.1084 100.273 33.2607 100.269 32.3037V31.8115C100.269 30.8317 100.444 29.9704 100.795 29.2275C101.15 28.4801 101.649 27.9082 102.292 27.5117C102.939 27.1107 103.677 26.9102 104.507 26.9102C105.336 26.9102 106.072 27.1107 106.715 27.5117C107.362 27.9082 107.861 28.4801 108.212 29.2275C108.567 29.9704 108.745 30.8294 108.745 31.8047V32.249ZM106.667 31.7979C106.667 30.7542 106.48 29.9613 106.106 29.4189C105.733 28.8766 105.2 28.6055 104.507 28.6055C103.819 28.6055 103.288 28.8743 102.914 29.4121C102.54 29.9453 102.351 30.7292 102.347 31.7637V32.249C102.347 33.2653 102.534 34.0537 102.907 34.6143C103.281 35.1748 103.819 35.4551 104.521 35.4551C105.209 35.4551 105.737 35.1862 106.106 34.6484C106.476 34.1061 106.662 33.3177 106.667 32.2832V31.7979Z" fill="#26B258"/>
<defs>
<filter id="filter0_d" x="0" y="0" width="124" height="65.8185" filterUnits="userSpaceOnUse" color-interpolation-filters="sRGB">
<feFlood flood-opacity="0" result="BackgroundImageFix"/>
<feColorMatrix in="SourceAlpha" type="matrix" values="0 0 0 0 0 0 0 0 0 0 0 0 0 0 0 0 0 0 127 0"/>
<feOffset dy="1"/>
<feGaussianBlur stdDeviation="1.5"/>
<feColorMatrix type="matrix" values="0 0 0 0 0 0 0 0 0 0 0 0 0 0 0 0 0 0 0.12 0"/>
<feBlend mode="normal" in2="BackgroundImageFix" result="effect1_dropShadow"/>
<feBlend mode="normal" in="SourceGraphic" in2="effect1_dropShadow" result="shape"/>
</filter>
</defs>
</svg>
