<svg id="Layer_1" data-name="Layer 1" xmlns="http://www.w3.org/2000/svg" viewBox="0 0 25 22.5"><defs><style>.cls-1{fill:#f64646;}</style></defs><title>favourites</title><path class="cls-1" d="M3.41,9.66l.2.4-.2-.4ZM24.5,7.6a8.53,8.53,0,0,1-.56,2.94,14.18,14.18,0,0,1-1.34,2.58,25,25,0,0,1-3.72,4.31,41.66,41.66,0,0,1-5.24,4.19l-.66.43a.88.88,0,0,1-1,0l-.66-.43a41.66,41.66,0,0,1-5.24-4.19A25,25,0,0,1,2.4,13.12a14.18,14.18,0,0,1-1.34-2.58A8.53,8.53,0,0,1,.5,7.6a7.58,7.58,0,0,1,.58-2.9A7.39,7.39,0,0,1,5,.77a7.28,7.28,0,0,1,6.71.53,9.37,9.37,0,0,1,.79.57c.25-.2.52-.39.79-.57A7.35,7.35,0,0,1,24.5,7.6Zm-2.5,0a5.06,5.06,0,0,0-.38-1.92,5,5,0,0,0-1.05-1.55h0a5,5,0,0,0-1.54-1h0a4.8,4.8,0,0,0-1.86-.38h0a4.84,4.84,0,0,0-2.54.73h0a4.09,4.09,0,0,0-.52.38L12.5,5.12,10.9,3.8a4.82,4.82,0,0,0-.51-.38h0a4.9,4.9,0,0,0-2.55-.73A4.72,4.72,0,0,0,6,3.07H6a5,5,0,0,0-1.54,1h0a4.8,4.8,0,0,0-1,1.55A4.9,4.9,0,0,0,3,7.6a5.78,5.78,0,0,0,.41,2.06h0a10.73,10.73,0,0,0,1.08,2.09l-.88-1.69.88,1.69a22.35,22.35,0,0,0,3.35,3.86h0a40.38,40.38,0,0,0,3.33,2.81c.61.45,1.08.78,1.33.95a39.45,39.45,0,0,0,4.66-3.76,22.35,22.35,0,0,0,3.35-3.86,10.41,10.41,0,0,0,1.08-2.08h0A5.78,5.78,0,0,0,22,7.6Z"/></svg>