<svg width="24" height="20" viewBox="0 0 24 20" fill="none" xmlns="http://www.w3.org/2000/svg">
<path d="M11.8983 0C10.0678 0 8.54237 1.5544 8.54237 3.41969C8.54237 4.97409 9.66102 6.32124 11.0847 6.73575V19.0674C11.0847 19.5855 11.4915 19.8964 12 19.8964C12.5085 19.8964 12.8136 19.4819 12.8136 19.0674V6.73575C14.2373 6.32124 15.2542 5.07772 15.2542 3.41969C15.2542 1.5544 13.8305 0 11.8983 0ZM11.8983 5.07772C10.9831 5.07772 10.2712 4.35233 10.2712 3.41969C10.2712 2.48705 10.9831 1.76166 11.8983 1.76166C12.8136 1.76166 13.5254 2.48705 13.5254 3.41969C13.5254 4.35233 12.8136 5.07772 11.8983 5.07772ZM4.27119 6.5285V0.932642C4.27119 0.414508 3.86441 0 3.35593 0C2.84746 0 2.54237 0.414508 2.54237 0.932642V6.5285C1.11864 6.83938 0 8.18653 0 9.84456C0 11.399 1.11864 12.7461 2.54237 13.1606V19.171C2.54237 19.6891 2.94915 20 3.45763 20C3.9661 20 4.37288 19.5855 4.37288 19.171V13.1606C5.79661 12.7461 6.91525 11.399 6.91525 9.84456C6.71186 8.18653 5.69492 6.83938 4.27119 6.5285ZM3.35593 11.5026C2.44068 11.5026 1.72881 10.7772 1.72881 9.84456C1.72881 8.91192 2.44068 8.18653 3.35593 8.18653C4.27119 8.18653 4.98305 8.91192 4.98305 9.84456C4.98305 10.7772 4.27119 11.5026 3.35593 11.5026ZM24 12.7461C24 11.1917 22.8814 9.84456 21.4576 9.43005V0.932642C21.4576 0.414508 21.0508 0 20.6441 0C20.2373 0 19.8305 0.414508 19.8305 0.932642V9.53368C18.3051 9.84456 17.2881 11.1917 17.2881 12.7461C17.2881 14.3005 18.4068 15.6477 19.8305 16.0622V19.171C19.8305 19.6891 20.2373 20 20.6441 20C21.0508 20 21.4576 19.5855 21.4576 19.171V16.0622C22.9831 15.6477 24 14.3005 24 12.7461ZM20.6441 14.4041C19.7288 14.4041 19.017 13.6788 19.017 12.7461C19.017 11.8135 19.7288 11.0881 20.6441 11.0881C21.5593 11.0881 22.2712 11.8135 22.2712 12.7461C22.2712 13.6788 21.5593 14.4041 20.6441 14.4041Z" fill="#333333"/>
</svg>
