<svg width="320" height="582" viewBox="0 0 320 582" fill="none" xmlns="http://www.w3.org/2000/svg">
<rect width="320" height="582" fill="black" fill-opacity="0.38"/>
<path d="M266.613 325.04C266.632 324.28 265.925 323.646 265.034 323.624L250.514 323.261C249.623 323.238 248.886 323.837 248.867 324.597C248.848 325.357 249.555 325.991 250.446 326.013L263.352 326.336L263.077 337.347C263.058 338.107 263.765 338.741 264.656 338.763C265.547 338.786 266.285 338.188 266.304 337.427L266.613 325.04ZM229.116 356.002L266.116 326.002L263.884 323.998L226.884 353.998L229.116 356.002Z" fill="white"/>
<path d="M95.2371 194.578C94.5671 194.937 94.3655 195.866 94.7869 196.651L101.654 209.45C102.075 210.235 102.96 210.581 103.63 210.221C104.3 209.862 104.501 208.933 104.08 208.148L97.9763 196.771L107.682 191.564C108.352 191.205 108.553 190.277 108.132 189.491C107.711 188.706 106.826 188.36 106.156 188.72L95.2371 194.578ZM140.693 211.852L96.3184 194.534L95.6817 197.466L140.056 214.783L140.693 211.852Z" fill="white"/>
<path d="M228 355L265 325" stroke="white" stroke-width="3" stroke-linecap="round"/>
<path d="M140.375 213.317L96.0001 196" stroke="white" stroke-width="3" stroke-linecap="round"/>
<path d="M82.0078 373H80.5V362.859H74.8906V373H73.3906V361.625H82.0078V373ZM91.6562 368.867C91.6562 370.154 91.362 371.19 90.7734 371.977C90.1849 372.763 89.388 373.156 88.3828 373.156C87.3568 373.156 86.5495 372.831 85.9609 372.18V376.25H84.5156V364.547H85.8359L85.9062 365.484C86.4948 364.755 87.3125 364.391 88.3594 364.391C89.375 364.391 90.1771 364.773 90.7656 365.539C91.3594 366.305 91.6562 367.37 91.6562 368.734V368.867ZM90.2109 368.703C90.2109 367.75 90.0078 366.997 89.6016 366.445C89.1953 365.893 88.638 365.617 87.9297 365.617C87.0547 365.617 86.3984 366.005 85.9609 366.781V370.82C86.3932 371.591 87.0547 371.977 87.9453 371.977C88.638 371.977 89.1875 371.703 89.5938 371.156C90.0052 370.604 90.2109 369.786 90.2109 368.703ZM93.1172 368.695C93.1172 367.867 93.2786 367.122 93.6016 366.461C93.9297 365.799 94.3828 365.289 94.9609 364.93C95.5443 364.57 96.2083 364.391 96.9531 364.391C98.1042 364.391 99.0339 364.789 99.7422 365.586C100.456 366.383 100.812 367.443 100.812 368.766V368.867C100.812 369.69 100.654 370.43 100.336 371.086C100.023 371.737 99.5729 372.245 98.9844 372.609C98.401 372.974 97.7292 373.156 96.9688 373.156C95.8229 373.156 94.8932 372.758 94.1797 371.961C93.4714 371.164 93.1172 370.109 93.1172 368.797V368.695ZM94.5703 368.867C94.5703 369.805 94.7865 370.557 95.2188 371.125C95.6562 371.693 96.2396 371.977 96.9688 371.977C97.7031 371.977 98.2865 371.69 98.7188 371.117C99.151 370.539 99.3672 369.732 99.3672 368.695C99.3672 367.768 99.1458 367.018 98.7031 366.445C98.2656 365.867 97.6823 365.578 96.9531 365.578C96.2396 365.578 95.6641 365.862 95.2266 366.43C94.7891 366.997 94.5703 367.81 94.5703 368.867ZM102.758 373V364.547H106.055C107.18 364.547 108.042 364.745 108.641 365.141C109.245 365.531 109.547 366.107 109.547 366.867C109.547 367.258 109.43 367.612 109.195 367.93C108.961 368.242 108.615 368.482 108.156 368.648C108.667 368.768 109.076 369.003 109.383 369.352C109.695 369.701 109.852 370.117 109.852 370.602C109.852 371.378 109.565 371.971 108.992 372.383C108.424 372.794 107.62 373 106.578 373H102.758ZM104.203 369.289V371.836H106.594C107.198 371.836 107.648 371.724 107.945 371.5C108.247 371.276 108.398 370.961 108.398 370.555C108.398 369.711 107.779 369.289 106.539 369.289H104.203ZM104.203 368.133H106.07C107.424 368.133 108.102 367.737 108.102 366.945C108.102 366.154 107.461 365.745 106.18 365.719H104.203V368.133ZM115.273 373.156C114.128 373.156 113.195 372.781 112.477 372.031C111.758 371.276 111.398 370.268 111.398 369.008V368.742C111.398 367.904 111.557 367.156 111.875 366.5C112.198 365.839 112.646 365.323 113.219 364.953C113.797 364.578 114.422 364.391 115.094 364.391C116.193 364.391 117.047 364.753 117.656 365.477C118.266 366.201 118.57 367.237 118.57 368.586V369.188H112.844C112.865 370.021 113.107 370.695 113.57 371.211C114.039 371.721 114.633 371.977 115.352 371.977C115.862 371.977 116.294 371.872 116.648 371.664C117.003 371.456 117.312 371.18 117.578 370.836L118.461 371.523C117.753 372.612 116.69 373.156 115.273 373.156ZM115.094 365.578C114.51 365.578 114.021 365.792 113.625 366.219C113.229 366.641 112.984 367.234 112.891 368H117.125V367.891C117.083 367.156 116.885 366.589 116.531 366.188C116.177 365.781 115.698 365.578 115.094 365.578ZM127.391 368.867C127.391 370.154 127.096 371.19 126.508 371.977C125.919 372.763 125.122 373.156 124.117 373.156C123.091 373.156 122.284 372.831 121.695 372.18V376.25H120.25V364.547H121.57L121.641 365.484C122.229 364.755 123.047 364.391 124.094 364.391C125.109 364.391 125.911 364.773 126.5 365.539C127.094 366.305 127.391 367.37 127.391 368.734V368.867ZM125.945 368.703C125.945 367.75 125.742 366.997 125.336 366.445C124.93 365.893 124.372 365.617 123.664 365.617C122.789 365.617 122.133 366.005 121.695 366.781V370.82C122.128 371.591 122.789 371.977 123.68 371.977C124.372 371.977 124.922 371.703 125.328 371.156C125.74 370.604 125.945 369.786 125.945 368.703ZM134.703 364.547H136.148V373H134.703V366.836L130.805 373H129.359V364.547H130.805V370.719L134.703 364.547ZM144.75 365.719H141.914V373H140.469V365.719H137.688V364.547H144.75V365.719ZM147.734 367.461H149.93C150.888 367.471 151.646 367.721 152.203 368.211C152.76 368.701 153.039 369.365 153.039 370.203C153.039 371.047 152.753 371.724 152.18 372.234C151.607 372.745 150.836 373 149.867 373H146.289V364.547H147.734V367.461ZM147.734 368.641V371.82H149.883C150.424 371.82 150.844 371.682 151.141 371.406C151.438 371.125 151.586 370.742 151.586 370.258C151.586 369.789 151.44 369.406 151.148 369.109C150.862 368.807 150.458 368.651 149.938 368.641H147.734ZM165.727 373H164.281V365.742H160.391V373H158.938V364.547H165.727V373ZM175.188 368.867C175.188 370.154 174.893 371.19 174.305 371.977C173.716 372.763 172.919 373.156 171.914 373.156C170.888 373.156 170.081 372.831 169.492 372.18V376.25H168.047V364.547H169.367L169.438 365.484C170.026 364.755 170.844 364.391 171.891 364.391C172.906 364.391 173.708 364.773 174.297 365.539C174.891 366.305 175.188 367.37 175.188 368.734V368.867ZM173.742 368.703C173.742 367.75 173.539 366.997 173.133 366.445C172.727 365.893 172.169 365.617 171.461 365.617C170.586 365.617 169.93 366.005 169.492 366.781V370.82C169.924 371.591 170.586 371.977 171.477 371.977C172.169 371.977 172.719 371.703 173.125 371.156C173.536 370.604 173.742 369.786 173.742 368.703ZM176.648 368.695C176.648 367.867 176.81 367.122 177.133 366.461C177.461 365.799 177.914 365.289 178.492 364.93C179.076 364.57 179.74 364.391 180.484 364.391C181.635 364.391 182.565 364.789 183.273 365.586C183.987 366.383 184.344 367.443 184.344 368.766V368.867C184.344 369.69 184.185 370.43 183.867 371.086C183.555 371.737 183.104 372.245 182.516 372.609C181.932 372.974 181.26 373.156 180.5 373.156C179.354 373.156 178.424 372.758 177.711 371.961C177.003 371.164 176.648 370.109 176.648 368.797V368.695ZM178.102 368.867C178.102 369.805 178.318 370.557 178.75 371.125C179.188 371.693 179.771 371.977 180.5 371.977C181.234 371.977 181.818 371.69 182.25 371.117C182.682 370.539 182.898 369.732 182.898 368.695C182.898 367.768 182.677 367.018 182.234 366.445C181.797 365.867 181.214 365.578 180.484 365.578C179.771 365.578 179.195 365.862 178.758 366.43C178.32 366.997 178.102 367.81 178.102 368.867ZM191.625 364.547H193.07V373H191.625V366.836L187.727 373H186.281V364.547H187.727V370.719L191.625 364.547ZM200.039 366.859C200.039 366.464 199.888 366.151 199.586 365.922C199.284 365.688 198.87 365.57 198.344 365.57C197.833 365.57 197.406 365.703 197.062 365.969C196.724 366.234 196.555 366.547 196.555 366.906H195.117C195.117 366.172 195.424 365.57 196.039 365.102C196.654 364.633 197.422 364.398 198.344 364.398C199.333 364.398 200.104 364.612 200.656 365.039C201.208 365.461 201.484 366.065 201.484 366.852C201.484 367.232 201.37 367.581 201.141 367.898C200.911 368.216 200.586 368.469 200.164 368.656C201.148 368.99 201.641 369.646 201.641 370.625C201.641 371.401 201.341 372.016 200.742 372.469C200.143 372.922 199.344 373.148 198.344 373.148C197.37 373.148 196.565 372.911 195.93 372.438C195.299 371.958 194.984 371.312 194.984 370.5H196.422C196.422 370.911 196.604 371.266 196.969 371.562C197.339 371.854 197.797 372 198.344 372C198.896 372 199.341 371.872 199.68 371.617C200.018 371.362 200.188 371.031 200.188 370.625C200.188 370.151 200.044 369.812 199.758 369.609C199.477 369.401 199.036 369.297 198.438 369.297H196.992V368.078H198.562C199.547 368.052 200.039 367.646 200.039 366.859ZM210.422 373H208.977V369.391H205.094V373H203.641V364.547H205.094V368.211H208.977V364.547H210.422V373ZM212.367 368.695C212.367 367.867 212.529 367.122 212.852 366.461C213.18 365.799 213.633 365.289 214.211 364.93C214.794 364.57 215.458 364.391 216.203 364.391C217.354 364.391 218.284 364.789 218.992 365.586C219.706 366.383 220.062 367.443 220.062 368.766V368.867C220.062 369.69 219.904 370.43 219.586 371.086C219.273 371.737 218.823 372.245 218.234 372.609C217.651 372.974 216.979 373.156 216.219 373.156C215.073 373.156 214.143 372.758 213.43 371.961C212.721 371.164 212.367 370.109 212.367 368.797V368.695ZM213.82 368.867C213.82 369.805 214.036 370.557 214.469 371.125C214.906 371.693 215.49 371.977 216.219 371.977C216.953 371.977 217.536 371.69 217.969 371.117C218.401 370.539 218.617 369.732 218.617 368.695C218.617 367.768 218.396 367.018 217.953 366.445C217.516 365.867 216.932 365.578 216.203 365.578C215.49 365.578 214.914 365.862 214.477 366.43C214.039 366.997 213.82 367.81 213.82 368.867ZM223.453 364.547V371.82H226.547V364.547H227.992V371.82H231.078V364.547H232.531V373H222V364.547H223.453ZM238.32 373.156C237.174 373.156 236.242 372.781 235.523 372.031C234.805 371.276 234.445 370.268 234.445 369.008V368.742C234.445 367.904 234.604 367.156 234.922 366.5C235.245 365.839 235.693 365.323 236.266 364.953C236.844 364.578 237.469 364.391 238.141 364.391C239.24 364.391 240.094 364.753 240.703 365.477C241.312 366.201 241.617 367.237 241.617 368.586V369.188H235.891C235.911 370.021 236.154 370.695 236.617 371.211C237.086 371.721 237.68 371.977 238.398 371.977C238.909 371.977 239.341 371.872 239.695 371.664C240.049 371.456 240.359 371.18 240.625 370.836L241.508 371.523C240.799 372.612 239.737 373.156 238.32 373.156ZM238.141 365.578C237.557 365.578 237.068 365.792 236.672 366.219C236.276 366.641 236.031 367.234 235.938 368H240.172V367.891C240.13 367.156 239.932 366.589 239.578 366.188C239.224 365.781 238.745 365.578 238.141 365.578ZM250.203 373H248.758V369.391H244.875V373H243.422V364.547H244.875V368.211H248.758V364.547H250.203V373ZM258 364.547H259.445V373H258V366.836L254.102 373H252.656V364.547H254.102V370.719L258 364.547ZM265.273 373.156C264.128 373.156 263.195 372.781 262.477 372.031C261.758 371.276 261.398 370.268 261.398 369.008V368.742C261.398 367.904 261.557 367.156 261.875 366.5C262.198 365.839 262.646 365.323 263.219 364.953C263.797 364.578 264.422 364.391 265.094 364.391C266.193 364.391 267.047 364.753 267.656 365.477C268.266 366.201 268.57 367.237 268.57 368.586V369.188H262.844C262.865 370.021 263.107 370.695 263.57 371.211C264.039 371.721 264.633 371.977 265.352 371.977C265.862 371.977 266.294 371.872 266.648 371.664C267.003 371.456 267.312 371.18 267.578 370.836L268.461 371.523C267.753 372.612 266.69 373.156 265.273 373.156ZM265.094 365.578C264.51 365.578 264.021 365.792 263.625 366.219C263.229 366.641 262.984 367.234 262.891 368H267.125V367.891C267.083 367.156 266.885 366.589 266.531 366.188C266.177 365.781 265.698 365.578 265.094 365.578Z" fill="white"/>
<path d="M157.008 222H155.5V211.859H149.891V222H148.391V210.625H157.008V222ZM166.656 217.867C166.656 219.154 166.362 220.19 165.773 220.977C165.185 221.763 164.388 222.156 163.383 222.156C162.357 222.156 161.549 221.831 160.961 221.18V225.25H159.516V213.547H160.836L160.906 214.484C161.495 213.755 162.312 213.391 163.359 213.391C164.375 213.391 165.177 213.773 165.766 214.539C166.359 215.305 166.656 216.37 166.656 217.734V217.867ZM165.211 217.703C165.211 216.75 165.008 215.997 164.602 215.445C164.195 214.893 163.638 214.617 162.93 214.617C162.055 214.617 161.398 215.005 160.961 215.781V219.82C161.393 220.591 162.055 220.977 162.945 220.977C163.638 220.977 164.188 220.703 164.594 220.156C165.005 219.604 165.211 218.786 165.211 217.703ZM168.117 217.695C168.117 216.867 168.279 216.122 168.602 215.461C168.93 214.799 169.383 214.289 169.961 213.93C170.544 213.57 171.208 213.391 171.953 213.391C173.104 213.391 174.034 213.789 174.742 214.586C175.456 215.383 175.812 216.443 175.812 217.766V217.867C175.812 218.69 175.654 219.43 175.336 220.086C175.023 220.737 174.573 221.245 173.984 221.609C173.401 221.974 172.729 222.156 171.969 222.156C170.823 222.156 169.893 221.758 169.18 220.961C168.471 220.164 168.117 219.109 168.117 217.797V217.695ZM169.57 217.867C169.57 218.805 169.786 219.557 170.219 220.125C170.656 220.693 171.24 220.977 171.969 220.977C172.703 220.977 173.286 220.69 173.719 220.117C174.151 219.539 174.367 218.732 174.367 217.695C174.367 216.768 174.146 216.018 173.703 215.445C173.266 214.867 172.682 214.578 171.953 214.578C171.24 214.578 170.664 214.862 170.227 215.43C169.789 215.997 169.57 216.81 169.57 217.867ZM181.016 220.977C181.531 220.977 181.982 220.82 182.367 220.508C182.753 220.195 182.966 219.805 183.008 219.336H184.375C184.349 219.82 184.182 220.281 183.875 220.719C183.568 221.156 183.156 221.505 182.641 221.766C182.13 222.026 181.589 222.156 181.016 222.156C179.865 222.156 178.948 221.773 178.266 221.008C177.589 220.237 177.25 219.185 177.25 217.852V217.609C177.25 216.786 177.401 216.055 177.703 215.414C178.005 214.773 178.438 214.276 179 213.922C179.568 213.568 180.237 213.391 181.008 213.391C181.956 213.391 182.742 213.674 183.367 214.242C183.997 214.81 184.333 215.547 184.375 216.453H183.008C182.966 215.906 182.758 215.458 182.383 215.109C182.013 214.755 181.555 214.578 181.008 214.578C180.273 214.578 179.703 214.844 179.297 215.375C178.896 215.901 178.695 216.664 178.695 217.664V217.938C178.695 218.911 178.896 219.661 179.297 220.188C179.698 220.714 180.271 220.977 181.016 220.977ZM192.93 213.547V222H191.477V214.742H188.602L188.43 217.906C188.336 219.359 188.091 220.398 187.695 221.023C187.305 221.648 186.682 221.974 185.828 222H185.25V220.727L185.664 220.695C186.133 220.643 186.469 220.372 186.672 219.883C186.875 219.393 187.005 218.487 187.062 217.164L187.219 213.547H192.93ZM198.016 219.883L199.984 213.547H201.531L198.133 223.305C197.607 224.711 196.771 225.414 195.625 225.414L195.352 225.391L194.812 225.289V224.117L195.203 224.148C195.693 224.148 196.073 224.049 196.344 223.852C196.62 223.654 196.846 223.292 197.023 222.766L197.344 221.906L194.328 213.547H195.906L198.016 219.883ZM204.406 213.547V220.82H207.5V213.547H208.945V220.82H212.031V213.547H213.484V222H202.953V213.547H204.406ZM220.984 222C220.901 221.833 220.833 221.536 220.781 221.109C220.109 221.807 219.307 222.156 218.375 222.156C217.542 222.156 216.857 221.922 216.32 221.453C215.789 220.979 215.523 220.38 215.523 219.656C215.523 218.776 215.857 218.094 216.523 217.609C217.195 217.12 218.138 216.875 219.352 216.875H220.758V216.211C220.758 215.706 220.607 215.305 220.305 215.008C220.003 214.706 219.557 214.555 218.969 214.555C218.453 214.555 218.021 214.685 217.672 214.945C217.323 215.206 217.148 215.521 217.148 215.891H215.695C215.695 215.469 215.844 215.062 216.141 214.672C216.443 214.276 216.849 213.964 217.359 213.734C217.875 213.505 218.44 213.391 219.055 213.391C220.029 213.391 220.792 213.635 221.344 214.125C221.896 214.609 222.182 215.279 222.203 216.133V220.023C222.203 220.799 222.302 221.417 222.5 221.875V222H220.984ZM218.586 220.898C219.039 220.898 219.469 220.781 219.875 220.547C220.281 220.312 220.576 220.008 220.758 219.633V217.898H219.625C217.854 217.898 216.969 218.417 216.969 219.453C216.969 219.906 217.12 220.26 217.422 220.516C217.724 220.771 218.112 220.898 218.586 220.898ZM230.625 214.719H227.789V222H226.344V214.719H223.562V213.547H230.625V214.719ZM233.609 216.461H235.805C236.763 216.471 237.521 216.721 238.078 217.211C238.635 217.701 238.914 218.365 238.914 219.203C238.914 220.047 238.628 220.724 238.055 221.234C237.482 221.745 236.711 222 235.742 222H232.164V213.547H233.609V216.461ZM233.609 217.641V220.82H235.758C236.299 220.82 236.719 220.682 237.016 220.406C237.312 220.125 237.461 219.742 237.461 219.258C237.461 218.789 237.315 218.406 237.023 218.109C236.737 217.807 236.333 217.651 235.812 217.641H233.609Z" fill="white"/>
</svg>
