<svg width="24" height="24" viewBox="0 0 24 24" fill="none" xmlns="http://www.w3.org/2000/svg">
<path d="M18.6998 18.6998C16.9229 20.4767 14.5129 21.475 12 21.475C9.48707 21.475 7.07707 20.4767 5.30016 18.6998C3.52326 16.9229 2.525 14.5129 2.525 12C2.525 9.48707 3.52326 7.07707 5.30016 5.30016C7.07707 3.52326 9.48707 2.525 12 2.525C14.5129 2.525 16.9229 3.52326 18.6998 5.30016C20.4767 7.07707 21.475 9.48707 21.475 12C21.475 14.5129 20.4767 16.9229 18.6998 18.6998ZM12 23.15C14.9572 23.15 17.7932 21.9753 19.8842 19.8842C21.9753 17.7932 23.15 14.9572 23.15 12C23.15 9.04284 21.9753 6.20679 19.8842 4.11576C17.7932 2.02473 14.9572 0.85 12 0.85C9.04284 0.85 6.20679 2.02473 4.11576 4.11576C2.02473 6.20679 0.85 9.04284 0.85 12C0.85 14.9572 2.02473 17.7932 4.11576 19.8842C6.20679 21.9753 9.04284 23.15 12 23.15Z" fill="#36A6E5" stroke="#36A6E5" stroke-width="0.3"/>
<path d="M8.21875 9.29537H10.0338C10.0338 8.2215 10.6635 7.39238 11.9038 7.39238C12.8456 7.39238 13.7091 7.864 13.7091 8.99837C13.7091 9.8715 13.1949 10.273 12.3823 10.8835C11.4569 11.5559 10.724 12.341 10.7763 13.6156L10.7859 14.2522H12.583V13.7641C12.583 12.7769 12.9584 12.4895 13.9718 11.7209C14.8091 11.0842 15.6823 10.3775 15.6823 8.89387C15.6823 6.81625 13.9278 5.8125 12.0069 5.8125C10.1836 5.8125 8.17612 6.70212 8.22012 9.29537H8.21875ZM10.3665 16.8799C10.3665 17.6127 10.9509 18.1545 11.7553 18.1545C12.5926 18.1545 13.1688 17.6127 13.1688 16.8799C13.1688 16.1209 12.5913 15.5874 11.7539 15.5874C10.9509 15.5874 10.3665 16.1209 10.3665 16.8799V16.8799Z" fill="#36A6E5"/>
</svg>
