<svg width="48" height="40" viewBox="0 0 48 40" fill="none" xmlns="http://www.w3.org/2000/svg">
<path d="M43.5001 26.5H47.8334V30.8333H43.5001V26.5ZM43.5001 17.8333H47.8334V22.1667H43.5001V17.8333ZM47.8334 35.1667H43.5001V39.5C45.6667 39.5 47.8334 37.3333 47.8334 35.1667ZM26.1667 0.5H30.5001V4.83333H26.1667V0.5ZM43.5001 9.16667H47.8334V13.5H43.5001V9.16667ZM43.5001 0.5V4.83333H47.8334C47.8334 2.66667 45.6667 0.5 43.5001 0.5ZM0.166748 9.16667H4.50008V13.5H0.166748V9.16667ZM34.8334 0.5H39.1667V4.83333H34.8334V0.5ZM34.8334 35.1667H39.1667V39.5H34.8334V35.1667ZM4.50008 0.5C2.33341 0.5 0.166748 2.66667 0.166748 4.83333H4.50008V0.5ZM17.5001 0.5H21.8334V4.83333H17.5001V0.5ZM8.83341 0.5H13.1667V4.83333H8.83341V0.5ZM0.166748 17.8333V35.1667C0.166748 37.55 2.11675 39.5 4.50008 39.5H30.5001V22.1667C30.5001 19.7833 28.5501 17.8333 26.1667 17.8333H0.166748ZM5.86508 33.4117L9.09341 29.2733C9.19329 29.1455 9.32061 29.0417 9.46596 28.9697C9.61132 28.8976 9.771 28.8591 9.93322 28.857C10.0954 28.855 10.2561 28.8893 10.4032 28.9576C10.5504 29.0259 10.6803 29.1264 10.7834 29.2517L13.7951 32.87L18.3451 27.02C18.7784 26.4567 19.6451 26.4567 20.0567 27.0417L24.8667 33.455C24.9875 33.6159 25.061 33.8073 25.079 34.0077C25.0971 34.2081 25.059 34.4095 24.969 34.5895C24.8791 34.7694 24.7408 34.9208 24.5696 35.0265C24.3985 35.1323 24.2013 35.1883 24.0001 35.1883H6.71008C5.82175 35.1667 5.30175 34.1267 5.86508 33.4117Z" fill="#757575"/>
</svg>
