<svg width="264" height="61" viewBox="0 0 264 61" fill="none" xmlns="http://www.w3.org/2000/svg">
<path d="M34.3292 12.923V3.70519C34.3292 1.71704 32.6262 0 30.6543 0H4.75051C2.7786 0 1.07559 1.71704 1.07559 3.70519V8.40444C0.448161 8.40444 0 8.94667 0 9.48889V14.64C0 15.2726 0.537793 15.7244 1.07559 15.7244V17.3511C0.448161 17.3511 0 17.8933 0 18.4356V20.243C0 20.8756 0.537793 21.3274 1.07559 21.3274V57.2948C1.07559 59.283 2.7786 61 4.75051 61H14.6997C14.879 60.7289 15.1479 60.5481 15.4168 60.5481H19.988C20.2569 60.5481 20.6154 60.7289 20.7051 61H30.6543C32.6262 61 34.3292 59.283 34.3292 57.2948V55.3067H32.4469V57.2948C32.4469 58.2889 31.6402 59.1022 30.6543 59.1022H4.75051C3.76456 59.1022 2.95787 58.2889 2.95787 57.2948V3.70519C2.95787 2.71111 3.76456 1.89778 4.75051 1.89778H8.42544L8.60471 4.78963C8.60471 5.42222 9.1425 5.87407 9.68029 5.87407H25.9037C26.5312 5.87407 26.9793 5.33185 26.9793 4.78963L27.1586 1.89778H30.7439C31.7299 1.89778 32.5365 2.71111 32.5365 3.70519V12.8326H34.3292V12.923Z" fill="#15CC5E"/>
<path d="M27.9653 16.5378C17.9265 16.5378 9.85954 25.123 10.5766 35.4252C11.204 44.1008 18.1057 51.1497 26.7104 51.6919C36.9285 52.4149 45.4436 44.2815 45.4436 34.1601C45.4436 24.4001 37.5559 16.5378 27.9653 16.5378ZM34.1499 42.8356C32.8951 46.7215 30.9231 49.2519 28.8616 49.7941V41.9319C30.5646 42.0223 32.3573 42.3838 34.1499 42.8356ZM35.4048 33.2564H28.8616V27.6534C30.8335 27.563 32.7158 27.3823 34.5981 26.8401C35.1359 28.8282 35.3151 30.9067 35.4048 33.2564ZM35.7633 24.5808C35.0462 22.3215 34.0603 20.5141 32.895 19.0682C35.2255 19.8815 37.4663 21.1467 39.1693 23.0445C38.0937 23.6771 36.9285 24.1289 35.7633 24.5808ZM28.8616 25.846V18.4356C30.9231 18.9778 32.895 21.5082 34.0603 25.123C32.3573 25.5749 30.6542 25.7556 28.8616 25.846ZM39.4382 44.9141C37.6456 46.9023 35.4048 48.3482 32.8054 49.1615C34.0603 47.7156 35.0462 45.7275 35.8529 43.3778C37.5559 43.9201 38.7212 44.5527 39.4382 44.9141ZM28.8616 40.2149V34.9734H35.4944C35.4048 37.1423 35.2255 39.2208 34.6877 41.1186C32.7158 40.5764 30.8335 40.2149 28.8616 40.2149ZM43.6509 34.9734C43.4717 38.046 42.3961 41.0282 40.6034 43.4682C39.8864 43.1067 38.4523 42.3838 36.3907 41.5704C36.9285 39.4919 37.1974 37.323 37.287 34.883L43.6509 34.9734ZM43.6509 33.2564H37.1974C37.1078 30.8164 36.8389 28.4667 36.3011 26.3882C37.6456 25.846 39.0797 25.3038 40.3345 24.4904C42.3064 26.9304 43.4717 30.003 43.6509 33.2564ZM19.5398 41.4801C18.1057 42.0223 16.6716 42.6549 15.3271 43.4682C13.4448 40.9378 12.4589 38.046 12.2796 34.9734H18.7331C18.7331 37.2327 19.0917 39.4015 19.5398 41.4801ZM27.0689 27.563V33.2564H20.4362C20.5258 30.9971 20.7947 28.7378 21.3325 26.6593C23.3044 27.1112 25.1867 27.4727 27.0689 27.563ZM23.1251 19.0682C21.9599 20.4238 20.974 22.2312 20.2569 24.4001C18.7331 23.8578 17.5679 23.3156 16.8509 22.9541C18.5539 21.2371 20.7051 19.8815 23.1251 19.0682ZM27.0689 18.4356V25.846C25.3659 25.7556 23.5733 25.4845 21.8703 24.9423C23.1251 21.3275 25.097 18.8875 27.0689 18.4356ZM20.5258 34.9734H27.1586V40.1245C25.1867 40.2149 23.2148 40.3956 21.3325 40.9378C20.7947 39.0401 20.5258 37.0519 20.5258 34.9734ZM23.1251 49.1615C20.6154 48.3482 18.3746 46.9023 16.4923 44.9141C17.5679 44.1912 18.8228 43.6489 19.988 43.1971C20.7947 45.6371 21.8703 47.6252 23.1251 49.1615ZM27.0689 41.9319V49.7941C24.9178 49.2519 22.8562 46.6312 21.691 42.7452C23.4837 42.203 25.2763 41.9319 27.0689 41.9319ZM12.2796 33.2564C12.4589 30.003 13.5345 27.0208 15.5064 24.4001C16.2234 24.7615 17.6576 25.4845 19.5398 26.1171C19.002 28.286 18.6435 30.726 18.6435 33.166L12.2796 33.2564Z" fill="#15CC5E"/>
<path d="M83.6111 41.9114C84.0225 41.9114 84.4338 42.1188 84.6395 42.3262C84.8452 42.5335 85.0509 42.9483 85.0509 43.3631V46.4738C85.0509 46.8886 84.8452 47.3033 84.6395 47.5107C84.4338 47.7181 84.0225 47.9255 83.6111 47.9255H63.2479C62.8365 47.9255 62.6309 47.7181 62.2195 47.5107C62.0138 47.3033 61.8081 46.8886 61.8081 46.4738V43.3631C61.8081 42.9483 62.0138 42.5335 62.2195 42.3262C62.4252 42.1188 62.8365 41.9114 63.2479 41.9114C63.2479 41.9114 83.6111 41.9114 83.6111 41.9114ZM63.2479 35.4825C62.8365 35.4825 62.4252 35.2752 62.2195 35.0678C62.0138 34.8604 61.8081 34.4456 61.8081 34.0309V30.9201C61.8081 30.5054 62.0138 30.298 62.2195 29.8832C62.4252 29.4685 62.8365 29.4685 63.2479 29.4685H81.7599C82.1713 29.4685 82.5826 29.6758 82.7883 29.8832C82.994 30.0906 83.1997 30.5054 83.1997 30.9201V34.0309C83.1997 34.4456 82.994 34.8604 82.7883 35.0678C82.5826 35.2752 82.1713 35.4825 81.7599 35.4825C81.7599 35.4825 63.2479 35.4825 63.2479 35.4825ZM83.6111 17.2329C84.0225 17.2329 84.4338 17.4403 84.6395 17.6477C84.8452 17.8551 85.0509 18.2698 85.0509 18.6846V21.7953C85.0509 22.2101 84.8452 22.6248 84.6395 22.8322C84.4338 23.0396 84.0225 23.247 83.6111 23.247H63.2479C62.8365 23.247 62.6309 23.0396 62.2195 22.8322C62.0138 22.6248 61.8081 22.2101 61.8081 21.7953V18.6846C61.8081 18.2698 62.0138 18.0624 62.2195 17.6477C62.4252 17.4403 62.8365 17.2329 63.2479 17.2329H83.6111ZM105.208 18.0624L116.727 45.4369C116.933 45.6443 116.933 45.8517 116.933 46.059C116.933 46.4738 116.727 46.8886 116.521 47.0959C116.316 47.3033 115.904 47.5107 115.493 47.5107H111.996C111.79 47.5107 111.379 47.5107 111.173 47.3033C110.968 47.0959 110.762 47.0959 110.762 46.6812L107.677 39.6302H96.1581L93.2785 46.6812C93.0728 46.8886 93.0728 47.0959 92.6614 47.3033C92.4557 47.5107 92.25 47.5107 91.8386 47.5107H88.3419C88.1362 47.5107 87.9305 47.5107 87.7249 47.3033C87.5192 47.0959 87.3135 47.0959 87.1078 46.8886C86.9021 46.6812 86.9021 46.4738 86.9021 46.2664C86.9021 46.059 86.9021 45.8517 87.1078 45.6443L98.6264 18.0624C98.832 17.8551 98.832 17.6477 99.2434 17.4403C99.4491 17.2329 99.6548 17.2329 100.066 17.2329H103.974C104.18 17.2329 104.591 17.2329 104.797 17.4403C104.797 17.6477 105.003 17.8551 105.208 18.0624ZM101.917 25.5282L98.4207 33.8235H105.208L101.917 25.5282ZM141.204 17.2329C141.615 17.2329 141.821 17.4403 142.232 17.6477C142.438 17.8551 142.644 18.2698 142.644 18.6846V21.5879C142.644 22.0027 142.438 22.4175 142.232 22.6248C142.027 22.8322 141.615 23.0396 141.204 23.0396H133.182V46.059C133.182 46.4738 132.976 46.8886 132.771 47.0959C132.565 47.3033 132.154 47.5107 131.742 47.5107H128.657C128.245 47.5107 127.834 47.3033 127.628 47.0959C127.423 46.8886 127.217 46.4738 127.217 46.2664V23.0396H119.195C118.784 23.0396 118.372 22.8322 118.167 22.6248C117.961 22.4175 117.755 22.0027 117.755 21.5879V18.6846C117.755 18.2698 117.961 17.8551 118.167 17.6477C118.372 17.4403 118.784 17.2329 119.195 17.2329C119.195 17.2329 141.204 17.2329 141.204 17.2329ZM151.077 17.2329C151.488 17.2329 151.694 17.4403 152.105 17.6477C152.311 17.8551 152.517 18.2698 152.517 18.6846V46.4738C152.517 46.8886 152.311 47.3033 152.105 47.5107C151.9 47.7181 151.488 47.9255 151.077 47.9255H147.992C147.58 47.9255 147.375 47.7181 146.963 47.5107C146.552 47.3033 146.552 46.8886 146.552 46.4738V18.6846C146.552 18.2698 146.757 17.8551 146.963 17.6477C147.169 17.4403 147.58 17.2329 147.992 17.2329C147.992 17.2329 151.077 17.2329 151.077 17.2329ZM166.092 41.9114C166.504 41.9114 166.915 42.1188 167.121 42.3262C167.326 42.5335 167.532 42.9483 167.532 43.3631V46.4738C167.532 46.8886 167.326 47.3033 167.121 47.5107C166.915 47.7181 166.504 47.9255 166.092 47.9255H156.425C156.013 47.9255 155.602 47.7181 155.396 47.5107C155.191 47.3033 154.985 46.8886 154.985 46.4738V43.3631C154.985 42.9483 155.191 42.5335 155.396 42.3262C155.602 42.1188 156.013 41.9114 156.425 41.9114H166.092ZM186.661 18.0624L198.18 45.4369C198.385 45.6443 198.385 45.8517 198.385 46.059C198.385 46.4738 198.18 46.8886 197.974 47.0959C197.768 47.3033 197.357 47.5107 196.945 47.5107H193.449C193.243 47.5107 192.832 47.5107 192.626 47.3033C192.42 47.0959 192.215 46.8886 192.009 46.6812L188.924 39.6302H177.199L174.32 46.6812C174.114 46.8886 174.114 47.0959 173.703 47.3033C173.497 47.5107 173.291 47.5107 172.88 47.5107H169.383C169.178 47.5107 168.972 47.5107 168.766 47.3033C168.56 47.0959 168.355 47.0959 168.149 46.8886C167.943 46.6812 167.943 46.4738 167.943 46.2664C167.943 46.059 167.943 45.8517 168.149 45.6443L179.668 18.0624C179.873 17.8551 179.873 17.6477 180.285 17.4403C180.49 17.2329 180.696 17.2329 181.107 17.2329H185.016C185.221 17.2329 185.633 17.2329 185.838 17.4403C186.455 17.6477 186.661 17.8551 186.661 18.0624ZM183.576 25.5282L180.079 33.8235H186.867L183.576 25.5282ZM226.976 17.2329C227.387 17.2329 227.593 17.4403 228.004 17.6477C228.21 17.8551 228.416 18.2698 228.416 18.6846V46.2664C228.416 46.6812 228.21 47.0959 228.004 47.3033C227.799 47.5107 227.387 47.7181 226.976 47.7181H223.274C222.862 47.7181 222.451 47.5107 222.039 47.0959L207.847 27.3946V46.2664C207.847 46.6812 207.641 47.0959 207.436 47.3033C207.23 47.5107 206.819 47.7181 206.407 47.7181H203.322C202.91 47.7181 202.705 47.5107 202.293 47.3033C201.882 47.0959 201.882 46.6812 201.882 46.2664V18.6846C201.882 18.2698 202.088 18.0624 202.293 17.6477C202.499 17.4403 202.91 17.2329 203.322 17.2329H206.819C207.024 17.2329 207.23 17.2329 207.436 17.4403C207.641 17.4403 207.847 17.6477 207.847 17.8551L222.245 37.5564V18.892C222.245 18.4772 222.451 18.2698 222.657 17.8551C222.862 17.6477 223.274 17.4403 223.685 17.4403L226.976 17.2329ZM264 31.7497C264 32.1644 264 32.3718 264 32.7866C264 33.4087 264 34.0309 263.794 34.8604C263.383 38.3859 261.943 41.2892 259.68 43.7778C256.801 46.8886 253.098 48.3402 248.573 48.3402C244.048 48.3402 240.346 46.8886 237.466 43.7778C234.586 40.8745 233.147 37.1416 233.147 32.7866C233.147 28.4315 234.586 24.6987 237.466 21.7953C240.346 18.6846 244.048 17.2329 248.573 17.2329C253.098 17.2329 256.801 18.6846 259.68 21.7953C260.709 22.8322 261.737 24.2839 262.354 25.7356C262.56 25.943 262.56 26.1503 262.56 26.5651C262.56 26.9799 262.354 27.1873 262.149 27.602C261.943 28.0168 261.532 28.0168 261.12 28.0168H257.624C257.418 28.0168 257.212 28.0168 257.007 27.8094C256.801 27.602 256.595 27.602 256.595 27.3946C256.184 26.7725 255.772 26.3577 255.567 25.943C253.921 24.0765 251.659 23.247 248.779 23.247C245.899 23.247 243.637 24.0765 241.991 25.943C240.346 27.8094 239.523 30.0906 239.523 32.7866C239.523 35.6899 240.346 37.9711 241.991 39.6302C243.637 41.4966 245.899 42.3262 248.779 42.3262C251.659 42.3262 253.921 41.4966 255.567 39.6302C256.595 38.5933 257.212 37.5564 257.624 36.1047H248.985C248.573 36.1047 248.368 35.8973 247.956 35.6899C247.545 35.4825 247.545 35.0678 247.545 34.653V31.7497C247.545 31.3349 247.751 30.9201 247.956 30.7128C248.162 30.5054 248.573 30.298 248.985 30.298H262.56C262.971 30.298 263.177 30.5054 263.589 30.7128C263.794 30.9201 264 31.3349 264 31.7497Z" fill="#15CC5E"/>
</svg>
