<svg id="7d0a9fb4-7599-472c-a464-596b1dbc6680" data-name="глазики 30 на 30" xmlns="http://www.w3.org/2000/svg" viewBox="0 0 30 30">
  <title>002</title>
  <g id="6212d1fe-4d8a-4319-a268-428911aeb4f6" data-name="для приложения">
    <g>
      <path d="M15,17.80278a4.02934,4.02934,0,0,0,3.75834-5.49949L13.53662,17.525A4.019,4.019,0,0,0,15,17.80278Z"/>
      <path d="M6.36659,20.10508l2.87429-2.87429A6.71748,6.71748,0,0,1,18.4642,8.00747l2.2729-2.2729A13.48222,13.48222,0,0,0,15,4.34827c-8.0729,0-14.8,8.7455-14.8,9.4184C.2,14.17226,2.65093,17.51552,6.36659,20.10508Z"/>
      <path d="M15,9.73052A4.02934,4.02934,0,0,0,11.24166,15.23l5.22172-5.22172A4.019,4.019,0,0,0,15,9.73052Z"/>
      <path d="M23.63356,7.42807,20.75923,10.3024a6.71749,6.71749,0,0,1-9.22339,9.22339L9.263,21.79865A13.48153,13.48153,0,0,0,15,23.18506c8.07256,0,14.8-8.74549,14.8-9.41839C29.8,13.36047,27.34914,10.01744,23.63356,7.42807Z"/>
    </g>
    <rect x="12.89457" y="-1.56987" width="1.7442" height="33.13974" transform="translate(14.63877 -5.34111) rotate(45)"/>
  </g>
</svg>
