<svg width="320" height="718" viewBox="0 0 320 718" fill="none" xmlns="http://www.w3.org/2000/svg">
<g clip-path="url(#clip0)">
<path d="M322 719L322 0L3.05176e-05 -1.40751e-05L-9.1091e-07 719L322 719Z" fill="#E8E1CF"/>
<path d="M242 217L242 210L-2 210L-2 217L242 217Z" fill="#F6F6F6"/>
<path d="M242 450.983L242 443.838L0 443.838L-3.70438e-07 450.983L242 450.983Z" fill="#F6F6F6"/>
<path d="M40 389.363L40 215.221L30 215.221L30 389.363L40 389.363Z" fill="#F6F6F6"/>
<path d="M165 718L165 0L155 -4.37112e-07L155 718L165 718Z" fill="#F6F6F6"/>
<path d="M320 61.01L320 49.4005L100 49.4005L100 61.01L320 61.01Z" fill="#F6F6F6"/>
<path d="M267 497.42L267 485.811L100 485.811L100 497.42L267 497.42Z" fill="#F6F6F6"/>
<path d="M267 123.239L267 11.6094L258 11.6094L258 123.239L267 123.239Z" fill="#F6F6F6"/>
<path d="M267 571.542L267 459.02L258 459.02L258 571.542L267 571.542Z" fill="#F6F6F6"/>
<path d="M9.57007 17.4368C9.57007 22.8657 15.3944 27.2089 22.4972 27.2089L22.4972 7.77325C15.3944 7.77325 9.57007 12.1164 9.57007 17.4368Z" fill="#8BB32F"/>
<path d="M22.6392 7.77325L22.6392 27.2089C29.742 27.2089 35.5663 22.8657 35.5663 17.4368C35.5663 12.1164 29.742 7.77325 22.6392 7.77325Z" fill="#688623"/>
<path d="M22.6392 13.3108L21.6448 13.3108L21.6448 38.6096L22.6392 38.6096L22.6392 13.3108Z" fill="#8BB32F"/>
<path d="M23.4915 13.3108L22.7812 13.3108L22.6392 13.3108L22.6392 38.5011L23.4915 38.5011L23.4915 13.3108Z" fill="#688623"/>
<path d="M35.222 39.4215C35.222 44.8505 41.0463 49.1936 48.1491 49.1936L48.1491 29.758C41.0463 29.758 35.222 34.1012 35.222 39.4215Z" fill="#8BB32F"/>
<path d="M48.1491 29.758L48.1491 49.1936C55.2519 49.1936 61.0762 44.8505 61.0762 39.4215C61.0762 34.1012 55.2519 29.758 48.1491 29.758Z" fill="#688623"/>
<path d="M48.1492 35.2955L47.1548 35.2955L47.1548 60.5944L48.1492 60.5944L48.1492 35.2955Z" fill="#8BB32F"/>
<path d="M49.0015 35.2955L48.2912 35.2955L48.1492 35.2955L48.1492 60.4858L49.0015 60.4858L49.0015 35.2955Z" fill="#688623"/>
<path d="M13.757 71.392C13.757 76.821 19.5813 81.1641 26.684 81.1641L26.684 61.7285C19.5813 61.7285 13.757 66.0717 13.757 71.392Z" fill="#8BB32F"/>
<path d="M26.8261 61.7285L26.8261 81.1641C33.9289 81.1641 39.7532 76.821 39.7532 71.392C39.7532 66.0717 33.9289 61.7285 26.8261 61.7285Z" fill="#688623"/>
<path d="M26.8262 67.266L25.8318 67.266L25.8318 92.5648L26.8262 92.5648L26.8262 67.266Z" fill="#8BB32F"/>
<path d="M27.6785 67.266L26.9683 67.266L26.8262 67.266L26.8262 92.4563L27.6785 92.4563L27.6785 67.266Z" fill="#688623"/>
<path d="M187.813 105.794C187.813 111.223 193.637 115.566 200.74 115.566L200.74 96.0222C193.637 96.0222 187.813 100.365 187.813 105.794Z" fill="#8BB32F"/>
<path d="M200.74 96.0222L200.74 115.458C207.843 115.458 213.667 111.115 213.667 105.686C213.809 100.365 207.985 96.0222 200.74 96.0222Z" fill="#688623"/>
<path d="M200.882 101.56L199.888 101.56L199.888 126.859L200.882 126.859L200.882 101.56Z" fill="#8BB32F"/>
<path d="M201.734 101.56L201.024 101.56L200.74 101.56L200.74 126.75L201.734 126.75L201.734 101.56Z" fill="#688623"/>
<path d="M110 64.9163L110 0L97.2695 -4.72634e-07L97.1264 64.9163C97.1264 83.4016 83.5377 100.256 66.0869 100.256L-1.99999 100.256L-2 112L65.6577 112C89.9745 112.108 109.857 91.0133 110 64.9163Z" fill="#F6F6F6"/>
<path d="M116.183 169.193C116.183 162.026 108.513 156.27 99.281 156.27L82.379 156.27L80.6747 156.27L43.8882 156.27C38.917 156.27 34.7981 153.121 34.7981 149.32L34.7981 105.773L26.9863 105.773L26.9863 149.32C26.9863 156.488 34.656 162.243 43.8882 162.243L99.1389 162.243C104.11 162.243 108.229 165.393 108.229 169.193L108.229 259.872L116.041 259.872L116.041 169.193L116.183 169.193Z" fill="#F6F6F6"/>
<path d="M247 94.3035L247 63.9403L222 63.9403L222 94.3035L247 94.3035Z" fill="#F6F6F6"/>
<path d="M247 121.988L247 104.127L222 104.127L222 121.988L247 121.988Z" fill="#F6F6F6"/>
<path d="M247 564.398L247 546.537L222 546.537L222 564.398L247 564.398Z" fill="#F6F6F6"/>
<path d="M200 82.694L200 64.8333L176 64.8333L176 82.694L200 82.694Z" fill="#F6F6F6"/>
<path d="M148 123.239L148 92.8756L137 92.8756L137 123.239L148 123.239Z" fill="#F6F6F6"/>
<path d="M148 146.458L148 131.276L116 131.276L116 146.458L148 146.458Z" fill="#F6F6F6"/>
<path d="M124.907 275.355C119.934 275.355 115.814 272.218 115.814 268.431L115.814 225.045L108 225.045L108 268.431C108 275.572 115.672 281.306 124.907 281.306L160 281.306L160 275.355L124.907 275.355Z" fill="#F6F6F6"/>
<path d="M79.3963 391.816C88.7705 391.816 96.2982 385.952 96.2982 378.893L96.2982 365.97L96.2982 364.667L96.2982 336.649C96.2982 332.848 100.417 329.699 105.388 329.699L162.344 329.699L162.344 323.618L105.388 323.618C96.0142 323.618 88.4864 329.482 88.4864 336.541L88.4864 378.785C88.4864 382.585 84.3675 385.735 79.3963 385.735L0.14198 385.735L0.141979 391.708L79.3963 391.708L79.3963 391.816Z" fill="#F6F6F6"/>
<path d="M78.1559 527.687C87.5184 527.687 95.0368 532.553 95.0368 538.411L95.0368 549.135L95.0368 550.216L95.0368 573.466C95.0368 576.62 99.1506 579.233 104.116 579.233L161 579.233L161 584.28L104.116 584.28C94.7531 584.28 87.2347 579.414 87.2347 573.556L87.2347 538.501C87.2347 535.347 83.1209 532.734 78.1559 532.734L-0.999997 532.734L-0.999997 527.777L78.1559 527.777L78.1559 527.687Z" fill="#F6F6F6"/>
<path d="M146 371.502L146 342.032L125 342.032L125 371.502L146 371.502Z" fill="#F6F6F6"/>
<path d="M147 619.766L147 590.296L125 590.296L125 619.766L147 619.766Z" fill="#F6F6F6"/>
<path d="M46 520.639L46 491.169L24 491.169L24 520.639L46 520.639Z" fill="#F6F6F6"/>
<path d="M186 375.075L186 341.139L172 341.139L172 375.075L186 375.075Z" fill="#F6F6F6"/>
<path d="M247 539.393L247 505.458L233 505.458L233 539.393L247 539.393Z" fill="#F6F6F6"/>
<path d="M186 413.475L186 394.721L172 394.721L172 413.475L186 413.475Z" fill="#F6F6F6"/>
<path d="M47 425.085L47 402.759L13 402.759L13 425.085L47 425.085Z" fill="#F6F6F6"/>
<path d="M146 479.56L146 456.341L112 456.341L112 479.56L146 479.56Z" fill="#F6F6F6"/>
<path d="M146 417.94L146 395.614L69 395.614L69 417.94L146 417.94Z" fill="#F6F6F6"/>
<path d="M146 712.642L146 689.423L69 689.423L69 712.642L146 712.642Z" fill="#F6F6F6"/>
<path d="M61 718L61 391.149L53 391.149L53 718L61 718Z" fill="#F6F6F6"/>
<path d="M179.245 213.175C179.245 202.75 170.439 194.388 159.645 194.388C148.85 194.388 140.186 202.75 140.186 213.175C140.186 223.492 148.85 231.962 159.645 231.962C170.581 231.962 179.245 223.6 179.245 213.175ZM146.152 213.175C146.152 205.899 152.259 200.035 159.787 200.035C167.315 200.035 173.422 205.899 173.422 213.175C173.422 220.451 167.315 226.315 159.787 226.315C152.259 226.315 146.152 220.451 146.152 213.175Z" fill="#F5F5F5"/>
<path d="M173.422 213.175C173.422 205.899 167.315 200.035 159.787 200.035C152.259 200.035 146.152 205.899 146.152 213.175C146.152 220.451 152.259 226.315 159.787 226.315C167.315 226.315 173.422 220.451 173.422 213.175ZM152.401 213.175C152.401 209.265 155.668 206.116 159.787 206.116C163.906 206.116 167.173 209.265 167.173 213.175C167.173 217.084 163.906 220.234 159.787 220.234C155.668 220.342 152.401 217.084 152.401 213.175Z" fill="#B1D269"/>
<path d="M159.787 220.668C155.526 220.668 151.975 217.302 151.975 213.175C151.975 209.048 155.526 205.682 159.787 205.682C164.048 205.682 167.599 209.048 167.599 213.175C167.599 217.302 164.048 220.668 159.787 220.668Z" fill="#F5F5F5"/>
<path d="M70.5914 374.223L73.8587 374.223L67.7502 366.297L71.1596 366.297L64.483 357.285L64.483 382.366L76.6998 382.366L70.5914 374.223Z" fill="#688623"/>
<path d="M57.6642 366.297L61.0736 366.297L55.1072 374.223L58.2325 374.223L52.124 382.366L64.483 382.366L64.483 357.285L57.6642 366.297Z" fill="#8BB32F"/>
<path d="M221.906 329.033L225.884 329.033L218.497 319.261L222.617 319.261L214.235 308.186L214.235 339.022L229.435 339.022L221.906 329.033Z" fill="#688623"/>
<path d="M205.996 319.261L210.116 319.261L202.729 329.033L206.706 329.033L199.177 339.022L214.235 339.022L214.235 308.186L205.996 319.261Z" fill="#8BB32F"/>
<path d="M229.455 374.494L233.433 374.494L226.046 364.722L230.166 364.722L221.926 353.647L221.926 384.483L236.984 384.483L229.455 374.494Z" fill="#688623"/>
<path d="M213.545 364.722L217.665 364.722L210.278 374.494L214.255 374.494L206.726 384.483L221.926 384.483L221.926 353.647L213.545 364.722Z" fill="#8BB32F"/>
<path d="M268.977 425.945L271.598 425.945L266.731 419.506L269.445 419.506L263.922 412.208L263.922 432.528L273.939 432.528L268.977 425.945Z" fill="#688623"/>
<path d="M258.493 419.506L261.208 419.506L256.34 425.945L258.961 425.945L254 432.528L263.922 432.528L263.922 412.208L258.493 419.506Z" fill="#8BB32F"/>
<path d="M161 273.152L161 268.803C161.854 268.803 183.484 268.912 193.445 277.501C201.841 284.676 213.652 287.503 221.906 287.72C242.397 288.264 270.715 289.46 271 289.46L270.715 293.808C270.431 293.808 242.113 292.613 221.763 292.069C217.21 291.96 201.272 290.764 189.318 280.327C180.78 273.152 161.142 273.152 161 273.152Z" fill="#F6F6F6"/>
<path d="M284.489 303.959L286.478 303.959L290.314 295.49L288.041 290.93L280.654 295.816L276.534 303.959L279.659 303.959L284.489 303.959Z" fill="#27AAE1"/>
<path d="M288.041 290.93L285.626 286.153L281.79 293.536L280.654 295.816L288.041 290.93Z" fill="white"/>
<path d="M299.405 303.96L305.087 294.296L300.684 284.524L292.587 290.387L290.314 295.49L286.478 303.96L299.405 303.96Z" fill="#27AAE1"/>
<path d="M297.985 278.443L292.586 290.387L300.684 284.524L297.985 278.443Z" fill="white"/>
<path d="M322.134 303.96L313.611 289.301L305.372 293.645L305.088 294.296L299.405 303.96L322.134 303.96Z" fill="#27AAE1"/>
<path d="M313.611 289.301L310.77 284.307L306.366 291.907L305.371 293.645L313.611 289.301Z" fill="white"/>
<path d="M284.418 371.669L286.549 371.669L290.243 363.2L287.97 358.64L280.583 363.526L276.463 371.669L279.588 371.669L284.418 371.669Z" fill="#27AAE1"/>
<path d="M287.97 358.64L285.555 353.863L281.861 361.246L280.583 363.526L287.97 358.64Z" fill="white"/>
<path d="M299.334 371.67L305.016 362.006L300.613 352.234L292.515 358.097L290.243 363.2L286.549 371.67L299.334 371.67Z" fill="#27AAE1"/>
<path d="M297.914 346.153L292.516 358.097L300.613 352.234L297.914 346.153Z" fill="white"/>
<path d="M322.205 371.67L313.682 357.011L305.3 361.355L305.016 362.006L299.334 371.67L322.205 371.67Z" fill="#27AAE1"/>
<path d="M313.682 357.011L310.699 352.017L306.437 359.617L305.301 361.354L313.682 357.011Z" fill="white"/>
<path d="M233 291.597L235.261 287.557C236.674 287.994 248.826 292.907 251.793 327.405C252.359 333.737 252.783 340.178 253.065 346.401C254.761 372.275 256.457 398.913 265.783 404.48C276.946 411.14 283.446 409.939 283.446 409.939L285 414.087C284.152 414.306 275.674 415.943 262.25 407.865C250.946 401.096 249.25 375.768 247.413 346.51C246.989 340.287 246.565 333.846 246.141 327.514C243.457 296.291 233 291.706 233 291.597Z" fill="#F6F6F6"/>
<path d="M162 142.588C163.845 142.373 208.832 137.524 225.861 146.575C231.254 149.485 234.518 151.747 237.073 153.579C242.04 157.135 244.168 158.536 256.657 159.721C264.036 160.367 290.574 159.721 290.858 159.721L291 164.031C289.865 164.031 263.752 164.678 255.947 164.031C242.182 162.738 238.917 160.906 233.099 156.812C230.686 155.088 227.564 152.933 222.455 150.239C207.271 142.157 163.135 147.006 162.71 147.006L162 142.588Z" fill="#F6F6F6"/>
<path d="M264.143 326.805C264 330.605 264 334.295 264 337.878C264 365.343 265.995 389.985 276.112 397.475C283.094 402.795 285.944 422.986 285.944 434.493C287.796 472.335 289.62 553.753 282.097 576.687C272.692 605.355 266.28 703.974 276.112 715.823C283.978 725.303 291.258 727.163 293.916 726.908C290.906 724.233 284.686 715.212 283.883 700.534C282.88 682.186 280.873 637.846 283.883 625.614C286.893 613.383 298.43 574.394 298.932 559.869C299.434 545.344 298.654 462.779 294.494 434.493C294.494 431.237 293.924 401.818 282.097 392.916C271.837 385.1 272.407 342.871 272.692 326.914L272.692 320.834C272.692 309.327 273.975 268.402 290.504 226.39C301.618 198.057 299.196 171.026 297.344 149.206L297.313 148.854C296.043 134.241 294.952 121.678 298.768 113.817C303.756 103.504 317.72 103.287 320 103.07L320 96.4478C319.003 96.4478 297.771 96.9905 290.931 111.429C286.389 120.62 287.503 133.258 288.92 149.343L288.936 149.532C290.789 170.809 293.069 197.188 282.382 224.436C265.425 267.316 264.143 309.11 264.143 320.834L264.143 326.805Z" fill="#49B1DE"/>
<path d="M114 644.771L114 641.199L60 641.199L60 644.771L114 644.771Z" fill="#F6F6F6"/>
<path d="M101 682.279L101 615.301L96 615.301L96 682.279L101 682.279Z" fill="#F6F6F6"/>
<path d="M64 263.445L64 227.724L47 227.724L47 263.445L64 263.445Z" fill="#F6F6F6"/>
<path d="M97 204.505L97 167.891L80 167.891L80 204.505L97 204.505Z" fill="#F6F6F6"/>
<path d="M57 143.779L57 122.346L39 122.346L39 143.779L57 143.779Z" fill="#F6F6F6"/>
</g>
<defs>
<clipPath id="clip0">
<rect width="718" height="323" fill="white" transform="translate(322) rotate(90)"/>
</clipPath>
</defs>
</svg>
