<svg width="20" height="23" viewBox="0 0 20 23" fill="none" xmlns="http://www.w3.org/2000/svg">
<path d="M7.94003 1.43721C8.10605 1.01257 8.39081 0.648916 8.75782 0.392857C9.12483 0.136797 9.55737 0 10 0C10.4426 0 10.8752 0.136797 11.2422 0.392857C11.6092 0.648916 11.894 1.01257 12.06 1.43721C13.703 1.90484 15.1523 2.91774 16.1852 4.32034C17.2181 5.72294 17.7776 7.43767 17.7776 9.20119V14.6022L19.8132 17.762C19.9248 17.9352 19.9889 18.1365 19.9987 18.3444C20.0085 18.5524 19.9635 18.7591 19.8686 18.9427C19.7737 19.1263 19.6324 19.2797 19.4599 19.3867C19.2873 19.4936 19.0899 19.5501 18.8887 19.5501H13.8499C13.7162 20.5081 13.2533 21.3841 12.5463 22.0177C11.8392 22.6513 10.9353 23 10 23C9.06473 23 8.16076 22.6513 7.45371 22.0177C6.74665 21.3841 6.28384 20.5081 6.15006 19.5501H1.11126C0.910104 19.5501 0.712713 19.4936 0.540147 19.3867C0.367581 19.2797 0.226313 19.1263 0.131415 18.9427C0.0365172 18.7591 -0.00845069 18.5524 0.0013087 18.3444C0.0110681 18.1365 0.0751887 17.9352 0.18683 17.762L2.22235 14.6022V9.20119C2.22235 5.49398 4.64453 2.37091 7.94003 1.43721ZM8.42892 19.5501C8.54367 19.8866 8.75645 20.178 9.03793 20.3841C9.31941 20.5902 9.65574 20.7009 10.0006 20.7009C10.3454 20.7009 10.6817 20.5902 10.9632 20.3841C11.2447 20.178 11.4574 19.8866 11.5722 19.5501H8.4278H8.42892ZM10 3.4518C8.5266 3.4518 7.11355 4.05753 6.07169 5.13575C5.02984 6.21398 4.44454 7.67636 4.44454 9.20119V14.9506C4.44459 15.1777 4.37963 15.3998 4.25787 15.5888L3.18789 17.2503H16.811L15.741 15.5888C15.6196 15.3997 15.5551 15.1776 15.5555 14.9506V9.20119C15.5555 7.67636 14.9702 6.21398 13.9283 5.13575C12.8865 4.05753 11.4734 3.4518 10 3.4518V3.4518Z" fill="#F64646"/>
</svg>
