<svg width="21" height="30" viewBox="0 0 21 30" fill="none" xmlns="http://www.w3.org/2000/svg">
<path d="M10.216 0C3.97276 0 -2.27049 8.88889 1.13492 15L9.08087 28.8889L11.3511 30L19.2971 12.2222C23.2701 6.66667 15.8917 0 10.216 0ZM11.3511 15.5556C9.08087 15.5556 7.37816 13.8889 7.37816 11.1111C7.37816 8.33333 9.08087 5.55556 12.4863 5.55556C14.7565 5.55556 15.8917 7.22222 15.8917 10C15.8917 13.3333 13.6214 15.5556 11.3511 15.5556Z" fill="#CE3632"/>
<path d="M7.94556 14.4445C7.94556 14.4445 11.9185 15 13.0537 10.5556C13.6212 7.77782 11.8697 5.29419 11.8697 5.29419L13.6212 5.5556L15.0653 6.17654L16.4591 7.77782V11.1112L15.3239 15L11.351 16.1112L8.51312 15.5556L7.94556 14.4445Z" fill="#CE3632"/>
<path d="M11.9189 1.11084C6.81079 1.11084 -1.53684e-05 9.99973 3.40539 16.6664L11.3513 29.9997L19.8648 13.3331C22.7027 7.77751 18.7297 1.11084 11.9189 1.11084ZM11.3513 15.5553C9.08106 15.5553 7.37836 13.8886 7.37836 11.1108C7.37836 8.33306 9.08106 5.55528 12.4865 5.55528C14.7567 5.55528 15.8919 7.22195 15.8919 9.99973C15.8919 13.3331 13.6216 15.5553 11.3513 15.5553Z" fill="#FA493F"/>
</svg>
