<svg id="Layer_1" data-name="Layer 1" xmlns="http://www.w3.org/2000/svg" viewBox="0 0 20.72 22.5"><defs><style>.cls-1{fill:#f64646;}</style></defs><title>settings</title><path class="cls-1" d="M20,14.05l-1.54-1.38a9.6,9.6,0,0,0,.11-1.42,9.7,9.7,0,0,0-.11-1.42L20,8.46a.79.79,0,0,0,.24-.4.84.84,0,0,0,0-.47l0-.06a11,11,0,0,0-1.88-3.39l0,0a.75.75,0,0,0-.38-.25.77.77,0,0,0-.45,0l-1.92.71a8.07,8.07,0,0,0-2.35-1.42l-.37-2.08a.8.8,0,0,0-.21-.42.71.71,0,0,0-.4-.21l-.06,0A10.28,10.28,0,0,0,8.4.42l-.06,0a.71.71,0,0,0-.4.21.8.8,0,0,0-.21.42L7.36,3.16A8.35,8.35,0,0,0,5,4.57L3.09,3.86a.77.77,0,0,0-.45,0,.75.75,0,0,0-.38.25l0,0A11.15,11.15,0,0,0,.34,7.53l0,.06a.81.81,0,0,0,.22.87L2.1,9.85a9,9,0,0,0,0,2.8L.54,14a.75.75,0,0,0-.24.4.84.84,0,0,0,0,.47l0,.06a11.15,11.15,0,0,0,1.88,3.39l0,.05a.75.75,0,0,0,.38.25.77.77,0,0,0,.45,0L5,17.93a8.35,8.35,0,0,0,2.34,1.41l.37,2.09a.84.84,0,0,0,.21.42.71.71,0,0,0,.4.21l.06,0a10.28,10.28,0,0,0,3.75,0l.06,0a.71.71,0,0,0,.4-.21.84.84,0,0,0,.21-.42l.37-2.08a8.43,8.43,0,0,0,2.35-1.42l1.92.71a.77.77,0,0,0,.45,0,.75.75,0,0,0,.38-.25l0-.05A11.15,11.15,0,0,0,20.21,15l0-.06a.79.79,0,0,0-.22-.86Zm-3.22-3.93a7.2,7.2,0,0,1,0,2.27l-.15,1,1.76,1.57a9.42,9.42,0,0,1-1,1.81l-2.18-.81-.75.63A6.72,6.72,0,0,1,12.6,17.7l-.9.35-.43,2.38a8.36,8.36,0,0,1-2,0L8.85,18,8,17.69A6.93,6.93,0,0,1,6.1,16.57l-.74-.64-2.2.82a9.73,9.73,0,0,1-1-1.81l1.78-1.59-.15-1a7,7,0,0,1,0-2.23l.15-1L2.15,7.57a9.73,9.73,0,0,1,1-1.81l2.2.82.74-.64A6.68,6.68,0,0,1,8,4.82l.89-.35.42-2.39a8.45,8.45,0,0,1,2,0l.42,2.38.9.36a6.64,6.64,0,0,1,1.87,1.12l.74.63,2.19-.8a9.6,9.6,0,0,1,1,1.8L16.64,9.14ZM10.28,6.69A4.24,4.24,0,0,0,6.13,11a4.24,4.24,0,0,0,4.15,4.32A4.24,4.24,0,0,0,14.43,11,4.24,4.24,0,0,0,10.28,6.69ZM12.14,13a2.55,2.55,0,0,1-1.86.81A2.57,2.57,0,0,1,8.41,13a2.61,2.61,0,0,1-.57-.89A2.69,2.69,0,0,1,7.64,11a2.79,2.79,0,0,1,.77-1.95,2.57,2.57,0,0,1,3.73,0,2.68,2.68,0,0,1,.58.9,2.88,2.88,0,0,1,.2,1A2.79,2.79,0,0,1,12.14,13Z"/></svg>