<svg width="21" height="18" viewBox="0 0 21 18" fill="none" xmlns="http://www.w3.org/2000/svg">
<path fill-rule="evenodd" clip-rule="evenodd" d="M12.0734 0.0704352C11.957 0.0134557 11.8269 -0.00967347 11.698 0.00368378C11.5691 0.017041 11.4465 0.0663475 11.3443 0.145984L5.30092 4.84624H1.38462C1.01752 4.84665 0.665577 4.99266 0.406 5.25224C0.146424 5.51182 0.000412289 5.86376 0 6.23086V11.7693C0.000412289 12.1364 0.146424 12.4884 0.406 12.7479C0.665577 13.0075 1.01752 13.1535 1.38462 13.1539H5.30092L11.3443 17.8542C11.4466 17.9338 11.5691 17.983 11.698 17.9963C11.8269 18.0097 11.957 17.9865 12.0734 17.9296C12.1898 17.8727 12.2879 17.7842 12.3565 17.6743C12.4251 17.5644 12.4615 17.4374 12.4616 17.3078V0.692388C12.4616 0.562781 12.4252 0.435774 12.3566 0.32582C12.288 0.215866 12.1899 0.127381 12.0734 0.0704352ZM1.38462 6.23086H4.84356V11.7693H1.38462V6.23086ZM11.0769 15.8923L6.22818 12.1211V5.87908L11.0769 2.1079V15.8923ZM18.0491 4.10459C17.9849 4.0403 17.9085 3.98931 17.8245 3.95452C17.7405 3.91973 17.6505 3.90182 17.5596 3.90183C17.3759 3.90184 17.1998 3.97479 17.07 4.10464C16.9402 4.23448 16.8672 4.41059 16.8672 4.59422C16.8673 4.77784 16.9402 4.95394 17.0701 5.08378C17.5844 5.59806 17.9924 6.20862 18.2707 6.88058C18.5491 7.55254 18.6923 8.27275 18.6923 9.00008C18.6923 9.72741 18.5491 10.4476 18.2707 11.1196C17.9924 11.7915 17.5844 12.4021 17.0701 12.9164C16.9402 13.0462 16.8673 13.2223 16.8673 13.4059C16.8673 13.5896 16.9402 13.7656 17.0701 13.8955C17.1999 14.0253 17.376 14.0983 17.5596 14.0983C17.7432 14.0983 17.9193 14.0253 18.0491 13.8955C19.3475 12.5971 20.0769 10.8362 20.0769 9.00008C20.0769 7.16395 19.3475 5.40303 18.0491 4.10468V4.10459ZM14.4197 7.04198C14.4197 6.85839 14.4926 6.68231 14.6224 6.55248V6.55239C14.6867 6.48809 14.763 6.43709 14.847 6.40229C14.931 6.36749 15.021 6.34958 15.1119 6.34958C15.2028 6.34958 15.2929 6.36749 15.3769 6.40229C15.4608 6.43709 15.5372 6.48809 15.6014 6.55239C15.9229 6.87381 16.1779 7.2554 16.3519 7.67537C16.5258 8.09534 16.6154 8.54547 16.6154 9.00005C16.6154 9.45463 16.5258 9.90476 16.3519 10.3247C16.1779 10.7447 15.9229 11.1263 15.6014 11.4477C15.5373 11.5126 15.4609 11.5642 15.3768 11.5995C15.2926 11.6348 15.2023 11.6532 15.111 11.6534C15.0198 11.6537 14.9293 11.6359 14.845 11.6011C14.7606 11.5663 14.6839 11.5152 14.6194 11.4506C14.5549 11.3861 14.5037 11.3094 14.4689 11.2251C14.4341 11.1407 14.4164 11.0503 14.4166 10.959C14.4169 10.8677 14.4353 10.7774 14.4706 10.6933C14.5059 10.6091 14.5575 10.5328 14.6224 10.4686C14.8153 10.2758 14.9683 10.0468 15.0727 9.79484C15.177 9.54286 15.2308 9.27279 15.2308 9.00005C15.2308 8.72731 15.177 8.45724 15.0727 8.20526C14.9683 7.95329 14.8153 7.72434 14.6224 7.53149C14.4926 7.40166 14.4197 7.22558 14.4197 7.04198Z" fill="#757575"/>
</svg>
