<svg width="32" height="31" viewBox="0 0 32 31" fill="none" xmlns="http://www.w3.org/2000/svg">
<path fill-rule="evenodd" clip-rule="evenodd" d="M13.9916 6.66275H17.3229C19.1599 6.66275 20.6543 8.15721 20.6543 9.99413V13.3255C20.6543 15.1624 19.1599 16.6569 17.3229 16.6569H12.659C11.9234 16.6569 11.3265 16.0599 11.3265 15.3243V7.9953V1.33255C11.3265 0.596982 11.9234 0 12.659 0C13.3946 0 13.9916 0.596982 13.9916 1.33255V6.66275ZM17.3229 13.9918C17.6907 13.9918 17.9892 13.6926 17.9892 13.3255V9.99413C17.9892 9.62701 17.6907 9.32785 17.3229 9.32785H13.9916V13.9918H17.3229ZM6.66274 16.6571H2.66509C1.19528 16.6571 -1.4782e-05 15.4618 -1.4782e-05 13.992V11.9932C-1.4782e-05 9.78847 1.79293 7.99553 3.99764 7.99553H6.66274V5.9967C6.66274 5.62958 6.36425 5.33042 5.99646 5.33042H3.33136C3.09283 5.33042 2.93426 5.45302 2.86097 5.52631C2.34061 6.04667 1.49711 6.04667 0.976744 5.52631C0.456383 5.00595 0.456383 4.16244 0.976744 3.64208C1.60637 3.01245 2.44255 2.66532 3.33136 2.66532H5.99646C7.83338 2.66532 9.32784 4.15978 9.32784 5.9967V9.32808C9.32784 9.44334 9.31385 9.55461 9.28586 9.66121C9.31385 9.76782 9.32784 9.87908 9.32784 9.99435V13.992C9.32784 15.4618 8.13254 16.6571 6.66274 16.6571ZM3.99764 10.6606C3.26273 10.6606 2.66509 11.2583 2.66509 11.9932V13.992H6.66274V10.6606H3.99764ZM30.6486 13.9914H27.3173C26.2153 13.9914 25.3184 13.0946 25.3184 11.9926V9.99373C25.3184 8.89171 26.2153 7.99491 27.3173 7.99491H30.6486C31.3842 7.99491 31.9812 7.39792 31.9812 6.66236C31.9812 5.92679 31.3842 5.32981 30.6486 5.32981H27.3173C24.7461 5.32981 22.6533 7.42191 22.6533 9.99373V11.9926C22.6533 14.5644 24.7461 16.6565 27.3173 16.6565H30.6486C31.3842 16.6565 31.9812 16.0595 31.9812 15.3239C31.9812 14.5884 31.3842 13.9914 30.6486 13.9914ZM16.9325 30.2584C16.672 30.5189 16.3315 30.6488 15.9904 30.6488C15.6493 30.6488 15.3088 30.5189 15.0483 30.2584L9.05182 24.2619C8.53146 23.7415 8.53146 22.898 9.05182 22.3777C9.57218 21.8573 10.4157 21.8573 10.936 22.3777L15.9904 27.432L24.3762 19.0463C24.8965 18.5259 25.74 18.5259 26.2604 19.0463C26.7807 19.5666 26.7807 20.4101 26.2604 20.9305L16.9325 30.2584Z" fill="#1F8CC9"/>
</svg>
