<svg width="19" height="18" viewBox="0 0 19 18" fill="none" xmlns="http://www.w3.org/2000/svg">
<path fill-rule="evenodd" clip-rule="evenodd" d="M8.12413 3.86869H10.0585C11.1251 3.86869 11.9928 4.73644 11.9928 5.80304V7.73739C11.9928 8.80399 11.1251 9.67174 10.0585 9.67174H7.35039C6.92329 9.67174 6.57665 9.3251 6.57665 8.898V4.64243V0.773739C6.57665 0.346635 6.92329 0 7.35039 0C7.7775 0 8.12413 0.346635 8.12413 0.773739V3.86869ZM10.0585 8.12426C10.272 8.12426 10.4453 7.95055 10.4453 7.73739V5.80304C10.4453 5.58988 10.272 5.41617 10.0585 5.41617H8.12413V8.12426H10.0585ZM3.86876 9.67182H1.54755C0.694113 9.67182 6.93046e-05 8.97777 6.93046e-05 8.12434V6.96373C6.93046e-05 5.68358 1.04113 4.64252 2.32129 4.64252H3.86876V3.48191C3.86876 3.26874 3.69545 3.09504 3.48189 3.09504H1.93442C1.79592 3.09504 1.70384 3.16622 1.66129 3.20878C1.35914 3.51092 0.869365 3.51092 0.56722 3.20878C0.265075 2.90663 0.265075 2.41686 0.56722 2.11471C0.932811 1.74912 1.41833 1.54756 1.93442 1.54756H3.48189C4.54849 1.54756 5.41624 2.41531 5.41624 3.48191V5.41625C5.41624 5.48318 5.40812 5.54779 5.39187 5.60969C5.40812 5.67159 5.41624 5.7362 5.41624 5.80312V8.12434C5.41624 8.97777 4.7222 9.67182 3.86876 9.67182ZM2.32129 6.18999C1.89457 6.18999 1.54755 6.53701 1.54755 6.96373V8.12434H3.86876V6.18999H2.32129ZM17.796 8.12409H15.8617C15.2218 8.12409 14.7011 7.60336 14.7011 6.96348V5.80287C14.7011 5.16299 15.2218 4.64226 15.8617 4.64226H17.796C18.2231 4.64226 18.5697 4.29563 18.5697 3.86852C18.5697 3.44142 18.2231 3.09479 17.796 3.09479H15.8617C14.3687 3.09479 13.1536 4.30956 13.1536 5.80287V6.96348C13.1536 8.45679 14.3687 9.67157 15.8617 9.67157H17.796C18.2231 9.67157 18.5697 9.32493 18.5697 8.89783C18.5697 8.47072 18.2231 8.12409 17.796 8.12409ZM9.83176 17.5693C9.6805 17.7205 9.48281 17.796 9.28473 17.796C9.08665 17.796 8.88896 17.7205 8.7377 17.5693L5.25587 14.0874C4.95373 13.7853 4.95373 13.2955 5.25587 12.9934C5.55802 12.6912 6.04779 12.6912 6.34994 12.9934L9.28473 15.9282L14.1539 11.059C14.456 10.7569 14.9458 10.7569 15.2479 11.059C15.5501 11.3612 15.5501 11.8509 15.2479 12.1531L9.83176 17.5693Z" fill="#15CC5E"/>
</svg>
