<svg width="29" height="28" viewBox="0 0 29 28" fill="none" xmlns="http://www.w3.org/2000/svg">
<path d="M28.9283 6.73358C28.7098 6.16705 28.0571 5.87914 27.4711 6.09031L20.7876 8.49872C20.3444 8.65839 20.0505 9.06738 20.0505 9.52449V19.0049C16.7296 16.8172 12.0969 19.1872 12.121 23.0992C12.4008 29.6343 22.0371 29.6329 22.3161 23.0992V10.2846L28.2626 8.14179C28.8489 7.93056 29.1469 7.30005 28.9283 6.73358V6.73358ZM17.2186 25.8359C15.657 25.8359 14.3866 24.6082 14.3866 23.0991C14.5422 19.4683 19.8956 19.4694 20.0506 23.0991C20.0506 24.6082 18.7802 25.8359 17.2186 25.8359ZM16.8073 0.71255C16.5888 0.146026 15.9362 -0.141943 15.3502 0.0692853L8.66663 2.4777C8.22348 2.63736 7.92958 3.04636 7.92958 3.50346V12.9838C4.60872 10.7961 -0.0239786 13.1661 9.34289e-05 17.0781C0.279895 23.6132 9.91617 23.6118 10.1952 17.0781V4.26359L16.1417 2.12076C16.7279 1.90953 17.026 1.27902 16.8073 0.71255V0.71255ZM5.09764 19.8149C3.53607 19.8149 2.26564 18.5872 2.26564 17.0781C2.42123 13.4473 7.77467 13.4483 7.92963 17.0781C7.92963 18.5872 6.6592 19.8149 5.09764 19.8149Z" fill="#1F8CC9"/>
</svg>
