<svg width="17" height="16" viewBox="0 0 17 16" fill="none" xmlns="http://www.w3.org/2000/svg">
<path d="M16.958 3.84776C16.8299 3.52403 16.4472 3.35951 16.1038 3.48018L12.1858 4.85641C11.9261 4.94765 11.7538 5.18136 11.7538 5.44256V10.8599C9.80702 9.6098 7.09127 10.9641 7.10541 13.1996C7.26943 16.9339 12.9183 16.9331 13.0819 13.1995V5.87692L16.5677 4.65245C16.9114 4.53175 17.0861 4.17146 16.958 3.84776V3.84776ZM10.0937 14.7634C9.17826 14.7634 8.43352 14.0618 8.43352 13.1995C8.52473 11.1248 11.663 11.1254 11.7538 13.1995C11.7538 14.0618 11.0091 14.7634 10.0937 14.7634ZM9.85257 0.407171C9.72448 0.0834434 9.34191 -0.0811105 8.99837 0.0395916L5.08044 1.41583C4.82066 1.50706 4.64837 1.74077 4.64837 2.00198V7.41934C2.70166 6.16919 -0.0140564 7.52349 5.47687e-05 9.75894C0.164076 13.4933 5.81293 13.4925 5.97652 9.75891V2.43634L9.46237 1.21186C9.80602 1.09116 9.98073 0.730868 9.85257 0.407171V0.407171ZM2.98827 11.3228C2.07287 11.3228 1.32813 10.6212 1.32813 9.75891C1.41934 7.68417 4.55756 7.68476 4.64841 9.75891C4.64841 10.6212 3.90367 11.3228 2.98827 11.3228Z" fill="#15CC5E"/>
</svg>
