<svg width="33" height="33" viewBox="0 0 33 33" fill="none" xmlns="http://www.w3.org/2000/svg">
<mask id="path-1-outside-1" maskUnits="userSpaceOnUse" x="0" y="0" width="33" height="33" fill="black">
<rect fill="white" width="33" height="33"/>
<path fill-rule="evenodd" clip-rule="evenodd" d="M27.7662 1.11083C29.8801 1.4631 31.537 3.12003 31.8893 5.23392C32.2488 7.39213 31.7338 9.68282 30.358 12.0426C30.2412 12.2431 29.9955 12.3364 29.781 12.2478C29.5165 12.1387 29.4176 11.8272 29.5567 11.589C30.8254 9.41617 31.3045 7.32898 30.9806 5.38535C30.693 3.65957 29.3403 2.30682 27.6145 2.01922C26.2792 1.79671 24.8685 1.95299 23.4218 2.48374L23.4112 2.48768C22.711 2.74549 22.0987 3.19657 21.631 3.77794C20.7874 4.82656 19.5751 6.6738 19.5751 8.62875C19.5751 8.90151 19.3377 9.119 19.0583 9.08576C18.8252 9.05809 18.6537 8.84975 18.6543 8.615C18.6574 7.36718 19.0877 6.00414 19.9025 4.6425C18.7032 5.74748 17.7404 7.13117 17.1082 8.70304C16.8344 9.38365 16.6396 10.0369 16.5291 10.6447C16.4907 10.8557 16.3116 11.0123 16.0973 11.0222C15.883 11.0316 15.6903 10.8927 15.6326 10.686C15.6204 10.6421 15.392 9.81451 15.2456 8.66744L15.2297 8.68481C14.214 9.80094 13.4402 11.1144 12.9354 12.5366C12.3783 14.1057 11.7485 16.2175 11.7485 17.7443C11.7485 18.0172 11.511 18.2347 11.2314 18.2013C10.9958 18.1732 10.827 17.9609 10.8278 17.7236C10.8312 16.6691 11.0928 15.2918 11.6048 13.6226C11.2305 14.2695 10.8802 14.9324 10.5544 15.6145C9.38564 18.0614 8.7161 20.3268 8.12533 22.3257L8.12487 22.3273C7.82522 23.3414 7.5507 24.27 7.24675 25.1021L10.2626 22.0864C10.4408 21.9081 10.7337 21.89 10.9172 22.0628C11.1071 22.2416 11.1105 22.5406 10.9274 22.7237L7.89788 25.7532C8.73004 25.4493 9.65878 25.1747 10.6729 24.875C12.7842 24.251 15.3542 23.4915 18.0716 22.1062C16.4617 21.6249 15.6732 21.0985 15.6337 21.0716C15.4568 20.9516 15.3857 20.7255 15.4622 20.5259C15.5388 20.3262 15.7424 20.2056 15.9545 20.2345C15.9639 20.2357 17.096 20.3721 19.1119 19.8514C21.4308 19.2525 23.566 18.1355 25.3982 16.5776C22.5668 17.7591 20.4017 18.0906 20.2871 18.1075C20.2644 18.1109 20.2417 18.1126 20.2193 18.1126C19.9947 18.1126 19.7982 17.9482 19.7644 17.7194C19.7272 17.468 19.9008 17.234 20.1522 17.1967C20.1831 17.1921 22.9752 16.7619 26.3008 15.1622C26.9767 14.837 27.5707 14.363 28.0393 13.7774C28.2544 13.5086 28.4608 13.2376 28.6527 12.972C28.8043 12.7623 29.0994 12.7179 29.3062 12.8763C29.5071 13.0302 29.5353 13.3233 29.3868 13.5283C29.1895 13.8005 28.9783 14.0778 28.7584 14.3526C28.5016 14.6737 28.2387 14.9918 27.9772 15.2985C25.6771 17.9953 22.6912 19.8779 19.3423 20.743C18.7664 20.8918 18.2558 20.9909 17.8147 21.0561C18.2602 21.2095 18.7968 21.3667 19.4258 21.5064C19.6333 21.5524 19.7852 21.7358 19.7865 21.9543C19.7876 22.1254 19.6863 22.2815 19.5371 22.3654C16.3574 24.1553 13.3506 25.0438 10.934 25.758C8.52273 26.4705 6.61809 27.0334 5.49446 28.1566L1.78599 31.8652C1.69608 31.9551 1.57826 32 1.46043 32C1.34261 32 1.22472 31.955 1.13487 31.8652C0.955044 31.6855 0.955044 31.3939 1.13487 31.2141L4.84285 27.5064L4.84303 27.5062C5.9666 26.3827 6.5295 24.4779 7.24214 22.0664L7.24215 22.0664C8.2169 18.7678 9.49336 14.4501 12.9684 9.95007C12.9815 9.93009 12.9959 9.91132 13.0116 9.894C13.6816 9.03054 14.4324 8.16066 15.2781 7.28999C15.4303 7.13329 15.6759 7.10187 15.8666 7.22926C15.9892 7.31106 16.0599 7.45104 16.0689 7.59811C16.09 7.94541 16.1242 8.27927 16.1646 8.58836C16.1935 8.51232 16.2234 8.4359 16.2543 8.35931C17.3483 5.63923 19.3591 3.43742 21.8737 2.15745C21.8896 2.14801 21.9059 2.13977 21.9225 2.13239C22.3057 1.9396 22.7001 1.76777 23.1051 1.61919C24.7034 1.03279 26.2716 0.861862 27.7662 1.11083ZM25.922 6.42636C26.1018 6.2466 26.3933 6.2466 26.5731 6.42642C26.7529 6.60619 26.7529 6.89772 26.5732 7.07749L12.4002 21.2504C12.3103 21.3403 12.1925 21.3852 12.0746 21.3852C11.9568 21.3852 11.8389 21.3402 11.7491 21.2504C11.5692 21.0707 11.5692 20.7792 11.7491 20.5993L25.922 6.42636Z"/>
</mask>
<path fill-rule="evenodd" clip-rule="evenodd" d="M27.7662 1.11083C29.8801 1.4631 31.537 3.12003 31.8893 5.23392C32.2488 7.39213 31.7338 9.68282 30.358 12.0426C30.2412 12.2431 29.9955 12.3364 29.781 12.2478C29.5165 12.1387 29.4176 11.8272 29.5567 11.589C30.8254 9.41617 31.3045 7.32898 30.9806 5.38535C30.693 3.65957 29.3403 2.30682 27.6145 2.01922C26.2792 1.79671 24.8685 1.95299 23.4218 2.48374L23.4112 2.48768C22.711 2.74549 22.0987 3.19657 21.631 3.77794C20.7874 4.82656 19.5751 6.6738 19.5751 8.62875C19.5751 8.90151 19.3377 9.119 19.0583 9.08576C18.8252 9.05809 18.6537 8.84975 18.6543 8.615C18.6574 7.36718 19.0877 6.00414 19.9025 4.6425C18.7032 5.74748 17.7404 7.13117 17.1082 8.70304C16.8344 9.38365 16.6396 10.0369 16.5291 10.6447C16.4907 10.8557 16.3116 11.0123 16.0973 11.0222C15.883 11.0316 15.6903 10.8927 15.6326 10.686C15.6204 10.6421 15.392 9.81451 15.2456 8.66744L15.2297 8.68481C14.214 9.80094 13.4402 11.1144 12.9354 12.5366C12.3783 14.1057 11.7485 16.2175 11.7485 17.7443C11.7485 18.0172 11.511 18.2347 11.2314 18.2013C10.9958 18.1732 10.827 17.9609 10.8278 17.7236C10.8312 16.6691 11.0928 15.2918 11.6048 13.6226C11.2305 14.2695 10.8802 14.9324 10.5544 15.6145C9.38564 18.0614 8.7161 20.3268 8.12533 22.3257L8.12487 22.3273C7.82522 23.3414 7.5507 24.27 7.24675 25.1021L10.2626 22.0864C10.4408 21.9081 10.7337 21.89 10.9172 22.0628C11.1071 22.2416 11.1105 22.5406 10.9274 22.7237L7.89788 25.7532C8.73004 25.4493 9.65878 25.1747 10.6729 24.875C12.7842 24.251 15.3542 23.4915 18.0716 22.1062C16.4617 21.6249 15.6732 21.0985 15.6337 21.0716C15.4568 20.9516 15.3857 20.7255 15.4622 20.5259C15.5388 20.3262 15.7424 20.2056 15.9545 20.2345C15.9639 20.2357 17.096 20.3721 19.1119 19.8514C21.4308 19.2525 23.566 18.1355 25.3982 16.5776C22.5668 17.7591 20.4017 18.0906 20.2871 18.1075C20.2644 18.1109 20.2417 18.1126 20.2193 18.1126C19.9947 18.1126 19.7982 17.9482 19.7644 17.7194C19.7272 17.468 19.9008 17.234 20.1522 17.1967C20.1831 17.1921 22.9752 16.7619 26.3008 15.1622C26.9767 14.837 27.5707 14.363 28.0393 13.7774C28.2544 13.5086 28.4608 13.2376 28.6527 12.972C28.8043 12.7623 29.0994 12.7179 29.3062 12.8763C29.5071 13.0302 29.5353 13.3233 29.3868 13.5283C29.1895 13.8005 28.9783 14.0778 28.7584 14.3526C28.5016 14.6737 28.2387 14.9918 27.9772 15.2985C25.6771 17.9953 22.6912 19.8779 19.3423 20.743C18.7664 20.8918 18.2558 20.9909 17.8147 21.0561C18.2602 21.2095 18.7968 21.3667 19.4258 21.5064C19.6333 21.5524 19.7852 21.7358 19.7865 21.9543C19.7876 22.1254 19.6863 22.2815 19.5371 22.3654C16.3574 24.1553 13.3506 25.0438 10.934 25.758C8.52273 26.4705 6.61809 27.0334 5.49446 28.1566L1.78599 31.8652C1.69608 31.9551 1.57826 32 1.46043 32C1.34261 32 1.22472 31.955 1.13487 31.8652C0.955044 31.6855 0.955044 31.3939 1.13487 31.2141L4.84285 27.5064L4.84303 27.5062C5.9666 26.3827 6.5295 24.4779 7.24214 22.0664L7.24215 22.0664C8.2169 18.7678 9.49336 14.4501 12.9684 9.95007C12.9815 9.93009 12.9959 9.91132 13.0116 9.894C13.6816 9.03054 14.4324 8.16066 15.2781 7.28999C15.4303 7.13329 15.6759 7.10187 15.8666 7.22926C15.9892 7.31106 16.0599 7.45104 16.0689 7.59811C16.09 7.94541 16.1242 8.27927 16.1646 8.58836C16.1935 8.51232 16.2234 8.4359 16.2543 8.35931C17.3483 5.63923 19.3591 3.43742 21.8737 2.15745C21.8896 2.14801 21.9059 2.13977 21.9225 2.13239C22.3057 1.9396 22.7001 1.76777 23.1051 1.61919C24.7034 1.03279 26.2716 0.861862 27.7662 1.11083ZM25.922 6.42636C26.1018 6.2466 26.3933 6.2466 26.5731 6.42642C26.7529 6.60619 26.7529 6.89772 26.5732 7.07749L12.4002 21.2504C12.3103 21.3403 12.1925 21.3852 12.0746 21.3852C11.9568 21.3852 11.8389 21.3402 11.7491 21.2504C11.5692 21.0707 11.5692 20.7792 11.7491 20.5993L25.922 6.42636Z" fill="#1F8CC9"/>
<path d="M31.8893 5.23392L32.2838 5.16818L32.2838 5.16817L31.8893 5.23392ZM27.7662 1.11083L27.832 0.716274L27.832 0.71627L27.7662 1.11083ZM30.358 12.0426L30.0125 11.8412L30.0124 11.8412L30.358 12.0426ZM29.781 12.2478L29.6284 12.6176L29.6284 12.6176L29.781 12.2478ZM29.5567 11.589L29.2113 11.3873L29.2112 11.3873L29.5567 11.589ZM30.9806 5.38535L31.3752 5.3196L31.3752 5.3196L30.9806 5.38535ZM27.6145 2.01922L27.6803 1.62466L27.6802 1.62466L27.6145 2.01922ZM23.4218 2.48374L23.2841 2.10822L23.2833 2.10851L23.4218 2.48374ZM23.4112 2.48768L23.5494 2.86304L23.5498 2.86291L23.4112 2.48768ZM21.631 3.77794L21.3193 3.5272L21.3193 3.52722L21.631 3.77794ZM19.0583 9.08576L19.1055 8.68856L19.1054 8.68855L19.0583 9.08576ZM18.6543 8.615L19.0543 8.61604L19.0543 8.61601L18.6543 8.615ZM19.9025 4.6425L20.2457 4.84787L19.6314 4.34833L19.9025 4.6425ZM17.1082 8.70304L17.4793 8.85232L17.4793 8.8523L17.1082 8.70304ZM16.5291 10.6447L16.9226 10.7163L16.9226 10.7162L16.5291 10.6447ZM16.0973 11.0222L16.1149 11.4218L16.1158 11.4218L16.0973 11.0222ZM15.6326 10.686L15.2473 10.7932L15.2473 10.7935L15.6326 10.686ZM15.2456 8.66744L15.6424 8.6168L15.5329 7.75939L14.9502 8.39775L15.2456 8.66744ZM15.2297 8.68481L14.9343 8.41513L14.9339 8.41559L15.2297 8.68481ZM12.9354 12.5366L13.3123 12.6704L13.3123 12.6704L12.9354 12.5366ZM11.2314 18.2013L11.2788 17.8041L11.2787 17.8041L11.2314 18.2013ZM10.8278 17.7236L10.4278 17.7222L10.4278 17.7223L10.8278 17.7236ZM11.6048 13.6226L11.9872 13.7399L11.2586 13.4223L11.6048 13.6226ZM10.5544 15.6145L10.1935 15.4421L10.1935 15.4421L10.5544 15.6145ZM8.12533 22.3257L8.50891 22.4392L8.50892 22.4391L8.12533 22.3257ZM8.12487 22.3273L7.74129 22.2138L7.74127 22.2139L8.12487 22.3273ZM7.24675 25.1021L6.87104 24.9649L7.5296 25.385L7.24675 25.1021ZM10.2626 22.0864L10.5454 22.3692L10.5454 22.3692L10.2626 22.0864ZM10.9172 22.0628L10.643 22.354L10.643 22.3541L10.9172 22.0628ZM10.9274 22.7237L10.6445 22.4409L10.6445 22.4409L10.9274 22.7237ZM7.89788 25.7532L7.61504 25.4704L8.03511 26.1289L7.89788 25.7532ZM10.6729 24.875L10.5595 24.4914L10.5595 24.4914L10.6729 24.875ZM18.0716 22.1062L18.2533 22.4626L19.143 22.009L18.1862 21.723L18.0716 22.1062ZM15.6337 21.0716L15.8585 20.7408L15.8582 20.7406L15.6337 21.0716ZM15.4622 20.5259L15.8357 20.6691L15.8357 20.6691L15.4622 20.5259ZM15.9545 20.2345L15.9005 20.6308L15.9033 20.6312L15.9545 20.2345ZM19.1119 19.8514L19.0119 19.4641L19.0119 19.4641L19.1119 19.8514ZM25.3982 16.5776L25.6573 16.8823L25.2442 16.2084L25.3982 16.5776ZM20.2871 18.1075L20.2286 17.7119L20.2282 17.7119L20.2871 18.1075ZM19.7644 17.7194L19.3687 17.7779L19.3687 17.778L19.7644 17.7194ZM20.1522 17.1967L20.094 16.8009L20.0935 16.801L20.1522 17.1967ZM26.3008 15.1622L26.4742 15.5226L26.4742 15.5226L26.3008 15.1622ZM28.0393 13.7774L28.3516 14.0274L28.3516 14.0274L28.0393 13.7774ZM28.6527 12.972L28.3285 12.7377L28.3285 12.7378L28.6527 12.972ZM29.3062 12.8763L29.0629 13.1939L29.063 13.1939L29.3062 12.8763ZM29.3868 13.5283L29.7107 13.763L29.7107 13.763L29.3868 13.5283ZM28.7584 14.3526L28.4461 14.1027L28.4461 14.1027L28.7584 14.3526ZM27.9772 15.2985L28.2816 15.558L28.2816 15.558L27.9772 15.2985ZM19.3423 20.743L19.2422 20.3557L19.2422 20.3557L19.3423 20.743ZM17.8147 21.0561L17.7562 20.6604L17.6844 21.4343L17.8147 21.0561ZM19.4258 21.5064L19.3391 21.8969L19.3392 21.8969L19.4258 21.5064ZM19.7865 21.9543L19.3865 21.9566L19.3865 21.9567L19.7865 21.9543ZM19.5371 22.3654L19.341 22.0168L19.3409 22.0168L19.5371 22.3654ZM10.934 25.758L11.0474 26.1416L11.0474 26.1416L10.934 25.758ZM5.49446 28.1566L5.21167 27.8737L5.21161 27.8738L5.49446 28.1566ZM1.78599 31.8652L2.06884 32.148L2.06884 32.148L1.78599 31.8652ZM1.13487 31.8652L1.41771 31.5823L1.41762 31.5822L1.13487 31.8652ZM1.13487 31.2141L0.852038 30.9312L0.852025 30.9313L1.13487 31.2141ZM4.84285 27.5064L5.12568 27.7893L5.12661 27.7883L4.84285 27.5064ZM4.84303 27.5062L4.56018 27.2234L4.55926 27.2243L4.84303 27.5062ZM7.24214 22.0664L7.62579 22.1798L7.62755 22.1735L7.24214 22.0664ZM7.24215 22.0664L6.8585 21.953L6.85675 21.9593L7.24215 22.0664ZM12.9684 9.95007L13.2849 10.1945L13.2942 10.1825L13.3026 10.1698L12.9684 9.95007ZM13.0116 9.894L13.3076 10.1631L13.3181 10.1515L13.3277 10.1392L13.0116 9.894ZM15.2781 7.28999L15.565 7.56869L15.5651 7.56864L15.2781 7.28999ZM15.8666 7.22926L15.6445 7.56188L15.6446 7.56195L15.8666 7.22926ZM16.0689 7.59811L16.4681 7.57382L16.4681 7.57378L16.0689 7.59811ZM16.1646 8.58836L15.768 8.64018L16.5385 8.73038L16.1646 8.58836ZM16.2543 8.35931L16.6253 8.50862L16.6254 8.50858L16.2543 8.35931ZM21.8737 2.15745L22.0552 2.51393L22.067 2.50792L22.0783 2.50114L21.8737 2.15745ZM21.9225 2.13239L22.0847 2.49802L22.0936 2.49408L22.1023 2.4897L21.9225 2.13239ZM23.1051 1.61919L22.9673 1.24366L22.9673 1.24367L23.1051 1.61919ZM26.5731 6.42642L26.2903 6.70926L26.2903 6.70931L26.5731 6.42642ZM25.922 6.42636L25.6392 6.14347L25.6391 6.14352L25.922 6.42636ZM26.5732 7.07749L26.856 7.36033L26.856 7.36033L26.5732 7.07749ZM12.4002 21.2504L12.1174 20.9676L12.1174 20.9676L12.4002 21.2504ZM11.7491 21.2504L12.0319 20.9676L12.0318 20.9675L11.7491 21.2504ZM11.7491 20.5993L11.4662 20.3165L11.4662 20.3165L11.7491 20.5993ZM32.2838 5.16817C31.9035 2.88569 30.1145 1.09663 27.832 0.716274L27.7005 1.50539C29.6458 1.82956 31.1705 3.35437 31.4947 5.29967L32.2838 5.16817ZM30.7036 12.2441C32.1144 9.82424 32.6623 7.43949 32.2838 5.16818L31.4947 5.29966C31.8354 7.34477 31.3533 9.54139 30.0125 11.8412L30.7036 12.2441ZM29.6284 12.6176C30.042 12.7883 30.4942 12.6035 30.7036 12.2441L30.0124 11.8412C30.0019 11.8592 29.986 11.8717 29.9697 11.8776C29.9544 11.8831 29.9427 11.8819 29.9336 11.8781L29.6284 12.6176ZM29.2112 11.3873C28.9514 11.8323 29.1367 12.4146 29.6284 12.6176L29.9336 11.8781C29.8963 11.8627 29.8838 11.822 29.9021 11.7907L29.2112 11.3873ZM30.5861 5.4511C30.8907 7.2795 30.4462 9.27233 29.2113 11.3873L29.9021 11.7907C31.2047 9.56 31.7183 7.37845 31.3752 5.3196L30.5861 5.4511ZM27.5487 2.41378C29.1059 2.67329 30.3266 3.89392 30.5861 5.4511L31.3752 5.3196C31.0595 3.42522 29.5746 1.94036 27.6803 1.62466L27.5487 2.41378ZM23.5596 2.85927C24.9504 2.34902 26.2908 2.20416 27.5488 2.41378L27.6802 1.62466C26.2676 1.38927 24.7866 1.55695 23.2841 2.10822L23.5596 2.85927ZM23.5498 2.86291L23.5604 2.85897L23.2833 2.10851L23.2726 2.11245L23.5498 2.86291ZM21.9426 4.02868C22.367 3.50114 22.9204 3.09464 23.5494 2.86304L23.273 2.11232C22.5016 2.39633 21.8304 2.892 21.3193 3.5272L21.9426 4.02868ZM19.9751 8.62875C19.9751 6.81937 21.1088 5.06517 21.9426 4.02866L21.3193 3.52722C20.466 4.58795 19.1751 6.52823 19.1751 8.62875H19.9751ZM19.011 9.48296C19.5312 9.54483 19.9751 9.13836 19.9751 8.62875H19.1751C19.1751 8.66467 19.1443 8.69317 19.1055 8.68856L19.011 9.48296ZM18.2543 8.61397C18.2532 9.03587 18.561 9.42953 19.0111 9.48297L19.1054 8.68855C19.0968 8.68753 19.0854 8.68313 19.0738 8.66943C19.0616 8.65498 19.0542 8.63565 19.0543 8.61604L18.2543 8.61397ZM19.5592 4.43712C18.7178 5.84345 18.2577 7.27658 18.2543 8.61399L19.0543 8.61601C19.0572 7.45779 19.4577 6.16484 20.2457 4.84787L19.5592 4.43712ZM17.4793 8.8523C18.0894 7.33541 19.0181 6.00127 20.1735 4.93666L19.6314 4.34833C18.3883 5.4937 17.3915 6.92693 16.7371 8.55377L17.4793 8.8523ZM16.9226 10.7162C17.0275 10.1394 17.2138 9.51237 17.4793 8.85232L16.7371 8.55375C16.455 9.25493 16.2517 9.93434 16.1355 10.5731L16.9226 10.7162ZM16.1158 11.4218C16.5162 11.4032 16.8509 11.1107 16.9226 10.7163L16.1355 10.5731C16.1305 10.6007 16.107 10.6213 16.0788 10.6226L16.1158 11.4218ZM15.2473 10.7935C15.3553 11.1804 15.7158 11.4394 16.1149 11.4218L16.0797 10.6226C16.0502 10.6239 16.0253 10.6049 16.0179 10.5786L15.2473 10.7935ZM14.8488 8.71808C14.9985 9.89087 15.232 10.7385 15.2473 10.7932L16.018 10.5788C16.0087 10.5456 15.7855 9.73814 15.6424 8.6168L14.8488 8.71808ZM15.5251 8.9545L15.541 8.93712L14.9502 8.39775L14.9343 8.41513L15.5251 8.9545ZM13.3123 12.6704C13.8001 11.2964 14.5469 10.0294 15.5256 8.95404L14.9339 8.41559C13.881 9.5725 13.0803 10.9324 12.5584 12.4028L13.3123 12.6704ZM12.1485 17.7443C12.1485 16.2941 12.7545 14.2415 13.3123 12.6704L12.5584 12.4028C12.002 13.97 11.3485 16.1409 11.3485 17.7443H12.1485ZM11.1839 18.5984C11.7043 18.6607 12.1485 18.2542 12.1485 17.7443H11.3485C11.3485 17.7803 11.3177 17.8087 11.2788 17.8041L11.1839 18.5984ZM10.4278 17.7223C10.4265 18.1394 10.7245 18.5437 11.184 18.5985L11.2787 17.8041C11.2708 17.8031 11.2603 17.7993 11.2488 17.7855C11.2364 17.7706 11.2277 17.7487 11.2278 17.7248L10.4278 17.7223ZM11.2224 13.5053C10.7054 15.1907 10.4314 16.611 10.4278 17.7222L11.2278 17.7249C11.231 16.7271 11.4802 15.3929 11.9872 13.7399L11.2224 13.5053ZM10.9153 15.7869C11.2365 15.1145 11.5818 14.4609 11.951 13.823L11.2586 13.4223C10.8791 14.0781 10.5239 14.7504 10.1935 15.4421L10.9153 15.7869ZM8.50892 22.4391C9.09999 20.4392 9.76185 18.2018 10.9153 15.7869L10.1935 15.4421C9.00943 17.921 8.3322 20.2145 7.74173 22.2124L8.50892 22.4391ZM8.50845 22.4407L8.50891 22.4392L7.74175 22.2123L7.74129 22.2138L8.50845 22.4407ZM7.62247 25.2394C7.93157 24.3932 8.20972 23.4517 8.50848 22.4406L7.74127 22.2139C7.44072 23.2311 7.16983 24.1469 6.87104 24.9649L7.62247 25.2394ZM9.97971 21.8035L6.96391 24.8193L7.5296 25.385L10.5454 22.3692L9.97971 21.8035ZM11.1914 21.7716C10.8351 21.436 10.2954 21.4878 9.97971 21.8035L10.5454 22.3692C10.5619 22.3527 10.5842 22.3435 10.6055 22.3425C10.6253 22.3417 10.6364 22.3478 10.643 22.354L11.1914 21.7716ZM11.2102 23.0066C11.5523 22.6645 11.5462 22.1055 11.1914 21.7715L10.643 22.3541C10.6681 22.3776 10.6686 22.4168 10.6445 22.4409L11.2102 23.0066ZM8.18072 26.0361L11.2102 23.0066L10.6445 22.4409L7.61504 25.4704L8.18072 26.0361ZM10.5595 24.4914C9.54844 24.7902 8.6069 25.0684 7.76065 25.3775L8.03511 26.1289C8.85318 25.8301 9.76911 25.5592 10.7863 25.2586L10.5595 24.4914ZM17.89 21.7498C15.2091 23.1165 12.6717 23.8672 10.5595 24.4914L10.7862 25.2586C12.8967 24.6349 15.4992 23.8666 18.2533 22.4626L17.89 21.7498ZM15.4089 21.4025C15.4791 21.4502 16.3045 21.9953 17.9571 22.4894L18.1862 21.723C16.619 21.2544 15.8673 20.7468 15.8585 20.7408L15.4089 21.4025ZM15.0887 20.3827C14.9457 20.7559 15.0786 21.1784 15.4092 21.4027L15.8582 20.7406C15.835 20.7248 15.8257 20.6952 15.8357 20.6691L15.0887 20.3827ZM16.0085 19.8381C15.6125 19.7842 15.2317 20.0097 15.0887 20.3828L15.8357 20.6691C15.8458 20.6428 15.8724 20.627 15.9005 20.6308L16.0085 19.8381ZM19.0119 19.4641C17.0478 19.9715 15.9671 19.8328 16.0057 19.8377L15.9033 20.6312C15.9606 20.6386 17.1442 20.7728 19.2119 20.2387L19.0119 19.4641ZM25.1391 16.2728C23.3522 17.7923 21.2712 18.8806 19.0119 19.4641L19.2119 20.2387C21.5904 19.6244 23.7798 18.4788 25.6573 16.8823L25.1391 16.2728ZM20.3457 18.5032C20.4811 18.4832 22.6808 18.1449 25.5523 16.9467L25.2442 16.2084C22.4528 17.3733 20.3222 17.698 20.2286 17.7119L20.3457 18.5032ZM20.2193 18.5126C20.2611 18.5126 20.3035 18.5095 20.346 18.5032L20.2282 17.7119C20.2252 17.7124 20.2222 17.7126 20.2193 17.7126V18.5126ZM19.3687 17.778C19.432 18.2057 19.7993 18.5126 20.2193 18.5126V17.7126C20.1902 17.7126 20.1645 17.6906 20.1601 17.6609L19.3687 17.778ZM20.0935 16.801C19.6236 16.8707 19.2992 17.3081 19.3687 17.7779L20.1601 17.6609C20.1552 17.6279 20.178 17.5972 20.2109 17.5923L20.0935 16.801ZM26.1274 14.8017C24.4907 15.589 22.9847 16.0888 21.8847 16.392C21.335 16.5435 20.8876 16.6458 20.5771 16.7102C20.2658 16.7747 20.0933 16.801 20.094 16.8009L20.2104 17.5924C20.2648 17.5844 23.0998 17.1458 26.4742 15.5226L26.1274 14.8017ZM27.727 13.5275C27.2956 14.0666 26.7489 14.5027 26.1274 14.8017L26.4742 15.5226C27.2044 15.1713 27.8458 14.6594 28.3516 14.0274L27.727 13.5275ZM28.3285 12.7378C28.1406 12.9978 27.9382 13.2636 27.727 13.5275L28.3516 14.0274C28.5706 13.7537 28.781 13.4774 28.977 13.2062L28.3285 12.7378ZM29.5494 12.5588C29.1633 12.263 28.6117 12.3459 28.3285 12.7377L28.9769 13.2063C28.9969 13.1786 29.0356 13.1729 29.0629 13.1939L29.5494 12.5588ZM29.7107 13.763C29.9728 13.4011 29.9402 12.8581 29.5494 12.5588L29.063 13.1939C29.0701 13.1994 29.0779 13.2092 29.0802 13.2289C29.0826 13.2501 29.077 13.2741 29.0629 13.2936L29.7107 13.763ZM29.0708 14.6025C29.2945 14.3228 29.5096 14.0405 29.7107 13.763L29.0629 13.2936C28.8695 13.5605 28.6621 13.8327 28.4461 14.1027L29.0708 14.6025ZM28.2816 15.558C28.5458 15.2482 28.8113 14.9268 29.0708 14.6024L28.4461 14.1027C28.1918 14.4206 27.9316 14.7355 27.6729 15.0389L28.2816 15.558ZM19.4423 21.1303C22.8729 20.2441 25.9295 18.3158 28.2816 15.558L27.6729 15.0389C25.4247 17.6748 22.5095 19.5118 19.2422 20.3557L19.4423 21.1303ZM17.8732 21.4518C18.3282 21.3845 18.8526 21.2826 19.4423 21.1303L19.2422 20.3557C18.6801 20.5009 18.1835 20.5972 17.7562 20.6604L17.8732 21.4518ZM19.5125 21.1159C18.8985 20.9796 18.3765 20.8265 17.9449 20.6779L17.6844 21.4343C18.1439 21.5925 18.695 21.7539 19.3391 21.8969L19.5125 21.1159ZM20.1865 21.952C20.1841 21.5449 19.9003 21.2019 19.5124 21.1159L19.3392 21.8969C19.3664 21.903 19.3864 21.9268 19.3865 21.9566L20.1865 21.952ZM19.7333 22.714C19.9938 22.5674 20.1885 22.285 20.1865 21.9519L19.3865 21.9567C19.3866 21.9616 19.3853 21.9703 19.3779 21.9822C19.3702 21.9947 19.3575 22.0075 19.341 22.0168L19.7333 22.714ZM11.0474 26.1416C13.4638 25.4275 16.51 24.5283 19.7333 22.714L19.3409 22.0168C16.2047 23.7822 13.2375 24.6602 10.8207 25.3744L11.0474 26.1416ZM5.77725 28.4395C6.28441 27.9326 6.98502 27.5356 7.88096 27.1743C8.77753 26.8127 9.8364 26.4994 11.0474 26.1416L10.8207 25.3744C9.62035 25.7291 8.52125 26.0535 7.58177 26.4323C6.64167 26.8114 5.82814 27.2575 5.21167 27.8737L5.77725 28.4395ZM2.06884 32.148L5.7773 28.4395L5.21161 27.8738L1.50315 31.5823L2.06884 32.148ZM1.46043 32.4C1.67996 32.4 1.90087 32.316 2.06884 32.148L1.50315 31.5823C1.49129 31.5942 1.47655 31.6 1.46043 31.6V32.4ZM0.852028 32.148C1.01991 32.3159 1.24086 32.4 1.46043 32.4V31.6C1.44436 31.6 1.42954 31.5941 1.41771 31.5823L0.852028 32.148ZM0.852025 30.9313C0.516045 31.2672 0.515906 31.8121 0.852121 32.1481L1.41762 31.5822C1.39418 31.5588 1.39404 31.5206 1.41771 31.4969L0.852025 30.9313ZM4.56001 27.2236L0.852038 30.9312L1.4177 31.497L5.12568 27.7893L4.56001 27.2236ZM4.55926 27.2243L4.55908 27.2245L5.12661 27.7883L5.12679 27.7882L4.55926 27.2243ZM6.85854 21.9531C6.50064 23.1641 6.18731 24.2231 5.82571 25.1197C5.46437 26.0157 5.0673 26.7163 4.56018 27.2234L5.12587 27.7891C5.74232 27.1726 6.18849 26.3591 6.56765 25.4189C6.94656 24.4794 7.271 23.3802 7.62574 22.1798L6.85854 21.9531ZM6.85675 21.9593L6.85673 21.9594L7.62755 22.1735L7.62756 22.1734L6.85675 21.9593ZM12.6518 9.70559C9.12773 14.2692 7.83464 18.6499 6.85855 21.953L7.62575 22.1797C8.59917 18.8857 9.859 14.6311 13.2849 10.1945L12.6518 9.70559ZM12.7157 9.62493C12.6849 9.6588 12.6578 9.69425 12.6341 9.7303L13.3026 10.1698C13.3051 10.1659 13.3069 10.1638 13.3076 10.1631L12.7157 9.62493ZM14.9912 7.01128C14.1351 7.89265 13.3746 8.77372 12.6956 9.6488L13.3277 10.1392C13.9886 9.28735 14.7297 8.42866 15.565 7.56869L14.9912 7.01128ZM16.0888 6.89663C15.735 6.66033 15.2756 6.71837 14.9911 7.01133L15.5651 7.56864C15.5849 7.54822 15.6168 7.5434 15.6445 7.56188L16.0888 6.89663ZM16.4681 7.57378C16.4526 7.31973 16.3293 7.05716 16.0887 6.89656L15.6446 7.56195C15.6471 7.56365 15.6523 7.568 15.6578 7.57829C15.6636 7.58905 15.6685 7.60431 15.6696 7.62244L16.4681 7.57378ZM16.5612 8.53654C16.5218 8.23524 16.4886 7.91064 16.4681 7.57382L15.6696 7.6224C15.6914 7.98018 15.7266 8.3233 15.768 8.64018L16.5612 8.53654ZM15.8832 8.21C15.8515 8.28873 15.8206 8.36759 15.7906 8.44635L16.5385 8.73038C16.5664 8.65704 16.5954 8.58308 16.6253 8.50862L15.8832 8.21ZM21.6923 1.80098C19.0895 3.12584 17.0125 5.40235 15.8831 8.21004L16.6254 8.50858C17.6842 5.8761 19.6288 3.749 22.0552 2.51393L21.6923 1.80098ZM21.7603 1.76675C21.7313 1.77962 21.7006 1.79501 21.6691 1.81376L22.0783 2.50114C22.0786 2.50101 22.0804 2.49993 22.0847 2.49802L21.7603 1.76675ZM22.9673 1.24367C22.5476 1.39767 22.1391 1.57563 21.7427 1.77507L22.1023 2.4897C22.4722 2.30358 22.8527 2.13787 23.2428 1.99471L22.9673 1.24367ZM27.832 0.71627C26.2609 0.454567 24.6225 0.636398 22.9673 1.24366L23.2428 1.99471C24.7843 1.42918 26.2823 1.26916 27.7005 1.5054L27.832 0.71627ZM26.856 6.14358C26.5199 5.80755 25.9752 5.80755 25.6392 6.14347L26.2048 6.70925C26.2284 6.68564 26.2666 6.68564 26.2903 6.70926L26.856 6.14358ZM26.856 7.36033C27.192 7.02435 27.192 6.47951 26.8559 6.14353L26.2903 6.70931C26.3139 6.73286 26.3139 6.7711 26.2903 6.79464L26.856 7.36033ZM12.683 21.5332L26.856 7.36033L26.2903 6.79464L12.1174 20.9676L12.683 21.5332ZM12.0746 21.7852C12.2942 21.7852 12.5151 21.7012 12.683 21.5332L12.1174 20.9676C12.1055 20.9794 12.0908 20.9852 12.0746 20.9852V21.7852ZM11.4662 21.5332C11.6341 21.7011 11.8551 21.7852 12.0746 21.7852V20.9852C12.0586 20.9852 12.0437 20.9794 12.0319 20.9676L11.4662 21.5332ZM11.4662 20.3165C11.1302 20.6525 11.1301 21.1973 11.4663 21.5333L12.0318 20.9675C12.0084 20.944 12.0082 20.9058 12.0319 20.8822L11.4662 20.3165ZM25.6391 6.14352L11.4662 20.3165L12.0319 20.8822L26.2048 6.7092L25.6391 6.14352Z" fill="#1F8CC9" mask="url(#path-1-outside-1)"/>
</svg>
