<svg width="20" height="20" viewBox="0 0 20 20" fill="none" xmlns="http://www.w3.org/2000/svg">
<mask id="path-1-outside-1" maskUnits="userSpaceOnUse" x="0" y="0" width="20" height="20" fill="black">
<rect fill="white" width="20" height="20"/>
<path fill-rule="evenodd" clip-rule="evenodd" d="M16.5417 1.06435C17.7691 1.2689 18.7312 2.23099 18.9357 3.45841C19.1445 4.71156 18.8455 6.04164 18.0466 7.41186C17.9788 7.52823 17.8361 7.5824 17.7115 7.531C17.558 7.46762 17.5005 7.28674 17.5813 7.14843C18.318 5.88681 18.5962 4.67489 18.4081 3.54633C18.2411 2.54427 17.4556 1.7588 16.4536 1.59181C15.6782 1.46261 14.8591 1.55335 14.0191 1.86153L14.0129 1.86381C13.6064 2.01351 13.2509 2.27543 12.9793 2.613C12.4895 3.22187 11.7855 4.29446 11.7855 5.4296C11.7855 5.58798 11.6477 5.71426 11.4854 5.69496C11.3501 5.67889 11.2505 5.55792 11.2509 5.42162C11.2527 4.69708 11.5026 3.90563 11.9756 3.115C11.2793 3.7566 10.7203 4.56003 10.3532 5.47273C10.1942 5.86793 10.081 6.24723 10.0169 6.60013C9.99459 6.72265 9.8906 6.81357 9.76618 6.81933C9.64176 6.82482 9.52983 6.74413 9.49636 6.62414C9.48925 6.59862 9.35664 6.1181 9.27164 5.45206L9.26243 5.46215C8.67264 6.11023 8.22334 6.87287 7.9302 7.69867C7.60673 8.60978 7.24107 9.83597 7.24107 10.7225C7.24107 10.881 7.10315 11.0072 6.9408 10.9878C6.804 10.9715 6.70602 10.8483 6.70644 10.7105C6.70845 10.0982 6.86032 9.29846 7.15764 8.32927C6.94027 8.70488 6.73689 9.08981 6.54771 9.48585C5.86908 10.9066 5.48031 12.222 5.13728 13.3827L5.13702 13.3836C4.96303 13.9724 4.80363 14.5116 4.62715 14.9948L6.37826 13.2437C6.48176 13.1402 6.65181 13.1297 6.75837 13.23C6.86866 13.3338 6.87059 13.5075 6.76428 13.6138L5.00522 15.3728C5.48841 15.1963 6.02768 15.0369 6.61651 14.8629C7.84242 14.5006 9.33467 14.0596 10.9126 13.2552C9.97779 12.9757 9.51991 12.6701 9.49699 12.6545C9.39426 12.5848 9.35299 12.4535 9.39743 12.3376C9.44186 12.2217 9.56013 12.1516 9.68325 12.1684C9.6887 12.1691 10.3461 12.2483 11.5166 11.946C12.863 11.5982 14.1028 10.9497 15.1667 10.045C13.5227 10.7311 12.2655 10.9236 12.199 10.9334C12.1858 10.9354 12.1726 10.9363 12.1596 10.9363C12.0292 10.9363 11.9151 10.8409 11.8954 10.7081C11.8738 10.5621 11.9746 10.4262 12.1206 10.4045C12.1386 10.4019 13.7598 10.1521 15.6908 9.22319C16.0832 9.0344 16.4281 8.75916 16.7002 8.41916C16.8251 8.26307 16.945 8.10571 17.0564 7.95148C17.1444 7.82969 17.3158 7.80396 17.4359 7.89593C17.5525 7.9853 17.5689 8.15545 17.4826 8.27449C17.3681 8.43256 17.2454 8.59354 17.1178 8.75311C16.9687 8.93955 16.816 9.1243 16.6642 9.30233C15.3286 10.8682 13.5949 11.9614 11.6504 12.4637C11.316 12.5501 11.0195 12.6076 10.7634 12.6455C11.022 12.7346 11.3336 12.8259 11.6989 12.907C11.8194 12.9337 11.9076 13.0402 11.9083 13.167C11.9089 13.2664 11.8501 13.357 11.7635 13.4057C9.91718 14.445 8.17134 14.9609 6.76814 15.3756C5.36804 15.7893 4.26212 16.1162 3.60968 16.7684L1.45638 18.9217C1.40418 18.9739 1.33576 19 1.26735 19C1.19893 19 1.13048 18.9739 1.07831 18.9217C0.973896 18.8174 0.973896 18.6481 1.07831 18.5437L3.23133 16.3908L3.23144 16.3907C3.88383 15.7383 4.21068 14.6323 4.62447 13.2321L4.62448 13.2321C5.19046 11.3168 5.93163 8.80975 7.94937 6.19682C7.957 6.18521 7.96536 6.17432 7.9745 6.16426C8.36351 5.66289 8.79945 5.1578 9.29051 4.65225C9.37886 4.56127 9.52149 4.54302 9.63224 4.61699C9.70339 4.66448 9.74446 4.74577 9.74966 4.83116C9.76193 5.03282 9.78179 5.22667 9.80524 5.40615C9.82201 5.36199 9.83941 5.31762 9.85731 5.27315C10.4926 3.69374 11.6601 2.41528 13.1202 1.67207C13.1294 1.66659 13.1389 1.6618 13.1486 1.65751C13.371 1.54558 13.6001 1.4458 13.8352 1.35953C14.7633 1.01904 15.6738 0.919791 16.5417 1.06435ZM15.4709 4.15084C15.5753 4.04646 15.7446 4.04646 15.849 4.15088C15.9534 4.25526 15.9534 4.42453 15.849 4.52891L7.61955 12.7583C7.56735 12.8106 7.49893 12.8366 7.43052 12.8366C7.3621 12.8366 7.29365 12.8105 7.24148 12.7583C7.13706 12.654 7.13706 12.4847 7.24148 12.3803L15.4709 4.15084Z"/>
</mask>
<path fill-rule="evenodd" clip-rule="evenodd" d="M16.5417 1.06435C17.7691 1.2689 18.7312 2.23099 18.9357 3.45841C19.1445 4.71156 18.8455 6.04164 18.0466 7.41186C17.9788 7.52823 17.8361 7.5824 17.7115 7.531C17.558 7.46762 17.5005 7.28674 17.5813 7.14843C18.318 5.88681 18.5962 4.67489 18.4081 3.54633C18.2411 2.54427 17.4556 1.7588 16.4536 1.59181C15.6782 1.46261 14.8591 1.55335 14.0191 1.86153L14.0129 1.86381C13.6064 2.01351 13.2509 2.27543 12.9793 2.613C12.4895 3.22187 11.7855 4.29446 11.7855 5.4296C11.7855 5.58798 11.6477 5.71426 11.4854 5.69496C11.3501 5.67889 11.2505 5.55792 11.2509 5.42162C11.2527 4.69708 11.5026 3.90563 11.9756 3.115C11.2793 3.7566 10.7203 4.56003 10.3532 5.47273C10.1942 5.86793 10.081 6.24723 10.0169 6.60013C9.99459 6.72265 9.8906 6.81357 9.76618 6.81933C9.64176 6.82482 9.52983 6.74413 9.49636 6.62414C9.48925 6.59862 9.35664 6.1181 9.27164 5.45206L9.26243 5.46215C8.67264 6.11023 8.22334 6.87287 7.9302 7.69867C7.60673 8.60978 7.24107 9.83597 7.24107 10.7225C7.24107 10.881 7.10315 11.0072 6.9408 10.9878C6.804 10.9715 6.70602 10.8483 6.70644 10.7105C6.70845 10.0982 6.86032 9.29846 7.15764 8.32927C6.94027 8.70488 6.73689 9.08981 6.54771 9.48585C5.86908 10.9066 5.48031 12.222 5.13728 13.3827L5.13702 13.3836C4.96303 13.9724 4.80363 14.5116 4.62715 14.9948L6.37826 13.2437C6.48176 13.1402 6.65181 13.1297 6.75837 13.23C6.86866 13.3338 6.87059 13.5075 6.76428 13.6138L5.00522 15.3728C5.48841 15.1963 6.02768 15.0369 6.61651 14.8629C7.84242 14.5006 9.33467 14.0596 10.9126 13.2552C9.97779 12.9757 9.51991 12.6701 9.49699 12.6545C9.39426 12.5848 9.35299 12.4535 9.39743 12.3376C9.44186 12.2217 9.56013 12.1516 9.68325 12.1684C9.6887 12.1691 10.3461 12.2483 11.5166 11.946C12.863 11.5982 14.1028 10.9497 15.1667 10.045C13.5227 10.7311 12.2655 10.9236 12.199 10.9334C12.1858 10.9354 12.1726 10.9363 12.1596 10.9363C12.0292 10.9363 11.9151 10.8409 11.8954 10.7081C11.8738 10.5621 11.9746 10.4262 12.1206 10.4045C12.1386 10.4019 13.7598 10.1521 15.6908 9.22319C16.0832 9.0344 16.4281 8.75916 16.7002 8.41916C16.8251 8.26307 16.945 8.10571 17.0564 7.95148C17.1444 7.82969 17.3158 7.80396 17.4359 7.89593C17.5525 7.9853 17.5689 8.15545 17.4826 8.27449C17.3681 8.43256 17.2454 8.59354 17.1178 8.75311C16.9687 8.93955 16.816 9.1243 16.6642 9.30233C15.3286 10.8682 13.5949 11.9614 11.6504 12.4637C11.316 12.5501 11.0195 12.6076 10.7634 12.6455C11.022 12.7346 11.3336 12.8259 11.6989 12.907C11.8194 12.9337 11.9076 13.0402 11.9083 13.167C11.9089 13.2664 11.8501 13.357 11.7635 13.4057C9.91718 14.445 8.17134 14.9609 6.76814 15.3756C5.36804 15.7893 4.26212 16.1162 3.60968 16.7684L1.45638 18.9217C1.40418 18.9739 1.33576 19 1.26735 19C1.19893 19 1.13048 18.9739 1.07831 18.9217C0.973896 18.8174 0.973896 18.6481 1.07831 18.5437L3.23133 16.3908L3.23144 16.3907C3.88383 15.7383 4.21068 14.6323 4.62447 13.2321L4.62448 13.2321C5.19046 11.3168 5.93163 8.80975 7.94937 6.19682C7.957 6.18521 7.96536 6.17432 7.9745 6.16426C8.36351 5.66289 8.79945 5.1578 9.29051 4.65225C9.37886 4.56127 9.52149 4.54302 9.63224 4.61699C9.70339 4.66448 9.74446 4.74577 9.74966 4.83116C9.76193 5.03282 9.78179 5.22667 9.80524 5.40615C9.82201 5.36199 9.83941 5.31762 9.85731 5.27315C10.4926 3.69374 11.6601 2.41528 13.1202 1.67207C13.1294 1.66659 13.1389 1.6618 13.1486 1.65751C13.371 1.54558 13.6001 1.4458 13.8352 1.35953C14.7633 1.01904 15.6738 0.919791 16.5417 1.06435ZM15.4709 4.15084C15.5753 4.04646 15.7446 4.04646 15.849 4.15088C15.9534 4.25526 15.9534 4.42453 15.849 4.52891L7.61955 12.7583C7.56735 12.8106 7.49893 12.8366 7.43052 12.8366C7.3621 12.8366 7.29365 12.8105 7.24148 12.7583C7.13706 12.654 7.13706 12.4847 7.24148 12.3803L15.4709 4.15084Z" fill="#15CC5E"/>
<path d="M18.9357 3.45841L19.133 3.42554L19.133 3.42553L18.9357 3.45841ZM16.5417 1.06435L16.5746 0.867075L16.5745 0.867073L16.5417 1.06435ZM18.0466 7.41186L17.8738 7.31113L17.8738 7.31116L18.0466 7.41186ZM17.7115 7.531L17.6352 7.71587L17.6352 7.71588L17.7115 7.531ZM17.5813 7.14843L17.4086 7.04758L17.4086 7.04759L17.5813 7.14843ZM18.4081 3.54633L18.6054 3.51346L18.6054 3.51346L18.4081 3.54633ZM16.4536 1.59181L16.4865 1.39453L16.4865 1.39453L16.4536 1.59181ZM14.0191 1.86153L13.9502 1.67377L13.9498 1.67391L14.0191 1.86153ZM14.0129 1.86381L14.0821 2.05149L14.0822 2.05143L14.0129 1.86381ZM12.9793 2.613L12.8234 2.48763L12.8234 2.48764L12.9793 2.613ZM11.4854 5.69496L11.5091 5.49636L11.509 5.49635L11.4854 5.69496ZM11.2509 5.42162L11.4509 5.42213L11.4509 5.42212L11.2509 5.42162ZM11.9756 3.115L12.1473 3.21769L11.8401 2.96791L11.9756 3.115ZM10.3532 5.47273L10.5387 5.54737L10.5387 5.54737L10.3532 5.47273ZM10.0169 6.60013L10.2137 6.63593L10.2137 6.63591L10.0169 6.60013ZM9.76618 6.81933L9.77499 7.01914L9.77544 7.01912L9.76618 6.81933ZM9.49636 6.62414L9.30367 6.67775L9.30371 6.67788L9.49636 6.62414ZM9.27164 5.45206L9.47003 5.42674L9.41531 4.99802L9.12393 5.31722L9.27164 5.45206ZM9.26243 5.46215L9.11471 5.32731L9.11451 5.32754L9.26243 5.46215ZM7.9302 7.69867L8.11868 7.76558L8.11868 7.76557L7.9302 7.69867ZM6.9408 10.9878L6.96453 10.7892L6.96448 10.7892L6.9408 10.9878ZM6.70644 10.7105L6.50644 10.7098L6.50644 10.7098L6.70644 10.7105ZM7.15764 8.32927L7.34885 8.38792L6.98454 8.22909L7.15764 8.32927ZM6.54771 9.48585L6.36724 9.39964L6.36724 9.39965L6.54771 9.48585ZM5.13728 13.3827L4.94549 13.326L4.94547 13.3261L5.13728 13.3827ZM5.13702 13.3836L5.32882 13.4403L5.32884 13.4402L5.13702 13.3836ZM4.62715 14.9948L4.43929 14.9262L4.76857 15.1362L4.62715 14.9948ZM6.37826 13.2437L6.51968 13.3851L6.51968 13.3851L6.37826 13.2437ZM6.75837 13.23L6.62126 13.3756L6.62128 13.3756L6.75837 13.23ZM6.76428 13.6138L6.9057 13.7552L6.9057 13.7552L6.76428 13.6138ZM5.00522 15.3728L4.8638 15.2314L5.07384 15.5607L5.00522 15.3728ZM6.61651 14.8629L6.55983 14.6711L6.55983 14.6711L6.61651 14.8629ZM10.9126 13.2552L11.0034 13.4334L11.4482 13.2066L10.9699 13.0636L10.9126 13.2552ZM9.49699 12.6545L9.60938 12.4891L9.60926 12.489L9.49699 12.6545ZM9.39743 12.3376L9.58417 12.4092L9.58418 12.4092L9.39743 12.3376ZM9.68325 12.1684L9.65625 12.3666L9.65766 12.3667L9.68325 12.1684ZM11.5166 11.946L11.4666 11.7523L11.4666 11.7523L11.5166 11.946ZM15.1667 10.045L15.2963 10.1974L15.0897 9.86047L15.1667 10.045ZM12.199 10.9334L12.1697 10.7356L12.1695 10.7356L12.199 10.9334ZM11.8954 10.7081L11.6976 10.7373L11.6976 10.7373L11.8954 10.7081ZM12.1206 10.4045L12.0916 10.2066L12.0913 10.2067L12.1206 10.4045ZM15.6908 9.22319L15.7775 9.40342L15.7775 9.40342L15.6908 9.22319ZM16.7002 8.41916L16.8564 8.54413L16.8564 8.54412L16.7002 8.41916ZM17.0564 7.95148L16.8943 7.83431L16.8943 7.83436L17.0564 7.95148ZM17.4359 7.89593L17.3142 8.0547L17.3142 8.05471L17.4359 7.89593ZM17.4826 8.27449L17.6446 8.39185L17.6446 8.39183L17.4826 8.27449ZM17.1178 8.75311L16.9616 8.62818L16.9616 8.62818L17.1178 8.75311ZM16.6642 9.30233L16.8164 9.43211L16.8164 9.43211L16.6642 9.30233ZM11.6504 12.4637L11.6003 12.27L11.6003 12.27L11.6504 12.4637ZM10.7634 12.6455L10.7341 12.4476L10.6982 12.8346L10.7634 12.6455ZM11.6989 12.907L11.6555 13.1022L11.6556 13.1022L11.6989 12.907ZM11.9083 13.167L11.7083 13.1682L11.7083 13.1682L11.9083 13.167ZM11.7635 13.4057L11.6654 13.2314L11.6654 13.2314L11.7635 13.4057ZM6.76814 15.3756L6.82482 15.5674L6.82482 15.5674L6.76814 15.3756ZM3.60968 16.7684L3.46829 16.6269L3.46826 16.627L3.60968 16.7684ZM1.45638 18.9217L1.59781 19.0631L1.59781 19.0631L1.45638 18.9217ZM1.07831 18.9217L1.21973 18.7803L1.21968 18.7802L1.07831 18.9217ZM1.07831 18.5437L0.936895 18.4022L0.93689 18.4022L1.07831 18.5437ZM3.23133 16.3908L3.37275 16.5323L3.37291 16.5321L3.23133 16.3908ZM3.23144 16.3907L3.09001 16.2493L3.08985 16.2495L3.23144 16.3907ZM4.62447 13.2321L4.4329 13.1746L4.43267 13.1754L4.62447 13.2321ZM4.62448 13.2321L4.81604 13.2896L4.81628 13.2888L4.62448 13.2321ZM7.94937 6.19682L8.10766 6.31905L8.1123 6.31305L8.11647 6.3067L7.94937 6.19682ZM7.9745 6.16426L8.12249 6.29879L8.12774 6.29302L8.13252 6.28686L7.9745 6.16426ZM9.29051 4.65225L9.43398 4.7916L9.434 4.79158L9.29051 4.65225ZM9.63224 4.61699L9.52115 4.7833L9.5212 4.78334L9.63224 4.61699ZM9.74966 4.83116L9.94929 4.81902L9.94929 4.819L9.74966 4.83116ZM9.80524 5.40615L9.60693 5.43206L9.99221 5.47715L9.80524 5.40615ZM9.85731 5.27315L10.0429 5.34781L10.0429 5.34778L9.85731 5.27315ZM13.1202 1.67207L13.2111 1.8507L13.2225 1.84392L13.1202 1.67207ZM13.1486 1.65751L13.2298 1.84055L13.2384 1.83617L13.1486 1.65751ZM13.8352 1.35953L13.7663 1.17177L13.7663 1.17177L13.8352 1.35953ZM15.849 4.15088L15.7076 4.2923L15.7076 4.29232L15.849 4.15088ZM15.4709 4.15084L15.3295 4.0094L15.3295 4.00942L15.4709 4.15084ZM15.849 4.52891L15.9904 4.67033L15.9904 4.67033L15.849 4.52891ZM7.61955 12.7583L7.76097 12.8998L7.76097 12.8998L7.61955 12.7583ZM7.24148 12.7583L7.3829 12.6169L7.38285 12.6169L7.24148 12.7583ZM7.24148 12.3803L7.10006 12.2389L7.10006 12.2389L7.24148 12.3803ZM19.133 3.42553C18.9144 2.11382 17.8863 1.08566 16.5746 0.867075L16.5088 1.26163C17.6519 1.45213 18.5479 2.34816 18.7384 3.49128L19.133 3.42553ZM18.2194 7.51259C19.0357 6.11235 19.3512 4.73524 19.133 3.42554L18.7384 3.49128C18.9378 4.68788 18.6552 5.97092 17.8738 7.31113L18.2194 7.51259ZM17.6352 7.71588C17.8593 7.80837 18.1052 7.70843 18.2194 7.51256L17.8738 7.31116C17.8523 7.34803 17.8128 7.35644 17.7879 7.34613L17.6352 7.71588ZM17.4086 7.04759C17.2674 7.2893 17.3681 7.6056 17.6352 7.71587L17.7879 7.34613C17.7479 7.32963 17.7336 7.28417 17.754 7.24928L17.4086 7.04759ZM18.2108 3.57921C18.3893 4.65015 18.1284 5.81489 17.4086 7.04758L17.754 7.24928C18.5076 5.95872 18.803 4.69963 18.6054 3.51346L18.2108 3.57921ZM16.4207 1.78909C17.3385 1.94203 18.0579 2.66144 18.2108 3.57921L18.6054 3.51346C18.4243 2.42709 17.5728 1.57557 16.4865 1.39453L16.4207 1.78909ZM14.088 2.04929C14.9001 1.75137 15.684 1.66633 16.4207 1.78909L16.4865 1.39453C15.6724 1.25888 14.8182 1.35533 13.9502 1.67377L14.088 2.04929ZM14.0822 2.05143L14.0884 2.04914L13.9498 1.67391L13.9437 1.6762L14.0822 2.05143ZM13.1351 2.73837C13.385 2.42771 13.7111 2.18809 14.0821 2.05149L13.9438 1.67613C13.5017 1.83893 13.1167 2.12314 12.8234 2.48763L13.1351 2.73837ZM11.9855 5.4296C11.9855 4.36725 12.6502 3.34118 13.1351 2.73836L12.8234 2.48764C12.3288 3.10257 11.5855 4.22168 11.5855 5.4296H11.9855ZM11.4618 5.89356C11.7445 5.92717 11.9855 5.7064 11.9855 5.4296H11.5855C11.5855 5.46955 11.551 5.50134 11.5091 5.49636L11.4618 5.89356ZM11.0509 5.4211C11.0503 5.65098 11.218 5.86461 11.4619 5.89356L11.509 5.49635C11.4822 5.49317 11.4508 5.46486 11.4509 5.42213L11.0509 5.4211ZM11.804 3.01231C11.3176 3.82528 11.0528 4.65177 11.0509 5.42111L11.4509 5.42212C11.4526 4.74238 11.6876 3.98598 12.1473 3.21769L11.804 3.01231ZM10.5387 5.54737C10.8948 4.66216 11.4367 3.8835 12.1111 3.26208L11.8401 2.96791C11.1218 3.62971 10.5458 4.45791 10.1676 5.3981L10.5387 5.54737ZM10.2137 6.63591C10.275 6.29851 10.3839 5.93229 10.5387 5.54737L10.1676 5.39809C10.0045 5.80357 9.88709 6.19595 9.82011 6.56436L10.2137 6.63591ZM9.77544 7.01912C9.99289 7.00904 10.1747 6.85016 10.2137 6.63593L9.82011 6.56433C9.81451 6.59514 9.78832 6.61809 9.75693 6.61955L9.77544 7.01912ZM9.30371 6.67788C9.36233 6.88802 9.55817 7.0287 9.77499 7.01914L9.75738 6.61953C9.72536 6.62094 9.69733 6.60025 9.689 6.57041L9.30371 6.67788ZM9.07325 5.47738C9.1599 6.15629 9.29507 6.64684 9.30367 6.67775L9.68904 6.57053C9.68344 6.5504 9.55339 6.07992 9.47003 5.42674L9.07325 5.47738ZM9.41014 5.59699L9.41935 5.5869L9.12393 5.31722L9.11471 5.32731L9.41014 5.59699ZM8.11868 7.76557C8.40327 6.96386 8.83912 6.22445 9.41034 5.59676L9.11451 5.32754C8.50616 5.99601 8.04341 6.78189 7.74173 7.63176L8.11868 7.76557ZM7.44107 10.7225C7.44107 9.87427 7.79487 8.67764 8.11868 7.76558L7.74173 7.63175C7.41859 8.54192 7.04107 9.79767 7.04107 10.7225H7.44107ZM6.91706 11.1864C7.19981 11.2202 7.44107 10.9994 7.44107 10.7225H7.04107C7.04107 10.7625 7.00649 10.7943 6.96453 10.7892L6.91706 11.1864ZM6.50644 10.7098C6.50575 10.9375 6.66835 11.1568 6.91711 11.1864L6.96448 10.7892C6.93966 10.7863 6.9063 10.759 6.90644 10.7111L6.50644 10.7098ZM6.96644 8.27061C6.66663 9.24791 6.50854 10.0691 6.50644 10.7098L6.90644 10.7111C6.90835 10.1272 7.05401 9.34901 7.34885 8.38792L6.96644 8.27061ZM6.72818 9.57205C6.91505 9.18085 7.11596 8.80058 7.33074 8.42945L6.98454 8.22909C6.76458 8.60918 6.55873 8.99876 6.36724 9.39964L6.72818 9.57205ZM5.32908 13.4394C5.67226 12.2782 6.05719 10.9768 6.72818 9.57205L6.36724 9.39965C5.68098 10.8364 5.28836 12.1659 4.94549 13.326L5.32908 13.4394ZM5.32884 13.4402L5.3291 13.4393L4.94547 13.3261L4.9452 13.327L5.32884 13.4402ZM4.81501 15.0634C4.99407 14.5732 5.15528 14.0276 5.32882 13.4403L4.94522 13.3269C4.77078 13.9173 4.6132 14.4501 4.43929 14.9262L4.81501 15.0634ZM6.23684 13.1023L4.48573 14.8534L4.76857 15.1362L6.51968 13.3851L6.23684 13.1023ZM6.89547 13.0844C6.7025 12.9027 6.40908 12.93 6.23684 13.1023L6.51968 13.3851C6.5351 13.3697 6.55575 13.3611 6.57595 13.3602C6.59543 13.3594 6.61058 13.3656 6.62126 13.3756L6.89547 13.0844ZM6.9057 13.7552C7.09151 13.5694 7.08818 13.2658 6.89546 13.0844L6.62128 13.3756C6.64913 13.4019 6.64967 13.4455 6.62285 13.4724L6.9057 13.7552ZM5.14664 15.5143L6.9057 13.7552L6.62285 13.4724L4.8638 15.2314L5.14664 15.5143ZM6.55983 14.6711C5.97251 14.8447 5.42684 15.0059 4.9366 15.185L5.07384 15.5607C5.54998 15.3868 6.08284 15.2292 6.6732 15.0547L6.55983 14.6711ZM10.8217 13.077C9.26215 13.8721 7.78617 14.3087 6.55983 14.6711L6.67319 15.0547C7.89867 14.6925 9.4072 14.2471 11.0034 13.4334L10.8217 13.077ZM9.3846 12.8199C9.42285 12.8459 9.89914 13.161 10.8553 13.4468L10.9699 13.0636C10.0564 12.7905 9.61697 12.4942 9.60938 12.4891L9.3846 12.8199ZM9.21068 12.266C9.13297 12.4687 9.20516 12.6982 9.38472 12.82L9.60926 12.489C9.58337 12.4714 9.57301 12.4383 9.58417 12.4092L9.21068 12.266ZM9.71024 11.9702C9.49514 11.9409 9.28834 12.0634 9.21067 12.2661L9.58418 12.4092C9.59539 12.38 9.62512 12.3623 9.65625 12.3666L9.71024 11.9702ZM11.4666 11.7523C10.322 12.048 9.69033 11.9676 9.70883 11.97L9.65766 12.3667C9.68707 12.3705 10.3701 12.4487 11.5666 12.1396L11.4666 11.7523ZM15.0372 9.89268C13.9959 10.778 12.7832 11.4123 11.4666 11.7523L11.5666 12.1396C12.9429 11.7842 14.2097 11.1213 15.2963 10.1974L15.0372 9.89268ZM12.2283 11.1313C12.3052 11.1199 13.5797 10.924 15.2437 10.2296L15.0897 9.86047C13.4656 10.5382 12.2258 10.7273 12.1697 10.7356L12.2283 11.1313ZM12.1596 11.1363C12.1823 11.1363 12.2053 11.1347 12.2284 11.1312L12.1695 10.7356C12.1662 10.7361 12.1629 10.7363 12.1596 10.7363V11.1363ZM11.6976 10.7373C11.732 10.9697 11.9315 11.1363 12.1596 11.1363V10.7363C12.1269 10.7363 12.0982 10.7121 12.0933 10.6788L11.6976 10.7373ZM12.0913 10.2067C11.836 10.2445 11.6599 10.4821 11.6976 10.7373L12.0933 10.6788C12.0878 10.642 12.1132 10.6078 12.15 10.6024L12.0913 10.2067ZM15.6041 9.04296C14.6517 9.50112 13.7753 9.79192 13.1352 9.96839C12.8153 10.0566 12.5548 10.1161 12.3739 10.1536C12.2834 10.1724 12.2129 10.1856 12.1648 10.1942C12.1164 10.2029 12.0912 10.2067 12.0916 10.2066L12.1497 10.6024C12.1794 10.598 13.8221 10.344 15.7775 9.40342L15.6041 9.04296ZM16.5441 8.29419C16.2906 8.61096 15.9694 8.86724 15.6041 9.04296L15.7775 9.40342C16.1971 9.20156 16.5657 8.90736 16.8564 8.54413L16.5441 8.29419ZM16.8943 7.83436C16.7849 7.98579 16.667 8.14054 16.5441 8.2942L16.8564 8.54412C16.9832 8.3856 17.1051 8.22562 17.2185 8.06859L16.8943 7.83436ZM17.5575 7.73716C17.3477 7.57649 17.0481 7.62153 16.8943 7.83431L17.2185 8.06864C17.2407 8.03786 17.2839 8.03143 17.3142 8.0547L17.5575 7.73716ZM17.6446 8.39183C17.7877 8.19437 17.7691 7.89922 17.5575 7.73715L17.3142 8.05471C17.3259 8.06366 17.3344 8.07756 17.3367 8.09695C17.339 8.1171 17.3337 8.13914 17.3207 8.15716L17.6446 8.39183ZM17.274 8.87805C17.4035 8.71607 17.5281 8.55257 17.6446 8.39185L17.3207 8.15714C17.2081 8.31255 17.0873 8.47101 16.9616 8.62818L17.274 8.87805ZM16.8164 9.43211C16.9696 9.25247 17.1235 9.0661 17.274 8.87805L16.9616 8.62818C16.8138 8.813 16.6625 8.99612 16.512 9.17254L16.8164 9.43211ZM11.7004 12.6573C13.6858 12.1445 15.4548 11.0285 16.8164 9.43211L16.512 9.17254C15.2024 10.708 13.504 11.7783 11.6003 12.27L11.7004 12.6573ZM10.7926 12.8433C11.0557 12.8044 11.3591 12.7455 11.7004 12.6573L11.6003 12.27C11.2728 12.3546 10.9833 12.4108 10.7341 12.4476L10.7926 12.8433ZM11.7422 12.7117C11.3845 12.6323 11.0802 12.543 10.8285 12.4564L10.6982 12.8346C10.9639 12.9261 11.2827 13.0194 11.6555 13.1022L11.7422 12.7117ZM12.1083 13.1658C12.107 12.9447 11.9528 12.7584 11.7422 12.7117L11.6556 13.1022C11.6859 13.1089 11.7081 13.1356 11.7083 13.1682L12.1083 13.1658ZM11.8616 13.58C12.0039 13.4999 12.1094 13.3462 12.1083 13.1658L11.7083 13.1682C11.7084 13.1865 11.6963 13.214 11.6654 13.2314L11.8616 13.58ZM6.82482 15.5674C8.22794 15.1528 9.99351 14.6315 11.8616 13.58L11.6654 13.2314C9.84085 14.2584 8.11475 14.7691 6.71146 15.1838L6.82482 15.5674ZM3.75108 16.9098C4.04997 16.611 4.46133 16.3786 4.98333 16.1681C5.50565 15.9574 6.1221 15.7751 6.82482 15.5674L6.71147 15.1838C6.01408 15.3899 5.37751 15.5778 4.83374 15.7971C4.28965 16.0165 3.82183 16.2735 3.46829 16.6269L3.75108 16.9098ZM1.59781 19.0631L3.75111 16.9098L3.46826 16.627L1.31496 18.7803L1.59781 19.0631ZM1.26735 19.2C1.38661 19.2 1.50657 19.1544 1.59781 19.0631L1.31496 18.7803C1.30178 18.7935 1.28491 18.8 1.26735 18.8V19.2ZM0.93689 19.0631C1.02808 19.1543 1.14806 19.2 1.26735 19.2V18.8C1.24981 18.8 1.23289 18.7934 1.21973 18.7803L0.93689 19.0631ZM0.93689 18.4022C0.754396 18.5847 0.754328 18.8807 0.936938 19.0632L1.21968 18.7802C1.19347 18.754 1.1934 18.7114 1.21973 18.6851L0.93689 18.4022ZM3.08991 16.2494L0.936895 18.4022L1.21973 18.6851L3.37275 16.5323L3.08991 16.2494ZM3.08985 16.2495L3.08975 16.2496L3.37291 16.5321L3.37302 16.532L3.08985 16.2495ZM4.43267 13.1754C4.22498 13.8782 4.0426 14.4947 3.83194 15.017C3.62141 15.5391 3.38888 15.9504 3.09001 16.2493L3.37286 16.5321C3.72639 16.1786 3.98347 15.7108 4.20291 15.1666C4.42223 14.6228 4.61016 13.9862 4.81627 13.2888L4.43267 13.1754ZM4.43291 13.1746L4.4329 13.1746L4.81603 13.2896L4.81604 13.2896L4.43291 13.1746ZM7.79107 6.07458C5.74881 8.71927 4.99933 11.2579 4.43268 13.1754L4.81628 13.2888C5.38159 11.3757 6.11445 8.90024 8.10766 6.31905L7.79107 6.07458ZM7.82651 6.02973C7.80985 6.04806 7.79517 6.06729 7.78226 6.08693L8.11647 6.3067C8.11882 6.30314 8.12087 6.30058 8.12249 6.29879L7.82651 6.02973ZM9.14705 4.5129C8.65079 5.0238 8.21 5.53449 7.81649 6.04166L8.13252 6.28686C8.51702 5.7913 8.94811 5.2918 9.43398 4.7916L9.14705 4.5129ZM9.74332 4.45068C9.55106 4.32225 9.30154 4.3538 9.14703 4.51292L9.434 4.79158C9.45619 4.76873 9.49193 4.76379 9.52115 4.7833L9.74332 4.45068ZM9.94929 4.819C9.94083 4.68011 9.87345 4.53754 9.74327 4.45064L9.5212 4.78334C9.53333 4.79143 9.54809 4.81142 9.55003 4.84332L9.94929 4.819ZM10.0036 5.38023C9.98061 5.20466 9.96124 5.01544 9.94929 4.81902L9.55003 4.84331C9.56262 5.0502 9.58297 5.24869 9.60693 5.43206L10.0036 5.38023ZM9.67177 5.19849C9.65344 5.24403 9.63556 5.28963 9.61827 5.33514L9.99221 5.47715C10.0085 5.43435 10.0254 5.39121 10.0429 5.34781L9.67177 5.19849ZM13.0295 1.49383C11.5253 2.25949 10.3247 3.57531 9.67176 5.19851L10.0429 5.34778C10.6605 3.81218 11.795 2.57107 13.2109 1.85031L13.0295 1.49383ZM13.0675 1.4747C13.0516 1.48173 13.0349 1.49009 13.0179 1.50022L13.2225 1.84392C13.2239 1.84308 13.2262 1.84188 13.2297 1.84033L13.0675 1.4747ZM13.7663 1.17177C13.5238 1.26075 13.2877 1.36359 13.0587 1.47886L13.2384 1.83617C13.4543 1.72756 13.6763 1.63085 13.9041 1.54729L13.7663 1.17177ZM16.5745 0.867073C15.6685 0.716143 14.7228 0.820843 13.7663 1.17177L13.9041 1.54729C14.8037 1.21723 15.6792 1.12344 16.5088 1.26164L16.5745 0.867073ZM15.9904 4.00945C15.8079 3.82694 15.512 3.82694 15.3295 4.0094L15.6123 4.29229C15.6386 4.26598 15.6812 4.26598 15.7076 4.2923L15.9904 4.00945ZM15.9904 4.67033C16.1729 4.48785 16.1729 4.19192 15.9904 4.00943L15.7076 4.29232C15.7339 4.31859 15.7339 4.36122 15.7076 4.38749L15.9904 4.67033ZM7.76097 12.8998L15.9904 4.67033L15.7076 4.38749L7.47813 12.6169L7.76097 12.8998ZM7.43052 13.0366C7.54978 13.0366 7.66974 12.991 7.76097 12.8998L7.47813 12.6169C7.46495 12.6301 7.44808 12.6366 7.43052 12.6366V13.0366ZM7.10006 12.8998C7.19124 12.991 7.31123 13.0366 7.43052 13.0366V12.6366C7.41298 12.6366 7.39606 12.6301 7.3829 12.6169L7.10006 12.8998ZM7.10006 12.2389C6.91756 12.4214 6.9175 12.7173 7.10011 12.8998L7.38285 12.6169C7.35663 12.5907 7.35656 12.5481 7.3829 12.5217L7.10006 12.2389ZM15.3295 4.00942L7.10006 12.2389L7.3829 12.5217L15.6123 4.29226L15.3295 4.00942Z" fill="#15CC5E" mask="url(#path-1-outside-1)"/>
</svg>
