<svg width="19" height="21" viewBox="0 0 19 21" fill="none" xmlns="http://www.w3.org/2000/svg">
<path fill-rule="evenodd" clip-rule="evenodd" d="M12.7071 1.70711L11.4142 3H14C14.8281 3 15.6005 3.3627 16.1542 3.97169C16.7049 4.57752 17 5.38044 17 6.2V15.1707C18.1652 15.5825 19 16.6938 19 18C19 19.6569 17.6569 21 16 21C14.3431 21 13 19.6569 13 18C13 16.6938 13.8348 15.5825 15 15.1707V6.2C15 5.85261 14.8737 5.53637 14.6743 5.31704C14.4778 5.10087 14.2328 5 14 5H11.4142L12.7071 6.29289C13.0976 6.68342 13.0976 7.31658 12.7071 7.70711C12.3166 8.09763 11.6834 8.09763 11.2929 7.70711L8.29289 4.70711C8.19702 4.61123 8.12468 4.50073 8.07588 4.38278C8.02699 4.26488 8 4.13559 8 4C8 3.72718 8.10925 3.47987 8.2864 3.29945L8.29349 3.2923L11.2929 0.292893C11.6834 -0.0976311 12.3166 -0.0976311 12.7071 0.292893C13.0976 0.683417 13.0976 1.31658 12.7071 1.70711ZM3 3C2.44772 3 2 3.44772 2 4C2 4.55229 2.44772 5 3 5C3.55228 5 4 4.55229 4 4C4 3.44772 3.55228 3 3 3ZM4 6.82929C5.16519 6.41746 6 5.30622 6 4C6 2.34315 4.65685 1 3 1C1.34315 1 0 2.34315 0 4C0 5.30622 0.834808 6.41746 2 6.82929V14.8C2 15.6613 2.35583 16.4792 2.976 17.0761C3.59487 17.6718 4.42636 18 5.28571 18H8.00008L6.4 19.2001C5.95817 19.5314 5.86863 20.1582 6.2 20.6001C6.53137 21.0419 7.15817 21.1314 7.6 20.8001L11.5955 17.8035C11.602 17.7986 11.6086 17.7936 11.615 17.7886C11.6788 17.7388 11.7357 17.682 11.7849 17.6197C11.9196 17.4494 12 17.2341 12 17C12 16.6673 11.8375 16.3726 11.5876 16.1908L7.6 13.2001C7.15817 12.8687 6.53137 12.9582 6.2 13.4001C5.86863 13.8419 5.95817 14.4687 6.4 14.8001L7.99992 16H5.28571C4.93265 16 4.60138 15.8646 4.36294 15.6351C4.1258 15.4069 4 15.1057 4 14.8V6.82929ZM16 17C15.4477 17 15 17.4477 15 18C15 18.5523 15.4477 19 16 19C16.5523 19 17 18.5523 17 18C17 17.4477 16.5523 17 16 17Z" fill="#F64646"/>
</svg>
