<svg width="23" height="20" viewBox="0 0 23 20" fill="none" xmlns="http://www.w3.org/2000/svg">
<path d="M16.0644 13.4736L17.3422 12.2238C17.5419 12.0285 17.8893 12.1652 17.8893 12.4464V18.1253C17.8893 19.1603 17.0308 20 15.9726 20H1.91671C0.858526 20 0 19.1603 0 18.1253V4.37729C0 3.34228 0.858526 2.50256 1.91671 2.50256H12.838C13.1215 2.50256 13.2652 2.83845 13.0656 3.03764L11.7878 4.28746C11.7279 4.34604 11.648 4.37729 11.5601 4.37729H1.91671V18.1253H15.9726V13.6923C15.9726 13.6103 16.0045 13.5322 16.0644 13.4736ZM22.3177 5.59195L11.8317 15.8483L8.22188 16.2388C7.17568 16.3521 6.28521 15.4889 6.40101 14.4578L6.80032 10.9271L17.2863 0.6708C18.2007 -0.2236 19.6782 -0.2236 20.5886 0.6708L22.3137 2.35805C23.2281 3.25245 23.2281 4.70146 22.3177 5.59195ZM18.3724 6.79881L16.0524 4.52961L8.63317 11.7903L8.34167 14.3407L10.9492 14.0556L18.3724 6.79881ZM20.96 3.68598L19.235 1.99873C19.0712 1.8386 18.8037 1.8386 18.644 1.99873L17.4101 3.20559L19.7301 5.47478L20.964 4.26793C21.1237 4.10389 21.1237 3.84612 20.96 3.68598Z" fill="#F64646"/>
</svg>
