<svg width="19" height="12" viewBox="0 0 19 12" fill="none" xmlns="http://www.w3.org/2000/svg">
<path d="M9.5 4.27673C10.4087 4.27673 11.1501 5.0566 11.1501 6.01258C11.1501 6.96855 10.4087 7.72327 9.5 7.72327C8.59125 7.72327 7.87382 6.96855 7.87382 6.01258C7.87382 5.0566 8.59125 4.27673 9.5 4.27673ZM9.5 0C14.9047 0 18.8027 5.33333 18.8027 5.33333C19.0658 5.68553 19.0658 6.31447 18.8027 6.66667C18.8027 6.66667 14.9047 12 9.5 12C4.09534 12 0.197294 6.66667 0.197294 6.66667C-0.0657646 6.31447 -0.0657646 5.68553 0.197294 5.33333C0.197294 5.33333 4.09534 0 9.5 0ZM9.5 10.3145C11.748 10.3145 13.5894 8.37736 13.5894 6.01258C13.5894 3.6478 11.748 1.71069 9.5 1.71069C7.25205 1.71069 5.41064 3.6478 5.41064 6.01258C5.41064 8.37736 7.25205 10.3145 9.5 10.3145Z" fill="#757575"/>
</svg>
