<svg width="18" height="15" viewBox="0 0 18 15" fill="none" xmlns="http://www.w3.org/2000/svg">
<path d="M8.29184 2.67731L8.99836 3.38267L9.70489 2.67731C10.4753 1.90813 11.6911 1 12.9837 1C14.2362 1 15.2332 1.41344 15.9099 2.05776C16.5831 2.69867 17 3.6245 17 4.77578C17 6.01905 16.495 7.07436 15.6434 8.08669C14.7726 9.12191 13.601 10.0423 12.3436 11.025C12.3435 11.025 12.3435 11.025 12.3434 11.0251L12.3186 11.0445C11.208 11.912 9.97835 12.8725 8.99885 13.9493C8.02894 12.8816 6.8107 11.9286 5.70971 11.0673L5.65619 11.0254L5.65578 11.0251C4.39799 10.0421 3.22655 9.12145 2.356 8.08623C1.50473 7.07393 1 6.01878 1 4.77578C1 3.6245 1.41693 2.6987 2.09014 2.0578C2.76694 1.41349 3.76413 1 5.01709 1C6.30832 1 7.52062 1.90736 8.29184 2.67731Z" fill="#757575" stroke="#757575" stroke-width="2"/>
</svg>
