<svg id="Layer_1" data-name="Layer 1" xmlns="http://www.w3.org/2000/svg" viewBox="0 0 22.65 20.2"><defs><style>.cls-1{fill:#f64646;stroke:#f64646;stroke-miterlimit:10;stroke-width:2px;}</style></defs><title>active</title><path class="cls-1" d="M11.35,18.48a30.86,30.86,0,0,0-4.12-3.81l-.05-.05h0a26.74,26.74,0,0,1-4.07-3.8A6.92,6.92,0,0,1,1.38,6.38,5.15,5.15,0,0,1,2.8,2.67,5.17,5.17,0,0,1,6.52,1.26a6.31,6.31,0,0,1,4.14,2.21l.72.76.72-.76a6.33,6.33,0,0,1,4.15-2.21A5.17,5.17,0,0,1,20,2.67a5.14,5.14,0,0,1,1.41,3.71,7,7,0,0,1-1.72,4.44,27.72,27.72,0,0,1-4.07,3.8h0l0,0a31.88,31.88,0,0,0-4.22,3.84Z"/></svg>