<svg id="Layer_1" data-name="Layer 1" xmlns="http://www.w3.org/2000/svg" viewBox="0 0 22.65 20.2"><defs><style>.cls-1,.cls-2{fill:none;}.cls-1{stroke:#f64646;stroke-width:2px;}.cls-2{stroke:#fff;stroke-width:1.5px;}</style></defs><title>not active</title><path class="cls-1" d="M11.24,18.52a31.54,31.54,0,0,0-4.12-3.81l0-.05h0A26.74,26.74,0,0,1,3,10.86,6.92,6.92,0,0,1,1.27,6.42a5.08,5.08,0,0,1,1.42-3.7A5.12,5.12,0,0,1,6.4,1.3a6.31,6.31,0,0,1,4.15,2.21l.72.76L12,3.51A6.33,6.33,0,0,1,16.14,1.3a5.09,5.09,0,0,1,3.71,1.42,5.08,5.08,0,0,1,1.42,3.7,7,7,0,0,1-1.72,4.44,27.72,27.72,0,0,1-4.07,3.8h0l0,0a32.59,32.59,0,0,0-4.22,3.84Z"/><path class="cls-2" d="M11.27,16.76a24.23,24.23,0,0,0-3.43-2.88l0,0h0A22.21,22.21,0,0,1,4.43,10.7,5.77,5.77,0,0,1,3,7c0-1.91.38-2.51,1.11-3.23a4.33,4.33,0,0,1,3.13-1,5.2,5.2,0,0,1,3.43,1.83l.6.63.6-.63A5.2,5.2,0,0,1,15.3,2.79a4.58,4.58,0,0,1,3.26.93c.73.72,1,1.22,1,3.3a5.76,5.76,0,0,1-1.42,3.68,22.79,22.79,0,0,1-3.37,3.14h0l0,0a24.51,24.51,0,0,0-3.46,2.9Z"/></svg>