<svg width="21" height="22" viewBox="0 0 21 22" fill="none" xmlns="http://www.w3.org/2000/svg">
<path d="M16.3497 13.7152L16.3489 13.7152C15.7806 13.718 15.22 13.8454 14.7085 14.0883C14.2369 14.3122 13.818 14.629 13.478 15.0185L8.34959 11.8852C8.50857 11.3129 8.50857 10.7095 8.34959 10.1373L13.4789 7.00341C14.0365 7.63222 14.7945 8.06042 15.6318 8.21794C16.5124 8.3836 17.4246 8.2394 18.2072 7.81052C18.9898 7.38161 19.5926 6.69536 19.908 5.87264C20.2234 5.04984 20.2306 4.14434 19.9284 3.3168C19.6262 2.48934 19.0344 1.79394 18.2587 1.35311C17.4831 0.912314 16.5732 0.754208 15.6902 0.906397C14.8071 1.05859 14.0069 1.51144 13.4318 2.18562C12.8566 2.85987 12.5437 3.7119 12.5494 4.59083L12.5494 4.59148C12.5525 4.88598 12.593 5.17879 12.6696 5.46324L7.54029 8.59714C7.05826 8.04497 6.42094 7.64248 5.70673 7.44031C4.94987 7.22607 4.14363 7.24723 3.39958 7.5009C2.65549 7.75457 2.00998 8.22839 1.55293 8.85729C1.09583 9.48624 0.85 10.239 0.85 11.0112C0.85 11.7834 1.09583 12.5362 1.55293 13.1652C2.00998 13.7941 2.65549 14.2679 3.39958 14.5215C4.14363 14.7752 4.94987 14.7964 5.70673 14.5821C6.42094 14.38 7.05826 13.9775 7.54029 13.4253L12.6696 16.5592C12.593 16.8437 12.5525 17.1365 12.5494 17.431V17.4326C12.5494 18.1686 12.7727 18.8878 13.1907 19.4992C13.6087 20.1106 14.2025 20.5865 14.8965 20.8675C15.5905 21.1484 16.3539 21.2219 17.0904 21.0787C17.827 20.9355 18.504 20.582 19.0357 20.0624C19.5674 19.5427 19.9299 18.8802 20.0768 18.1585C20.2238 17.4367 20.1483 16.6885 19.8602 16.0089C19.5722 15.3292 19.0846 14.7488 18.4597 14.3408C17.8348 13.9327 17.1005 13.7152 16.3497 13.7152ZM16.3497 2.59941C16.7539 2.59941 17.1489 2.71658 17.4845 2.93574C17.82 3.15486 18.0811 3.46596 18.235 3.82928C18.389 4.19256 18.4292 4.5921 18.3508 4.97753C18.2723 5.36297 18.0786 5.71751 17.7935 5.99611C17.5084 6.27475 17.1448 6.46488 16.7483 6.54194C16.3519 6.61901 15.941 6.57943 15.5678 6.42834C15.1946 6.27727 14.8762 6.02167 14.6524 5.69437C14.4287 5.36713 14.3095 4.98276 14.3095 4.58986C14.3095 4.06309 14.5236 3.55717 14.9058 3.18361C15.2882 2.80994 15.8075 2.59941 16.3497 2.59941ZM4.66864 13.0017C4.26437 13.0017 3.86945 12.8845 3.53384 12.6653C3.19827 12.4462 2.93726 12.1351 2.78327 11.7718C2.6293 11.4085 2.58907 11.009 2.66751 10.6236C2.74597 10.2381 2.9397 9.88357 3.22478 9.60497C3.50989 9.32633 3.87356 9.1362 4.26998 9.05914C4.66641 8.98208 5.07728 9.02166 5.45051 9.17274C5.8237 9.32381 6.14212 9.57942 6.36589 9.90671C6.58963 10.234 6.70883 10.6183 6.70883 11.0112C6.70883 11.538 6.49474 12.0439 6.1125 12.4175C5.73014 12.7911 5.21083 13.0017 4.66864 13.0017ZM16.3497 19.423C15.9454 19.423 15.5505 19.3059 15.2149 19.0867C14.8793 18.8676 14.6183 18.5565 14.4643 18.1932C14.3103 17.8299 14.2701 17.4303 14.3485 17.0449C14.427 16.6595 14.6207 16.3049 14.9058 16.0263C15.1909 15.7477 15.5546 15.5576 15.951 15.4805C16.3474 15.4034 16.7583 15.443 17.1315 15.5941C17.5047 15.7452 17.8232 16.0008 18.0469 16.3281C18.2707 16.6553 18.3899 17.0397 18.3899 17.4326C18.3899 17.9594 18.1758 18.4653 17.7935 18.8388C17.4112 19.2125 16.8919 19.423 16.3497 19.423Z" fill="#F64646" stroke="#F64646" stroke-width="0.3"/>
</svg>
